<?xml version="1.0" encoding="UTF-8"?><svg id="_Слой_2" xmlns="http://www.w3.org/2000/svg" width="382.51" height="384.36" viewBox="0 0 382.51 384.36"><g id="_Слой_1-2"><path d="m242.92,244.04c-5.22,5.64-31.45,35.88-116.92,48.89-76.18,11.59-109.47,3.28-117.57-.03-8.11-3.31-9.31-9.95-4.02-11.8,8.09-2.84,36.67,2.62,115.86-9.55,79.18-12.17,99.1-34.89,108.45-39.08,2.18-.98,5.09-1.14,7.85-.63h.06c6.42,1.22,12.06,5.99,6.3,12.2Z" style="fill:#4c433d; stroke:#2e2a27; stroke-linecap:round; stroke-linejoin:round; stroke-width:2.39px;"/><path d="m98.63,287.07c-65.3,6.32-104.22,1.76-94.23-5.97,8.09-2.84,36.67,2.62,115.86-9.55,79.18-12.17,99.1-34.89,108.45-39.08,2.18-.98,5.09-1.14,7.85-.63h.06c22.73,5.85-51.48,46.86-137.99,55.23Z" style="fill:#9a846e; stroke:#2e2a27; stroke-linecap:round; stroke-linejoin:round; stroke-width:2.39px;"/><path d="m42.96,290.05c-1.24,0-8.36-.12-8.36-.12-1.93-2-5.6-9.96-5.6-9.96,22.5-46.58,28.1-81.43,29.42-81.75.58-.14,6.93.9,13.97,2.14,9.21,1.61,19.59,3.54,19.59,3.54-18.39,57.85-49.01,86.15-49.01,86.15Z" style="fill:#4c433d; stroke:#2e2a27; stroke-linecap:round; stroke-linejoin:round; stroke-width:2.39px;"/><path d="m34.6,289.93c-1.93-2-5.6-9.96-5.6-9.96,22.5-46.58,28.1-81.43,29.42-81.75.58-.14,6.93.9,13.97,2.14-12.99,47.69-37.79,89.57-37.79,89.57Z" style="fill:#9a846e; stroke:#2e2a27; stroke-linecap:round; stroke-linejoin:round; stroke-width:2.39px;"/><path d="m208.67,258.47s-7,3.08-9.83,4.21c0,0-4.82-1.85-11.48-7.94,0,0-18.76-27.41-15.91-66.28l13.06-5.69,17.08-7.44s-10.21,42.55,7.08,83.13Z" style="fill:#9a846e; stroke:#2e2a27; stroke-linecap:round; stroke-linejoin:round; stroke-width:2.39px;"/><path d="m198.84,262.69s-4.82-1.85-11.48-7.94c0,0-18.76-27.41-15.91-66.28l13.06-5.69c-8.94,50.66,14.33,79.91,14.33,79.91Z" style="fill:#9a846e; stroke:#2e2a27; stroke-linecap:round; stroke-linejoin:round; stroke-width:2.39px;"/><path d="m187.72,314.56s-2.08,9.27-2.85,10.72c-.76,1.44-12.4,4.63-12.4,4.63-5.64-1.21-124.01-66.76-124.01-66.76l3.63-8.03s9.49-.07,18.02-.93l117.58,60.36s.02.01.02.01Z" style="fill:#9a846e; stroke:#2e2a27; stroke-linecap:round; stroke-linejoin:round; stroke-width:2.39px;"/><path d="m187.72,314.56s-8.3,4.61-13.43,5.76c-4.47.99-122.2-65.21-122.2-65.21,0,0,9.49-.07,18.02-.93l117.58,60.36s.02.01.02.01Z" style="fill:#4c433d; stroke:#2e2a27; stroke-linecap:round; stroke-linejoin:round; stroke-width:2.39px;"/><path d="m379.76,291.24c-4.3,6.82-25.49,43.09-112.9,71-77.92,24.88-114.84,21.63-124.11,19.48-9.27-2.15-11.97-8.96-6.78-11.78,7.93-4.34,39.27-3.32,120.24-29.31,80.96-25.99,97.1-53.28,106.07-59.24,2.1-1.39,5.13-2.04,8.15-1.97h.06c7.04.21,14.01,4.31,9.27,11.83Z" style="fill:#4c433d; stroke:#2e2a27; stroke-linecap:round; stroke-linejoin:round; stroke-width:2.39px;"/><path d="m236.71,360.61c-67.57,17.51-109.63,19.16-100.75,9.33,7.93-4.34,39.27-3.32,120.24-29.31,80.96-25.99,97.1-53.28,106.07-59.24,2.1-1.39,5.13-2.04,8.15-1.97h.06c25.25,2.39-44.27,57.99-133.78,81.19Z" style="fill:#9a846e; stroke:#2e2a27; stroke-linecap:round; stroke-linejoin:round; stroke-width:2.39px;"/><path d="m178.58,372.99c-1.31.21-8.85,1.26-8.85,1.26-2.47-1.79-8.05-9.58-8.05-9.58,13.73-52.9,12.15-90.62,13.47-91.18.58-.25,7.51-.2,15.2-.06,10.07.17,21.43.49,21.43.49-6.98,64.11-33.21,99.07-33.21,99.07Z" style="fill:#4c433d; stroke:#2e2a27; stroke-linecap:round; stroke-linejoin:round; stroke-width:2.39px;"/><path d="m169.73,374.25c-2.47-1.79-8.05-9.58-8.05-9.58,13.73-52.9,12.15-90.62,13.47-91.18.58-.25,7.51-.2,15.2-.06-3.46,52.5-20.63,100.82-20.63,100.82Z" style="fill:#9a846e; stroke:#2e2a27; stroke-linecap:round; stroke-linejoin:round; stroke-width:2.39px;"/><path d="m346.71,312.16s-6.73,4.41-9.47,6.08c0,0-5.48-1.15-13.82-6.47,0,0-25.7-25.82-31.05-67.32l12.56-8.17,16.43-10.68s-1.63,46.61,25.34,86.57Z" style="fill:#4c433d; stroke:#2e2a27; stroke-linecap:round; stroke-linejoin:round; stroke-width:2.39px;"/><path d="m337.24,318.24s-5.48-1.15-13.82-6.47c0,0-25.7-25.82-31.05-67.32l12.56-8.17c1.46,54.95,32.31,81.97,32.31,81.97Z" style="fill:#9a846e; stroke:#2e2a27; stroke-linecap:round; stroke-linejoin:round; stroke-width:2.39px;"/><path d="m324.34,228.1c-9.66,14.93-105.59,54.9-134.55,55.52-1.22.03-2.32-.02-3.3-.14-2.15-.27-5.2-1-8.97-2.15-31.12-9.44-111.24-46.25-140.13-67.81-6.62-4.93-10.54-9.07-10.58-11.9-.85-56.92-.12-77.83,44.64-82.07,44.76-4.24,86.38,1.28,93.2-.57,6.81-1.84,13.1-17.96,5.02-36.75-8.08-18.79-20.35-39.33-2.42-62.26C185.18-2.97,221.55-.49,252.9,4.67c23.28,3.83,70.82,19.04,96.17,30.46,8.19,3.7,14.07,6.99,16.06,9.39.07.09.14.17.2.24s.11.15.16.23c.73,1.14,1.21,2.39,1.5,3.82,1.99,10.32-7.55,29.93-24.75,84.79-19.59,62.45-7.85,78.94-17.91,94.5Z" style="fill:#4c433d; stroke:#2e2a27; stroke-linecap:round; stroke-linejoin:round; stroke-width:2.39px;"/><path d="m170.3,61.88c6.19,28.74,23.91,54.61,1.27,61.53-22.64,6.91-106.93-8.82-123.7,11.44-12.69,15.33-10.47,78.68-10.47,78.68-6.62-4.93-10.54-9.07-10.58-11.9-.85-56.92-.12-77.83,44.64-82.07,44.76-4.24,86.38,1.28,93.2-.57,6.81-1.84,13.1-17.96,5.02-36.75-8.08-18.79-20.35-39.33-2.42-62.26C185.18-2.97,221.55-.49,252.9,4.67c-76.32-10.03-88.79,28.48-82.6,57.21Z" style="fill:#9a846e; stroke:#2e2a27; stroke-linecap:round; stroke-linejoin:round; stroke-width:2.39px;"/><path d="m216.82,3.72s48.06,5.03,114.1,34.54" style="fill:none; stroke:#2e2a27; stroke-linecap:round; stroke-linejoin:round; stroke-width:2.39px;"/><path d="m326.65,223.61c-.6,1.54-1.36,3.02-2.31,4.49-9.66,14.93-105.59,54.9-134.55,55.52-1.22.03-2.32-.02-3.3-.14-2.15-.27-5.2-1-8.97-2.15-31.12-9.44-111.24-46.25-140.13-67.81.27-17.82.06-24.49,39.77-34.26,39.69-9.76,110.63-10.7,110.63-10.7,0,0-1.19-34.64,14.87-90.22,16.08-55.58,35.05-70.84,61.47-64.46,13.21,3.21,43.73,10.54,75.36,22.87,2.97,1.16,5.95,2.36,8.93,3.61,6.24,2.62,12.47,5.42,18.56,8.44,1.99,10.32-7.55,29.93-24.75,84.79-17.73,56.54-9.79,75.4-15.59,90.01Z" style="fill:#515574; stroke:#2e2a27; stroke-linecap:round; stroke-linejoin:round; stroke-width:2.39px;"/><path d="m224.2,139.05c-.36,1.91-1.92,3.27-3.49,3.04-1.56-.23-2.54-1.96-2.18-3.87.36-1.91,1.92-3.27,3.49-3.04,1.56.23,2.54,1.96,2.18,3.87Z" style="fill:none; stroke:#2e2a27; stroke-linecap:round; stroke-linejoin:round; stroke-width:2.39px;"/><path d="m220.36,135.53s-3.74-2.55-4.16-8.86" style="fill:none; stroke:#2e2a27; stroke-linecap:round; stroke-linejoin:round; stroke-width:2.39px;"/><path d="m220.72,142.09s-6.08,1.38-8.65,6.4" style="fill:none; stroke:#2e2a27; stroke-linecap:round; stroke-linejoin:round; stroke-width:2.39px;"/><path d="m224.18,137.42s1.4-5.69,8.38-8.36" style="fill:none; stroke:#2e2a27; stroke-linecap:round; stroke-linejoin:round; stroke-width:2.39px;"/><path d="m223.26,141.02s-.34,8.21,6.42,10.06" style="fill:none; stroke:#2e2a27; stroke-linecap:round; stroke-linejoin:round; stroke-width:2.39px;"/><path d="m238.71,73.36c-.51,1.88-2.18,3.14-3.72,2.82-1.54-.32-2.37-2.11-1.86-3.99.51-1.88,2.18-3.14,3.72-2.82,1.54.32,2.37,2.11,1.86,3.99Z" style="fill:none; stroke:#2e2a27; stroke-linecap:round; stroke-linejoin:round; stroke-width:2.39px;"/><path d="m235.16,69.6s-3.52-2.78-3.44-9.1" style="fill:none; stroke:#2e2a27; stroke-linecap:round; stroke-linejoin:round; stroke-width:2.39px;"/><path d="m234.99,76.17s-6.18,1-9.14,5.85" style="fill:none; stroke:#2e2a27; stroke-linecap:round; stroke-linejoin:round; stroke-width:2.39px;"/><path d="m238.82,71.73s1.86-5.59,9.02-7.83" style="fill:none; stroke:#2e2a27; stroke-linecap:round; stroke-linejoin:round; stroke-width:2.39px;"/><path d="m237.62,75.26s-1,8.17,5.6,10.43" style="fill:none; stroke:#2e2a27; stroke-linecap:round; stroke-linejoin:round; stroke-width:2.39px;"/><path d="m277.31,82.94c-.51,1.88-2.18,3.14-3.72,2.82-1.54-.32-2.37-2.11-1.86-3.99.51-1.88,2.18-3.14,3.72-2.82,1.54.32,2.37,2.11,1.86,3.99Z" style="fill:none; stroke:#2e2a27; stroke-linecap:round; stroke-linejoin:round; stroke-width:2.39px;"/><path d="m273.76,79.18s-3.52-2.78-3.44-9.1" style="fill:none; stroke:#2e2a27; stroke-linecap:round; stroke-linejoin:round; stroke-width:2.39px;"/><path d="m273.59,85.75s-6.18,1-9.14,5.85" style="fill:none; stroke:#2e2a27; stroke-linecap:round; stroke-linejoin:round; stroke-width:2.39px;"/><path d="m277.42,81.31s1.86-5.59,9.02-7.83" style="fill:none; stroke:#2e2a27; stroke-linecap:round; stroke-linejoin:round; stroke-width:2.39px;"/><path d="m276.21,84.84s-1,8.17,5.6,10.43" style="fill:none; stroke:#2e2a27; stroke-linecap:round; stroke-linejoin:round; stroke-width:2.39px;"/><path d="m312.45,94.76c-.51,1.88-2.18,3.14-3.72,2.82-1.54-.32-2.37-2.11-1.86-3.99.51-1.88,2.18-3.14,3.72-2.82,1.54.32,2.37,2.11,1.86,3.99Z" style="fill:none; stroke:#2e2a27; stroke-linecap:round; stroke-linejoin:round; stroke-width:2.39px;"/><path d="m308.9,91.01s-3.52-2.78-3.44-9.1" style="fill:none; stroke:#2e2a27; stroke-linecap:round; stroke-linejoin:round; stroke-width:2.39px;"/><path d="m308.73,97.58s-6.18,1-9.14,5.85" style="fill:none; stroke:#2e2a27; stroke-linecap:round; stroke-linejoin:round; stroke-width:2.39px;"/><path d="m312.56,93.14s1.86-5.59,9.02-7.83" style="fill:none; stroke:#2e2a27; stroke-linecap:round; stroke-linejoin:round; stroke-width:2.39px;"/><path d="m311.35,96.67s-1,8.17,5.6,10.43" style="fill:none; stroke:#2e2a27; stroke-linecap:round; stroke-linejoin:round; stroke-width:2.39px;"/><path d="m259.12,150.9c-.51,1.88-2.18,3.14-3.72,2.82-1.54-.32-2.37-2.11-1.86-3.99.51-1.88,2.18-3.14,3.72-2.82,1.54.32,2.37,2.11,1.86,3.99Z" style="fill:none; stroke:#2e2a27; stroke-linecap:round; stroke-linejoin:round; stroke-width:2.39px;"/><path d="m255.57,147.14s-3.52-2.78-3.44-9.1" style="fill:none; stroke:#2e2a27; stroke-linecap:round; stroke-linejoin:round; stroke-width:2.39px;"/><path d="m255.4,153.72s-6.18,1-9.14,5.85" style="fill:none; stroke:#2e2a27; stroke-linecap:round; stroke-linejoin:round; stroke-width:2.39px;"/><path d="m259.23,149.27s1.86-5.59,9.02-7.83" style="fill:none; stroke:#2e2a27; stroke-linecap:round; stroke-linejoin:round; stroke-width:2.39px;"/><path d="m258.02,152.8s-1,8.17,5.6,10.43" style="fill:none; stroke:#2e2a27; stroke-linecap:round; stroke-linejoin:round; stroke-width:2.39px;"/><path d="m294.02,162.95c-.51,1.88-2.18,3.14-3.72,2.82-1.54-.32-2.37-2.11-1.86-3.99.51-1.88,2.18-3.14,3.72-2.82,1.54.32,2.37,2.11,1.86,3.99Z" style="fill:none; stroke:#2e2a27; stroke-linecap:round; stroke-linejoin:round; stroke-width:2.39px;"/><path d="m290.47,159.19s-3.52-2.78-3.44-9.1" style="fill:none; stroke:#2e2a27; stroke-linecap:round; stroke-linejoin:round; stroke-width:2.39px;"/><path d="m290.3,165.76s-6.18,1-9.14,5.85" style="fill:none; stroke:#2e2a27; stroke-linecap:round; stroke-linejoin:round; stroke-width:2.39px;"/><path d="m294.13,161.32s1.86-5.59,9.02-7.83" style="fill:none; stroke:#2e2a27; stroke-linecap:round; stroke-linejoin:round; stroke-width:2.39px;"/><path d="m292.92,164.85s-1,8.17,5.6,10.43" style="fill:none; stroke:#2e2a27; stroke-linecap:round; stroke-linejoin:round; stroke-width:2.39px;"/><path d="m326.65,223.61c-.6,1.54-1.36,3.02-2.31,4.49-9.66,14.93-105.59,54.9-134.55,55.52-1.22.03-2.32-.02-3.3-.14-2.15-.27-5.2-1-8.97-2.15-31.12-9.44-111.24-46.25-140.13-67.81.14-9.2.16-15.44,5.61-20.66,5.1-4.88,14.97-8.89,34.16-13.6,39.69-9.76,110.63-10.7,110.63-10.7,13.84,2.02,41.44,17.8,81.42,29.7,24.55,7.32,42.23,8.7,51.22,12.67.01,0,.01.01.02.01,5.63,2.49,7.84,6.02,6.19,12.66Z" style="fill:#515574; stroke:#2e2a27; stroke-linecap:round; stroke-linejoin:round; stroke-width:2.39px;"/><path d="m185.09,260.18c-36.2-6.82-150.42-56.84-142.09-67.3,0,0,0-.01,0-.02,5.1-4.88,14.97-8.89,34.16-13.6,39.69-9.76,110.63-10.7,110.63-10.7,13.84,2.02,41.44,17.8,81.42,29.7,24.55,7.32,42.23,8.7,51.22,12.67.01,0,.01.01.02.01,14.8,10.82-99.19,56.03-135.37,49.23Z" style="fill:#515574; stroke:#2e2a27; stroke-linecap:round; stroke-linejoin:round; stroke-width:2.39px;"/><path d="m324.34,228.1c-9.66,14.93-105.59,54.9-134.55,55.52-1.22.03-2.32-.02-3.3-.14-2.15-.27-5.2-1-8.97-2.15-.63-21.02,2.88-37.19,11.74-61.43,8.95-24.44,36.13-26.91,71.98-34.16,35.86-7.25,43.88-13.21,43.24-21.26-1.12-14.55-7.26-18.53-12.57-40.52-5.32-21.99-7.6-52.5,16.55-73.69,11.25-9.88,23.02-12.82,31.03-13.52,5.97-.52,9.84.19,9.84.19,6.37,1.47,13.64,5.13,15.79,7.57.07.09.14.17.2.24s.11.15.16.23c.73,1.14,1.21,2.39,1.5,3.82,1.99,10.32-7.55,29.93-24.75,84.79-19.59,62.45-7.85,78.94-17.91,94.5Z" style="fill:#9a846e; stroke:#2e2a27; stroke-linecap:round; stroke-linejoin:round; stroke-width:2.39px;"/><path d="m324.34,228.1c-9.66,14.93-105.59,54.9-134.55,55.52h0s1.05-47.67,15.71-69.3c7.95-11.72,32.13-17.66,74.83-26.93,42.7-9.27,30.73-29.99,28.15-37.15-4.11-11.47-22.3-46.05-5.95-80.01,11.12-23.08,30.76-30.23,45.91-29.86,7.13.17,13.27,2,17.06,4.62.73,1.14,1.21,2.39,1.5,3.82,1.99,10.32-7.55,29.93-24.75,84.79-19.59,62.45-7.85,78.94-17.91,94.5Z" style="fill:#4c433d; stroke:#2e2a27; stroke-linecap:round; stroke-linejoin:round; stroke-width:2.39px;"/><path d="m303.94,93.91c-.1,0-.13-.9-.11-2.54,0-.41.02-.87.03-1.37.06-.5.12-1.03.18-1.61.07-.58.14-1.2.22-1.86.08-.66.26-1.34.4-2.06.16-.72.3-1.48.5-2.26.23-.77.47-1.57.73-2.4.13-.41.26-.83.39-1.26.16-.42.33-.84.5-1.27.35-.85.67-1.75,1.07-2.64,1.6-3.55,3.81-7.25,6.54-10.82,5.49-7.16,12.2-12.05,17.29-14.92.62-.39,1.25-.7,1.85-.99.59-.29,1.15-.56,1.68-.82,1.03-.53,1.98-.88,2.74-1.17,1.53-.58,2.39-.86,2.43-.77.04.09-.75.54-2.2,1.26-.72.37-1.63.78-2.61,1.37-.5.28-1.04.58-1.6.9-.57.31-1.17.65-1.77,1.06-4.88,3.04-11.33,7.93-16.69,14.93-2.67,3.48-4.85,7.07-6.48,10.51-.41.86-.74,1.73-1.1,2.55-.18.42-.35.82-.52,1.23-.14.41-.28.82-.42,1.22-.27.8-.53,1.58-.79,2.32-.22.75-.39,1.49-.57,2.19-1.39,5.6-1.4,9.23-1.68,9.22Z" style="fill:#2e2a27; stroke-width:0px;"/><path d="m302.81,111.95c-.38-.03-.48-2.69-.22-5.95.26-3.26.79-5.87,1.17-5.84.38.03.48,2.69.22,5.95-.26,3.26-.79,5.87-1.17,5.84Z" style="fill:#2e2a27; stroke-width:0px;"/><path d="m314.82,147.31c-.36.13-2.64-5.46-5.09-12.47-2.45-7.01-4.13-12.8-3.77-12.93.36-.13,2.64,5.46,5.09,12.47,2.45,7.01,4.13,12.8,3.77,12.93Z" style="fill:#2e2a27; stroke-width:0px;"/><path d="m224.18,215.14c.15.22-3.19,2.17-7.43,6.6-2.1,2.22-4.41,5.06-6.48,8.52-2.1,3.45-4,7.49-5.45,11.92-2.92,8.89-3.73,17.43-4.35,23.55-.56,6.15-.87,9.97-1.08,9.95-.1,0-.14-.96-.13-2.7,0-1.73.06-4.24.23-7.33.37-6.16,1.03-14.82,4.01-23.91,1.48-4.53,3.47-8.67,5.68-12.16,2.19-3.52,4.64-6.36,6.87-8.54,2.25-2.17,4.29-3.68,5.75-4.63,1.47-.93,2.34-1.35,2.38-1.28Z" style="fill:#2e2a27; stroke-width:0px;"/><path d="m245.72,204.72c.1.37-2.86,1.52-6.61,2.56-3.75,1.04-6.88,1.59-6.98,1.21-.1-.37,2.86-1.52,6.61-2.56,3.75-1.04,6.88-1.59,6.98-1.21Z" style="fill:#2e2a27; stroke-width:0px;"/><path d="m311.57,183.12c.09.14-2.27,1.88-6.44,4.12-2.07,1.14-4.63,2.33-7.52,3.54-2.9,1.17-6.15,2.32-9.63,3.3-6.96,1.96-13.48,2.85-18.19,3.14-4.72.29-7.64.09-7.64-.08,0-.22,2.9-.36,7.55-.9,4.65-.54,11.04-1.57,17.9-3.5,3.43-.97,6.64-2.07,9.53-3.16,2.87-1.13,5.44-2.21,7.55-3.23,4.23-1.99,6.76-3.43,6.88-3.24Z" style="fill:#2e2a27; stroke-width:0px;"/><path d="m316.76,169.05c-.32-.27,1.78-2.7,2.43-6.38.72-3.67-.49-6.65-.1-6.8.16-.07.69.58,1.13,1.85.45,1.26.71,3.17.34,5.21-.37,2.04-1.29,3.72-2.12,4.76-.84,1.04-1.55,1.49-1.68,1.37Z" style="fill:#2e2a27; stroke-width:0px;"/><path d="m348.91,90.69c-.18-.09.93-2.65,2.59-6.83,1.66-4.18,3.82-10,5.73-16.59.92-3.29,1.89-6.45,2.21-9.31.16-1.43.12-2.79-.14-4.03-.24-1.23-.74-2.29-1.33-3.19-1.2-1.79-2.74-2.77-3.85-3.25-1.13-.47-1.83-.56-1.82-.67,0-.07.73-.18,2,.16,1.25.35,3.03,1.28,4.47,3.19.7.95,1.33,2.14,1.65,3.51.33,1.36.42,2.86.29,4.4-.12,1.54-.45,3.11-.84,4.7-.4,1.59-.83,3.22-1.31,4.88-1.93,6.65-4.26,12.48-6.17,16.58-1.91,4.11-3.33,6.52-3.5,6.44Z" style="fill:#2e2a27; stroke-width:0px;"/><path d="m341.67,113.65c-.37-.11.11-2.76,1.07-5.91.96-3.15,2.04-5.62,2.41-5.5.37.11-.11,2.76-1.07,5.91-.96,3.15-2.04,5.62-2.41,5.5Z" style="fill:#2e2a27; stroke-width:0px;"/><path d="m304.77,234.7c.05.08-.9.77-2.66,1.94-.88.59-1.97,1.29-3.26,2.06-1.28.78-2.74,1.68-4.4,2.6-3.27,1.9-7.27,3.99-11.77,6.19-4.52,2.16-9.56,4.39-14.94,6.49-10.78,4.2-20.87,7.06-28.24,8.76-3.69.85-6.69,1.46-8.78,1.79-2.09.35-3.25.49-3.27.4s1.11-.42,3.16-.93c2.05-.5,5.01-1.25,8.65-2.22,7.28-1.94,17.26-4.93,27.98-9.1,5.35-2.09,10.37-4.27,14.9-6.36,4.5-2.13,8.53-4.11,11.85-5.89,1.68-.86,3.16-1.7,4.48-2.41,1.32-.71,2.45-1.34,3.37-1.85,1.84-1.03,2.89-1.55,2.94-1.47Z" style="fill:#2e2a27; stroke-width:0px;"/><path d="m311.53,223.93c-.08-.2,1-.74,2.56-1.79,1.55-1.07,3.59-2.72,5.25-5.03.82-1.15,1.49-2.33,1.98-3.46.46-1.14.82-2.19,1-3.11.4-1.83.41-3.03.63-3.05.16-.02.51,1.19.34,3.2-.06,1.01-.35,2.18-.78,3.44-.46,1.25-1.15,2.56-2.04,3.81-1.8,2.51-4.11,4.17-5.87,5.07-1.79.89-3.01,1.1-3.07.94Z" style="fill:#2e2a27; stroke-width:0px;"/><path d="m49.64,184.48c-.09.02-.31-.82-.62-2.36-.14-.77-.27-1.72-.43-2.82-.1-1.11-.27-2.36-.33-3.76-.37-5.58,0-13.43,2.24-21.73,1.09-4.15,2.52-7.98,4.07-11.36.77-1.69,1.63-3.28,2.64-4.64,1.01-1.36,2.16-2.48,3.39-3.28,2.46-1.59,4.9-1.91,6.49-1.77,1.61.15,2.39.65,2.36.71-.04.12-.86-.19-2.38-.16-1.49.02-3.73.49-5.91,2.04-1.08.77-2.11,1.84-3.01,3.14-.9,1.3-1.68,2.82-2.4,4.49-1.46,3.34-2.83,7.12-3.9,11.19-2.18,8.14-2.71,15.81-2.6,21.33.07,5.53.64,8.94.4,8.98Z" style="fill:#2e2a27; stroke-width:0px;"/><path d="m60.01,175.86c-.17.05-.76-1.13-1.27-3.2-.52-2.06-.87-5.02-.59-8.27.29-3.25,1.15-6.11,2-8.05.86-1.95,1.63-3.02,1.79-2.94.4.18-1.89,4.86-2.4,11.11-.58,6.24.89,11.24.47,11.35Z" style="fill:#2e2a27; stroke-width:0px;"/><path d="m67.87,171.38c-.17.06-.62-.55-1-1.71-.39-1.15-.65-2.85-.43-4.71.21-1.86.85-3.46,1.47-4.49.63-1.04,1.19-1.55,1.34-1.45.35.22-1.07,2.72-1.43,6.1-.42,3.38.44,6.12.05,6.26Z" style="fill:#2e2a27; stroke-width:0px;"/><path d="m175.13,164.83c-.38-.04.1-8.72,1.09-19.4.99-10.68,2.1-19.31,2.48-19.27.38.04-.1,8.72-1.09,19.4-.99,10.68-2.1,19.31-2.48,19.27Z" style="fill:#2e2a27; stroke-width:0px;"/><path d="m167.17,161.42c-.38-.03-.39-4.32-.02-9.59.37-5.27.98-9.52,1.37-9.49.38.03.39,4.32.02,9.59s-.98,9.52-1.37,9.49Z" style="fill:#2e2a27; stroke-width:0px;"/><path d="m156.25,163.22c-.38-.05-.27-3.34.25-7.35.52-4.01,1.25-7.22,1.63-7.17.38.05.27,3.34-.25,7.35s-1.25,7.22-1.63,7.17Z" style="fill:#2e2a27; stroke-width:0px;"/><path d="m146.88,163.01c-.38,0-.64-2.55-.56-5.68.07-3.13.44-5.66.83-5.65s.64,2.55.56,5.68-.44,5.66-.83,5.65Z" style="fill:#2e2a27; stroke-width:0px;"/><path d="m191.91,80.32c-.1,0-.1-1.04-.03-2.9.02-.47.04-.99.07-1.55.06-.57.12-1.18.19-1.84.14-1.32.29-2.83.61-4.47.14-.82.29-1.69.45-2.59.2-.89.42-1.82.64-2.78.4-1.93,1.06-3.93,1.66-6.06,1.38-4.21,3.19-8.74,5.51-13.31,4.65-9.13,10.45-16.46,15.04-21.3,1.11-1.25,2.25-2.25,3.19-3.19.94-.94,1.81-1.68,2.52-2.28,1.42-1.21,2.24-1.84,2.3-1.77.17.19-2.9,2.94-7.28,7.9-4.36,4.97-9.95,12.28-14.53,21.27-2.28,4.5-4.1,8.95-5.53,13.07-.62,2.09-1.32,4.05-1.76,5.94-.24.94-.48,1.85-.71,2.72-.19.88-.36,1.73-.53,2.54-1.31,6.49-1.56,10.61-1.81,10.59Z" style="fill:#2e2a27; stroke-width:0px;"/><path d="m201,36.26c-.16-.03-.1-1.6.64-4.01.35-1.21.94-2.6,1.69-4.09.78-1.48,1.77-3.03,2.97-4.54,2.4-3.03,5.18-5.21,7.31-6.53,2.14-1.32,3.61-1.84,3.69-1.69.1.19-1.19,1.01-3.13,2.5-1.93,1.49-4.48,3.7-6.78,6.59-1.15,1.45-2.13,2.91-2.93,4.29-.77,1.4-1.44,2.68-1.89,3.81-.94,2.24-1.35,3.72-1.57,3.67Z" style="fill:#2e2a27; stroke-width:0px;"/><path d="m190,9.07c-.01.38-2.18.63-4.84.55s-4.81-.45-4.8-.84c.01-.39,2.18-.63,4.84-.56s4.81.45,4.8.84Z" style="fill:#2e2a27; stroke-width:0px;"/><path d="m182.66,13.7c-.03.38-1.91.55-4.19.37-2.29-.18-4.12-.63-4.09-1.02.03-.38,1.91-.55,4.19-.37,2.29.18,4.12.63,4.09,1.02Z" style="fill:#2e2a27; stroke-width:0px;"/><path d="m177.32,18.03c-.06.38-1.79.44-3.88.14-2.08-.3-3.73-.86-3.67-1.24.06-.38,1.79-.44,3.88-.14,2.08.3,3.73.86,3.67,1.24Z" style="fill:#2e2a27; stroke-width:0px;"/><path d="m173.55,24.3c-.03.38-2.34.49-5.15.23-2.81-.25-5.06-.77-5.02-1.15.03-.38,2.34-.49,5.15-.23,2.81.25,5.06.77,5.02,1.15Z" style="fill:#2e2a27; stroke-width:0px;"/><path d="m168.84,62.71c-.02.38-1.47.61-3.24.5-1.77-.11-3.18-.51-3.15-.9.02-.38,1.47-.61,3.24-.5,1.77.11,3.18.51,3.15.9Z" style="fill:#2e2a27; stroke-width:0px;"/><path d="m168.62,67.39c-.01.38-1.18.66-2.59.6s-2.56-.41-2.54-.79c.01-.38,1.18-.66,2.59-.6s2.56.41,2.54.79Z" style="fill:#2e2a27; stroke-width:0px;"/><path d="m170.41,74.96c.05.38-1.24.88-2.89,1.11-1.65.23-3.03.11-3.08-.28-.05-.38,1.24-.88,2.89-1.11,1.65-.23,3.03-.11,3.08.28Z" style="fill:#2e2a27; stroke-width:0px;"/><path d="m176.39,80.94c0,.39-1.74.7-3.88.7s-3.88-.31-3.88-.7c0-.39,1.74-.7,3.88-.7s3.88.31,3.88.7Z" style="fill:#2e2a27; stroke-width:0px;"/><path d="m177.05,94.26c-.14.36-1.33.23-2.66-.29-1.33-.52-2.29-1.23-2.15-1.59.14-.36,1.33-.23,2.66.29,1.33.52,2.29,1.23,2.15,1.59Z" style="fill:#2e2a27; stroke-width:0px;"/><path d="m34.05,197.57c-.1.37-2.11.14-4.49-.52-2.37-.66-4.21-1.5-4.11-1.87.1-.37,2.11-.14,4.49.52,2.37.66,4.21,1.5,4.11,1.87Z" style="fill:#2e2a27; stroke-width:0px;"/><path d="m35.02,185.71c-.11.37-1.98.14-4.17-.51-2.19-.65-3.89-1.48-3.78-1.85.11-.37,1.98-.14,4.17.51,2.19.65,3.89,1.48,3.78,1.85Z" style="fill:#2e2a27; stroke-width:0px;"/><path d="m35.09,171.6c-.08.38-2.37.23-5.12-.33-2.75-.56-4.92-1.32-4.84-1.7.08-.38,2.37-.23,5.12.33,2.75.56,4.92,1.32,4.84,1.7Z" style="fill:#2e2a27; stroke-width:0px;"/><path d="m38.13,162.39c-.06.38-2.49.34-5.45-.09-2.95-.43-5.3-1.09-5.25-1.47.06-.38,2.49-.34,5.45.09,2.95.43,5.3,1.09,5.25,1.47Z" style="fill:#2e2a27; stroke-width:0px;"/><path d="m38.17,148.65c-.13.36-2,.02-4.17-.77-2.17-.79-3.83-1.72-3.69-2.08.13-.36,2-.02,4.17.77,2.17.79,3.83,1.72,3.69,2.08Z" style="fill:#2e2a27; stroke-width:0px;"/><path d="m115.23,123.45c-.14.36-3.21-.46-6.86-1.82s-6.51-2.77-6.37-3.13c.14-.36,3.21.46,6.86,1.82,3.65,1.37,6.51,2.77,6.37,3.13Z" style="fill:#2e2a27; stroke-width:0px;"/><path d="m126.01,121.74c-.11.37-2.66-.1-5.69-1.04-3.03-.94-5.39-2.01-5.28-2.37.11-.37,2.66.1,5.69,1.04,3.03.94,5.39,2.01,5.28,2.37Z" style="fill:#2e2a27; stroke-width:0px;"/><path d="m141.17,123.5c-.12.36-2.81-.23-5.99-1.32-3.18-1.09-5.66-2.27-5.54-2.64.13-.36,2.81.23,5.99,1.32,3.18,1.09,5.66,2.27,5.54,2.64Z" style="fill:#2e2a27; stroke-width:0px;"/><path d="m155.53,122.79c-.09.37-2.52.08-5.42-.65-2.9-.73-5.17-1.63-5.07-2.01.09-.37,2.52-.08,5.42.65,2.9.73,5.17,1.63,5.07,2.01Z" style="fill:#2e2a27; stroke-width:0px;"/><path d="m188.29,277.4c-.04.38-2.77.42-6.1.09s-6-.92-5.96-1.3c.04-.38,2.77-.42,6.1-.09,3.33.34,6,.92,5.96,1.3Z" style="fill:#2e2a27; stroke-width:0px;"/><path d="m189.36,268.43c-.08.38-2.23.26-4.81-.26-2.58-.52-4.61-1.25-4.53-1.63.08-.38,2.23-.26,4.81.26,2.58.52,4.61,1.25,4.53,1.63Z" style="fill:#2e2a27; stroke-width:0px;"/><path d="m189.42,257.78c-.06.38-2.21.38-4.82,0-2.61-.38-4.67-1-4.62-1.38.06-.38,2.21-.38,4.82,0,2.61.38,4.67,1,4.62,1.38Z" style="fill:#2e2a27; stroke-width:0px;"/><path d="m190.71,251.07c-.11.37-2.66-.08-5.7-1.01-3.04-.92-5.41-1.97-5.29-2.34.11-.37,2.66.08,5.7,1.01,3.04.92,5.41,1.97,5.29,2.34Z" style="fill:#2e2a27; stroke-width:0px;"/><path d="m196.19,239.31c-.12.37-2.66-.12-5.68-1.09-3.02-.97-5.37-2.05-5.25-2.41.12-.37,2.66.12,5.68,1.08,3.02.97,5.37,2.05,5.25,2.41Z" style="fill:#2e2a27; stroke-width:0px;"/><path d="m265.74,189.34c-.04.38-2.63.44-5.78.12-3.15-.32-5.68-.89-5.64-1.27.04-.38,2.63-.44,5.78-.12,3.15.32,5.68.89,5.64,1.27Z" style="fill:#2e2a27; stroke-width:0px;"/><path d="m276.75,185.84c-.04.38-2.63.44-5.78.12-3.15-.32-5.68-.88-5.64-1.27.04-.38,2.63-.44,5.78-.12,3.15.32,5.68.88,5.64,1.27Z" style="fill:#2e2a27; stroke-width:0px;"/><path d="m291.42,183.43c-.04.38-2.77.42-6.1.09-3.33-.34-6-.92-5.96-1.3.04-.38,2.77-.42,6.1-.09,3.33.34,6,.92,5.96,1.3Z" style="fill:#2e2a27; stroke-width:0px;"/><path d="m298.95,126.7c-.06.38-1.51.48-3.25.23-1.74-.25-3.1-.77-3.04-1.15.06-.38,1.51-.48,3.25-.23,1.74.25,3.1.77,3.04,1.15Z" style="fill:#2e2a27; stroke-width:0px;"/><path d="m296.67,118.33c-.12.37-1.71.18-3.56-.41s-3.25-1.37-3.14-1.74c.12-.37,1.71-.18,3.56.41,1.85.59,3.25,1.37,3.14,1.74Z" style="fill:#2e2a27; stroke-width:0px;"/><path d="m296.85,110.49c-.09.37-1.55.35-3.25-.06-1.71-.41-3.02-1.04-2.93-1.41.09-.37,1.55-.35,3.25.06s3.02,1.04,2.93,1.41Z" style="fill:#2e2a27; stroke-width:0px;"/><path d="m295.01,103.31c-.18.34-2.03-.27-4.14-1.37-2.11-1.1-3.68-2.26-3.5-2.6.18-.34,2.03.27,4.14,1.37,2.11,1.1,3.68,2.26,3.5,2.6Z" style="fill:#2e2a27; stroke-width:0px;"/><path d="m323.15,46.75c-.06.38-1.51.48-3.25.23s-3.1-.77-3.04-1.15c.06-.38,1.51-.48,3.25-.23,1.74.25,3.1.77,3.04,1.15Z" style="fill:#2e2a27; stroke-width:0px;"/><path d="m332.68,40.58c0,.39-1.73.71-3.87.72-2.14.01-3.88-.29-3.88-.67,0-.39,1.73-.71,3.87-.72s3.88.29,3.88.67Z" style="fill:#2e2a27; stroke-width:0px;"/><path d="m341.33,39.35c-.11.37-2.11.12-4.48-.56-2.37-.68-4.2-1.53-4.09-1.9.11-.37,2.11-.12,4.48.56,2.37.68,4.2,1.53,4.09,1.9Z" style="fill:#2e2a27; stroke-width:0px;"/><path d="m352.51,38.77c-.1.37-1.84.21-3.88-.36-2.04-.57-3.61-1.34-3.51-1.71.1-.37,1.84-.21,3.88.36s3.61,1.34,3.51,1.71Z" style="fill:#2e2a27; stroke-width:0px;"/><path d="m328.28,36.7c0,.43-5.58.51-12.04,2.56-6.49,1.97-11.07,5.19-11.31,4.84-.11-.14.9-1.14,2.81-2.41,1.9-1.27,4.74-2.73,8.08-3.77,3.34-1.05,6.5-1.47,8.78-1.54,2.28-.08,3.69.14,3.68.31Z" style="fill:#2e2a27; stroke-width:0px;"/><path d="m323.45,31.35c.03.43-6.12.81-13.21,3.26-7.12,2.36-12.16,5.91-12.4,5.56-.1-.14,1.02-1.22,3.12-2.61,2.09-1.39,5.19-3.03,8.83-4.27,3.64-1.24,7.09-1.84,9.59-2.04,2.51-.2,4.06-.07,4.07.11Z" style="fill:#2e2a27; stroke-width:0px;"/><path d="m311.08,28.53c-.02.43-4.81.04-10.24,1.93-1.35.46-2.6,1-3.71,1.55-1.09.58-2.07,1.12-2.85,1.65-1.57,1.03-2.49,1.79-2.64,1.64-.13-.12.56-1.14,2.05-2.43.74-.66,1.71-1.32,2.83-1.99,1.14-.64,2.44-1.25,3.87-1.74,2.86-.98,5.61-1.24,7.56-1.18,1.97.07,3.14.4,3.12.57Z" style="fill:#2e2a27; stroke-width:0px;"/><path d="m298.19,24.86c0,.42-4.17.56-8.92,2.23-4.79,1.6-8.08,4.17-8.34,3.85-.12-.14.56-.97,1.93-2.03,1.36-1.06,3.45-2.28,5.95-3.14,2.5-.87,4.89-1.21,6.6-1.25,1.72-.04,2.78.16,2.78.34Z" style="fill:#2e2a27; stroke-width:0px;"/><path d="m291.48,21.11c.1.37-4.37,1.95-10,3.52s-10.27,2.55-10.38,2.18c-.1-.37,4.37-1.95,10-3.52,5.63-1.58,10.27-2.55,10.38-2.18Z" style="fill:#2e2a27; stroke-width:0px;"/><path d="m262.11,17.42c-.07.42-5.33-.58-11.69.49-6.39.97-11.02,3.65-11.22,3.28-.09-.15.95-1.03,2.89-2.04,1.93-1.02,4.8-2.08,8.11-2.62,3.31-.53,6.37-.43,8.52-.1,2.16.33,3.43.81,3.4.98Z" style="fill:#2e2a27; stroke-width:0px;"/><path d="m195.1,129.11c-.1-.01-.06-.86.09-2.39.14-1.53.43-3.74.88-6.45.89-5.42,2.5-12.87,4.99-20.89,2.49-8.02,5.38-15.07,7.7-20.04,1.16-2.49,2.16-4.48,2.91-5.82.74-1.35,1.19-2.07,1.28-2.03.19.09-1.2,3.19-3.28,8.24-2.08,5.05-4.8,12.1-7.27,20.06-2.47,7.96-4.23,15.31-5.35,20.66-1.13,5.35-1.72,8.69-1.93,8.66Z" style="fill:#2e2a27; stroke-width:0px;"/><path d="m195.57,146.23c-.38-.05-.43-2.21-.11-4.83.32-2.62.89-4.7,1.28-4.66.38.05.43,2.21.11,4.83s-.89,4.7-1.28,4.66Z" style="fill:#2e2a27; stroke-width:0px;"/><path d="m248.79,183.45c-.15.36-8.68-2.87-19.05-7.21-10.37-4.34-18.66-8.14-18.51-8.5.15-.36,8.68,2.87,19.05,7.21,10.37,4.34,18.66,8.14,18.51,8.5Z" style="fill:#2e2a27; stroke-width:0px;"/><path d="m55.79,195.66c-.15-.1.08-.82.8-1.78.71-.96,1.95-2.12,3.57-2.99,1.61-.88,3.25-1.29,4.43-1.4,1.19-.11,1.92.03,1.94.21.03.41-2.76.79-5.7,2.41-2.98,1.56-4.7,3.77-5.04,3.55Z" style="fill:#2e2a27; stroke-width:0px;"/><path d="m103.81,224.13c-.18.34-10.19-4.44-22.37-10.68-12.18-6.24-21.91-11.58-21.73-11.92.18-.34,10.19,4.44,22.37,10.68s21.91,11.58,21.73,11.92Z" style="fill:#2e2a27; stroke-width:0px;"/><path d="m128.98,232.39c-.17.35-3.35-.84-7.11-2.65s-6.68-3.56-6.51-3.9c.17-.35,3.35.84,7.11,2.65,3.76,1.81,6.68,3.56,6.51,3.9Z" style="fill:#2e2a27; stroke-width:0px;"/><path d="m49.61,220.91c-.14.11-.89-.55-1.77-1.89-.88-1.34-1.82-3.4-2.22-5.84-.4-2.44-.17-4.71.26-6.25.42-1.55.95-2.41,1.11-2.35.41.12-.79,3.83,0,8.37.72,4.55,2.97,7.72,2.62,7.96Z" style="fill:#2e2a27; stroke-width:0px;"/><path d="m60.09,225.92c-.17.06-.61-.6-.99-1.81-.38-1.2-.62-2.98-.39-4.91.23-1.93.89-3.59,1.53-4.68.64-1.09,1.22-1.63,1.37-1.53.35.22-1.11,2.84-1.52,6.37-.46,3.53.38,6.41,0,6.55Z" style="fill:#2e2a27; stroke-width:0px;"/><path d="m170.24,276.66c-.39,0-.64-3.95-.58-8.8.07-4.86.43-8.79.82-8.79.39,0,.64,3.95.58,8.8-.07,4.86-.43,8.79-.82,8.79Z" style="fill:#2e2a27; stroke-width:0px;"/><path d="m158.29,271.44c-.38-.05-.24-3.83.32-8.46.56-4.63,1.32-8.34,1.7-8.29.38.05.24,3.83-.32,8.46-.56,4.63-1.32,8.34-1.7,8.29Z" style="fill:#2e2a27; stroke-width:0px;"/><path d="m147.69,267.2c-.17.05-.61-.8-.92-2.3-.32-1.49-.44-3.65-.01-5.96.43-2.31,1.31-4.28,2.12-5.57.81-1.29,1.51-1.95,1.65-1.85.35.23-1.62,3.34-2.4,7.66-.84,4.32-.03,7.91-.44,8.01Z" style="fill:#2e2a27; stroke-width:0px;"/><path d="m136.25,261.38c-.38-.06-.15-3.34.52-7.32s1.52-7.16,1.9-7.09c.38.06.15,3.34-.52,7.32-.67,3.98-1.52,7.16-1.9,7.09Z" style="fill:#2e2a27; stroke-width:0px;"/><path d="m126.32,256.5c-.17.06-.63-.58-1.01-1.79-.39-1.2-.63-2.99-.35-4.92.28-1.93,1-3.58,1.69-4.63.69-1.06,1.31-1.56,1.45-1.46.34.24-1.29,2.77-1.76,6.29-.54,3.51.38,6.38-.01,6.52Z" style="fill:#2e2a27; stroke-width:0px;"/><path d="m164.63,176.66c.04.38-12.63,1.98-28.3,3.56-15.67,1.58-28.4,2.56-28.44,2.17-.04-.38,12.63-1.98,28.3-3.56,15.67-1.58,28.4-2.56,28.44-2.17Z" style="fill:#2e2a27; stroke-width:0px;"/><path d="m188.04,176.36c-.03.38-3.19.49-7.07.24s-7-.77-6.98-1.16c.03-.38,3.19-.49,7.07-.24,3.88.25,7,.77,6.98,1.16Z" style="fill:#2e2a27; stroke-width:0px;"/><path d="m171.2,247.54c-.15.36-6.25-1.82-13.63-4.86-7.38-3.04-13.24-5.8-13.1-6.15.15-.36,6.25,1.82,13.63,4.86,7.38,3.04,13.24,5.8,13.1,6.15Z" style="fill:#2e2a27; stroke-width:0px;"/><path d="m176.47,240.01c-.13.36-3.88-.7-8.36-2.37-4.48-1.67-8.01-3.32-7.87-3.68.13-.36,3.88.7,8.36,2.37,4.48,1.67,8.01,3.32,7.87,3.68Z" style="fill:#2e2a27; stroke-width:0px;"/><path d="m182.54,232.8c-.09.37-2.93.01-6.34-.81-3.41-.82-6.11-1.79-6.02-2.17.09-.37,2.93-.01,6.34.81s6.11,1.79,6.02,2.17Z" style="fill:#2e2a27; stroke-width:0px;"/><path d="m217.22,257.87c-.14.05-1.01-1.77-1.57-4.97-.3-1.59-.42-3.53-.39-5.67.09-2.14.4-4.5,1.03-6.9,1.28-4.81,3.62-8.74,5.62-11.26,2.02-2.53,3.61-3.75,3.72-3.64.17.16-1.16,1.62-2.92,4.22-1.75,2.6-3.84,6.43-5.07,11.04-.6,2.3-.94,4.55-1.1,6.6-.1,2.06-.09,3.92.08,5.48.3,3.12.82,5.03.59,5.09Z" style="fill:#2e2a27; stroke-width:0px;"/><path d="m232.61,253.43c-.15.05-.87-1.37-1.39-3.87-.28-1.25-.43-2.77-.47-4.46,0-1.69.15-3.56.53-5.48.79-3.85,2.39-7.07,3.82-9.18,1.44-2.11,2.61-3.17,2.74-3.07.17.14-.72,1.41-1.89,3.58-1.17,2.17-2.54,5.29-3.3,8.95-.37,1.83-.55,3.6-.61,5.21-.03,1.62.02,3.08.16,4.3.26,2.45.63,3.96.42,4.02Z" style="fill:#2e2a27; stroke-width:0px;"/><path d="m246.72,248.58c-.15.07-.87-.98-1.49-2.93-.32-.97-.55-2.17-.69-3.53-.1-1.35-.07-2.86.16-4.41.49-3.11,1.75-5.73,2.9-7.4,1.16-1.68,2.15-2.49,2.27-2.38.17.14-.53,1.16-1.43,2.88-.89,1.72-1.91,4.21-2.37,7.11-.22,1.45-.28,2.84-.26,4.12.06,1.27.18,2.42.36,3.37.35,1.91.73,3.08.53,3.17Z" style="fill:#2e2a27; stroke-width:0px;"/><path d="m259.39,244.43c-.15.09-.75-.57-1.34-1.86-.58-1.28-1.07-3.24-.96-5.43.12-2.18.81-4.08,1.51-5.3.71-1.23,1.37-1.82,1.51-1.72.36.22-1.45,3.11-1.63,7.09-.24,3.99,1.28,7.03.91,7.22Z" style="fill:#2e2a27; stroke-width:0px;"/><path d="m306.54,254.02c.04.38-2.57.98-5.84,1.33-3.26.35-5.94.33-5.99-.05-.04-.38,2.57-.98,5.84-1.33s5.94-.33,5.99.05Z" style="fill:#2e2a27; stroke-width:0px;"/><path d="m305.16,261.08c.05.38-1.84.92-4.22,1.2s-4.33.2-4.38-.19c-.05-.38,1.84-.92,4.22-1.2,2.37-.28,4.33-.2,4.38.19Z" style="fill:#2e2a27; stroke-width:0px;"/><path d="m306.73,269.83c-.06.38-1.65.46-3.56.18-1.91-.28-3.41-.81-3.36-1.2.06-.38,1.65-.46,3.56-.18,1.91.28,3.41.81,3.36,1.2Z" style="fill:#2e2a27; stroke-width:0px;"/><path d="m311.88,276.7c-.02.38-2.61.58-5.8.44-3.18-.14-5.75-.57-5.74-.96.02-.38,2.61-.58,5.8-.44,3.18.14,5.75.57,5.74.96Z" style="fill:#2e2a27; stroke-width:0px;"/><path d="m327.71,305.84c-.06.38-2.21.38-4.82,0-2.61-.38-4.67-1-4.62-1.38.06-.38,2.21-.38,4.82,0s4.67,1,4.62,1.38Z" style="fill:#2e2a27; stroke-width:0px;"/><path d="m320.58,299.02c-.01.38-1.17.66-2.59.61-1.42-.05-2.56-.4-2.54-.79.01-.38,1.17-.66,2.59-.61,1.42.05,2.56.4,2.54.79Z" style="fill:#2e2a27; stroke-width:0px;"/><path d="m38.4,280.06c-.26.29-1.83-.7-3.5-2.2-1.68-1.5-2.83-2.95-2.57-3.24s1.83.7,3.5,2.2c1.68,1.5,2.83,2.95,2.57,3.24Z" style="fill:#2e2a27; stroke-width:0px;"/><path d="m41.59,270.27c-.2.33-1.79-.25-3.55-1.29-1.77-1.04-3.04-2.16-2.84-2.49.2-.33,1.79.25,3.55,1.29s3.04,2.16,2.84,2.49Z" style="fill:#2e2a27; stroke-width:0px;"/><path d="m46.33,262.41c-.24.3-1.95-.7-3.8-2.22-1.85-1.53-3.16-3-2.91-3.3.24-.3,1.95.7,3.8,2.22,1.85,1.53,3.16,3,2.91,3.3Z" style="fill:#2e2a27; stroke-width:0px;"/><path d="m55.04,244.27c-.28.27-2.07-1.15-4-3.16s-3.27-3.86-3-4.13c.28-.27,2.07,1.15,4,3.16s3.27,3.86,3,4.13Z" style="fill:#2e2a27; stroke-width:0px;"/><path d="m60.09,234.7c-.2.33-2.3-.6-4.68-2.07-2.38-1.47-4.15-2.93-3.95-3.26.2-.33,2.3.6,4.68,2.07,2.38,1.47,4.15,2.93,3.95,3.26Z" style="fill:#2e2a27; stroke-width:0px;"/><path d="m185.58,291.82c-.14.36-2.81-.38-5.95-1.65s-5.58-2.58-5.43-2.94c.14-.36,2.81.38,5.95,1.65,3.14,1.27,5.58,2.58,5.43,2.94Z" style="fill:#2e2a27; stroke-width:0px;"/><path d="m184.22,299.37c-.16.35-2.69-.48-5.64-1.85-2.96-1.37-5.22-2.76-5.06-3.11.16-.35,2.69.48,5.64,1.85,2.96,1.37,5.22,2.76,5.06,3.11Z" style="fill:#2e2a27; stroke-width:0px;"/><path d="m185,305.27c-.15.35-2.54-.35-5.34-1.57s-4.93-2.5-4.78-2.85c.15-.35,2.54.35,5.34,1.57,2.79,1.22,4.93,2.5,4.78,2.85Z" style="fill:#2e2a27; stroke-width:0px;"/><path d="m173.43,366.17c-.22.32-2.3-.75-4.65-2.38-2.35-1.63-4.08-3.21-3.86-3.52.22-.32,2.3.75,4.65,2.38,2.35,1.63,4.08,3.21,3.86,3.52Z" style="fill:#2e2a27; stroke-width:0px;"/><path d="m174.28,354.91c-.2.33-2.3-.59-4.69-2.06-2.39-1.47-4.16-2.92-3.96-3.25.2-.33,2.3.59,4.69,2.06s4.16,2.92,3.96,3.25Z" style="fill:#2e2a27; stroke-width:0px;"/><path d="m178.75,348.23c-.19.33-2.96-.92-6.17-2.81-3.21-1.88-5.66-3.68-5.47-4.01s2.96.92,6.17,2.81c3.21,1.88,5.66,3.68,5.47,4.01Z" style="fill:#2e2a27; stroke-width:0px;"/><path d="m196.5,330.39c-.38-.07,1.22-9.77,3.58-21.66,2.35-11.89,4.57-21.47,4.94-21.39.38.07-1.22,9.77-3.58,21.66-2.35,11.89-4.57,21.47-4.94,21.39Z" style="fill:#2e2a27; stroke-width:0px;"/><path d="m189.47,345.81c-.36-.14.02-1.93.83-4,.82-2.07,1.77-3.62,2.13-3.48.36.14-.02,1.93-.83,4-.82,2.07-1.77,3.62-2.13,3.48Z" style="fill:#2e2a27; stroke-width:0px;"/><path d="m327.86,283.8c-.14.09-1.55-1.84-3.34-5.24-1.79-3.39-3.9-8.31-5.39-14.01-.74-2.85-1.25-5.6-1.6-8.12-.31-2.53-.5-4.81-.52-6.74-.07-3.85.24-6.21.41-6.2.46-.01.06,9.51,3.06,20.71,2.89,11.22,7.8,19.38,7.39,19.6Z" style="fill:#2e2a27; stroke-width:0px;"/><path d="m337,302.85c-.34.18-2.25-2.68-4.27-6.4-2.02-3.72-3.39-6.88-3.05-7.06s2.25,2.68,4.27,6.4c2.02,3.72,3.39,6.88,3.05,7.06Z" style="fill:#2e2a27; stroke-width:0px;"/><path d="m232.13,353.27c.07.38-6.92,2.08-15.63,3.8-8.71,1.72-15.83,2.81-15.9,2.44-.07-.38,6.92-2.08,15.63-3.8,8.71-1.72,15.83-2.81,15.9-2.44Z" style="fill:#2e2a27; stroke-width:0px;"/><path d="m248.78,347.11c.12.37-1.63,1.28-3.92,2.04-2.29.76-4.24,1.09-4.36.72-.12-.37,1.63-1.28,3.92-2.04,2.29-.76,4.24-1.09,4.36-.72Z" style="fill:#2e2a27; stroke-width:0px;"/><path d="m316.12,322.94c.09.14-2.21,1.82-6.2,4.08-1.99,1.14-4.43,2.37-7.18,3.66-2.76,1.26-5.85,2.53-9.15,3.71-6.61,2.34-12.8,3.8-17.32,4.58-4.52.78-7.36.96-7.38.79-.03-.21,2.75-.73,7.18-1.76,4.43-1.02,10.51-2.62,17.05-4.93,3.26-1.16,6.33-2.39,9.09-3.57,2.75-1.21,5.21-2.34,7.24-3.36,4.08-2.02,6.55-3.39,6.66-3.2Z" style="fill:#2e2a27; stroke-width:0px;"/><path d="m369.4,286.44c-.2.07-.49-.28-1.02-.64-.52-.37-1.34-.74-2.31-.9-.98-.16-1.88-.08-2.51.08-.64.15-1.05.35-1.2.21-.13-.12.08-.63.79-1.1.7-.47,1.89-.77,3.15-.56,1.26.2,2.3.88,2.79,1.59.51.71.48,1.28.31,1.33Z" style="fill:#2e2a27; stroke-width:0px;"/><path d="m361.96,290.02c.21.32-3.06,2.89-7.32,5.75-4.26,2.86-7.88,4.91-8.09,4.59-.21-.32,3.06-2.89,7.32-5.75,4.26-2.86,7.88-4.91,8.1-4.59Z" style="fill:#2e2a27; stroke-width:0px;"/><path d="m70.76,280.22c.04.38-3.47,1.06-7.84,1.52s-7.95.52-7.99.13c-.04-.38,3.47-1.06,7.84-1.52s7.95-.52,7.99-.13Z" style="fill:#2e2a27; stroke-width:0px;"/><path d="m78.83,281.93c.06.38-1.98,1.02-4.56,1.43-2.58.41-4.71.43-4.77.05-.06-.38,1.98-1.02,4.56-1.43s4.71-.43,4.77-.05Z" style="fill:#2e2a27; stroke-width:0px;"/><path d="m143.31,272.71c.04.38-4.95,1.23-11.14,1.9s-11.25.89-11.29.51c-.04-.38,4.95-1.23,11.14-1.9,6.19-.67,11.25-.89,11.29-.51Z" style="fill:#2e2a27; stroke-width:0px;"/><path d="m23.58,283.61c0,.38-3.18.62-7.09.53-3.91-.09-7.07-.48-7.06-.86,0-.39,3.18-.62,7.09-.53,3.91.09,7.07.48,7.06.86Z" style="fill:#2e2a27; stroke-width:0px;"/><path d="m107.97,281.24c-.2.33-8.37-4.32-18.25-10.39-9.88-6.07-17.73-11.25-17.52-11.58.2-.33,8.37,4.32,18.25,10.39,9.88,6.07,17.73,11.25,17.52,11.58Z" style="fill:#2e2a27; stroke-width:0px;"/><path d="m123.62,287.88c-.18.34-2.56-.6-5.31-2.1-2.75-1.5-4.83-2.99-4.65-3.33.18-.34,2.56.6,5.32,2.1s4.83,2.99,4.65,3.33Z" style="fill:#2e2a27; stroke-width:0px;"/><path d="m165.44,308.95c-.19.34-4.67-1.78-10.02-4.73s-9.53-5.61-9.34-5.95c.19-.34,4.67,1.78,10.02,4.73s9.53,5.61,9.34,5.95Z" style="fill:#2e2a27; stroke-width:0px;"/><path d="m89.77,131.59c.04.38-2.13.92-4.84,1.2-2.71.28-4.95.2-4.99-.19-.04-.38,2.13-.92,4.84-1.2,2.71-.28,4.95-.2,4.99.19Z" style="fill:#2e2a27; stroke-width:0px;"/><path d="m140.44,130.11c0,.39-7.23.7-16.14.7s-16.14-.31-16.14-.69c0-.39,7.23-.7,16.14-.7,8.92,0,16.14.31,16.14.69Z" style="fill:#2e2a27; stroke-width:0px;"/><path d="m289.52,144.75c-.14.08-1.43-1.73-2.98-4.97-1.55-3.23-3.27-7.93-4.21-13.35-.46-2.71-.68-5.32-.76-7.69-.04-2.38.05-4.52.26-6.3.4-3.57,1.03-5.71,1.19-5.67.22.04-.07,2.22-.21,5.74-.08,1.76-.07,3.86.04,6.18.14,2.32.4,4.86.85,7.5.92,5.29,2.45,9.92,3.74,13.2,1.3,3.28,2.27,5.26,2.08,5.36Z" style="fill:#2e2a27; stroke-width:0px;"/><path d="m282.24,141.99c-.35.16-1.87-2.43-3.39-5.78-1.52-3.35-2.47-6.2-2.12-6.36.35-.16,1.87,2.43,3.39,5.78,1.52,3.35,2.47,6.2,2.12,6.36Z" style="fill:#2e2a27; stroke-width:0px;"/><path d="m217.45,60.77c-.34-.17.97-3.52,2.94-7.47s3.85-7.02,4.19-6.85c.34.17-.97,3.52-2.94,7.47s-3.85,7.02-4.19,6.85Z" style="fill:#2e2a27; stroke-width:0px;"/><path d="m192.91,375.86c.04.38-2.59.94-5.86,1.25-3.27.31-5.95.24-5.99-.14-.04-.38,2.59-.94,5.86-1.25,3.27-.31,5.95-.24,5.99.14Z" style="fill:#2e2a27; stroke-width:0px;"/><path d="m290.46,349.34c.04.09-.91.6-2.65,1.46-1.74.87-4.31,2.03-7.53,3.37-3.21,1.36-7.08,2.84-11.43,4.38-4.35,1.51-9.18,3.04-14.31,4.46-10.26,2.83-19.73,4.63-26.62,5.63-3.45.5-6.24.83-8.19.99-1.94.17-3.02.21-3.03.12s1.04-.32,2.96-.66c1.92-.32,4.68-.8,8.1-1.42,6.82-1.24,16.21-3.19,26.41-6,5.1-1.41,9.91-2.9,14.26-4.34,4.34-1.46,8.24-2.84,11.48-4.08,3.25-1.22,5.87-2.24,7.67-2.95,1.81-.7,2.83-1.05,2.87-.97Z" style="fill:#2e2a27; stroke-width:0px;"/><path d="m354.7,311.87c.06.07-.51.7-1.61,1.78-.54.54-1.23,1.19-2.05,1.91-.81.73-1.74,1.56-2.8,2.44-2.09,1.79-4.69,3.79-7.63,5.93-2.97,2.11-6.3,4.33-9.91,6.49-7.22,4.31-14.13,7.54-19.23,9.6-2.55,1.03-4.64,1.79-6.11,2.26-1.46.47-2.29.69-2.32.6-.07-.2,3.07-1.49,8.04-3.76,4.97-2.28,11.75-5.61,18.9-9.89,3.57-2.14,6.9-4.31,9.88-6.34,2.96-2.07,5.6-3.97,7.76-5.65,4.34-3.33,6.93-5.52,7.07-5.36Z" style="fill:#2e2a27; stroke-width:0px;"/><path d="m41.09,293.24c0,.38-3.17.78-7.11.88-3.94.1-7.13-.13-7.14-.52,0-.39,3.17-.78,7.11-.88,3.94-.1,7.13.13,7.14.52Z" style="fill:#2e2a27; stroke-width:0px;"/><path d="m92,291.64c.05.38-7.74,1.66-17.39,2.84-9.65,1.19-17.52,1.84-17.56,1.46-.05-.38,7.74-1.66,17.39-2.84s17.52-1.84,17.56-1.46Z" style="fill:#2e2a27; stroke-width:0px;"/><path d="m165.75,281.44c.08.38-4.85,1.69-11,2.93s-11.2,1.94-11.28,1.56c-.08-.38,4.85-1.69,11-2.93s11.2-1.94,11.28-1.56Z" style="fill:#2e2a27; stroke-width:0px;"/><path d="m61.92,247.1c-.37-.09-.03-2.74.77-5.92s1.74-5.68,2.12-5.58.03,2.74-.77,5.92c-.8,3.18-1.74,5.68-2.12,5.58Z" style="fill:#2e2a27; stroke-width:0px;"/><path d="m66.82,254.06c-.37-.1.37-4.09,1.65-8.92,1.29-4.83,2.63-8.67,3-8.57.37.1-.37,4.09-1.65,8.93-1.29,4.83-2.63,8.67-3,8.57Z" style="fill:#2e2a27; stroke-width:0px;"/></g></svg>