<?xml version="1.0" encoding="UTF-8"?><svg xmlns="http://www.w3.org/2000/svg" width="129.31" height="47.71" viewBox="0 0 129.31 47.71"><g style="isolation:isolate;"><g id="_Слой_2"><g id="_Слой_1-2"><path d="m129.28,24.41c-.33-5.11-2.98-7.75-2.98-7.75L85.79,1,4,16.25l.22,1.8,1.57.82v.18s-.08,10.27-.08,10.27l-.81-.36.18,1.71,36.67,17.04,85.32-15.56s2.54-2.8,2.21-7.75Z" style="fill:#773810; opacity:.7; stroke-width:0px;"/><polygon points="122.3 15.65 81.79 0 0 15.25 37.5 31.73 122.3 15.65" style="fill:#dc708a; stroke-width:0px;"/><path d="m0,15.25l.22,1.8,1.57.82-.08,10.45-.81-.36.18,1.71,36.67,17.04s3.33-1.08,3-6.58c-.39-6.57-3.25-8.4-3.25-8.4L0,15.25Z" style="fill:#cf6579; stroke-width:0px;"/><path d="m37.5,31.73s2.06,2.26,2.06,7.65c0,5.66-1.81,7.33-1.81,7.33l85.32-15.56s2.54-2.8,2.21-7.75c-.33-5.11-2.98-7.75-2.98-7.75L37.5,31.73Z" style="fill:#bf4e6a; stroke-width:0px;"/><path d="m1.71,28.33l34.3,15.98s1.11-1.66,1.11-5.32c0-4.51-1.33-5.98-1.33-5.98L1.79,17.88l-.08,10.45Z" style="fill:#f1e0cc; stroke-width:0px;"/><path d="m1.79,18.83v-.95s34.01,15.14,34.01,15.14c0,0,1.01,1.11,1.27,4.36,0,0-27.42-14.02-35.28-18.55Z" style="fill:#b89692; mix-blend-mode:multiply; opacity:.5; stroke-width:0px;"/><path d="m104.97,27.49c-.39,2.12-11.16,5.61-24.03,7.79-12.88,2.18-23,2.22-22.6.1.39-2.12,11.16-5.61,24.03-7.79,12.88-2.18,23-2.22,22.6-.1Z" style="fill:#cf6579; stroke-width:0px;"/><ellipse cx="60.42" cy="15.25" rx="29.69" ry="6.22" transform="translate(-1.18 5.81) rotate(-5.45)" style="fill:#eb869e; stroke-width:0px;"/></g></g></g></svg>