<?xml version="1.0" encoding="UTF-8"?><svg id="_Слой_2" xmlns="http://www.w3.org/2000/svg" width="354.03" height="103.46" xmlns:xlink="http://www.w3.org/1999/xlink" viewBox="0 0 354.03 103.46"><defs><clipPath id="clippath"><path d="m261.01,15.85L8.18,20.95c-2.48.05-6.73,1.37-6.45,2.01l61.86,68.11c.62,1.39,4.53,1.92,10.74,1.45,42.25-3.15,234.67-7.94,269.77-10.86,2.63-.22,6.16-1.41,5.91-1.98l-82.06-62.36c-.46-1.03-2.92-1.55-6.94-1.47Z" style="fill:none; stroke-width:0px;"/></clipPath></defs><g id="_Слой_1-2"><path d="m257.33,17.72L12.79,20.79c-2.48.05-13.07,2.39-12.78,3.02l63.11,69.82c.62,1.39,1.46,4.54,7.67,4.08,37.91-2.82,270.32-10.85,270.32-10.85,7.78-1.09,12.57-6.42,12.93-6.58l-88.94-60.78c-1.27-1.34-3.73-1.86-7.75-1.77Z" style="fill:#6c4521; stroke-width:0px;"/><path d="m262.37,15.68L9.54,20.79c-2.48.05-6.73,1.37-6.45,2.01l61.86,68.11c.62,1.39,4.53,1.92,10.74,1.45,42.25-3.15,234.67-7.94,269.77-10.86,2.63-.22,6.16-1.41,5.91-1.98l-82.06-62.36c-.46-1.03-2.92-1.55-6.94-1.47Z" style="fill:#839a26; stroke-width:0px;"/><g style="clip-path:url(#clippath);"><polygon points="85.21 103.46 16.97 18.31 32.35 11.27 102.77 94.89 85.21 103.46" style="fill:#576613; stroke-width:0px;"/><polygon points="117.43 99.98 49.19 14.83 64.57 7.78 134.99 91.4 117.43 99.98" style="fill:#576613; stroke-width:0px;"/><polygon points="149.74 98.68 81.49 13.53 96.88 6.48 167.29 90.1 149.74 98.68" style="fill:#576613; stroke-width:0px;"/><polygon points="182.04 97.38 113.79 12.23 129.18 5.19 199.6 88.81 182.04 97.38" style="fill:#576613; stroke-width:0px;"/><polygon points="214.35 96.09 146.1 10.94 161.48 3.89 231.9 87.51 214.35 96.09" style="fill:#576613; stroke-width:0px;"/><polygon points="246.65 94.79 178.4 9.64 193.79 2.59 264.21 86.21 246.65 94.79" style="fill:#576613; stroke-width:0px;"/><polygon points="278.95 93.49 210.71 8.34 226.09 1.3 296.51 84.92 278.95 93.49" style="fill:#576613; stroke-width:0px;"/><polygon points="311.26 92.19 243.01 7.04 258.4 0 328.82 83.62 311.26 92.19" style="fill:#576613; stroke-width:0px;"/></g><path d="m86.38,81.73L49.79,28.38c-1.7-5.66,28.17-7,50.44-7.78l156.3-1.8c6.28-.22,18.21,4.44,18.77,6.02l47.97,47.39c-3.88,9.87-56.37,3.51-79.6,5.39l-149.44,4.88c-8.46.68-7.28,1.16-7.85-.76Z" style="fill:#fff; opacity:.1; stroke-width:0px;"/></g></svg>