<?xml version="1.0" encoding="UTF-8"?><svg id="_Слой_2" xmlns="http://www.w3.org/2000/svg" width="861.75" height="226.77" viewBox="0 0 861.75 226.77"><g id="_Слой_1-2"><polygon points="130.92 0 729.54 0 861.75 226.77 0 226.77 130.92 0" style="fill:#713a2a; isolation:isolate; opacity:.3; stroke-width:0px;"/><polygon points="71.64 185.9 153.43 12.26 707.15 12.26 789.74 185.9 71.64 185.9" style="fill:#fff; stroke:#2e2a27; stroke-linecap:round; stroke-linejoin:round; stroke-width:3.62px;"/><polygon points="85.82 176.82 159.06 21.35 701.54 21.35 775.5 176.82 85.82 176.82" style="fill:#713a2a; isolation:isolate; opacity:.3; stroke-width:0px;"/><path d="m69.16,119.39c.63.36-10.59,21.35-25.06,46.9-14.47,25.54-26.71,45.96-27.34,45.6-.63-.36,10.59-21.35,25.06-46.9s26.71-45.96,27.34-45.6Z" style="fill:#2e2a27; stroke-width:0px;"/><path d="m84.32,96.35c.59.42-1.1,3.81-3.77,7.57-2.68,3.76-5.32,6.47-5.91,6.05-.59-.42,1.1-3.81,3.77-7.57s5.32-6.47,5.92-6.05Z" style="fill:#2e2a27; stroke-width:0px;"/><path d="m133.97,9.66c.62.37-4.81,10.7-12.13,23.09-7.32,12.38-13.76,22.12-14.39,21.75-.62-.37,4.8-10.7,12.13-23.09s13.76-22.12,14.39-21.75Z" style="fill:#2e2a27; stroke-width:0px;"/><path d="m267.8,218.6c0,.73-34.02.91-75.96.41s-75.94-1.5-75.93-2.22c0-.73,34.02-.91,75.96-.41s75.94,1.5,75.93,2.22Z" style="fill:#2e2a27; stroke-width:0px;"/><path d="m308.01,214.67c.04.72-5.26,1.63-11.84,2.02-6.58.39-11.95.12-11.99-.6-.04-.72,5.26-1.63,11.84-2.02,6.58-.39,11.95-.12,11.99.6Z" style="fill:#2e2a27; stroke-width:0px;"/><path d="m559.68,217.53c-.01.73-27.19.77-60.7.09-33.51-.67-60.66-1.81-60.65-2.53.01-.73,27.19-.77,60.7-.1,33.51.67,60.66,1.81,60.65,2.53Z" style="fill:#2e2a27; stroke-width:0px;"/><path d="m645.31,213.81c.02.73-16.3,1.7-36.45,2.18-20.15.48-36.5.28-36.51-.45-.02-.73,16.3-1.7,36.45-2.18,20.15-.48,36.5-.28,36.51.45Z" style="fill:#2e2a27; stroke-width:0px;"/><path d="m840.4,216.18c0,.73-14.17,1.31-31.65,1.31s-31.65-.59-31.65-1.31,14.17-1.31,31.65-1.31,31.65.59,31.65,1.31Z" style="fill:#2e2a27; stroke-width:0px;"/><path d="m729.85,30.91c-.65.31-3.77-4.85-6.96-11.54-1.89-3.96-3.38-7.56-4.14-9.89l1.5-.43c-.03,1.71-.18,2.74-.48,2.77-.29.03-.68-.93-1.09-2.59l1.5-.43c1.34,2.06,3.2,5.49,5.08,9.44,3.19,6.69,5.24,12.36,4.59,12.67Z" style="fill:#2e2a27; stroke-width:0px;"/><path d="m786.07,141.99c-.67.28-10.79-22.43-22.61-50.73-11.82-28.29-20.86-51.46-20.19-51.74.67-.28,10.79,22.43,22.61,50.72s20.85,51.46,20.19,51.74Z" style="fill:#2e2a27; stroke-width:0px;"/><path d="m250.68,32.25c0,.73-5.17,1.31-11.54,1.31s-11.54-.59-11.54-1.31,5.17-1.31,11.54-1.31,11.54.59,11.54,1.31Z" style="fill:#2e2a27; stroke-width:0px;"/><path d="m348.96,34.78c-.03.72-7.23.98-16.07.57s-15.98-1.33-15.95-2.06c.03-.72,7.23-.98,16.07-.57s15.98,1.33,15.95,2.06Z" style="fill:#2e2a27; stroke-width:0px;"/><path d="m526.93,34.46c-.01.73-21.19.94-47.31.48-26.12-.46-47.28-1.42-47.26-2.15.01-.73,21.19-.94,47.31-.48,26.12.46,47.28,1.42,47.26,2.15Z" style="fill:#2e2a27; stroke-width:0px;"/><path d="m561.92,34.52c0,.73-4.33,1.31-9.68,1.31s-9.68-.59-9.68-1.31,4.33-1.31,9.68-1.31,9.68.59,9.68,1.31Z" style="fill:#2e2a27; stroke-width:0px;"/><path d="m340.04,164.22c.01.73-22.31,1.7-49.87,2.18-27.56.48-49.9.28-49.92-.45-.01-.73,22.31-1.7,49.87-2.18,27.56-.48,49.9-.28,49.92.45Z" style="fill:#2e2a27; stroke-width:0px;"/><path d="m366.1,162.47c.07.72-3.2,1.64-7.31,2.06-4.11.41-7.51.17-7.58-.56-.07-.72,3.2-1.64,7.31-2.06s7.51-.17,7.58.56Z" style="fill:#2e2a27; stroke-width:0px;"/><path d="m707.12,164.57c-.01.73-31.02.85-69.26.28-38.24-.57-69.23-1.62-69.22-2.35.01-.73,31.02-.85,69.26-.28,38.24.57,69.23,1.62,69.22,2.35Z" style="fill:#2e2a27; stroke-width:0px;"/><path d="m746.58,165.47c0,.73-4.5,1.31-10.05,1.31s-10.05-.59-10.05-1.31,4.5-1.31,10.05-1.31,10.05.59,10.05,1.31Z" style="fill:#2e2a27; stroke-width:0px;"/></g></svg>