<?xml version="1.0" encoding="UTF-8"?><svg id="_Слой_2" xmlns="http://www.w3.org/2000/svg" width="368.55" height="147.88" xmlns:xlink="http://www.w3.org/1999/xlink" viewBox="0 0 368.55 147.88"><defs><clipPath id="clippath"><path d="m169.66,4.09L12.11,139.28c-1.54,1.33-.62,3.89,1.4,3.89h228.15c4.42,0,8.62-1.95,11.52-5.35,19.7-23.13,96.85-114.17,112.32-133.46,1.16-1.44.14-3.6-1.69-3.6h-185.18c-3.28,0-6.46,1.18-8.96,3.33Z" style="fill:none; stroke-width:0px;"/></clipPath></defs><g id="_Слой_1-2"><path d="m170.11,8.81L12.35,139.12c-1.54,1.33-.4,8.76,1.62,8.76h228.15c4.42,0,8.62-1.95,11.52-5.35,17.68-20.76,112.18-132.68,112.18-132.68,2.16-4.38.22-8.54,0-8.76l-185.3,4.02c-4.73.36-7.9,1.54-10.41,3.69Z" style="fill:#6c4521; stroke-width:0px;"/><path d="m170.11,3.33L12.57,138.52c-1.54,1.33-.62,3.89,1.4,3.89h228.15c4.42,0,8.62-1.95,11.52-5.35,19.7-23.13,96.85-114.17,112.32-133.46,1.16-1.44.14-3.6-1.69-3.6h-185.18c-3.28,0-6.46,1.18-8.96,3.33Z" style="fill:#839a26; stroke-width:0px;"/><g style="clip-path:url(#clippath);"><rect x="71.12" y="57.73" width="250.01" height="24.1" style="fill:#576613; stroke-width:0px;"/><rect y="108.12" width="280.19" height="24.1" style="fill:#576613; stroke-width:0px;"/><rect x="118.54" y="9.53" width="250.01" height="24.1" style="fill:#576613; stroke-width:0px;"/></g><path d="m221.8,127.5l-145.78-2.19c-17.49-.43-17.23-14.31-4.31-26.29L173.01,15.77c3.65-3.38,25.24-8.6,30.17-8.53l101.3,2.19c25.86,4.38,14.73,17.92,4.31,30.67l-62.5,76.68c-3.79,4.64-18.55,10.87-24.49,10.72Z" style="fill:#fff; opacity:.1; stroke-width:0px;"/></g></svg>