<?xml version="1.0" encoding="UTF-8"?><svg xmlns="http://www.w3.org/2000/svg" width="67.46" height="68.77" viewBox="0 0 67.46 68.77"><g style="isolation:isolate;"><g id="_Слой_2"><g id="_Слой_1-2"><path d="m52.81,22.25c.27-.05.48-.09.69-.13,1.69-.39,3.39-.37,5.1-.15,1.48.19,2.88.59,4.19,1.32.69.38,1.31.86,1.81,1.5.43.55.87,1.08,1.28,1.64.51.71.53,1.6.74,2.41.51,1.9.63,3.86.77,5.82.14,2,.09,4.01-.01,6-.07,1.46-.34,2.9-.58,4.35-.15.91-.34,1.82-.61,2.69-.36,1.16-.94,2.22-1.76,3.12-.68.76-1.34,1.57-2.27,2.02-1.24.59-2.48,1.15-3.82,1.5-1.79.47-3.6.71-5.45.64-.3-.01-.37.1-.38.38-.02,1.7-.06,3.39-.08,5.09-.01,1.28-.55,2.29-1.46,3.11-1.26,1.15-2.78,1.87-4.35,2.45-2.16.8-4.4,1.32-6.66,1.72-4.79.84-9.61,1.12-14.46,1.04-3.98-.07-7.94-.38-11.86-1.08-2.41-.43-4.78-.98-7.1-1.79-1.23-.43-2.42-.97-3.56-1.64-.82-.48-1.53-1.09-2.14-1.83C.25,61.71,0,60.87,0,59.95c.04-4.56.08-9.12.14-13.68.08-6.34.18-21.88.27-28.22.04-3.05.09-6.11.14-9.16,0-.2-.01-.4-.02-.6-.07-1.07.32-1.97,1.03-2.74,1-1.08,2.26-1.75,3.59-2.33,2.03-.88,4.16-1.46,6.32-1.91C14.89.59,18.36.2,21.85.09c2.2-.07,4.4-.13,6.6-.05,2.43.09,4.85.31,7.27.54,2.83.27,5.62.81,8.36,1.57,2.07.58,4.08,1.3,5.92,2.44.94.59,1.8,1.26,2.37,2.26.33.57.48,1.2.48,1.85,0,1.3-.03,11.81-.04,13.12,0,.12,0,.25,0,.42Zm-2.92,40.86c.64-.47,1.1-.92,1.28-1.66.19-.77.21-1.55.25-2.33.11-2.11.27-4.23.35-6.34.05-1.35,0-2.71,0-4.07,0-.12,0-.23,0-.35.02-1.58.05-3.16.05-4.74,0-1.14-.02-2.29-.04-3.43-.02-1.54-.05-3.07-.07-4.61-.02-1.67-.04-3.35-.05-5.02,0-1.24-.02-2.48-.01-3.72,0-1.21.04-2.41.07-3.62.02-1.02.05-11.24.08-12.25,0-.02-.03-.05-.05-.09-.05.04-.09.06-.13.1-.91.9-2,1.53-3.14,2.05-1.98.9-4.06,1.47-6.18,1.93-4.12.89-8.29,1.27-12.49,1.39-3.26.1-6.51-.01-9.75-.29-3.95-.34-7.85-.97-11.65-2.11-.4-.12-.8-.23-1.22-.34,0,.11,0,.19,0,.27.01.29.03.57.03.86,0,.07-.06.15-.09.22-.07-.05-.17-.08-.22-.14-.05-.07-.08-.17-.1-.26-.04-.29-.07-.59-.12-.88-.02-.11-.07-.28-.15-.32-.44-.2-.9-.38-1.41-.58.04.94.08,1.82.11,2.7-.03.01-.07.03-.1.04-.09-.2-.23-.39-.25-.59-.09-.69-.13-1.39-.2-2.08-.01-.11-.02-.27-.09-.31-.33-.21-.69-.38-1.08-.59.11,3.51.51,6.96.38,10.42-.09-.09-.14-.18-.14-.28-.17-1.75-.38-3.49-.51-5.25-.12-1.68-.16-3.37-.24-5.05,0-.07,0-.17-.05-.21-.42-.35-.84-.68-1.34-1.08,0,.4.01.72,0,1.04-.03.75-.1,1.5-.12,2.25-.04,1.61-.07,3.22-.1,4.83-.03,1.53-.07,3.05-.07,4.58,0,1.59.05,3.18.06,4.77,0,1.78-.03,12.76-.04,14.54,0,2.57,0,5.13,0,7.7,0,.6-.04,1.21-.06,1.81-.03.73-.06,1.46-.08,2.19-.02.7.05,1.41-.04,2.09-.15,1.17-.05,2.33.07,3.49.05.52.18,1.05.39,1.53.19.46.46.93.82,1.25.48.43,1.06.76,1.63,1.05,2.5,1.29,5.18,2.05,7.92,2.6,3.65.73,7.34,1.13,11.05,1.32,3.56.18,7.11.11,10.66-.17,2.74-.22,5.45-.59,8.14-1.17.46-.1.45-.09.47-.58.01-.29.05-.59.08-.88.05,0,.11,0,.16,0,.08.4.17.8.26,1.24.41-.11.81-.22,1.21-.32.19-.05.24-.15.24-.34,0-.41.03-.83.06-1.24.02-.26.09-.52.13-.77.04,0,.07,0,.11.01.33.65.08,1.38.19,2.11.25-.07.46-.15.68-.2.26-.06.34-.19.34-.46-.03-2.07-.05-4.13-.07-6.2,0-.26.04-.52.07-.79.05,0,.09,0,.14-.01.06.23.15.47.18.7.18,1.94.23,3.89.18,5.84,0,.19-.03.39-.05.66.55-.23,1.05-.43,1.53-.65.07-.03.11-.18.12-.29.04-.42.06-.84.09-1.26,0-.08.06-.15.1-.23.03,0,.05.01.08.02.04.49.08.97.13,1.52.27-.14.48-.27.71-.36.3-.12.39-.32.39-.64-.02-1.9-.02-3.8-.02-5.69,0-1.35,0-2.69,0-4.04,0-.2.05-.4.07-.6.05,0,.1,0,.15,0,.36,3.41.49,6.83.33,10.35Zm2.9-35.61c.54-.09,1.02-.21,1.5-.25,1.6-.13,3.2-.26,4.64.67.24.16.47.34.68.55.53.52.79,1.19,1.06,1.88.46,1.19.84,2.39.92,3.68.12,2.02.15,4.05-.05,6.07-.17,1.71-.45,3.4-.9,5.06-.27.98-.81,1.78-1.47,2.52-.16.18-.37.34-.58.42-.69.26-1.39.55-2.11.68-1.19.22-2.39.34-3.59.48-.22.03-.31.11-.3.34,0,.24.15.23.32.23,1.09.01,2.19.03,3.28.06.31,0,.62.05.93.08,0,.04,0,.07,0,.11-1.47.48-2.99.24-4.51.29v1.07c.81.03,1.59.07,2.37.1,0,.05,0,.1,0,.16-.74.41-1.58.24-2.42.33,0,.24.02.47,0,.7-.03.3.08.37.37.35,1.68-.14,3.32-.46,4.96-.83.07-.02.15,0,.22,0,.01.04.02.07.03.11-.28.14-.55.31-.84.41-1.45.52-2.95.76-4.47.81-.25,0-.28.12-.29.33,0,.24.08.32.31.31.71-.05,1.42-.05,2.12-.13.89-.1,1.79-.21,2.65-.42,1.21-.3,2.33-.83,3.41-1.48,1.2-.72,2.14-1.67,2.93-2.81,1.07-1.53,1.63-3.29,2.08-5.08.32-1.24.45-2.51.54-3.8.19-2.7.15-5.39-.15-8.06-.13-1.17-.51-2.31-.8-3.46-.18-.71-.31-1.44-.59-2.11-.67-1.55-1.9-2.57-3.39-3.22-1.82-.81-3.75-1.14-5.74-1.03-.95.05-1.89.15-2.78.55-.29.13-.4.31-.29.6.2.05.39.09.57.14,0,.04.01.07.02.11-.14.07-.27.18-.41.22-.34.1-.22.37-.21.57,0,.25.21.13.34.13.28,0,.57,0,.81.24-.24.11-.48.2-.72.24-.49.08-.55.17-.37.68.09-.02.18-.04.27-.06.62-.12,1.23-.23,1.86-.07.11.03.21.1.32.15-.08.09-.12.11-.17.12-.69.13-1.37.25-2.06.4-.11.02-.26.13-.28.22-.04.21-.01.44-.01.66Zm-25.29-12.27c3.5,0,6.98-.21,10.45-.68,2.92-.4,5.81-.96,8.59-1.95,1.39-.49,2.75-1.07,3.94-1.97.53-.4,1.02-.86,1.29-1.49.38-.87.05-1.59-.52-2.24-.74-.85-1.69-1.4-2.68-1.9-1.78-.91-3.68-1.48-5.61-1.97-3.16-.8-6.38-1.27-9.63-1.57-3.61-.33-7.22-.39-10.84-.25-3.42.13-6.82.47-10.19,1.11-2.38.45-4.73,1.03-6.97,2.01-1.2.53-2.37,1.13-3.26,2.14-.94,1.07-.86,1.92-.04,2.88.43.51.99.94,1.55,1.32,1.59,1.07,3.39,1.67,5.2,2.23,2.73.85,5.54,1.32,8.37,1.68,3.43.44,6.87.66,10.33.65Zm25.27,23.22s-.07,0-.11,0c0,1.25,0,2.5,0,3.75-.01,1.94-.04,3.88-.06,5.82,0,.23,0,.38.31.37,1.26-.05,2.51-.13,3.73-.53,1.75-.58,2.93-1.7,3.4-3.53.16-.61.26-1.24.36-1.87.13-.83.29-1.65.33-2.48.05-1.28.03-2.56,0-3.84-.03-1.04-.11-2.08-.23-3.11-.15-1.32-.49-2.59-1.26-3.68-.23-.32-.55-.65-.9-.79-.65-.26-1.35-.47-2.04-.56-1.07-.14-2.11.16-3.14.45-.29.08-.38.2-.38.5,0,3.17,0,6.34,0,9.51Z" style="fill:#42210b; stroke-width:0px;"/><path d="m49.89,63.11c.16-3.52.03-6.94-.33-10.35-.05,0-.1,0-.15,0-.03.2-.07.4-.07.6,0,1.35,0,2.69,0,4.04,0,1.9,0,3.8.02,5.69,0,.32-.09.52-.39.64-.23.09-.44.22-.71.36-.05-.55-.09-1.04-.13-1.52-.03,0-.05-.01-.08-.02-.03.08-.09.15-.1.23-.04.42-.05.84-.09,1.26,0,.1-.05.25-.12.29-.48.22-.97.42-1.53.65.02-.27.04-.47.05-.66.05-1.95,0-3.9-.18-5.84-.02-.24-.12-.47-.18-.7-.05,0-.09,0-.14.01-.02.26-.07.52-.07.79.01,2.07.03,4.13.07,6.2,0,.27-.08.41-.34.46-.22.05-.43.13-.68.2-.1-.73.14-1.46-.19-2.11-.04,0-.07,0-.11-.01-.05.26-.11.51-.13.77-.04.41-.06.82-.06,1.24,0,.19-.06.29-.24.34-.4.1-.8.21-1.21.32-.09-.44-.18-.84-.26-1.24-.05,0-.11,0-.16,0-.03.29-.07.59-.08.88-.02.49-.01.48-.47.58-2.69.58-5.4.95-8.14,1.17-3.55.28-7.1.34-10.66.17-3.71-.19-7.4-.58-11.05-1.32-2.74-.55-5.42-1.31-7.92-2.6-.57-.3-1.15-.62-1.63-1.05-.36-.32-.63-.79-.82-1.25-.2-.48-.33-1.01-.39-1.53-.12-1.16-.22-2.32-.07-3.49.09-.69.02-1.4.04-2.09.02-.73.05-1.46.08-2.19.02-.6.06-1.21.06-1.81,0-2.56,0-5.13,0-7.7,0-1.78.04-12.76.04-14.54,0-1.59-.06-3.18-.06-4.77,0-1.53.04-3.05.07-4.58.03-1.61.06-3.22.1-4.83.02-.75.08-1.5.12-2.25.01-.32,0-.64,0-1.04.51.41.93.74,1.34,1.08.04.04.05.14.05.21.08,1.68.12,3.37.24,5.05.13,1.75.33,3.5.51,5.25,0,.1.05.19.14.28.13-3.47-.27-6.91-.38-10.42.39.21.75.38,1.08.59.07.04.08.2.09.31.07.69.11,1.39.2,2.08.03.2.17.39.25.59.03-.01.07-.03.1-.04-.04-.88-.07-1.76-.11-2.7.51.21.97.38,1.41.58.08.04.13.2.15.32.05.29.07.59.12.88.01.09.04.19.1.26.05.07.14.1.22.14.03-.07.09-.15.09-.22,0-.29-.02-.57-.03-.86,0-.08,0-.16,0-.27.43.12.83.23,1.22.34,3.81,1.14,7.71,1.77,11.65,2.11,3.25.28,6.5.39,9.75.29,4.2-.12,8.37-.5,12.49-1.39,2.12-.46,4.2-1.03,6.18-1.93,1.15-.52,2.23-1.16,3.14-2.05.04-.03.08-.06.13-.1.02.04.05.06.05.09-.02,1.02-.05,11.24-.08,12.25-.03,1.21-.06,2.41-.07,3.62,0,1.24,0,2.48.01,3.72.01,1.67.03,3.35.05,5.02.02,1.54.05,3.07.07,4.61.02,1.14.04,2.29.04,3.43,0,1.58-.03,3.16-.05,4.74,0,.12,0,.23,0,.35,0,1.36.05,2.71,0,4.07-.08,2.12-.24,4.23-.35,6.34-.04.78-.06,1.56-.25,2.33-.18.74-.63,1.19-1.28,1.66Zm-2.02-7.26c-.24.36-.23,4.14-.01,4.65.07-.14.15-.24.17-.35.04-.26.07-.53.07-.79-.01-.77-.03-1.55-.07-2.32-.02-.38-.1-.76-.15-1.19Zm1.49-4.59c.14-.13.26-.19.29-.27.05-.14.08-.31.07-.46-.03-.83-.08-1.67-.12-2.5,0-.1-.06-.2-.09-.3-.03,0-.06.01-.09.02-.22,1.13-.15,2.27-.06,3.52ZM4.05,26.78l.06-.08c0-.24.01-.48,0-.72-.04-.55-.08-1.1-.14-1.64,0-.08-.14-.15-.21-.23-.07.07-.19.13-.19.2-.02.74,0,1.48.25,2.19.04.11.15.18.23.27Z" style="fill:#eddc45; stroke-width:0px;"/><path d="m51.42,49.79c-.9,1.59-2.07,3.05-3.2,4.46-1.62,2.02-3.69,3.65-5.8,5.12-4.32,3-9.38,4.16-14.49,4.75-4.31.5-8.89-.1-13.06-1.21-4.47-1.19-8.64-3.26-11.95-6.6-.61-.62-1.18-1.27-1.72-1.94,0,.65.04,1.3-.04,1.93-.15,1.17-.05,2.33.07,3.49.05.52.18,1.05.39,1.53.19.46.46.93.82,1.25.48.43,1.06.76,1.63,1.05,2.5,1.29,5.18,2.05,7.92,2.6,3.65.73,7.34,1.13,11.05,1.32,3.56.18,7.11.11,10.66-.17,2.74-.22,5.45-.59,8.14-1.17.46-.1.45-.09.47-.58.01-.29.05-.59.08-.88.05,0,.11,0,.16,0,.08.4.17.8.26,1.24.41-.11.81-.22,1.21-.32.19-.05.24-.15.24-.34,0-.41.03-.83.06-1.24.02-.26.09-.52.13-.77.04,0,.07,0,.11.01.33.65.08,1.38.19,2.11.25-.07.46-.15.68-.2.26-.06.34-.19.34-.46-.03-2.07-.05-4.13-.07-6.2,0-.26.04-.52.07-.79.05,0,.09,0,.14-.01.06.23.15.47.18.7.18,1.94.23,3.89.18,5.84,0,.19-.03.39-.05.66.55-.23,1.05-.43,1.53-.65.07-.03.11-.18.12-.29.04-.42.06-.84.09-1.26,0-.08.06-.15.1-.23.03,0,.05.01.08.02.04.49.08.97.13,1.52.27-.14.48-.27.71-.36.3-.12.39-.32.39-.64-.02-1.9-.02-3.8-.02-5.69,0-1.35,0-2.69,0-4.04,0-.2.05-.4.07-.6.05,0,.1,0,.15,0,.36,3.41.49,6.84.33,10.35.64-.47,1.1-.92,1.28-1.66.19-.77.21-1.55.25-2.33.11-2.11.27-4.23.35-6.34.05-1.22.02-2.44,0-3.66-.12.23-.23.45-.36.67Zm-3.39,10.36c-.02.11-.1.21-.17.35-.22-.5-.22-4.29.01-4.65.06.44.13.81.15,1.19.04.77.06,1.54.07,2.32,0,.26-.03.53-.07.79Z" style="fill:#eddc45; mix-blend-mode:multiply; opacity:.5; stroke-width:0px;"/><path d="m52.78,27.5c0-.23-.03-.45.01-.66.02-.09.17-.2.28-.22.68-.14,1.37-.27,2.06-.4.05,0,.09-.03.17-.12-.11-.05-.21-.12-.32-.15-.63-.16-1.24-.05-1.86.07-.09.02-.18.04-.27.06-.18-.51-.11-.6.37-.68.25-.04.48-.12.72-.24-.24-.25-.52-.24-.81-.24-.13,0-.33.11-.34-.13,0-.21-.13-.48.21-.57.15-.04.27-.14.41-.22,0-.04-.01-.07-.02-.11-.19-.04-.37-.09-.57-.14-.11-.29,0-.46.29-.6.89-.4,1.83-.5,2.78-.55,1.99-.11,3.92.23,5.74,1.03,1.49.66,2.72,1.67,3.39,3.22.28.66.41,1.4.59,2.11.28,1.15.67,2.29.8,3.46.3,2.68.34,5.37.15,8.06-.09,1.29-.22,2.56-.54,3.8-.46,1.79-1.01,3.55-2.08,5.08-.8,1.13-1.74,2.09-2.93,2.81-1.08.65-2.2,1.18-3.41,1.48-.87.22-1.76.32-2.65.42-.7.08-1.41.08-2.12.13-.23.02-.32-.07-.31-.31,0-.21.04-.32.29-.33,1.53-.05,3.03-.29,4.47-.81.29-.11.56-.27.84-.41-.01-.04-.02-.07-.03-.11-.07,0-.15-.01-.22,0-1.64.37-3.28.69-4.96.83-.3.02-.4-.05-.37-.35.02-.23,0-.46,0-.7.84-.08,1.68.08,2.42-.33,0-.05,0-.1,0-.16-.78-.03-1.56-.06-2.37-.1v-1.07c1.52-.05,3.05.2,4.51-.29,0-.04,0-.07,0-.11-.31-.03-.62-.07-.93-.08-1.09-.03-2.19-.05-3.28-.06-.17,0-.31.01-.32-.23,0-.23.08-.31.3-.34,1.2-.14,2.41-.26,3.59-.48.72-.13,1.41-.43,2.11-.68.22-.08.43-.24.58-.42.65-.74,1.2-1.53,1.47-2.52.45-1.66.73-3.35.9-5.06.2-2.02.18-4.04.05-6.07-.08-1.29-.46-2.49-.92-3.68-.27-.69-.53-1.36-1.06-1.88-.21-.2-.44-.39-.68-.55-1.45-.93-3.05-.81-4.64-.67-.48.04-.96.16-1.5.25Zm6.52,21.45s-.03-.05-.05-.07c-.53.1-1.01.29-1.41.68-.04.04-.04.21,0,.24.07.05.21.09.28.05.36-.22.71-.47,1.06-.71.06-.04.08-.13.12-.19Zm-2.33-22.64c0-.07,0-.13,0-.2-.25-.03-.49-.08-.74-.09-.06,0-.17.11-.19.19-.01.05.1.19.15.19.26-.01.53-.05.79-.09Z" style="fill:#eddc45; stroke-width:0px;"/><path d="m52.89,49.82c1.09.01,2.19.03,3.28.06.11,0,.22.01.33.02-.13-.35-.25-.71-.35-1.07-1.09.19-2.19.3-3.28.43-.22.03-.31.11-.3.34,0,.24.15.23.32.23Z" style="fill:#eddc45; mix-blend-mode:multiply; opacity:.5; stroke-width:0px;"/><path d="m52.92,53.06c1.63-.13,3.24-.45,4.83-.8-.45-.64-.82-1.33-1.12-2.06-1.32.3-2.68.11-4.04.16v1.07c.81.03,1.59.07,2.37.1,0,.05,0,.1,0,.16-.74.41-1.58.24-2.42.33,0,.24.02.47,0,.7-.03.3.08.37.37.35Z" style="fill:#eddc45; mix-blend-mode:multiply; opacity:.5; stroke-width:0px;"/><path d="m57.89,52.46c-.2.11-.4.22-.61.29-1.45.52-2.95.76-4.47.81-.25,0-.28.12-.29.33,0,.24.08.32.31.31.71-.05,1.42-.05,2.12-.13.89-.1,1.79-.21,2.65-.42.35-.09.7-.2,1.03-.32-.27-.27-.52-.56-.75-.87Z" style="fill:#eddc45; mix-blend-mode:multiply; opacity:.5; stroke-width:0px;"/><path d="m52.86,26.07c.09-.02.18-.04.27-.06.62-.12,1.23-.23,1.86-.07.11.03.21.1.32.15-.08.09-.12.11-.17.12-.69.13-1.37.25-2.06.4-.11.02-.26.13-.28.22-.04.21-.01.44-.01.66.54-.09,1.02-.21,1.5-.25.7-.06,1.4-.12,2.09-.08-.71-1.39-1.12-2.95-1.27-4.52-.67.07-1.34.2-1.98.49-.29.13-.4.31-.29.6.2.05.39.09.57.14,0,.04.01.07.02.11-.14.07-.27.18-.41.22-.34.1-.22.37-.21.57,0,.25.21.13.34.13.28,0,.57,0,.81.24-.24.11-.48.2-.72.24-.49.08-.55.17-.37.68Z" style="fill:#eddc45; mix-blend-mode:multiply; opacity:.5; stroke-width:0px;"/><path d="m27.49,15.23c-3.46.01-6.9-.21-10.33-.65-2.83-.36-5.64-.83-8.37-1.68-1.8-.56-3.61-1.16-5.2-2.23-.56-.38-1.12-.8-1.55-1.32-.82-.97-.9-1.82.04-2.88.89-1.01,2.06-1.62,3.26-2.14,2.23-.98,4.58-1.56,6.97-2.01,3.37-.64,6.77-.98,10.19-1.11,3.62-.14,7.23-.07,10.84.25,3.25.29,6.46.76,9.63,1.57,1.92.49,3.82,1.06,5.61,1.97.98.5,1.94,1.05,2.68,1.9.56.65.89,1.37.52,2.24-.27.63-.76,1.08-1.29,1.49-1.19.91-2.55,1.48-3.94,1.97-2.79.99-5.67,1.55-8.59,1.95-3.47.48-6.95.67-10.45.68Zm-2.03-12.31c-1.03,0-2.07-.03-3.1,0-3.49.1-6.95.39-10.39,1.04-1.82.34-3.61.78-5.32,1.51-.79.34-1.55.74-2.13,1.41-.65.75-.68,1.62-.01,2.35.33.36.72.68,1.14.93,1.4.86,2.95,1.34,4.52,1.72,4.06.98,8.2,1.43,12.36,1.61,3.82.17,7.63.12,11.44-.19,2.83-.23,5.64-.59,8.41-1.27,1.48-.37,2.95-.77,4.26-1.6.43-.27.83-.61,1.17-.99.53-.59.53-1.37.07-2.02-.14-.2-.29-.41-.49-.53-.67-.43-1.32-.9-2.04-1.21-2.26-.99-4.65-1.48-7.07-1.87-4.24-.68-8.52-.92-12.81-.89Z" style="fill:#eddc45; stroke-width:0px;"/><path d="m47.87,55.85c.06.44.13.81.15,1.19.04.77.06,1.54.07,2.32,0,.26-.03.53-.07.79-.02.11-.1.21-.17.35-.22-.5-.22-4.29.01-4.65Z" style="fill:#42210b; stroke-width:0px;"/><path d="m49.36,51.25c-.09-1.25-.16-2.39.06-3.52.03,0,.06-.01.09-.02.03.1.09.2.09.3.05.83.09,1.66.12,2.5,0,.15-.02.32-.07.46-.03.09-.15.14-.29.27Z" style="fill:#42210b; stroke-width:0px;"/><path d="m4.05,26.78c-.08-.09-.19-.17-.23-.27-.26-.71-.27-1.45-.25-2.19,0-.07.12-.14.19-.2.07.08.2.14.21.23.06.55.1,1.09.14,1.64.02.24,0,.48,0,.72l-.06.08Z" style="fill:#42210b; stroke-width:0px;"/><path d="m59.31,48.96c-.04.07-.07.15-.12.19-.35.25-.7.49-1.06.71-.06.04-.21,0-.28-.05-.04-.03-.04-.2,0-.24.4-.39.88-.58,1.41-.68.02.02.03.05.05.07Z" style="fill:#42210b; stroke-width:0px;"/><path d="m56.98,26.31c-.26.03-.52.08-.79.09-.05,0-.16-.14-.15-.19.02-.08.12-.19.19-.19.25,0,.49.06.74.09,0,.07,0,.13,0,.2Z" style="fill:#42210b; stroke-width:0px;"/><path d="m25.46,2.93c4.29-.03,8.57.21,12.81.89,2.42.39,4.81.88,7.07,1.87.72.31,1.38.78,2.04,1.21.2.13.35.34.49.53.46.65.46,1.43-.07,2.02-.34.38-.74.72-1.17.99-1.3.83-2.78,1.24-4.26,1.6-2.76.69-5.58,1.04-8.41,1.27-3.81.31-7.63.36-11.44.19-4.17-.18-8.3-.63-12.36-1.61-1.57-.38-3.13-.86-4.52-1.72-.41-.25-.81-.57-1.14-.93-.66-.73-.63-1.6.01-2.35.58-.67,1.34-1.08,2.13-1.41,1.71-.73,3.51-1.16,5.32-1.51,3.43-.65,6.9-.94,10.39-1.04,1.03-.03,2.06,0,3.1,0Zm19.44,7.59c-.08-.09-.1-.12-.12-.14-.08-.05-.16-.09-.25-.14-1.33-.7-2.75-1.17-4.2-1.55-3.54-.93-7.15-1.34-10.8-1.48-5.16-.2-10.27.11-15.33,1.2-1.91.41-3.78.96-5.58,1.75-.18.08-.34.17-.59.29.18.07.27.12.36.15,1.05.29,2.08.62,3.14.85,4.47.95,9,1.29,13.55,1.39,3.38.08,6.76-.05,10.12-.38,2.59-.26,5.16-.63,7.67-1.32.66-.18,1.31-.41,2.01-.63ZM5.53,6.95c-.16.15-.3.26-.41.39-.44.49-.45.94-.04,1.45.1.12.2.25.33.33.51.32,1.03.63,1.56.92.1.06.28.03.4-.02.99-.43,1.94-.94,2.95-1.29,3.3-1.17,6.73-1.7,10.19-2.03,2.64-.25,5.28-.34,7.94-.28,3.52.09,7.02.4,10.47,1.16,2.33.51,4.62,1.16,6.7,2.4.08.05.24.07.31.02.43-.31.87-.61,1.27-.97.23-.2.32-.51.23-.82-.2-.67-.74-1-1.29-1.34-.11.43-.2.81-.31,1.19-.03.09-.15.16-.22.24-.06-.1-.17-.2-.17-.3,0-.37.04-.74.07-1.11.03-.38-.02-.43-.4-.46-.14.55-.16,1.14-.57,1.68-.05-.18-.1-.28-.09-.37.02-.37.04-.74.08-1.11.06-.54.03-.59-.52-.66-.15.28-.29.55-.43.83-.05-.01-.1-.03-.16-.04,0-.22-.03-.45,0-.66.05-.27-.03-.39-.28-.45-1.1-.26-2.18-.56-3.29-.78-3.87-.76-7.79-1.1-11.72-1.2-4.61-.12-9.22.03-13.79.7-1.63.24-3.23.63-4.85.93-.3.06-.42.21-.44.5-.01.16-.06.31-.08.47-.03,0-.07,0-.1,0-.04-.11-.09-.22-.13-.33-.04-.12-.06-.23-.1-.36-.11.03-.2.04-.27.07-.46.14-.46.14-.43.63.04.55.08,1.1.1,1.65,0,.18-.02.36-.05.53-.02.08-.1.15-.15.22-.07-.07-.19-.12-.21-.2-.07-.27-.14-.55-.17-.84-.05-.52-.07-1.05-.1-1.58-.5.07-.58.14-.63.61-.02.18-.07.36-.1.53-.04,0-.07,0-.11,0-.09-.22-.19-.44-.28-.66-.03,0-.06,0-.09,0-.12.69.25,1.41-.06,2.16-.52-.5-.34-1.15-.54-1.76Z" style="fill:#42210b; stroke-width:0px;"/><path d="m44.9,10.51c-.7.22-1.35.45-2.01.63-2.51.69-5.08,1.06-7.67,1.32-3.37.33-6.74.46-10.12.38-4.55-.1-9.08-.44-13.55-1.39-1.06-.23-2.1-.56-3.14-.85-.1-.03-.19-.08-.36-.15.24-.12.41-.21.59-.29,1.8-.79,3.67-1.34,5.58-1.75,5.06-1.09,10.18-1.4,15.33-1.2,3.65.14,7.26.55,10.8,1.48,1.45.38,2.86.85,4.2,1.55.08.04.17.09.25.14.02.01.04.04.12.14Z" style="fill:#603813; stroke-width:0px;"/><path d="m15.1,8.32s-.05-.05-.08-.08c-.28.05-.55.11-.83.17-1.91.41-3.78.96-5.58,1.75-.18.08-.34.17-.59.29.18.07.27.12.36.15,1.05.29,2.08.62,3.14.85,3.9.83,7.86,1.2,11.83,1.34-3.1-.65-5.89-2.25-8.27-4.47Z" style="fill:#603813; mix-blend-mode:multiply; opacity:.3; stroke-width:0px;"/><path d="m44.77,10.37c-.08-.05-.16-.09-.25-.14-1.33-.7-2.75-1.17-4.2-1.55-.76-.2-1.51-.37-2.28-.52-.05.05-.09.1-.14.15-2.25,2.28-5.33,3.89-8.51,4.51,1.94-.06,3.88-.18,5.81-.37,2.59-.26,5.16-.63,7.67-1.32.66-.18,1.31-.41,2.01-.63-.08-.09-.1-.12-.12-.14Z" style="fill:#603813; mix-blend-mode:multiply; opacity:.3; stroke-width:0px;"/><path d="m5.53,6.95c.2.61.02,1.26.54,1.76.31-.74-.06-1.47.06-2.16.03,0,.06,0,.09,0,.09.22.19.44.28.66.04,0,.07,0,.11,0,.04-.18.08-.35.1-.53.06-.47.13-.54.63-.61.03.53.05,1.05.1,1.58.03.28.09.56.17.84.02.08.14.13.21.2.05-.07.13-.14.15-.22.04-.17.06-.36.05-.53-.02-.55-.07-1.1-.1-1.65-.03-.49-.04-.49.43-.63.08-.02.16-.04.27-.07.03.13.06.25.1.36.04.11.09.22.13.33.03,0,.07,0,.1,0,.03-.16.07-.31.08-.47.02-.29.14-.44.44-.5,1.62-.3,3.23-.69,4.85-.93,4.57-.67,9.18-.82,13.79-.7,3.93.11,7.85.44,11.72,1.2,1.1.22,2.19.52,3.29.78.25.06.34.18.28.45-.04.21,0,.44,0,.66.05.01.1.03.16.04.14-.28.29-.55.43-.83.55.07.58.13.52.66-.04.37-.06.74-.08,1.11,0,.1.05.19.09.37.41-.54.43-1.13.57-1.68.39.03.43.08.4.46-.03.37-.07.74-.07,1.11,0,.1.11.2.17.3.08-.08.19-.14.22-.24.11-.37.2-.75.31-1.19.55.34,1.09.67,1.29,1.34.09.31,0,.62-.23.82-.4.35-.83.66-1.27.97-.07.05-.23.03-.31-.02-2.08-1.24-4.37-1.89-6.7-2.4-3.45-.75-6.94-1.07-10.47-1.16-2.65-.07-5.3.02-7.94.28-3.46.33-6.89.87-10.19,2.03-1.01.36-1.97.87-2.95,1.29-.12.05-.3.08-.4.02-.53-.29-1.05-.6-1.56-.92-.13-.08-.23-.21-.33-.33-.41-.51-.4-.96.04-1.45.12-.13.25-.24.41-.39Zm37.76,1.5c.09-.38.16-.69.22-1.01,0-.05-.08-.16-.14-.17-.06-.02-.16.03-.21.08-.17.18-.12.81.13,1.1Z" style="fill:#f99e45; stroke-width:0px;"/><path d="m43.42,6.7c0-.2-.03-.41.01-.6.05-.27-.03-.39-.28-.45-.05-.01-.09-.02-.14-.03.16.35.29.72.41,1.08Z" style="fill:#f99e45; mix-blend-mode:multiply; opacity:.5; stroke-width:0px;"/><path d="m47.43,8.22c-.2-.67-.74-1-1.29-1.34-.11.43-.2.81-.31,1.19-.03.09-.15.16-.22.24-.06-.1-.17-.2-.17-.3,0-.37.04-.74.07-1.11.03-.38-.02-.43-.4-.46-.14.55-.16,1.14-.57,1.68-.05-.18-.1-.28-.09-.37.02-.37.04-.74.08-1.11.06-.54.03-.59-.52-.66-.15.28-.29.55-.43.83l-.14-.04c.24.77.41,1.56.52,2.35.57.25,1.13.53,1.67.86.08.05.24.07.31.02.43-.31.87-.61,1.27-.97.23-.2.32-.51.23-.82Z" style="fill:#f99e45; mix-blend-mode:multiply; opacity:.5; stroke-width:0px;"/><path d="m10.27,5.14c-.26.05-.52.1-.78.15-.3.06-.42.21-.44.5-.01.16-.06.31-.08.47-.03,0-.07,0-.1,0-.04-.11-.09-.22-.13-.33-.04-.12-.06-.23-.1-.36-.11.03-.2.04-.27.07-.46.14-.46.14-.43.63.04.55.08,1.1.1,1.65,0,.18-.02.36-.05.53-.02.08-.1.15-.15.22-.07-.07-.19-.12-.21-.2-.07-.27-.14-.55-.17-.84-.05-.52-.07-1.05-.1-1.58-.5.07-.58.14-.63.61-.02.18-.07.36-.1.53-.04,0-.07,0-.11,0-.09-.22-.19-.44-.28-.66-.03,0-.06,0-.09,0-.12.69.25,1.41-.06,2.16-.52-.5-.34-1.15-.54-1.76-.16.15-.3.26-.41.39-.44.49-.45.94-.04,1.45.1.12.2.25.33.33.51.32,1.03.63,1.56.92.1.06.28.03.4-.02.43-.19.85-.39,1.28-.58.23-1.49.81-3,1.61-4.3Z" style="fill:#f99e45; mix-blend-mode:multiply; opacity:.5; stroke-width:0px;"/><path d="m43.29,8.45c-.26-.29-.3-.93-.13-1.1.05-.05.15-.09.21-.08.06.02.15.12.14.17-.06.32-.13.63-.22,1.01Z" style="fill:#42210b; stroke-width:0px;"/><path d="m7.62,25.98c-2.5-.59-6.02,15.35-.74,17.34,5.28,1.99,4.06-16.56.74-17.34Z" style="fill:#fff; mix-blend-mode:overlay; opacity:.5; stroke-width:0px;"/><path d="m7.55,17.71c-1.81-.18-4.44,4.08-.56,4.98,3.88.9,2.96-4.74.56-4.98Z" style="fill:#fff; mix-blend-mode:overlay; opacity:.5; stroke-width:0px;"/></g></g></g></svg>