<?xml version="1.0" encoding="UTF-8"?><svg id="_Слой_2" xmlns="http://www.w3.org/2000/svg" width="847.44" height="849.62" xmlns:xlink="http://www.w3.org/1999/xlink" viewBox="0 0 847.44 849.62"><defs><clipPath id="clippath"><rect x="11.36" width="835" height="835" rx="50.23" ry="50.23" style="fill:none; stroke-width:0px;"/></clipPath><clipPath id="clippath-1"><path d="m206.75,437.12h405.77c20.32,0,36.82,16.5,36.82,36.82v95.76c0,20.32-16.5,36.82-36.82,36.82H206.75c-20.32,0-36.82-16.5-36.82-36.82v-95.77c0-20.32,16.5-36.82,36.82-36.82Z" style="fill:none; stroke-width:0px;"/></clipPath></defs><g id="_Слой_1-2"><rect x="11.36" width="835" height="835" rx="50.23" ry="50.23" style="fill:#fff; opacity:.5; stroke-width:0px;"/><g style="clip-path:url(#clippath);"><path d="m40.93,837.34c2.87-16.19,17.27-31.47,33.41-33.78,4.53-21.75,17.9-41.7,36.8-53.37,18.9-11.67,43.16-14.63,64.01-6.98,20.85,7.65,40.1,25.76,44.98,47.43,9.28-3.08,19.69-2.63,28.67,1.24,8.98,3.87,19.1,9.87,23.23,18.73,11.87-6.09,26.38-6.76,38.76-1.81,12.1,4.84,22.86,16.26,27.45,28.53H40.93Z" style="fill:#fffefe; stroke-width:0px;"/><path d="m162.8,754.47c17.86,5.83,32.44,20.84,37.75,38.86" style="fill:none; stroke:#e1dee6; stroke-linecap:round; stroke-linejoin:round; stroke-width:10.16px;"/><path d="m229.63,801.37c11.72-3.62,25.66,4.39,28.43,16.34" style="fill:none; stroke:#e1dee6; stroke-linecap:round; stroke-linejoin:round; stroke-width:10.16px;"/><rect x="226.34" y="530.72" width="348.12" height="306.62" style="fill:#ffa669; stroke-width:0px;"/><rect x="226.34" y="530.72" width="348.12" height="306.62" style="fill:#b8572f; opacity:.22; stroke-width:0px;"/><path d="m574.46,581.96v169.01c-12.44-2.61-24.55-6.76-35.94-12.42-32.39-16.11-56.88-41.69-70.63-75.15-36.04,4.26-73.72-8.28-100.02-33.29-13.98-13.3-24.61-29.99-31.13-48.16h237.72Z" style="fill:#b8572f; stroke-width:0px;"/><rect x="248.7" y="650.99" width="59.29" height="27.95" rx="10.16" ry="10.16" style="fill:#b8572f; stroke-width:0px;"/><rect x="319.85" y="650.99" width="59.29" height="27.95" rx="10.16" ry="10.16" style="fill:#b8572f; stroke-width:0px;"/><rect x="327.97" y="736.94" width="59.29" height="27.95" rx="10.16" ry="10.16" style="fill:#b8572f; stroke-width:0px;"/><rect x="399.11" y="736.94" width="59.29" height="27.95" rx="10.16" ry="10.16" style="fill:#b8572f; stroke-width:0px;"/><rect x="251.24" y="782.28" width="59.29" height="27.95" rx="10.16" ry="10.16" style="fill:#b8572f; stroke-width:0px;"/><rect x="322.39" y="782.28" width="59.29" height="27.95" rx="10.16" ry="10.16" style="fill:#b8572f; stroke-width:0px;"/><rect x="499.03" y="650.46" width="59.29" height="27.95" rx="10.16" ry="10.16" style="fill:none; stroke:#ffa669; stroke-linecap:round; stroke-linejoin:round; stroke-width:1.69px;"/><rect x="437.59" y="621.77" width="59.29" height="27.95" rx="10.16" ry="10.16" style="fill:none; stroke:#ffa669; stroke-linecap:round; stroke-linejoin:round; stroke-width:1.69px;"/><path d="m206.75,437.12h405.77c20.32,0,36.82,16.5,36.82,36.82v95.76c0,20.32-16.5,36.82-36.82,36.82H206.75c-20.32,0-36.82-16.5-36.82-36.82v-95.77c0-20.32,16.5-36.82,36.82-36.82Z" style="fill:#fcbd92; stroke-width:0px;"/><g style="clip-path:url(#clippath-1);"><rect x="202.96" y="462.53" width="59.29" height="27.95" rx="10.16" ry="10.16" style="fill:#b8572f; stroke-width:0px;"/><rect x="130.02" y="463.06" width="59.29" height="27.95" rx="10.16" ry="10.16" style="fill:#b8572f; stroke-width:0px;"/><rect x="274.11" y="462.53" width="59.29" height="27.95" rx="10.16" ry="10.16" style="fill:#b8572f; stroke-width:0px;"/><rect x="629.86" y="461.26" width="59.29" height="27.95" rx="10.16" ry="10.16" style="fill:#b8572f; stroke-width:0px;"/><rect x="345.26" y="462.53" width="59.29" height="27.95" rx="10.16" ry="10.16" style="fill:#b8572f; stroke-width:0px;"/><rect x="416.41" y="462.53" width="59.29" height="27.95" rx="10.16" ry="10.16" style="fill:#b8572f; stroke-width:0px;"/><rect x="487.56" y="462.53" width="59.29" height="27.95" rx="10.16" ry="10.16" style="fill:#b8572f; stroke-width:0px;"/><rect x="558.71" y="462.53" width="59.29" height="27.95" rx="10.16" ry="10.16" style="fill:#b8572f; stroke-width:0px;"/><rect x="211.43" y="550.62" width="59.29" height="27.95" rx="10.16" ry="10.16" style="fill:#b8572f; stroke-width:0px;"/><rect x="138.49" y="551.15" width="59.29" height="27.95" rx="10.16" ry="10.16" style="fill:#b8572f; stroke-width:0px;"/><rect x="282.58" y="550.62" width="59.29" height="27.95" rx="10.16" ry="10.16" style="fill:#b8572f; stroke-width:0px;"/><rect x="638.33" y="549.35" width="59.29" height="27.95" rx="10.16" ry="10.16" style="fill:#b8572f; stroke-width:0px;"/><rect x="353.73" y="550.62" width="59.29" height="27.95" rx="10.16" ry="10.16" style="fill:#b8572f; stroke-width:0px;"/><rect x="424.88" y="550.62" width="59.29" height="27.95" rx="10.16" ry="10.16" style="fill:#b8572f; stroke-width:0px;"/><rect x="496.03" y="550.62" width="59.29" height="27.95" rx="10.16" ry="10.16" style="fill:#b8572f; stroke-width:0px;"/><rect x="567.18" y="550.62" width="59.29" height="27.95" rx="10.16" ry="10.16" style="fill:#b8572f; stroke-width:0px;"/><rect x="165.7" y="507.85" width="59.29" height="27.95" rx="10.16" ry="10.16" style="fill:#b8572f; stroke-width:0px;"/><rect x="236.84" y="507.85" width="59.29" height="27.95" rx="10.16" ry="10.16" style="fill:#b8572f; stroke-width:0px;"/><rect x="307.99" y="507.85" width="59.29" height="27.95" rx="10.16" ry="10.16" style="fill:#b8572f; stroke-width:0px;"/><rect x="379.14" y="507.85" width="59.29" height="27.95" rx="10.16" ry="10.16" style="fill:#b8572f; stroke-width:0px;"/><rect x="450.29" y="507.85" width="59.29" height="27.95" rx="10.16" ry="10.16" style="fill:#b8572f; stroke-width:0px;"/><rect x="521.44" y="507.85" width="59.29" height="27.95" rx="10.16" ry="10.16" style="fill:#b8572f; stroke-width:0px;"/><rect x="594.28" y="507.85" width="59.29" height="27.95" rx="10.16" ry="10.16" style="fill:#b8572f; stroke-width:0px;"/></g><ellipse cx="383.43" cy="232.92" rx="140.25" ry="128.85" style="fill:#ebb22a; stroke-width:0px;"/><ellipse cx="544.01" cy="314" rx="140.26" ry="128.85" style="fill:#ebb22a; stroke-width:0px;"/><ellipse cx="538.06" cy="163.69" rx="161.43" ry="148.3" style="fill:#ebb22a; stroke-width:0px;"/><path d="m517.23,392.02h-238.93c-.53,0-.93-.47-.84-.99l1.7-10.37,10.02-60.96h0c5.65-34.3,35.3-59.48,70.07-59.48h106.93c20.31,0,37.44,15.13,39.96,35.28l3.02,24.19,3.66,29.26,3.96,31.71,1.29,10.4c.06.51-.33.96-.85.96Z" style="fill:#383431; stroke-width:0px;"/><path d="m517.23,392.02h-238.93c-.53,0-.93-.47-.84-.99l1.7-10.37,10.02-60.96h0c5.65-34.3,35.3-59.48,70.07-59.48h106.93c20.31,0,37.44,15.13,39.96,35.28l3.02,24.19,3.66,29.26,3.96,31.71,1.29,10.4c.06.51-.33.96-.85.96Z" style="fill:#db382f; stroke-width:0px;"/><path d="m564.57,449c-23.64-60.91-88.17-104.63-164.09-104.63s-140.45,43.71-164.09,104.63h328.17Z" style="fill:#db382f; stroke-width:0px;"/><path d="m635.48,244.23c10.47,18.78,14.78,40.92,12.13,62.25-2.65,21.33-12.26,41.74-27,57.39" style="fill:none; stroke:#ce8722; stroke-linecap:round; stroke-linejoin:round; stroke-width:8.69px;"/><path d="m628.75,176.4c-17.03-7.33-36.78.54-44.11,17.58l-35.44,82.4-43.76-26.9c-6.01-3.66-13.08-6.3-20.51-7.27-28.52-3.73-54.67,16.36-58.4,44.88s16.36,54.67,44.88,58.4l82.37,10.78,7.96,1.05c14.07,1.83,28.22-5.75,34.1-19.43l50.49-117.39c7.33-17.03-.54-36.78-17.58-44.11Z" style="fill:#db382f; stroke-width:0px;"/><path d="m353.06,228.25c-5.01,7.67-1.78,18.71,6.37,22.57" style="fill:none; stroke:#fdffff; stroke-linecap:round; stroke-linejoin:round; stroke-width:5.43px;"/><path d="m383.46,205.97c-2.59,8.39-10.03,15.01-18.5,16.46" style="fill:none; stroke:#fdffff; stroke-linecap:round; stroke-linejoin:round; stroke-width:5.43px;"/><ellipse cx="403.34" cy="123.75" rx="50.17" ry="50.42" style="fill:#db382f; stroke-width:0px;"/><path d="m441.8,124.65c1.88-14.18-9.17-27.55-22.38-33.04-13.21-5.49-28.07-4.88-42.34-3.9-14.27.98-28.98,2.18-42.58-2.26-13.6-4.44-25.95-16.16-26.3-30.47" style="fill:none; stroke:#db382f; stroke-linecap:round; stroke-linejoin:round; stroke-width:31.91px;"/><path d="m370.06,188.92c0,8.89-6.8,16.09-15.19,16.09s-15.19-7.21-15.19-16.09,6.8-16.09,15.19-16.09,15.19,7.21,15.19,16.09Z" style="fill:#eec0a2; stroke-width:0px;"/><path d="m476.22,187.21c0,8.89-6.8,16.09-15.19,16.09s-15.19-7.21-15.19-16.09,6.8-16.09,15.19-16.09,15.19,7.21,15.19,16.09Z" style="fill:#eec0a2; stroke-width:0px;"/><path d="m464.46,213.04c-2.51-2.09-4.53-4.73-5.68-8.35-4.91-15.39,2.56-33.27,1.32-49-.29-3.65-.81-7.35-2.25-10.57-1.45-3.22-3.98-5.91-6.98-6.41-8.12-1.36-17.5-3.98-25.52-1.94-5.79,1.47-12.22,4.85-16.27,10.06-4.42-5.2-11.42-8.58-17.72-10.06-8.74-2.04-18.95.57-27.79,1.94-3.27.5-6.02,3.19-7.6,6.41-1.58,3.22-2.14,6.92-2.46,10.57-1.06,12.37,2.57,25.26,1.88,37.86-.97,17.84-9.44,19.97-22.14,29.16-10.12,7.32-16.91,19.12-16.91,31.73,0,23,21.47,41.65,47.96,41.65,9.5,0,18.36-2.4,25.81-6.55.78-.43,1.72-.52,2.53-.15,3.67,1.66,7.85,2.59,12.27,2.59,6.01,0,11.55-1.73,16.01-4.63.94-.61,2.15-.56,3.08.07,8.1,5.43,18.25,8.67,29.28,8.67,26.49,0,47.96-18.65,47.96-41.65,0-10.32-4.51-20.02-11.73-27.28-6.69-6.73-17.89-8.15-25.06-14.11Z" style="fill:#fdffff; stroke-width:0px;"/><rect x="360.7" y="136.55" width="88.66" height="78.19" rx="37.11" ry="37.11" style="fill:#eec0a2; stroke-width:0px;"/><path d="m430.37,223.63c0,15.53-11.34,28.12-25.33,28.12s-25.33-12.59-25.33-28.12,11.34-28.12,25.33-28.12,25.33,12.59,25.33,28.12Z" style="fill:#fdffff; stroke-width:0px;"/><path d="m441.24,195.67c0,4.94-4,8.94-8.94,8.94s-8.94-4-8.94-8.94,4-8.94,8.94-8.94,8.94,4,8.94,8.94Z" style="fill:#e48c90; stroke-width:0px;"/><path d="m387.01,193.28c0,4.94-4,8.94-8.94,8.94s-8.94-4-8.94-8.94,4-8.94,8.94-8.94,8.94,4,8.94,8.94Z" style="fill:#e48c90; stroke-width:0px;"/><path d="m456.65,158.87h-104.18c-9.46,0-17.2-7.74-17.2-17.2h0c0-9.46,7.74-17.2,17.2-17.2h104.18c9.46,0,17.2,7.74,17.2,17.2h0c0,9.46-7.74,17.2-17.2,17.2Z" style="fill:#fdffff; stroke-width:0px;"/><path d="m331.06,40.49c0,14.29-11.59,25.88-25.88,25.88s-25.87-11.58-25.87-25.88,11.58-25.88,25.87-25.88,25.88,11.58,25.88,25.88Z" style="fill:#fdffff; stroke-width:0px;"/><path d="m429.09,354.36h-16.41c-3.7,0-6.73-3.03-6.73-6.73h0c0-3.7,3.03-6.73,6.73-6.73h16.41c3.7,0,6.73,3.03,6.73,6.73h0c0,3.7-3.03,6.73-6.73,6.73Z" style="fill:#f8e895; stroke-width:0px;"/><path d="m512.82,348.95l-1.09-8.68h-225.93l-6.64,40.39-1.7,10.37c-.09.52.32.99.84.99h238.93c.51,0,.91-.45.85-.96l-1.29-10.4-3.96-31.71Z" style="fill:#383431; stroke-width:0px;"/><path d="m597.32,174.07c-10-13.53-12.67-32.16-6.89-47.96.73-1.99,1.75-4.11,3.69-4.95,3.67-1.6,7.27,2.27,9.43,5.64,2.58,4.03,5.15,8.06,7.73,12.09.38-7.93.78-15.95,3.11-23.54,2.33-7.59,6.84-14.81,13.71-18.78,12.73-7.35,30.34-.69,38.07,11.81,7.74,12.5,7.05,28.78,1.83,42.52-5.7,15.01-16.52,28.01-30.24,36.35-14.5-6.28-25.18-9.07-40.44-13.17Z" style="fill:#383431; stroke-width:0px;"/><path d="m637.92,217.31l-56.07-15.79c-7.71-2.17-12.24-10.25-10.07-17.96l2.09-7.44c2.17-7.71,10.25-12.24,17.96-10.07l56.07,15.79c7.71,2.17,12.24,10.25,10.07,17.96l-2.09,7.44c-2.17,7.71-10.25,12.24-17.96,10.07Z" style="fill:#fdffff; stroke-width:0px;"/><path d="m635.67,134.66c0,12.2-10.74,22.09-23.98,22.09s-23.98-9.89-23.98-22.09,10.74-22.09,23.98-22.09,23.98,9.89,23.98,22.09Z" style="fill:#383431; stroke-width:0px;"/><rect x="378.18" y="333.76" width="46.7" height="62.86" rx="2.69" ry="2.69" style="fill:none; stroke:#f8e895; stroke-linecap:round; stroke-linejoin:round; stroke-width:12.22px;"/><path d="m433.72,368.8h-18.93c-2.78,0-5.05-2.27-5.05-5.05h0c0-2.78,2.27-5.05,5.05-5.05h18.93c2.78,0,5.05,2.27,5.05,5.05h0c0,2.78-2.27,5.05-5.05,5.05Z" style="fill:#f8e895; stroke-width:0px;"/><path d="m470.33,363.75c0,2.79-2.26,5.05-5.05,5.05s-5.05-2.26-5.05-5.05,2.26-5.05,5.05-5.05,5.05,2.26,5.05,5.05Z" style="fill:#f8e895; stroke-width:0px;"/><path d="m648.58,191.67c-26.16-14.72-28.05-36.18-23.63-44.38h-17.79l1.38,95.33c6.32-5.07,13.36-15.49,15.54-23.29,1.1-3.91,1.57-8.08.72-12.05,8.89-1.83,18.45-8.26,23.78-15.61Z" style="fill:#ebb22a; stroke-width:0px;"/><path d="m557.03,68.67c21.82,4.32,41.52,17.45,53.98,35.87-1.58-15.37-9.57-30.51-21.45-40.42" style="fill:none; stroke:#ce8722; stroke-linecap:round; stroke-linejoin:round; stroke-width:8.69px;"/><path d="m518.06,69.95c6.99-1.88,14.21-2.85,21.45-2.91" style="fill:none; stroke:#ce8722; stroke-linecap:round; stroke-linejoin:round; stroke-width:8.69px;"/><path d="m507.79,199.5c-5.44,3.15-10.56,6.86-15.22,11.08" style="fill:none; stroke:#ce8722; stroke-linecap:round; stroke-linejoin:round; stroke-width:8.69px;"/><path d="m544.79,187.62c-5.78.54-11.5,1.65-17.06,3.3" style="fill:none; stroke:#ce8722; stroke-linecap:round; stroke-linejoin:round; stroke-width:8.69px;"/><path d="m596.74,156.48c3.93-2.5,6.9-6.46,8.25-10.92.34-1.11,1.63-1.61,2.66-1.07,7.2,3.75,15.53,5.18,23.61,4.33,6.92-.73,8.87-9.96,2.91-13.54-5.69-3.42-25.53-4.57-30.64-8.48" style="fill:none; stroke:#c3e0e4; stroke-linecap:round; stroke-linejoin:round; stroke-width:3.65px;"/><path d="m404.65,182.79c-1.61-11.05-12.49-18.59-23.35-21.16-10.86-2.58-22.24-1.58-33.31-3.04-11.07-1.46-22.8-6.29-27.64-16.35,1.22,19.48,10.84,36.75,27.93,46.18,17.09,9.43,42.05,7.65,56.37-5.62Z" style="fill:#383431; stroke-width:0px;"/><path d="m359.17,174.39c8.82,7.22,21.23,9.82,32.21,6.75-3.97-4.47-9.85-8.51-15.82-8.91-5.97-.4-10.52,1.02-16.39,2.16Z" style="fill:#fdffff; stroke-width:0px;"/><path d="m402.78,182.79c1.61-11.05,12.49-18.59,23.35-21.16,10.86-2.58,22.24-1.58,33.31-3.04,11.07-1.46,22.8-6.29,27.64-16.35-1.22,19.48-10.84,36.75-27.93,46.18-17.09,9.43-42.05,7.65-56.37-5.62Z" style="fill:#383431; stroke-width:0px;"/><path d="m448.26,174.39c-8.82,7.22-21.23,9.82-32.21,6.75,3.97-4.47,9.85-8.51,15.82-8.91,5.97-.4,10.52,1.02,16.39,2.16Z" style="fill:#fdffff; stroke-width:0px;"/><path d="m396.81,186.7c-2.59-2.39-6.91-.02-7.8,1.94-.89,1.96-.44,4.46,1.08,5.98,1.52,1.53,4.01,1.99,5.98,1.12,1.9,2.8,5.08,4.49,8.47,4.46,3.39-.03,6.71-1.85,8.56-4.69,1.58,1.22,3.66.67,5.2-.59,1.54-1.27,2.16-3.49,1.65-5.43-.51-1.93-2.05-3.52-3.91-4.25-1.86-.73-3.4-.26-5.27.45-1.6-3.99-5.13-3.01-7.99-2.91-2.86.11-4.77.51-5.97,3.9Z" style="fill:#e48c90; stroke-width:0px;"/><path d="m410.67,184.8c3.66,3.66,3.72,9.53.14,13.11-3.58,3.58-9.45,3.52-13.11-.14s-3.72-9.53-.14-13.11c3.58-3.58,9.45-3.52,13.11.14Z" style="fill:#e48c90; stroke-width:0px;"/><path d="m420.51,289.9c-4.24-11.29-18.19-17.45-31.15-13.76,0,0-39.71,12.04-43.42,12.41-8.17.82-26.32-9.64-29.09-29.75-15.37,2.38-37.44,8.13-39.58,8.93-27.72,10.43-58.81,27.57-75.73,52.94-18.89,28.32-2.49,74.08,34.87,75.56,2.09.08,4.19-.01,6.27-.28,11.99-1.57,24.41-4.39,34.91-9.51,23.39-11.4,46.77-22.81,70.16-34.21,20.68-10.08,40.66-26.79,61.34-36.87,10.1-4.92,15.14-15.53,11.41-25.47Z" style="fill:#db382f; stroke-width:0px;"/><path d="m371.56,290.47c-2.71,10.58.88,22.19,7.94,30.52,8.06,9.52,20.98,15.15,33.3,13.18,12.32-1.97,23.27-12.13,24.87-24.51,1.36-10.53-3.96-21.26-12.19-27.97-16.46-13.41-47.41-16.68-53.92,8.77Z" style="fill:#fdffff; stroke-width:0px;"/><path d="m395.65,282.01c-1.46-24.28.37-48.76,5.44-72.55.21-1.01.53-2.14,1.44-2.61,1.96-1.02,3.59,1.86,3.92,4.04,1.39,9.23,1.96,18.58,1.71,27.91,5.59-1.55,10.25-1.63,15.87-.21,5.62,1.42,10.77,6.25,10.73,12.05,5.48-1.02,10.17,4.77,10.96,10.29.79,5.52-3.67,11.23-9.22,11.8,4.2,8.69.87,20.92-5.53,28.13-6.4,7.22-17.29,10.07-26.41,6.93-3.15-1.08-6.14-2.88-8.08-5.59-3.79-5.3-.43-13.68-.82-20.18Z" style="fill:#383431; stroke-width:0px;"/><path d="m432.23,266.21c2.68,7.51-2.03,16.8-9.68,19.07" style="fill:none; stroke:#c3e0e4; stroke-linecap:round; stroke-linejoin:round; stroke-width:4px;"/><path d="m531.14,289.71c-2.16,12.86-10,24.65-21.02,31.62.88,4.95.31,8.48,1.19,13.43" style="fill:none; stroke:#a31f1c; stroke-linecap:round; stroke-linejoin:round; stroke-width:6.37px;"/><path d="m228.38,311.54c16-14.61,41.06-18.3,60.59-8.93l43.07-11.6" style="fill:none; stroke:#a31f1c; stroke-linecap:round; stroke-linejoin:round; stroke-width:6.37px;"/><path d="m203.29,436.3c-.28,15.87,13.61,28.33,27.65,35.73,24.93,13.14,54.27,17.73,82.02,12.83,11.03-1.95,21.79-5.33,32.88-6.91,11.09-1.57,22.9-1.19,32.81,4.03,13.29,7,20.84,21.2,31.1,32.18,25.32,27.11,70.61,32.63,101.7,12.39,11.42-7.43,17.38-17.9,22.71-30.43,16.64,8.15,38.5,4,53.3-7.15,16.07-12.1,19.03-35.72,10.95-51.89l-395.13-.78Z" style="fill:#fffefe; stroke-width:0px;"/><path d="m347.72,464.1c19.56-.72,42.43,1.82,56.47,16.65" style="fill:none; stroke:#e1dee6; stroke-linecap:round; stroke-linejoin:round; stroke-width:10.16px;"/><path d="m238.06,452.55c21.65,20.99,53.84,19.3,81.81,14.6" style="fill:none; stroke:#e1dee6; stroke-linecap:round; stroke-linejoin:round; stroke-width:10.16px;"/><path d="m528.49,479.5c-2.3,21.95-20.86,41.13-42.72,44.13" style="fill:none; stroke:#e1dee6; stroke-linecap:round; stroke-linejoin:round; stroke-width:10.16px;"/><circle cx="622.38" cy="581.66" r="33.88" style="fill:#fffefe; stroke-width:0px;"/><path d="m550.21,539.25c0,6.78-5.5,12.28-12.28,12.28s-12.28-5.5-12.28-12.28,5.5-12.28,12.28-12.28,12.28,5.5,12.28,12.28Z" style="fill:#fffefe; stroke-width:0px;"/><circle cx="578.28" cy="675.98" r="22.02" transform="translate(-308.62 606.9) rotate(-45)" style="fill:#fffefe; stroke-width:0px;"/><path d="m840.16,849.62c-3.81-21.5-22.94-41.79-44.37-44.86-6.02-28.88-23.77-55.38-48.88-70.88-25.1-15.5-57.32-19.43-85.02-9.26-27.7,10.16-53.26,34.21-59.75,62.99-12.33-4.09-26.15-3.49-38.08,1.65-11.93,5.14-25.37,13.11-30.86,24.88-15.76-8.08-35.03-8.98-51.48-2.41-16.08,6.43-30.36,21.6-36.46,37.89h394.89Z" style="fill:#fffefe; stroke-width:0px;"/><path d="m678.29,739.56c-23.72,7.74-43.09,27.68-50.14,51.62" style="fill:none; stroke:#e1dee6; stroke-linecap:round; stroke-linejoin:round; stroke-width:13.5px;"/><path d="m589.54,801.85c-15.56-4.81-34.08,5.84-37.76,21.7" style="fill:none; stroke:#e1dee6; stroke-linecap:round; stroke-linejoin:round; stroke-width:13.5px;"/><circle cx="155.26" cy="549.02" r="20.58" style="fill:#fffefe; stroke-width:0px;"/><circle cx="151.48" cy="337.96" r="9.34" style="fill:#fffefe; stroke-width:0px;"/><path d="m224.31,187.64c0,1.55-1.25,2.8-2.8,2.8s-2.8-1.25-2.8-2.8,1.25-2.8,2.8-2.8,2.8,1.25,2.8,2.8Z" style="fill:#fffefe; stroke-width:0px;"/><path d="m44.98,100.91c0,1.55-1.25,2.8-2.8,2.8s-2.8-1.25-2.8-2.8,1.25-2.8,2.8-2.8,2.8,1.25,2.8,2.8Z" style="fill:#fffefe; stroke-width:0px;"/><path d="m52.21,385.16c0,1.55-1.25,2.8-2.8,2.8s-2.8-1.25-2.8-2.8,1.25-2.8,2.8-2.8,2.8,1.25,2.8,2.8Z" style="fill:#fffefe; stroke-width:0px;"/><path d="m790.01,63.09c0,1.55-1.25,2.8-2.8,2.8s-2.8-1.25-2.8-2.8,1.25-2.8,2.8-2.8,2.8,1.25,2.8,2.8Z" style="fill:#fffefe; stroke-width:0px;"/><circle cx="783.83" cy="171.36" r="2.8" style="fill:#fffefe; stroke-width:0px;"/><circle cx="711.26" cy="379.28" r="2.8" style="fill:#fffefe; stroke-width:0px;"/><circle cx="209.96" cy="63.48" r="2.8" style="fill:#fffefe; stroke-width:0px;"/><circle cx="844.64" cy="469.5" r="2.8" style="fill:#fffefe; stroke-width:0px;"/><path d="m15.78,580.47c0,1.55-1.25,2.8-2.8,2.8s-2.8-1.25-2.8-2.8,1.25-2.8,2.8-2.8,2.8,1.25,2.8,2.8Z" style="fill:#fffefe; stroke-width:0px;"/><path d="m117.77,533.39c0,1.55-1.25,2.8-2.8,2.8s-2.8-1.25-2.8-2.8,1.25-2.8,2.8-2.8,2.8,1.25,2.8,2.8Z" style="fill:#fffefe; stroke-width:0px;"/><path d="m610.1,631.47c0,1.55-1.25,2.8-2.8,2.8s-2.8-1.25-2.8-2.8,1.25-2.8,2.8-2.8,2.8,1.25,2.8,2.8Z" style="fill:#fffefe; stroke-width:0px;"/><circle cx="803.45" cy="685.26" r="2.8" style="fill:#fffefe; stroke-width:0px;"/><path d="m74.92,210.98c0,3.09-2.51,5.6-5.6,5.6s-5.6-2.51-5.6-5.6,2.51-5.6,5.6-5.6,5.6,2.51,5.6,5.6Z" style="fill:#fffefe; stroke-width:0px;"/><path d="m190.7,256.73c0,3.61-2.93,6.54-6.54,6.54s-6.54-2.93-6.54-6.54,2.93-6.54,6.54-6.54,6.54,2.93,6.54,6.54Z" style="fill:#fffefe; stroke-width:0px;"/><circle cx="48.78" cy="556.44" r="9.34" style="fill:#fffefe; stroke-width:0px;"/><circle cx="682.74" cy="351.97" r="14.79" transform="translate(-31.4 69.09) rotate(-5.66)" style="fill:#fffefe; stroke-width:0px;"/><path d="m749.74,181.17c0,4.13-3.34,7.47-7.47,7.47s-7.47-3.34-7.47-7.47,3.34-7.47,7.47-7.47,7.47,3.34,7.47,7.47Z" style="fill:#fffefe; stroke-width:0px;"/><circle cx="789.18" cy="346.37" r="6.54" style="fill:#fffefe; stroke-width:0px;"/><path d="m734.51,271.11c0,3.09-2.51,5.6-5.6,5.6s-5.6-2.51-5.6-5.6,2.51-5.6,5.6-5.6,5.6,2.51,5.6,5.6Z" style="fill:#fffefe; stroke-width:0px;"/><path d="m827.82,291.37c0,3.09-2.51,5.6-5.6,5.6s-5.6-2.51-5.6-5.6,2.51-5.6,5.6-5.6,5.6,2.51,5.6,5.6Z" style="fill:#fffefe; stroke-width:0px;"/><path d="m638.86,665.68c0,2.58-2.09,4.67-4.67,4.67s-4.67-2.09-4.67-4.67,2.09-4.67,4.67-4.67,4.67,2.09,4.67,4.67Z" style="fill:#fffefe; stroke-width:0px;"/><path d="m762.11,682.49c0,4.64-3.76,8.4-8.4,8.4s-8.4-3.76-8.4-8.4,3.76-8.4,8.4-8.4,8.4,3.76,8.4,8.4Z" style="fill:#fffefe; stroke-width:0px;"/><path d="m801.32,604.99c0,3.09-2.51,5.6-5.6,5.6s-5.6-2.51-5.6-5.6,2.51-5.6,5.6-5.6,5.6,2.51,5.6,5.6Z" style="fill:#fffefe; stroke-width:0px;"/><circle cx="785.45" cy="736.64" r="12.14" style="fill:#fffefe; stroke-width:0px;"/><circle cx="45.04" cy="728.24" r="14.94" transform="translate(-275.26 72.67) rotate(-22.5)" style="fill:#fffefe; stroke-width:0px;"/><path d="m63.72,626.47c0,4.64-3.76,8.4-8.4,8.4s-8.4-3.76-8.4-8.4,3.76-8.4,8.4-8.4,8.4,3.76,8.4,8.4Z" style="fill:#fffefe; stroke-width:0px;"/><circle cx="808.79" cy="450" r="14.94" transform="translate(184.47 1133.29) rotate(-76.67)" style="fill:#fffefe; stroke-width:0px;"/><circle cx="164.01" cy="65.9" r="14.94" style="fill:#fffefe; stroke-width:0px;"/><circle cx="805.41" cy="98.11" r="14.94" transform="translate(529.88 861.25) rotate(-77.09)" style="fill:#fffefe; stroke-width:0px;"/><circle cx="783.47" cy="267.56" r="14.94" transform="translate(52.4 656.07) rotate(-46.84)" style="fill:#fffefe; stroke-width:0px;"/><circle cx="171.95" cy="215.74" r="14.94" style="fill:#fffefe; stroke-width:0px;"/><path d="m704.58,88.3c0,3.61-2.93,6.54-6.54,6.54s-6.54-2.93-6.54-6.54,2.93-6.54,6.54-6.54,6.54,2.93,6.54,6.54Z" style="fill:#fffefe; stroke-width:0px;"/><path d="m138.41,131.62c0,3.61-2.93,6.54-6.54,6.54s-6.54-2.93-6.54-6.54,2.93-6.54,6.54-6.54,6.54,2.93,6.54,6.54Z" style="fill:#fffefe; stroke-width:0px;"/><circle cx="14.94" cy="345.93" r="14.94" style="fill:#fffefe; stroke-width:0px;"/><circle cx="68.39" cy="318.36" r="8.4" style="fill:#fffefe; stroke-width:0px;"/><path d="m134.68,406.12c0,4.64-3.76,8.4-8.4,8.4s-8.4-3.76-8.4-8.4,3.76-8.4,8.4-8.4,8.4,3.76,8.4,8.4Z" style="fill:#fffefe; stroke-width:0px;"/><path d="m477.29,791.27c-2.05,6.97-7.31,12.87-14.69,15.45-12.15,4.23-25.42-2.18-29.66-14.33l-59.99-172.11c-5.51-15.8-11.21-32.15-19.88-45.1-8.07-12.05-18.61-20.27-28.92-22.54-9.04-1.99-19.26,1.46-22.78,7.7-5.76,10.19,1.58,28.69,7.6,41.71,5.4,11.68.31,25.52-11.37,30.92-11.68,5.4-25.52.31-30.91-11.37-11.2-24.22-21.99-55.68-5.87-84.19,6.97-12.32,18.61-22.04,32.79-27.35,12.84-4.81,27.25-5.85,40.57-2.91,22.25,4.9,42.7,19.86,57.6,42.11,11.99,17.9,18.98,37.97,25.16,55.68l59.99,172.11c1.66,4.77,1.68,9.71.36,14.21Z" style="fill:#db382f; stroke-width:0px;"/><path d="m464.13,745.4c-14.89,5.43-27.79,14.62-38.47,26.08l7.29,20.91c4.23,12.15,17.51,18.56,29.66,14.33,7.38-2.57,12.64-8.48,14.69-15.45,1.32-4.5,1.3-9.45-.36-14.21l-11.23-32.2c-.53.18-1.06.35-1.58.55Z" style="fill:#fff; stroke-width:0px;"/><path d="m285.78,577.32c-10.7-4.24-21.83-7.14-33.11-9.3-.34,19.05,6.76,37.84,14.03,53.58,5.4,11.68,19.24,16.76,30.91,11.37,11.68-5.4,16.76-19.24,11.37-30.92-2.34-5.05-4.87-10.93-6.76-16.83-5.29-2.99-10.77-5.65-16.44-7.9Z" style="fill:#fff; stroke-width:0px;"/><path d="m334.82,557.06c6.64,4.01,12.98,10.24,18.26,18.12,2.47,3.69,4.7,7.67,6.75,11.82,4.9-7.45,10.5-14.41,17.29-20.21,5.63-4.8,11.84-8.57,18.43-11.54-1.2-2.02-2.45-4.02-3.77-5.99-14.51-21.67-34.3-36.42-55.87-41.7-5,16.09-3.86,32.88-1.1,49.5Z" style="fill:#fff; stroke-width:0px;"/><path d="m412.97,624.78c-12.36,7.46-24.18,18.54-26.83,33.3l14.59,41.86c11.16-9.52,23.5-17.62,37.41-22.57,1.21-.43,2.42-.82,3.64-1.19l-19.65-56.37c-3.12,1.52-6.18,3.17-9.16,4.96Z" style="fill:#fff; stroke-width:0px;"/><path d="m293.03,732c2.18.06,4.01-.41,5.84-.73,12.6-2.16,23.93.95,34.18,8.33,4.04,2.91,7.25,6.6,9.59,11.01.26.5.56.98.86,1.45.29.45.74.65,1.27.56.61-.1,1.06-.47,1.14-1.08.09-.62.1-1.26.04-1.88-.62-5.82,1.76-10.52,5.51-14.7,3.47-3.87,10.05-6.61,16.59-2.52,4.88,3.05,8.63,7.11,11.52,12.03.14.24.25.51.39.75.37.64.81,1.19,1.65,1,.95-.21,1.16-.96,1.1-1.78-.23-3.58.75-6.92,1.88-10.27,2.71-8.02,10.54-11.08,17.24-9.59,4.3.95,8.04,2.84,11.26,5.81,2.01,1.86,3.82,3.91,5.58,6.01.32.38.61.77.94,1.13.53.59,1.1,1.15,1.99.86.99-.33,1.09-1.18,1.08-2.06-.03-1.82-.13-3.65-.08-5.47.23-9.01,6.93-16.12,15.88-16.89,1.96-.17,3.92-.11,5.89-.03.56.02,1.12.02,1.68.02.62-.01,1.09-.31,1.31-.88.26-.68,0-1.27-.54-1.68-.61-.46-1.28-.86-1.94-1.25-2.9-1.73-5.69-3.61-8.1-5.99-4.04-4-6.55-8.89-8.22-14.26-.6-1.92-.5-2.01,1.42-2.69,3.18-1.12,6.39-2.13,9.47-3.53.57-.26,1.17-.48,1.63-.95.32-.33.48-.68.34-1.13-.14-.45-.48-.65-.94-.72-.65-.1-1.25.09-1.87.23-3.08.73-6.04,1.83-9.04,2.84-2.25.75-2.54.69-3.51-1.5-1.29-2.9-1.99-5.98-2.47-9.12-.9-5.95.36-11.58,2.51-17.07.26-.65.54-1.3.77-1.96.29-.83.44-1.7-.44-2.27-.79-.51-1.46-.07-2.08.45-1.08.9-2.16,1.79-3.25,2.67-2.15,1.74-4.47,3.23-7.16,3.9-6.71,1.65-12.48-.21-17.27-5.09-1.22-1.24-2.16-2.75-3.23-4.14-.3-.39-.57-.8-.89-1.17-.51-.61-1.08-1.15-1.97-.84-.88.31-1.01,1.09-1.06,1.88-.05.84-.07,1.68-.1,2.52-.09,2.46-.3,4.9-.7,7.32-.82,4.85-2.96,9.02-6.44,12.52-4.59,4.62-11.32,5.68-17.03,2.55-3.47-1.9-6.66-4.17-8.98-7.48-.24-.34-.53-.68-.87-.89-.83-.53-1.7-.13-1.94.82-.14.57.06,1.11.14,1.66.75,5.65.42,11.2-1.71,16.56-2.58,6.5-8.07,9.53-14.96,8.23-5.45-1.02-10.1-3.35-13.12-8.26-.29-.47-.65-.92-1.04-1.31-.42-.43-.98-.58-1.54-.31-.56.27-.81.76-.76,1.38.04.49.1.98.18,1.46,1.4,8.15-.28,15.77-4.02,23-1.09,2.11-2.38,4.14-3.68,6.14-2.55,3.93-5.74,7.21-9.72,9.76-2.83,1.82-5.63,3.68-8.63,5.21-.56.29-1.14.54-1.59,1.43Z" style="fill:#2b5019; stroke-width:0px;"/><path d="m293.73,731.11c.29-.24.6-.39.9-.54,3-1.53,5.8-3.4,8.63-5.21,3.98-2.55,7.16-5.84,9.72-9.76,1.3-2,2.59-4.02,3.68-6.14,3.74-7.23,5.43-14.85,4.02-23-.08-.48-.14-.97-.18-1.46-.05-.62.2-1.11.76-1.38.57-.27,1.12-.12,1.54.31.39.4.75.84,1.04,1.31,3.01,4.92,7.67,7.24,13.12,8.26,6.89,1.29,12.39-1.74,14.96-8.23,2.12-5.35,2.46-10.9,1.71-16.56-.07-.55-.28-1.09-.14-1.66.24-.96,1.11-1.35,1.94-.82.34.22.63.56.87.89,2.31,3.31,5.51,5.58,8.98,7.48,5.7,3.12,12.44,2.06,17.03-2.55,3.48-3.5,5.62-7.67,6.44-12.52.41-2.42.61-4.87.7-7.32.03-.84.04-1.68.1-2.52.05-.79.18-1.57,1.06-1.88.89-.31,1.46.23,1.97.84.31.38.59.79.89,1.17,1.07,1.39,2.01,2.9,3.23,4.14,4.79,4.88,10.57,6.74,17.27,5.09,2.69-.66,5.01-2.16,7.16-3.9,1.09-.88,2.17-1.77,3.25-2.67.62-.52,1.3-.96,2.08-.45.88.57.72,1.44.44,2.27-.23.66-.51,1.31-.77,1.96-2.15,5.5-3.42,11.12-2.52,17.07.48,3.13,1.18,6.21,2.47,9.12.97,2.19,1.26,2.25,3.51,1.5,2.99-1,5.96-2.11,9.04-2.84.56-.13,1.11-.29,1.7-.24l-146.6,50.24Z" style="fill:#3f7722; stroke-width:0px;"/><path d="m552.2,608.99c-1.93.48-3.41,1.35-4.94,2.07-10.52,4.99-21.21,5.05-32.02,1.11-4.26-1.55-7.98-4-11.12-7.3-.35-.37-.73-.72-1.11-1.06-.37-.32-.81-.38-1.25-.18-.51.24-.81.67-.73,1.23.08.56.22,1.13.43,1.66,1.98,4.95,1.05,9.66-1.21,14.25-2.09,4.24-7.19,8.27-13.93,6.29-5.03-1.48-9.32-4.11-13.06-7.71-.18-.18-.34-.38-.52-.56-.48-.47-1-.84-1.7-.47-.78.42-.78,1.13-.53,1.83,1.08,3.09,1.05,6.25.88,9.47-.4,7.7-6.52,12.31-12.75,12.65-4.01.22-7.75-.51-11.31-2.32-2.22-1.13-4.31-2.49-6.37-3.89-.37-.25-.73-.52-1.1-.76-.61-.39-1.25-.73-1.95-.26-.79.53-.66,1.3-.44,2.07.47,1.59,1.01,3.17,1.42,4.77,2.02,7.96-2.11,15.84-9.76,18.72-1.68.63-3.41,1.06-5.15,1.48-.5.12-.99.25-1.48.4-.54.16-.88.54-.94,1.09-.06.66.31,1.11.88,1.34.65.26,1.33.44,2.01.62,2.97.8,5.88,1.76,8.58,3.26,4.53,2.51,7.93,6.18,10.71,10.47,1,1.54.94,1.64-.59,2.71-2.51,1.77-5.08,3.44-7.43,5.42-.44.37-.9.71-1.19,1.23-.2.36-.25.72-.02,1.08.24.36.58.45,1,.4.59-.07,1.08-.38,1.58-.66,2.52-1.4,4.85-3.09,7.22-4.71,1.79-1.22,2.05-1.23,3.45.45,1.85,2.23,3.22,4.76,4.41,7.39,2.26,4.99,2.53,10.24,2,15.59-.06.64-.15,1.27-.19,1.91-.05.8.03,1.6.94,1.88.82.25,1.3-.3,1.72-.91.72-1.05,1.45-2.1,2.19-3.14,1.46-2.05,3.12-3.94,5.32-5.18,5.48-3.1,10.99-2.89,16.4.21,1.37.79,2.57,1.88,3.85,2.84.36.27.7.56,1.07.81.6.41,1.23.75,1.94.25.7-.49.62-1.21.47-1.91-.16-.75-.36-1.49-.53-2.24-.52-2.18-.95-4.37-1.19-6.59-.48-4.46.38-8.64,2.56-12.56,2.89-5.18,8.53-7.76,14.3-6.43,3.51.81,6.87,2.01,9.71,4.35.29.24.63.46.98.57.86.26,1.52-.3,1.5-1.2-.02-.53-.33-.96-.53-1.42-2.05-4.77-3.12-9.72-2.58-14.94.66-6.33,4.73-10.34,11.09-10.9,5.03-.44,9.68.45,13.53,4.02.37.34.8.64,1.24.9.48.28,1,.27,1.43-.11.43-.37.53-.86.33-1.4-.16-.42-.33-.83-.52-1.24-3.24-6.8-3.64-13.89-2.13-21.15.44-2.12,1.07-4.21,1.72-6.28,1.27-4.07,3.26-7.74,6.12-10.95,2.04-2.29,4.03-4.61,6.29-6.7.42-.39.87-.75,1.04-1.65Z" style="fill:#2b5019; stroke-width:0px;"/><path d="m551.81,609.94c-.19.28-.43.49-.65.7-2.25,2.08-4.25,4.4-6.29,6.7-2.86,3.22-4.84,6.88-6.12,10.95-.65,2.07-1.28,4.16-1.72,6.28-1.5,7.26-1.1,14.36,2.13,21.15.19.4.36.82.52,1.24.2.53.1,1.02-.33,1.4-.43.38-.96.38-1.43.11-.44-.25-.86-.55-1.24-.9-3.85-3.57-8.5-4.46-13.53-4.02-6.36.56-10.43,4.57-11.09,10.9-.54,5.22.53,10.16,2.58,14.94.2.47.52.89.53,1.42.03.9-.64,1.46-1.5,1.2-.35-.11-.69-.33-.98-.57-2.84-2.33-6.2-3.53-9.71-4.35-5.77-1.34-11.41,1.25-14.3,6.43-2.19,3.92-3.04,8.1-2.56,12.56.24,2.23.66,4.42,1.19,6.6.18.74.38,1.49.53,2.24.15.7.23,1.42-.47,1.91-.7.49-1.34.16-1.94-.25-.37-.25-.71-.54-1.07-.81-1.28-.95-2.48-2.05-3.85-2.84-5.4-3.09-10.92-3.31-16.4-.21-2.19,1.24-3.86,3.13-5.32,5.18-.74,1.04-1.47,2.09-2.19,3.14-.42.61-.9,1.16-1.72.91-.91-.28-.99-1.08-.94-1.88.04-.64.13-1.27.19-1.91.54-5.35.26-10.59-2-15.59-1.19-2.63-2.56-5.16-4.41-7.39-1.39-1.68-1.66-1.66-3.45-.45-2.38,1.62-4.7,3.31-7.22,4.71-.46.25-.91.53-1.43.63l116.15-80.14Z" style="fill:#3f7722; stroke-width:0px;"/><path d="m424.09,696.05c-4.24,10.81-16.45,16.13-27.25,11.88-10.81-4.24-16.13-16.45-11.88-27.25,4.24-10.81,16.45-16.13,27.25-11.88,10.81,4.24,16.13,16.45,11.88,27.25Z" style="fill:#c42320; stroke-width:0px;"/><path d="m457.75,703c-4.24,10.81-16.45,16.13-27.25,11.88-10.81-4.24-16.13-16.45-11.88-27.25,4.24-10.81,16.45-16.13,27.25-11.88,10.81,4.24,16.13,16.45,11.88,27.25Z" style="fill:#af1919; stroke-width:0px;"/><path d="m443.5,678.58c-4.24,10.81-16.45,16.13-27.25,11.88-10.81-4.24-16.13-16.45-11.88-27.25,4.24-10.81,16.45-16.13,27.25-11.88,10.81,4.24,16.13,16.45,11.88,27.25Z" style="fill:#db382f; stroke-width:0px;"/><path d="m267.43,548.53c-1.22,3.15-2.11,6.42-2.61,9.76" style="fill:none; stroke:#fff; stroke-linecap:round; stroke-linejoin:round; stroke-width:8.19px;"/><path d="m305.71,517.27c-9.37,1.43-18.14,5.9-25.12,12.26" style="fill:none; stroke:#fff; stroke-linecap:round; stroke-linejoin:round; stroke-width:8.19px;"/><path d="m413.68,663.23c-4.53,5.24-3.98,11.75.03,17.11" style="fill:none; stroke:#fff; stroke-linecap:round; stroke-linejoin:round; stroke-width:4.1px;"/></g></g></svg>