<?xml version="1.0" encoding="UTF-8"?><svg id="_Слой_2" xmlns="http://www.w3.org/2000/svg" width="487.1" height="528" xmlns:xlink="http://www.w3.org/1999/xlink" viewBox="0 0 487.1 528"><defs><clipPath id="clippath"><polygon points="152.45 467.07 122.27 508.28 122.27 520.35 235.4 520.35 235.4 508.19 238.66 467.07 152.45 467.07" style="fill:none; stroke-width:0px;"/></clipPath><clipPath id="clippath-1"><polygon points="329.18 467.07 359.35 508.28 359.35 520.35 235.45 520.35 235.45 508.19 238.66 467.07 329.18 467.07" style="fill:none; stroke-width:0px;"/></clipPath><clipPath id="clippath-2"><polygon points="432.63 467.07 482.2 508.28 482.2 520.35 358.3 520.35 358.3 508.19 329.18 467.07 432.63 467.07" style="fill:none; stroke-width:0px;"/></clipPath><clipPath id="clippath-3"><polygon points="64.08 467.07 8.04 508.28 8.04 520.35 123.33 520.35 123.33 508.19 152.45 467.07 64.08 467.07" style="fill:none; stroke-width:0px;"/></clipPath><clipPath id="clippath-4"><path d="m62.64,208.58v260.46h74.36c-2.84-32.39.57-64.81,7.54-97.24,19.82-50.65,56.26-71.84,105.61-70.11,49.03,2.02,81.25,25.73,99.14,67.92,10.12,27.65,11.62,62.28,9.7,99.68l72.71-.26V208.58H62.64Z" style="fill:none; stroke-width:0px;"/></clipPath><clipPath id="clippath-6"><path d="m112.2,411.32c-7.23,1.94-8.11,7.49-7.8,13.75,0,8.25,0,17.94,0,26.43.42,12.77-3.07,22.88,12.38,22.26,10.34.58,22.01-1.34,25.26-12.79,2.18-8.13.77-22.94,1.15-32.8.64-9.03-2.88-17.55-13.45-17.76-5.42-.27-12.22-.46-17.17.79l-.37.11Z" style="fill:none; stroke-width:0px;"/></clipPath><clipPath id="clippath-9"><path d="m134.27,337.81c-10.51-2.33-11.23,8.93-15.35,16.21-6.08,10.47-14.34,22.98-16.44,36.11-1.57,7.36,2.84,11.11,9.91,12.98,8.71,2.71,19.06,7.82,27.44,1.65,9.76-7.68,11.11-22.51,16.83-33.16,6.84-11.88,8.09-19.4-5.82-26.47-5.19-2.71-10.39-6-16.15-7.23l-.42-.08Z" style="fill:none; stroke-width:0px;"/></clipPath><clipPath id="clippath-12"><path d="m360.74,337.81c10.51-2.33,11.23,8.93,15.35,16.21,6.08,10.47,14.34,22.98,16.44,36.11,1.57,7.36-2.84,11.11-9.91,12.98-8.71,2.71-19.06,7.82-27.44,1.65-9.76-7.68-11.11-22.51-16.83-33.16-6.84-11.88-8.09-19.4,5.82-26.47,5.19-2.71,10.39-6,16.15-7.23l.42-.08Z" style="fill:none; stroke-width:0px;"/></clipPath><clipPath id="clippath-14"><path d="m195.59,279.34c-3.19-7.57-8.22-4.6-13.17-.46-13.89,11.74-22.94,20.66-36.68,30.52-13.63,9.5-21.24,13.34-1.85,23.56,7.2,3.76,11.25,13.48,19.95,13.94,5.77.14,11.94-4.77,17.01-9.09,4.67-3.99,9.24-7.97,13.88-11.97,23.61-18.98,11.11-25.21,1.03-46.13l-.18-.37Z" style="fill:none; stroke-width:0px;"/></clipPath><clipPath id="clippath-16"><path d="m300.28,283.38c3.14-7.38,8.6-3.93,13.01-.14,13.27,11.22,22.03,19.82,35.15,29.26,13.37,9.37,20.87,13.13,1.86,23.24-6.36,3.51-10.09,11.29-17.34,13.11-11.08,1.73-23.2-13.79-32.02-20.28-22.53-17.92-10.62-24.87-.85-44.82l.19-.37Z" style="fill:none; stroke-width:0px;"/></clipPath><clipPath id="clippath-18"><path d="m289.7,279.16c1.48-9.04-8.59-7.11-16.02-7.29-10.31.1-20.65.2-30.96-.07-8.56-.2-16.93-.76-25.45-1.6-4.77-.52-12.22-.95-12.42,5.48-.11,5.51,1.82,11.13,2.84,16.55,1.78,10.15,5.69,19.88,16.56,21,11.22,1.47,22.64.46,33.62.7,27.62,1.48,26.16-12.82,31.78-34.42l.06-.35Z" style="fill:none; stroke-width:0px;"/></clipPath><clipPath id="clippath-21"><path d="m382.33,412.88c7.24,2.1,8.02,7.69,7.58,13.98-.16,8.3-.34,18.03-.5,26.57-.66,12.84,2.65,23.06-12.88,22.13-10.41.38-22.11-1.78-25.17-13.35-2.04-8.22-.34-23.07-.53-32.99-.47-9.09,3.24-17.58,13.87-17.58,5.46-.17,12.3-.23,17.26,1.14l.37.11Z" style="fill:none; stroke-width:0px;"/></clipPath><clipPath id="clippath-23"><path d="m61.38,464.83c3.92,2.54,11.51,1.89,16.85,1.43,10.24-.81,17.91-2.11,16.99-14.27,0-7.22.04-19.53-.02-26.58-.07-3.82-.33-8.04-2.95-10.85-4.87-4.82-14.84-3.46-22.68-4.51-5.1-.06-11.29-1.83-10.91,5.35-.19,9.27-.01,24.01-.07,35.65.27,7.09-.97,10.34,2.59,13.64l.19.14Z" style="fill:none; stroke-width:0px;"/></clipPath><clipPath id="clippath-24"><path d="m61.32,346.8c4.08,2.63,12.68,1.4,18.4,1.25,4.48-.46,9.32-.19,12.84-2.86,2.76-2.01,2.75-9.18,2.67-13.44-.14-6.27.43-11.12-2.8-14.9-3.24-2.97-8.23-2.68-12.42-3.03-7.16.08-14.08-1.68-19.41.25-.7.45-1.14,1.14-1.43,2.13-.82,3.65-.5,7.84-.58,12.22.28,5.57-1.15,15.07,2.53,18.23l.19.15Z" style="fill:none; stroke-width:0px;"/></clipPath><clipPath id="clippath-25"><path d="m61.32,246.02c4.08,2.63,12.68,1.4,18.4,1.25,4.48-.46,9.32-.19,12.84-2.86,2.76-2.01,2.75-9.18,2.67-13.44-.14-6.27.43-11.12-2.8-14.9-3.24-2.97-8.23-2.68-12.42-3.03-7.16.08-14.08-1.68-19.41.25-.7.45-1.14,1.14-1.43,2.13-.82,3.65-.5,7.84-.58,12.22.28,5.57-1.15,15.07,2.53,18.23l.19.15Z" style="fill:none; stroke-width:0px;"/></clipPath><clipPath id="clippath-26"><path d="m60.75,406.12c3.87,2.22,11.08,1.23,14.62-1,2.89-1.81,2.57-5.3,2.63-11.54-.06-10.23.13-23.91-.08-32.71.23-5.45-3.61-6.99-8.46-7.75-5.45-.67-11.46-2.24-10.83,5.42-.05,7.47,0,23.67-.02,34.44.03,7.04-.29,11.1,1.96,13.01l.18.14Z" style="fill:none; stroke-width:0px;"/></clipPath><clipPath id="clippath-27"><path d="m60.75,307.53c3.87,2.22,11.08,1.23,14.62-1,2.89-1.81,2.57-5.3,2.63-11.54-.06-10.23.13-23.91-.08-32.71.23-5.45-3.61-6.99-8.46-7.75-5.45-.67-11.46-2.24-10.83,5.42-.05,7.47,0,23.67-.02,34.44.03,7.04-.29,11.1,1.96,13.01l.18.14Z" style="fill:none; stroke-width:0px;"/></clipPath><clipPath id="clippath-28"><path d="m428.47,464.79c-3.92,2.55-11.41,1.9-16.62,1.56-6.98-.75-15.93-1.49-16.66-9.99-.79-8.57-.19-19.31-.35-28.33.06-3.92.13-8.45,1.99-11.79,4.25-6.75,15.17-5.2,22.47-6.2,4.62.06,11.14-1.83,11.88,4.01.7,10.48.1,24.59.29,36.82.17,5.32-.03,12.18-2.81,13.78l-.19.14Z" style="fill:none; stroke-width:0px;"/></clipPath><clipPath id="clippath-29"><path d="m428.59,346.68c-3.82,2.74-12.82,1.56-18.19,1.42-4.42-.49-9.28-.29-12.71-3.05-4.25-3.56-3.87-24.38.09-28.05,2.8-2.75,7.19-2.79,10.98-3.15,7.27.06,14.89-1.85,20.44.38,3.39,3.27,1.84,9.35,2.26,14.23-.16,5.57.87,14.78-2.69,18.05l-.19.16Z" style="fill:none; stroke-width:0px;"/></clipPath><clipPath id="clippath-30"><path d="m428.59,245.9c-3.82,2.74-12.82,1.56-18.19,1.42-4.42-.49-9.28-.29-12.71-3.05-4.25-3.56-3.87-24.38.09-28.05,2.8-2.75,7.19-2.79,10.98-3.15,7.27.06,14.89-1.85,20.44.38,3.39,3.27,1.84,9.35,2.26,14.23-.16,5.57.87,14.78-2.69,18.05l-.19.16Z" style="fill:none; stroke-width:0px;"/></clipPath><clipPath id="clippath-31"><path d="m429.01,406.08c-3.81,2.14-10.52,1.46-14.17-1.11-2.7-1.99-2.61-5.52-2.74-8.73.25-10.62-.69-26.85.48-37.56,1.33-6.08,11.49-6.6,15.91-5.77,1.75.49,2.54,1.91,2.76,3.73.57,11.2.07,25.14.23,36.16-.02,6.9.13,11.23-2.27,13.13l-.19.14Z" style="fill:none; stroke-width:0px;"/></clipPath><clipPath id="clippath-32"><path d="m429.01,307.49c-3.81,2.14-10.52,1.46-14.17-1.11-2.7-1.99-2.61-5.52-2.74-8.73.25-10.62-.69-26.85.48-37.56,1.33-6.08,11.49-6.6,15.91-5.77,1.75.49,2.54,1.91,2.76,3.73.57,11.2.07,25.14.23,36.16-.02,6.9.13,11.23-2.27,13.13l-.19.14Z" style="fill:none; stroke-width:0px;"/></clipPath></defs><g id="_Слой_1-2"><ellipse cx="243.55" cy="520.33" rx="243.55" ry="7.67" style="fill:#553611; opacity:.5; stroke-width:0px;"/><path d="m462.32,187.72c0-.87-1.33-1.57-2.97-1.57h-4.13c-128.82-3.76-257.43-3.84-385.74,0h-4.6c-1.64,0-2.97.7-2.97,1.57-.53,2.7-.61,2.36-.23,4.21-.35,4.87-.29,9.79.23,14.79,0,1.59,1.33,2.88,2.97,2.88h7.73v253.68h35.56c1.24-.2,2.31-.67,3.26-1.32h11.61c1.55,2.7,4.67,4.21,10.98,3.96,5.17.28,10.66-.04,15.28-1.83,0,.76,0,1.48,0,2.11.54,3.34,8.36-.18,10.92-1.75l.21-.16c1.42-.85,1.69-2.93,1.72-5.28h203.64c-.08,2.76-.02,5.36,1.59,6.36l.21.16c2.53,1.61,10.29,5.29,10.9,1.96.01-.58.03-1.23.03-1.92,4.59,1.86,10.08,2.28,15.25,2.1,7.65.45,10.72-1.75,11.95-5.57l16-.05,8.67,4.43h26.85l-3.14-57.56v-199.32h5.26c1.64,0,2.97-1.29,2.97-2.88,1.01-5.44,1.27-10.52.53-15.1.67-1.79.59-1.57-.53-3.9Z" style="fill:#4f2d0a; opacity:.5; stroke-width:0px;"/><polygon points="152.45 467.07 122.27 508.28 122.27 520.35 235.4 520.35 235.4 508.19 238.48 467.07 152.45 467.07" style="fill:#b97842; stroke-width:0px;"/><g style="clip-path:url(#clippath);"><polygon points="238.48 467.07 235.4 508.19 122.27 508.28 152.45 467.07 238.48 467.07" style="fill:#d3975b; stroke-width:0px;"/><polyline points="154.6 466.65 152.45 466.65 122.27 508.28 122.27 522.69 124.43 523.62 124.43 508.28 154.6 467.03" style="fill:#e3bd8b; stroke-width:0px;"/><polygon points="240.64 464.46 236.5 507.54 236.5 521.43 233.7 521.43 233.7 506.9 238.25 464.46 240.64 464.46" style="fill:#955823; stroke-width:0px;"/></g><polygon points="329.18 467.07 359.35 508.28 359.35 520.35 235.45 520.35 235.45 508.19 238.83 467.07 329.18 467.07" style="fill:#b97842; stroke-width:0px;"/><g style="clip-path:url(#clippath-1);"><polygon points="238.83 467.07 235.45 508.19 359.35 508.28 329.18 467.07 238.83 467.07" style="fill:#d3975b; stroke-width:0px;"/><polyline points="327.02 466.65 329.18 466.65 359.35 508.28 359.35 522.69 357.2 523.62 357.2 508.28 327.02 467.03" style="fill:#955823; stroke-width:0px;"/><polygon points="236.67 464.46 234.35 507.54 234.35 521.43 237.14 521.43 237.14 506.9 239.06 464.46 236.67 464.46" style="fill:#e3bd8b; stroke-width:0px;"/></g><polygon points="432.63 467.07 482.2 508.28 482.2 520.35 358.3 520.35 358.3 508.19 329.35 467.07 432.63 467.07" style="fill:#b97842; stroke-width:0px;"/><g style="clip-path:url(#clippath-2);"><polygon points="329.35 467.07 358.3 508.19 482.2 508.28 432.63 467.07 329.35 467.07" style="fill:#d3975b; stroke-width:0px;"/><polyline points="430.48 466.65 432.63 466.65 482.2 508.28 482.2 522.69 480.05 523.62 480.05 508.28 430.48 467.03" style="fill:#955823; stroke-width:0px;"/><polygon points="327.2 464.46 357.2 507.54 357.2 521.43 359.99 521.43 359.99 506.9 329.59 464.46 327.2 464.46" style="fill:#e3bd8b; stroke-width:0px;"/></g><polygon points="64.08 467.07 8.04 508.28 8.04 520.35 123.33 520.35 123.33 508.19 152.27 467.07 64.08 467.07" style="fill:#b97842; stroke-width:0px;"/><g style="clip-path:url(#clippath-3);"><polygon points="152.27 467.07 123.33 508.19 8.04 508.28 64.08 467.07 152.27 467.07" style="fill:#d3975b; stroke-width:0px;"/><polyline points="66.23 466.65 64.08 466.65 8.04 508.28 8.04 522.69 10.2 523.62 10.2 508.28 66.23 467.03" style="fill:#f1c77f; stroke-width:0px;"/><polygon points="154.43 464.46 124.43 507.54 124.43 521.43 121.63 521.43 121.63 506.9 152.04 464.46 154.43 464.46" style="fill:#955823; stroke-width:0px;"/></g><rect x="67.22" y="214.71" width="353.47" height="251.95" style="fill:#642a14; stroke-width:0px;"/><rect x="71.53" y="247.57" width="353.47" height="164.32" style="fill:#773810; stroke-width:0px;"/><path d="m60.76,209.23v260.46h74.36c-2.84-32.39.57-64.81,7.54-97.24,19.82-50.65,56.26-71.84,105.61-70.11,49.03,2.02,81.25,25.73,99.14,67.92,10.12,27.65,11.62,62.28,9.7,99.68l72.71-.26V209.23H60.76Z" style="fill:#eec27b; stroke-width:0px;"/><g style="clip-path:url(#clippath-4);"><path d="m90.93,471.04c5.14-.86,7.64-6.31,8.62-10.95v-42.51c-.8-7.26-4.8-10.05-10.78-10.07-4.23-.07-4.51-2.97-4.31-8.76,0,0,.65-24.87,0-27.74-2.16-9.51,4.31-13.89,4.31-13.89,6.23-.81,8.78-4.74,8.62-10.95v-28.48c-.81-5.53-2.85-8.06-5.39-8.2-5.08-.33-6.89-3.26-7.54-7.13l-2.16-17.53v-17.53c6.94-2.51,6.93-6.68,6.47-10.95,5.51.66,10.56.67,10.78-6.43-3.74-5.37-1.94-12.8,0-20.28,5.67-3.56,8.8-7.73,8.62-12.73h280.19s2.16,21.91,2.16,24.1v13.15c0,2.19,6.47,13.15,6.47,13.15l8.62,8.76v32.86c-2.58,2.78-5.76,4.02-9.7,3.29-5.98,5.43-6.98,11.78-5.39,18.62,0,0,1.71,14.88,3.23,16.43,1.08,1.1,3.23,5.48,3.23,5.48l8.62,8.76,4.31,15.34-1.08,23-6.47,8.76-8.62,4.38-2.16,24.1,1.25,21.79,5.74,7.82,14.56,7.64h26.85l-3.14-59.15v-215.27H46.81l8.55,7.13v264h35.56Z" style="fill:#e2ac66; stroke-width:0px;"/></g><path d="m112.2,411.32c-7.23,1.94-8.11,7.49-7.8,13.75,0,8.25,0,17.94,0,26.43.42,12.77-3.07,22.88,12.38,22.26,10.34.58,22.01-1.34,25.26-12.79,2.18-8.13.77-22.94,1.15-32.8.64-9.03-2.88-17.55-13.45-17.76-5.42-.27-12.22-.46-17.17.79l-.37.11Z" style="fill:#b7743d; stroke-width:0px;"/><g style="clip-path:url(#clippath-6);"><path d="m115.22,410.74c-9.83,2.82-6.44,12.95-7.05,20.96.23,9.52-.52,22.68.4,31.03.98,5.2,5.6,5.99,10.71,6.09,6.86.07,14.67-.12,19.19-6.01,5.21-6.98,3.96-12.06,4.2-22.37,0-4.47,0-9.32,0-13.71,1.2-18.74-12.97-18.39-27.07-16.1l-.36.11Z" style="fill:#ca8c53; stroke-width:0px;"/><path d="m142.98,472.25c-2.56,1.61-10.38,5.22-10.92,1.79-.08-12.33,1.53-51.03,1.8-63.44-.19-4.83,4.46-2.84,7.61-1.07,2.2,1.28,3.3,2.9,3.36,5.24.12,3.99.02,11.78.06,20.43,0,9.45,0,18.24,0,26.96-.11,3.86.59,8.51-1.7,9.92l-.21.16Z" style="fill:#964524; stroke-width:0px;"/></g><path d="m134.27,337.81c-10.51-2.33-11.23,8.93-15.35,16.21-6.08,10.47-14.34,22.98-16.44,36.11-1.57,7.36,2.84,11.11,9.91,12.98,8.71,2.71,19.06,7.82,27.44,1.65,9.76-7.68,11.11-22.51,16.83-33.16,6.84-11.88,8.09-19.4-5.82-26.47-5.19-2.71-10.39-6-16.15-7.23l-.42-.08Z" style="fill:#b7743d; stroke-width:0px;"/><g style="clip-path:url(#clippath-9);"><path d="m135.9,327.25c-5.47-.58-12.07,4.43-14.69,9.65-2.62,5.19-3.11,12.91-4.61,19.22-1.75,9.08-4.87,21.86-6.11,27.77-3.92,11.26,2.21,13.39,12.43,16.46,6.03,2.06,13.53,4.54,18.93.07,5.22-4.23,7.06-13.21,9.69-19.86,2.29-6.64,6.72-12.2,9.56-18.55,4.1-8.61-3.84-14.78-9.09-20.35-4.95-5.17-9.97-13.59-15.75-14.37l-.36-.05Z" style="fill:#ca8c53; stroke-width:0px;"/><path d="m138.51,411.59c-2.27,1.37-5.09,1.52-6.42-.95-1.34-2.66-.13-6.55.67-9.49,4.69-12.57,6.22-57.03,21.31-57.68,4.53.77,11.4,6.27,12.35,11.87.53,3.04-.63,6.4-1.96,9.29-6.73,13.9-12.02,24.22-18.75,37.75-1.66,3.34-3.8,7.09-6.88,9.01l-.32.19Z" style="fill:#964524; stroke-width:0px;"/></g><path d="m360.74,337.81c10.51-2.33,11.23,8.93,15.35,16.21,6.08,10.47,14.34,22.98,16.44,36.11,1.57,7.36-2.84,11.11-9.91,12.98-8.71,2.71-19.06,7.82-27.44,1.65-9.76-7.68-11.11-22.51-16.83-33.16-6.84-11.88-8.09-19.4,5.82-26.47,5.19-2.71,10.39-6,16.15-7.23l.42-.08Z" style="fill:#b7743d; stroke-width:0px;"/><g style="clip-path:url(#clippath-12);"><path d="m359.1,327.25c5.47-.58,12.07,4.43,14.69,9.65,2.62,5.19,3.11,12.91,4.61,19.22,1.75,9.08,4.87,21.86,6.11,27.77,3.92,11.26-2.21,13.39-12.43,16.46-6.03,2.06-13.53,4.54-18.93.07-5.22-4.23-7.06-13.21-9.69-19.86-2.29-6.64-6.72-12.2-9.56-18.55-4.1-8.61,3.84-14.78,9.09-20.35,4.95-5.17,9.97-13.59,15.75-14.37l.36-.05Z" style="fill:#ca8c53; stroke-width:0px;"/><path d="m356.49,411.59c2.27,1.37,5.09,1.52,6.42-.95,1.34-2.66.13-6.55-.67-9.49-4.69-12.57-6.22-57.03-21.31-57.68-4.53.77-11.4,6.27-12.35,11.87-.53,3.04.63,6.4,1.96,9.29,6.73,13.9,12.02,24.22,18.75,37.75,1.66,3.34,3.8,7.09,6.88,9.01l.32.19Z" style="fill:#964524; stroke-width:0px;"/></g><path d="m195.59,279.34c-3.19-7.57-8.22-4.6-13.17-.46-13.89,11.74-22.94,20.66-36.68,30.52-13.63,9.5-21.24,13.34-1.85,23.56,7.2,3.76,11.25,13.48,19.95,13.94,5.77.14,11.94-4.77,17.01-9.09,4.67-3.99,9.24-7.97,13.88-11.97,23.61-18.98,11.11-25.21,1.03-46.13l-.18-.37Z" style="fill:#b7743d; stroke-width:0px;"/><g style="clip-path:url(#clippath-14);"><path d="m186.48,266.19c-4.89,3.82-7.52,10.92-11.88,14.66-14.16,12.15-34.86,23.65-48.03,37.2-2.2,3.05-.69,6.05,2.17,9.17,4.26,4.67,11.06,4.8,16.93,4.28,12.17-.28,21.26-7.99,29.79-15.78,6.64-6.22,15.02-11.26,18.86-20.25,2.93-6.68,1.85-14.29.13-21.1-.82-4.58-2.18-11.82-7.71-8.35l-.27.19Z" style="fill:#ca8c53; stroke-width:0px;"/><path d="m161.31,353.15c-1.49.09-3.17-.17-4.25-1.27-4.23-5.95,3.44-12.86,7.18-17.28,14.43-15.62,24.33-23.22,37.27-30.57,10.63-6.43,14.15,3.25,6.81,11.14-13.22,12.59-24.82,21.64-38.35,33.58-2.39,1.96-5.46,4-8.3,4.35l-.36.04Z" style="fill:#964524; stroke-width:0px;"/></g><path d="m300.28,283.38c3.14-7.38,8.6-3.93,13.01-.14,13.27,11.22,22.03,19.82,35.15,29.26,13.37,9.37,20.87,13.13,1.86,23.24-6.36,3.51-10.09,11.29-17.34,13.11-11.08,1.73-23.2-13.79-32.02-20.28-22.53-17.92-10.62-24.87-.85-44.82l.19-.37Z" style="fill:#b7743d; stroke-width:0px;"/><g style="clip-path:url(#clippath-16);"><path d="m309.11,270.82c4.85,3.82,7.52,10.84,11.94,14.51,13.63,11.58,33.58,22.72,46.18,35.75,2.1,2.97.76,5.89-2.02,8.87-4.42,4.77-11.49,4.73-17.51,4.12-11.41-.52-19.79-7.92-27.85-15.17-6.34-5.93-14.15-10.67-18.08-19.19-3.08-6.52-2.11-14.11-.48-20.85.82-4.51,2.18-11.59,7.55-8.22l.27.18Z" style="fill:#ca8c53; stroke-width:0px;"/><path d="m333.62,355.13c3.09.31,5.43-1.55,5.23-4.83-.45-4.92-4.34-8.97-7.56-12.59-14.36-15.58-24.09-23.05-36.88-30.27-13.06-7.03-12.54,6.65-4.28,13.17,12.53,10.98,22.51,19.49,35.17,30.34,2.29,1.87,5.28,3.82,7.97,4.15l.36.04Z" style="fill:#964524; stroke-width:0px;"/></g><path d="m289.7,279.16c1.48-9.04-8.59-7.11-16.02-7.29-10.31.1-20.65.2-30.96-.07-8.56-.2-16.93-.76-25.45-1.6-4.77-.52-12.22-.95-12.42,5.48-.11,5.51,1.82,11.13,2.84,16.55,1.78,10.15,5.69,19.88,16.56,21,11.22,1.47,22.64.46,33.62.7,27.62,1.48,26.16-12.82,31.78-34.42l.06-.35Z" style="fill:#b7743d; stroke-width:0px;"/><g style="clip-path:url(#clippath-18);"><path d="m296.11,261.52c-3.48.45-7.36,1.69-10.85,2.58-5.22,1.52-9.8,1.06-15.41.81-13.76-.82-30.53-2.8-45.37-3.23-6.19-.01-15.19-1.11-17.29,1.55-6.54,10.77,5.23,23.75,15.46,26.98,12.9,3.8,26.95,1.8,40.14,2.26,12.12.83,22.93-2.58,24.87-16.52.62-3.42-.51-7.47,1.65-10.06,2-2.43,6.89-2.99,7.95-3.91.7-.55-.38-.55-.94-.48l-.23.02Z" style="fill:#ca8c53; stroke-width:0px;"/><path d="m210.94,313.08c-2.6-1.98-3.24-5.71-1.28-7.94,2.27-2.67,6.84-2.79,10.3-2.8,19.02.08,37.3.34,55.83,2.09,2.6.32,6.11,1.05,7.07,3.35,1.35,5.33-6.95,7.46-11.23,7.45-17.23.15-34.6.15-51.83.16-2.92-.04-6.4-.48-8.59-2.11l-.26-.2Z" style="fill:#964524; stroke-width:0px;"/></g><path d="m382.33,412.88c7.24,2.1,8.02,7.69,7.58,13.98-.16,8.3-.34,18.03-.5,26.57-.66,12.84,2.65,23.06-12.88,22.13-10.41.38-22.11-1.78-25.17-13.35-2.04-8.22-.34-23.07-.53-32.99-.47-9.09,3.24-17.58,13.87-17.58,5.46-.17,12.3-.23,17.26,1.14l.37.11Z" style="fill:#b7743d; stroke-width:0px;"/><g style="clip-path:url(#clippath-21);"><path d="m379.32,412.26c9.84,3.02,6.24,13.14,6.7,21.21-.42,9.57.09,22.81-.99,31.19-1.09,5.21-5.76,5.91-10.9,5.91-6.9-.07-14.76-.41-19.2-6.42-5.11-7.11-3.76-12.2-3.8-22.57.09-4.5.17-9.37.27-13.78-.85-18.88,13.43-18.23,27.56-15.65l.36.11Z" style="fill:#ca8c53; stroke-width:0px;"/><path d="m350.34,473.36c2.53,1.66,10.29,5.43,10.9,2.01.3-12.33-.6-51.05-.63-63.47.28-4.82-4.42-2.93-7.6-1.22-2.22,1.24-3.35,2.83-3.46,5.18-.2,3.98-.24,11.78-.43,20.43-.17,9.45-.34,18.24-.5,26.96.04,3.86-.74,8.5,1.52,9.95l.21.17Z" style="fill:#964524; stroke-width:0px;"/></g><path d="m61.38,464.83c3.92,2.54,11.51,1.89,16.85,1.43,10.24-.81,17.91-2.11,16.99-14.27,0-7.22.04-19.53-.02-26.58-.07-3.82-.33-8.04-2.95-10.85-4.87-4.82-14.84-3.46-22.68-4.51-5.1-.06-11.29-1.83-10.91,5.35-.19,9.27-.01,24.01-.07,35.65.27,7.09-.97,10.34,2.59,13.64l.19.14Z" style="fill:#b6733c; stroke-width:0px;"/><g style="clip-path:url(#clippath-23);"><path d="m91.11,457.42c4.93-2.44,6.16-6.58,6.25-13.23.07-5.54.03-13.76.03-19.53.47-12.18-3.63-15.88-15.89-16.38-8.77-1.1-17.65.2-18.33,10.23-.19,9.85-1.21,25.08,1.06,33.18,3.64,11.79,17.79,8.67,26.54,5.88l.34-.16Z" style="fill:#ca8c53; stroke-width:0px;"/></g><path d="m61.32,346.8c4.08,2.63,12.68,1.4,18.4,1.25,4.48-.46,9.32-.19,12.84-2.86,2.76-2.01,2.75-9.18,2.67-13.44-.14-6.27.43-11.12-2.8-14.9-3.24-2.97-8.23-2.68-12.42-3.03-7.16.08-14.08-1.68-19.41.25-.7.45-1.14,1.14-1.43,2.13-.82,3.65-.5,7.84-.58,12.22.28,5.57-1.15,15.07,2.53,18.23l.19.15Z" style="fill:#b6733c; stroke-width:0px;"/><g style="clip-path:url(#clippath-24);"><path d="m91.49,342.45c5.96-1.69,5.96-8.8,5.91-14.45-.02-3.62,0-7.91-1.49-10.97-2.28-4.53-8.11-4.24-12.49-4.68-6.45-.27-13-.95-17.02,1.86-4.95,4.04-3.23,12.69-3.33,18.58-.13,14.82,18.49,12.08,28.07,9.78l.35-.12Z" style="fill:#ca8c53; stroke-width:0px;"/></g><path d="m61.32,246.02c4.08,2.63,12.68,1.4,18.4,1.25,4.48-.46,9.32-.19,12.84-2.86,2.76-2.01,2.75-9.18,2.67-13.44-.14-6.27.43-11.12-2.8-14.9-3.24-2.97-8.23-2.68-12.42-3.03-7.16.08-14.08-1.68-19.41.25-.7.45-1.14,1.14-1.43,2.13-.82,3.65-.5,7.84-.58,12.22.28,5.57-1.15,15.07,2.53,18.23l.19.15Z" style="fill:#b6733c; stroke-width:0px;"/><g style="clip-path:url(#clippath-25);"><path d="m91.49,241.67c5.96-1.69,5.96-8.8,5.91-14.45-.02-3.62,0-7.91-1.49-10.97-2.28-4.53-8.11-4.24-12.49-4.68-6.45-.27-13-.95-17.02,1.86-4.95,4.04-3.23,12.69-3.33,18.58-.13,14.82,18.49,12.08,28.07,9.78l.35-.12Z" style="fill:#ca8c53; stroke-width:0px;"/></g><path d="m63.39,407.27c3.7.64,7.93-.32,11.05-2.5,3.72-2.13,3.55-8.14,3.55-13.15,0-7.18.01-18.01-.01-24.29-.06-3.05-.05-6.21-1.16-8.97-2.71-5.22-11.02-6.5-16.26-5.17-2.34.97-1.89,4.32-1.97,9.81,0,3.38,0,6.81,0,10.27,0,7.17,0,16.63,0,22.68.17,6.09-.49,10.19,4.49,11.27l.3.06Z" style="fill:#b97641; stroke-width:0px;"/><g style="clip-path:url(#clippath-26);"><path d="m78.22,399.45c1.29-1.49,1.88-3.24,2.13-5.13.38-5.46.02-13.4.14-19.47-.06-6.86.54-16.39-2.31-20.01-2.59-4.35-7.69-5.21-9.99.1-2.62,5.72-3.04,13.3-4.26,19.68-1.16,7.48-2.7,14.55-1.14,20.62,1.37,8.04,9.89,10.28,15.21,4.46l.22-.25Z" style="fill:#ca8c53; stroke-width:0px;"/></g><path d="m63.39,308.68c3.7.64,7.93-.32,11.05-2.5,3.72-2.13,3.55-8.14,3.55-13.15,0-7.18.01-18.01-.01-24.29-.06-3.05-.05-6.21-1.16-8.97-2.71-5.22-11.02-6.5-16.26-5.17-2.34.97-1.89,4.32-1.97,9.81,0,3.38,0,6.81,0,10.27,0,7.17,0,16.63,0,22.68.17,6.09-.49,10.19,4.49,11.27l.3.06Z" style="fill:#b97641; stroke-width:0px;"/><g style="clip-path:url(#clippath-27);"><path d="m78.07,301.19c4.03-5.52,1.74-12.96,2.31-20.06-.17-8.64.72-19.96-1.85-24.26-4.21-7.94-13.63-8.65-15.21,1.63-1.26,11.57-1.28,24.56-.47,36.39.48,9.25,8.24,13.33,15,6.56l.21-.25Z" style="fill:#ca8c53; stroke-width:0px;"/></g><path d="m428.47,464.79c-3.92,2.55-11.41,1.9-16.62,1.56-6.98-.75-15.93-1.49-16.66-9.99-.79-8.57-.19-19.31-.35-28.33.06-3.92.13-8.45,1.99-11.79,4.25-6.75,15.17-5.2,22.47-6.2,4.62.06,11.14-1.83,11.88,4.01.7,10.48.1,24.59.29,36.82.17,5.32-.03,12.18-2.81,13.78l-.19.14Z" style="fill:#b6733c; stroke-width:0px;"/><g style="clip-path:url(#clippath-28);"><path d="m399.22,457.33c-4.96-2.2-6.3-7.31-6.45-12.87-.17-5.57-.09-13.24-.07-19.09-.19-10.92,2.52-16.04,13.67-16.98,9.13-1.18,19.51-.64,20.41,10.24.53,4.17.35,9.1.39,13.49-.07,9.87.45,17.67-3.16,22.82-5.21,7.81-17.1,5.26-24.44,2.55l-.34-.17Z" style="fill:#ca8c53; stroke-width:0px;"/></g><path d="m428.59,346.68c-3.82,2.74-12.82,1.56-18.19,1.42-4.42-.49-9.28-.29-12.71-3.05-4.25-3.56-3.87-24.38.09-28.05,2.8-2.75,7.19-2.79,10.98-3.15,7.27.06,14.89-1.85,20.44.38,3.39,3.27,1.84,9.35,2.26,14.23-.16,5.57.87,14.78-2.69,18.05l-.19.16Z" style="fill:#b6733c; stroke-width:0px;"/><g style="clip-path:url(#clippath-29);"><path d="m398.76,342.38c-5.8-1.7-6.13-8.85-6.09-14.41.01-3.56.2-7.71,1.66-10.73,2.22-4.55,7.98-4.46,12.38-4.94,6.11-.29,12.51-.75,16.54,1.84,2.97,2.01,3.67,6.24,3.83,9.79.08,6.23.47,12.67-2.81,16.49-6.18,6.14-17.64,3.89-25.16,2.09l-.35-.13Z" style="fill:#ca8c53; stroke-width:0px;"/></g><path d="m428.59,245.9c-3.82,2.74-12.82,1.56-18.19,1.42-4.42-.49-9.28-.29-12.71-3.05-4.25-3.56-3.87-24.38.09-28.05,2.8-2.75,7.19-2.79,10.98-3.15,7.27.06,14.89-1.85,20.44.38,3.39,3.27,1.84,9.35,2.26,14.23-.16,5.57.87,14.78-2.69,18.05l-.19.16Z" style="fill:#b6733c; stroke-width:0px;"/><g style="clip-path:url(#clippath-30);"><path d="m398.76,241.6c-5.8-1.7-6.13-8.85-6.09-14.41.01-3.56.2-7.71,1.66-10.73,2.22-4.55,7.98-4.46,12.38-4.94,6.11-.29,12.51-.75,16.54,1.84,2.97,2.01,3.67,6.24,3.83,9.79.08,6.23.47,12.67-2.81,16.49-6.18,6.14-17.64,3.89-25.16,2.09l-.35-.13Z" style="fill:#ca8c53; stroke-width:0px;"/></g><path d="m426.39,407.23c-4.57.83-10.84-1.06-13.03-5.49-1.18-2.65-1.18-5.82-1.27-8.83-.05-6.55-.02-16.68-.01-23.48.1-3.76-.08-7.66,1.37-11.07,2.71-4.9,11.34-7.21,16.25-4.72,2.99,1.86,1.36,14.58,1.76,20.29,0,6.95,0,16.03,0,21.83-.23,6.19.2,10.24-4.78,11.4l-.29.06Z" style="fill:#b97641; stroke-width:0px;"/><g style="clip-path:url(#clippath-31);"><path d="m412.04,399.58c-1.3-1.46-1.96-3.27-2.27-5.18-.55-4.69-.12-11.77-.24-17.16.24-10.61-.93-17.91,2.98-23.23,1.5-2.03,4.09-3.77,6.5-2.33,4.29,2.96,4.81,9.55,5.85,14.75.91,5.75,2.04,12.12,2.7,17.55.62,6.27.81,12.62-3.51,17.08-3.35,3.18-8.96,2.07-11.79-1.22l-.22-.24Z" style="fill:#ca8c53; stroke-width:0px;"/></g><path d="m426.39,308.64c-4.57.83-10.84-1.06-13.03-5.49-1.18-2.65-1.18-5.82-1.27-8.83-.05-6.55-.02-16.68-.01-23.48.1-3.76-.08-7.66,1.37-11.07,2.71-4.9,11.34-7.21,16.25-4.72,2.99,1.86,1.36,14.58,1.76,20.29,0,6.95,0,16.03,0,21.83-.23,6.19.2,10.24-4.78,11.4l-.29.06Z" style="fill:#b97641; stroke-width:0px;"/><g style="clip-path:url(#clippath-32);"><path d="m412.29,301.37c-3.41-4.41-2.46-8.73-2.62-14.83.07-7-.15-14.41.19-21.4-.51-12.48,13.39-21.49,16.75-6.77,1.41,11.82,1.83,28.03.04,39.11-1.19,7.38-9.31,9.67-14.15,4.14l-.21-.24Z" style="fill:#ca8c53; stroke-width:0px;"/></g><path d="m106.02,335.2c.41,14.16,3.52,12.82,8.62,0,8.28-18.94,19.55-35.14,36.64-46.01,29.27-21.56,64.15-31.72,103.45-32.86,39.96-.14,70.93,17.09,96.99,43.82,9.99,12.45,18.62,25.58,25.86,39.44,3.72,5.97,6.18,6.59,6.47-2.19-2.46-30.15-2.92-63.4-2.16-98.59.15-4.92-.45-8.59-4.31-8.76-33.34-2.18-66.38-2.92-99.14-2.19l-84.06,2.19-68.97,2.19c-10.71.09-15.85,4.17-17.24,10.95-3.2,16.47-4.18,36.12-4.31,56.96,1.52,13.23,2.61,25.63,2.16,35.05Z" style="fill:#f6ce89; stroke-width:0px;"/><path d="m380.41,186.22H126.08L173.08,9.69c1.52-5.72,6.63-9.69,12.46-9.69h143.35c6.15,0,11.45,4.41,16.96,10.54l34.57,175.68Z" style="fill:#bd6a24; stroke-width:0px;"/><path d="m369.63,186.22H119.62L166.61,9.69c1.52-5.72,6.63-9.69,12.46-9.69h143.35c6.15,0,11.45,4.41,12.65,10.54l34.57,175.68Z" style="fill:#f6ce89; stroke-width:0px;"/><path d="m442.11,210.32H47.64c-1.64,0-2.97-1.33-2.97-2.96-.63-6.16-.62-12.21,0-18.18,0-1.63,1.33-2.96,2.97-2.96h394.47c1.64,0,2.97,1.33,2.97,2.96,1.37,5.36,1.2,11.51,0,18.18,0,1.63-1.33,2.96-2.97,2.96Z" style="fill:#9e4002; stroke-width:0px;"/><path d="m440.84,186.3c-130.71-3.98-261.21-4.06-391.41,0-1.63,0-2.95.36-2.95.79-.62,1.65-.62,1.12,0,2.72,0,.44,1.32.79,2.95.79h391.41c1.63,0,2.95-.36,2.95-.79,1.36-1.44,1.19-.93,0-2.72,0-.44-1.32-.79-2.95-.79Z" style="fill:#d06e17; stroke-width:0px;"/><path d="m442.11,194.99c-130.64,6.2-262.15,6.1-394.47,0-1.64,0-2.97-.72-2.97-1.61-.63-3.36-.62-2.28,0-5.53,0-.89,1.33-1.61,2.97-1.61h394.47c1.64,0,2.97.72,2.97,1.61,1.37,2.93,1.2,1.9,0,5.53,0,.89-1.33,1.61-2.97,1.61Z" style="fill:#b85909; stroke-width:0px;"/></g></svg>