<?xml version="1.0" encoding="UTF-8"?><svg xmlns="http://www.w3.org/2000/svg" width="172.93" height="139.79" viewBox="0 0 172.93 139.79"><g style="isolation:isolate;"><g id="_Слой_2"><g id="_Слой_1-2"><path d="m168.15,119.52c.07.66.1,1.02.1,1.02-.12.07-.24.14-.37.21-2.1,1.23-4.3,2.42-6.55,3.52-.4.2-.79.39-1.19.58-1.25.6-2.52,1.2-3.79,1.75-1.5.67-3.03,1.33-4.54,1.94-.43.18-.86.36-1.28.52-1.95.78-3.88,1.5-5.79,2.19-.91.34-1.81.66-2.69.97-.47.15-.92.31-1.36.46-2.97,1.01-5.82,1.91-8.48,2.69-.48.15-.96.28-1.42.43-3.11.9-5.92,1.66-8.27,2.25-.52.13-1.01.26-1.48.38-3.68.9-5.92,1.36-5.92,1.36l-1.95-6.99-.49-1.79-2.83-10.18-.5-1.79-1.62-5.81.79-3.53.28-1.23,1.78-7.96.27-1.23,1.43-6.37.43-1.94.28-1.23,1.58-7.06.28-1.23h0s.26-1.17.26-1.17l7.23-1.92,1.22-.32,8.35-2.23,1.47-.39,8.36-2.21,1.1-.3.37-.09,13.13-3.48,11.89-3.16c-.64,4.23-1.05,8.79-1.27,13.38-.17,3.35-.24,6.75-.26,10.05v1.44c.01,2.85.06,5.64.15,8.29.01.5.03.99.05,1.48.12,3.08.27,5.94.42,8.48h0c.03.52.07,1.02.09,1.5.28,4.1.56,7.19.71,8.7h0Z" style="fill:#aa170c; stroke-width:0px;"/><path d="m151.82,128.54c-.43.18-.86.36-1.28.52-13.32-9.51-26.63-19.03-39.95-28.55l.27-1.23c3.05,2.18,6.1,4.36,9.17,6.54,10.6,7.58,21.19,15.15,31.79,22.72Z" style="fill:#ffebcc; stroke-width:0px;"/><path d="m161.33,124.26c-.4.2-.79.39-1.19.58-3.1-2.21-6.21-4.43-9.31-6.64-12.7-9.08-25.41-18.15-38.12-27.24l.28-1.23c1.96,1.4,3.93,2.81,5.88,4.2,14.14,10.11,28.3,20.21,42.45,30.33Z" style="fill:#ffebcc; stroke-width:0px;"/><path d="m168.25,120.53c-.12.07-.24.14-.37.21-2.87-2.05-5.73-4.1-8.6-6.15-14.91-10.63-29.8-21.29-44.7-31.92-.14-.11-.29-.2-.43-.31-.61-.44-.02-1.46.58-1.02.05.04.08.06.13.08h0c4.15,2.97,8.32,5.94,12.46,8.9,13.61,9.72,27.21,19.44,40.82,29.17h0c.07.68.1,1.03.1,1.03Z" style="fill:#ffebcc; stroke-width:0px;"/><path d="m167.44,110.8c-14.95-10.67-29.89-21.36-44.84-32.03-.15-.11-.23-.26-.24-.41-.07-.45.36-.94.83-.6.13.09.27.19.4.28,4.07,2.9,8.12,5.8,12.19,8.7,10.53,7.52,21.06,15.04,31.58,22.56h0c.03.52.07,1.02.09,1.5Z" style="fill:#ffebcc; stroke-width:0px;"/><path d="m166.93,100.82c-11.66-8.34-23.33-16.67-34.99-25.01l1.47-.39c3.6,2.57,7.21,5.15,10.81,7.73,7.55,5.4,15.11,10.79,22.67,16.19.01.5.03.99.05,1.48Z" style="fill:#ffebcc; stroke-width:0px;"/><path d="m166.73,89.6v1.43c-8.32-5.94-16.65-11.89-24.96-17.83l1.47-.39c3.15,2.25,6.29,4.5,9.42,6.74,4.69,3.35,9.38,6.7,14.07,10.05Z" style="fill:#ffebcc; stroke-width:0px;"/><path d="m142.05,132.22c-.47.15-.92.31-1.36.46-10.72-7.66-21.45-15.32-32.16-22.98l.28-1.23c2.8,2,5.6,3.99,8.4,5.99,8.28,5.92,16.57,11.84,24.85,17.76Z" style="fill:#ffebcc; stroke-width:0px;"/><path d="m132.21,135.37c-.48.15-.96.28-1.42.43-6.98-4.99-13.96-9.97-20.93-14.97l-.5-1.79c1.76,1.26,3.51,2.51,5.27,3.77,5.86,4.19,11.73,8.37,17.59,12.56Z" style="fill:#ffebcc; stroke-width:0px;"/><path d="m122.52,138.05c-.52.13-1.01.26-1.48.38-2.62-1.88-5.24-3.75-7.86-5.62l-.49-1.79c3.27,2.34,6.56,4.69,9.83,7.03Z" style="fill:#ffebcc; stroke-width:0px;"/><path d="m114.55,133.58c.15,2.12.35,4.19.57,6.21-3.2-.15-6.41-.33-9.6-.53-.68-.02-1.34-.07-2.02-.12-4.21-.25-8.4-.54-12.58-.86-.66-.05-1.32-.11-1.98-.17-4.11-.32-8.2-.67-12.28-1.09-.65-.05-1.3-.11-1.95-.18-3.31-.32-6.61-.66-9.88-1.05-.71-.07-1.41-.15-2.11-.24-.64-.06-1.28-.14-1.92-.23-3.58-.41-7.14-.86-10.68-1.35-.34-.04-.66-.08-1-.13-.62-.08-1.23-.17-1.85-.26-3.81-.52-7.6-1.09-11.37-1.69-.61-.08-1.21-.19-1.81-.3-3.72-.58-7.41-1.22-11.08-1.88-.59-.11-1.19-.21-1.77-.33-3.6-.65-7.18-1.35-10.74-2.08-.58-.12-1.15-.24-1.72-.37-1.29-.25-2.59-.53-3.87-.81.21-1.94.4-3.88.56-5.84.03-.47.08-.96.12-1.43.23-3.02.42-6.05.55-9.08.02-.47.05-.94.06-1.41.12-3,.19-5.99.19-9,.01-.46.01-.92.01-1.39,0-2.98-.06-5.97-.15-8.96-.01-.45-.03-.9-.06-1.35-.07-2.18-.19-4.37-.31-6.56-.23-3.94-.56-7.91-.96-11.9,8.01,1.31,16.06,2.52,24.16,3.61.59.08,1.19.17,1.77.24,3.98.53,7.97,1.04,11.98,1.52.59.07,1.19.14,1.78.21,2.14.25,4.3.5,6.45.72,1.92.21,3.84.43,5.77.62.61.07,1.21.14,1.82.2,2.66.27,5.31.53,7.98.77,1.49.14,2.98.27,4.47.4.62.06,1.23.12,1.85.17,4.23.37,8.47.7,12.72.99.63.05,1.26.09,1.9.14,4.11.28,8.24.54,12.37.77.63.04,1.27.07,1.91.09,4.18.23,8.38.43,12.59.59.22.01.45.01.68.02-.02.32-.05.64-.06.96-.21,3.23-.38,6.41-.54,9.54-.02.5-.05.98-.07,1.47-.02.31-.03.6-.05.91-.13,2.84-.24,5.65-.33,8.41-.01.47-.02.95-.03,1.42-.09,3.09-.14,6.12-.15,9.09-.01.47-.01.95-.01,1.41-.01,3.02.02,5.97.1,8.85.01.46.02.91.05,1.36.08,2.94.22,5.79.42,8.56.02.45.06.89.09,1.33Z" style="fill:#ea493d; stroke-width:0px;"/><path d="m87.57,78.79c-5.48,3.69-10.99,7.35-16.52,10.98-8.33,5.46-16.72,10.82-25.16,16.1-8.48,5.31-17.02,10.52-25.61,15.64-3.25,1.94-6.51,3.87-9.77,5.78-.58-.12-1.15-.24-1.72-.37,4.73-2.76,9.45-5.54,14.14-8.36,8.54-5.13,17.02-10.34,25.45-15.64,8.42-5.29,16.8-10.69,25.13-16.16,4.07-2.68,8.12-5.38,12.16-8.11.63.05,1.26.09,1.9.14Z" style="fill:#ffebcc; stroke-width:0px;"/><path d="m72.95,77.66c-4.58,3.08-9.18,6.13-13.79,9.15-8.33,5.46-16.73,10.82-25.17,16.1-8.48,5.31-17.02,10.52-25.61,15.64-.97.58-1.93,1.15-2.9,1.73.03-.47.08-.96.12-1.43,1.82-1.08,3.62-2.16,5.43-3.24,8.54-5.13,17.03-10.34,25.45-15.64,8.43-5.31,16.81-10.69,25.13-16.16,3.17-2.08,6.34-4.19,9.49-6.31.62.06,1.23.12,1.85.17Z" style="fill:#ffebcc; stroke-width:0px;"/><path d="m58.65,76.32c-3.79,2.52-7.57,5.03-11.38,7.53-8.34,5.46-16.73,10.82-25.17,16.1-5.29,3.32-10.61,6.58-15.95,9.82.02-.47.05-.94.06-1.41,6.15-3.73,12.28-7.52,18.38-11.36,8.43-5.31,16.81-10.69,25.13-16.16,2.38-1.56,4.75-3.14,7.12-4.72.61.07,1.21.14,1.82.2Z" style="fill:#ffebcc; stroke-width:0px;"/><path d="m44.61,74.78c-3.08,2.05-6.16,4.09-9.25,6.11-8.33,5.45-16.72,10.82-25.16,16.1-1.27.79-2.54,1.59-3.81,2.37.01-.46.01-.92.01-1.39,2.1-1.3,4.19-2.62,6.28-3.93,8.43-5.31,16.81-10.69,25.14-16.16,1.68-1.1,3.34-2.2,5.01-3.32.59.07,1.19.14,1.78.21Z" style="fill:#ffebcc; stroke-width:0px;"/><path d="m30.85,73.05c-2.46,1.63-4.92,3.27-7.39,4.88-5.72,3.73-11.45,7.44-17.22,11.08-.01-.45-.03-.9-.06-1.35,6.62-4.19,13.19-8.44,19.72-12.75,1.06-.7,2.11-1.39,3.17-2.1.59.08,1.19.17,1.77.24Z" style="fill:#ffebcc; stroke-width:0px;"/><path d="m101.85,79.66c-7.32,5.01-14.7,9.94-22.12,14.79-8.33,5.45-16.72,10.82-25.16,16.09-8.48,5.31-17.02,10.53-25.61,15.64-1.98,1.18-3.96,2.36-5.94,3.53-.59-.11-1.19-.21-1.77-.33,3.46-2.02,6.91-4.07,10.36-6.15,8.54-5.13,17.02-10.34,25.45-15.63,8.42-5.31,16.8-10.69,25.13-16.18,5.94-3.91,11.86-7.86,17.75-11.87.63.04,1.27.07,1.91.09Z" style="fill:#ffebcc; stroke-width:0px;"/><path d="m115.12,80.27c-.02.32-.05.64-.06.96-.61.43-1.21.84-1.82,1.26-8.21,5.62-16.5,11.17-24.84,16.63-8.33,5.46-16.72,10.82-25.16,16.1-8.48,5.31-17.02,10.52-25.61,15.64-.58.34-1.15.69-1.74,1.03-.61-.08-1.21-.19-1.81-.3,2.07-1.22,4.12-2.45,6.19-3.68,8.54-5.13,17.02-10.34,25.45-15.64,8.42-5.31,16.81-10.69,25.13-16.16,7.91-5.21,15.77-10.49,23.58-15.86.22.01.45.01.68.02Z" style="fill:#ffebcc; stroke-width:0px;"/><path d="m114.53,90.78c-.02.5-.05.98-.07,1.47-5.77,3.88-11.54,7.73-17.36,11.53-8.34,5.46-16.73,10.82-25.17,16.1-7.56,4.72-15.16,9.39-22.8,13.96-.62-.08-1.23-.17-1.85-.26.56-.33,1.13-.66,1.69-1.01,8.54-5.13,17.02-10.34,25.45-15.64,8.43-5.29,16.81-10.68,25.13-16.16,5.02-3.29,10.01-6.63,14.98-9.99Z" style="fill:#ffebcc; stroke-width:0px;"/><path d="m114.08,101.56c-.01.47-.02.95-.03,1.42-2.75,1.84-5.51,3.66-8.27,5.47-8.34,5.45-16.73,10.82-25.17,16.1-5.93,3.71-11.88,7.37-17.87,10.99-.64-.06-1.28-.14-1.92-.23,7.47-4.49,14.9-9.06,22.29-13.71,8.43-5.31,16.81-10.69,25.13-16.16,1.96-1.29,3.91-2.58,5.86-3.88Z" style="fill:#ffebcc; stroke-width:0px;"/><path d="m113.9,112.08c-.01.47-.01.95-.01,1.41-8.15,5.34-16.36,10.57-24.6,15.74-4.19,2.62-8.4,5.22-12.62,7.79-.65-.05-1.3-.11-1.95-.18,5.71-3.48,11.39-7,17.05-10.56,7.42-4.65,14.79-9.39,22.12-14.2Z" style="fill:#ffebcc; stroke-width:0px;"/><path d="m114.04,123.7c-5.34,3.43-10.69,6.83-16.08,10.2-2.34,1.47-4.68,2.92-7.04,4.38-.66-.05-1.32-.11-1.98-.17,3.84-2.37,7.69-4.75,11.51-7.15,4.53-2.85,9.04-5.72,13.54-8.62.01.46.02.91.05,1.36Z" style="fill:#ffebcc; stroke-width:0px;"/><path d="m114.55,133.58c-2.63,1.67-5.27,3.33-7.91,4.99-.37.24-.75.46-1.12.69-.68-.02-1.34-.07-2.02-.12,1.88-1.17,3.75-2.34,5.63-3.52,1.78-1.11,3.55-2.24,5.32-3.36.02.45.06.89.09,1.33Z" style="fill:#ffebcc; stroke-width:0px;"/><path d="m168.26,66.17c-.64,4.22-1.05,8.78-1.28,13.38l-52.57,13.6-2.12-.24c-38.29-.71-74.15-4.2-106.41-11.81-.24-3.95-.56-7.92-.95-11.9,35.87,5.87,72.59,9.61,110.2,11.07l53.14-14.1Z" style="fill:#e0867c; mix-blend-mode:multiply; stroke-width:0px;"/><path d="m172.93,46.12l-16.57,8.81-11.5,6.11-2.38.52-35.15,7.64-40.36-3.43-15.74-1.35-39.68-3.37L0,48.98s13.66-.81,28.96-2.63h.03c7.92-.95,16.27-2.16,23.39-3.67h.01c3.65-.78,6.95-1.63,9.73-2.57,0,0,19.87-.58,47.23.52,5.85.24,12.05.56,18.46.97h.02c14.38.92,29.86,2.34,45.08,4.52Z" style="fill:#ea493d; stroke-width:0px;"/><path d="m172.92,46.12l-56.55,13.21-1.25.29-3.61,9.58,3.17,18.52,56.53-13.38c-.33-14.7,1.71-28.22,1.71-28.22Z" style="fill:#aa170c; stroke-width:0px;"/><path d="m1.64,77.38s.33-14.14-1.64-28.41c0,0,64.94,13.91,115.12,10.65l-.44,28.1s-80.57-1.35-113.05-10.35Z" style="fill:#ea493d; stroke-width:0px;"/><path d="m127.82,41.6l-18.11,5.12-13.4,3.77-29.12,8.21-.21,7.08-.35,11.32-1.78,58.7c-.71-.07-1.41-.15-2.11-.24-.64-.06-1.28-.14-1.92-.23-3.58-.41-7.14-.86-10.68-1.35.14-9.47.62-38.9.93-58.47.07-4.26.13-8.06.17-11.08.07-4.54.12-7.32.12-7.32l27.15-7.71,13.76-3.91,17.09-4.86c5.85.24,12.05.56,18.46.97Z" style="fill:#f8b229; stroke-width:0px;"/><path d="m156.36,49.99v76.6c-1.5.67-3.03,1.33-4.54,1.94-.43.18-.86.36-1.28.52-1.95.78-3.88,1.5-5.79,2.19l-1.89-58.34-.37-11.34-.27-8.27-45.91-2.82-17.79-1.09h-.01l-49.51-3.04c7.92-.95,16.27-2.16,23.39-3.67h.01l39.86,2.81,17.44,1.23h.01l46.64,3.28Z" style="fill:#f8b229; stroke-width:0px;"/><path d="m92.84,46.54c-10.02-12.36-15.6-28.36-15.48-44.37-1.68,3.73-3.77,7.05-5.45,10.78-3.58-3.85-6.21-7.99-8.03-12.95.29,17.7,6.99,34.84,19.05,47.62,3.02.22,7.16.21,9.91-1.07Z" style="fill:#f8b229; stroke-width:0px;"/><path d="m94.95,45.97c15.73-7.42,28.35-21.41,34.25-37.98-.09,3.26.07,6.23-.02,9.49,4.94-1.05,9.58-2,13.27-5.49-8.03,16.36-21.44,29.82-37.74,37.57-3.12-1-6.65-2.58-9.76-3.58Z" style="fill:#f8b229; stroke-width:0px;"/></g></g></g></svg>