<?xml version="1.0" encoding="UTF-8"?><svg xmlns="http://www.w3.org/2000/svg" width="135.91" height="122.74" viewBox="0 0 135.91 122.74"><g style="isolation:isolate;"><g id="_Слой_2"><g id="_Слой_1-2"><path d="m130.52,73.28l-1.6,32.67c-.17,3.39-5,6.86-12.96,9.76-1.6.58-3.33,1.15-5.18,1.68-2.74.79-5.75,1.52-8.95,2.17-.31.07-.64.13-.96.19-9.51,1.86-20.82,2.99-32.93,2.99-6.54,0-12.83-.33-18.73-.93-4.38-.45-8.54-1.03-12.42-1.74-.42-.07-.83-.14-1.24-.22-5.07-.96-9.65-2.13-13.58-3.43-1.86-.62-3.58-1.25-5.13-1.93-6.11-2.61-9.73-5.61-9.87-8.54l-1.6-32.67c-.42-8.69,24.99-15.82,59.97-15.82s65.6,7.12,65.18,15.82Z" style="fill:#63adb7; stroke-width:0px;"/><path d="m16.85,114.5c-6.11-2.61-9.73-5.61-9.87-8.54l-.07-1.5c.99-1.8,2.81-3.09,5.51-3.09,7.43,0,9.09,9.76,4.44,13.14Z" style="fill:#448b91; stroke-width:0px;"/><path d="m33.69,98.54c-5.26,0-5.01,8.42.23,8.42s5.04-8.42-.23-8.42Z" style="fill:#448b91; stroke-width:0px;"/><path d="m49.22,121.82c-4.38-.45-8.54-1.03-12.42-1.74-1.82-4.49.26-10.74,6.44-10.74,7.04,0,9.06,8.09,5.97,12.48Z" style="fill:#448b91; stroke-width:0px;"/><path d="m62.88,100.96c-7.5,0-7.39,11.95.05,11.95s7.47-11.95-.05-11.95Z" style="fill:#448b91; stroke-width:0px;"/><path d="m86,100.55c-12.76,0-12.86,20.19-.29,20.19s13.07-20.19.29-20.19Z" style="fill:#448b91; stroke-width:0px;"/><path d="m110.79,117.4c-2.74.79-5.75,1.52-8.95,2.17-.31.07-.64.13-.96.19-3.5-3.46-1.9-11.41,4.51-11.41,5.21,0,6.93,5.24,5.41,9.05Z" style="fill:#448b91; stroke-width:0px;"/><path d="m120.05,90.01c-10.6,0-11.17,16.95-.7,16.95s11.31-16.95.7-16.95Z" style="fill:#448b91; stroke-width:0px;"/><path d="m7.24,95.1c-.28,0-.54-.02-.8-.06l-.53-10.92c.26-.04.52-.06.8-.06,6.86,0,7.32,11.05.53,11.05Z" style="fill:#448b91; stroke-width:0px;"/><path d="m130.52,73.28l-.46,9.41c-9.37,5.6-28.27,13.39-61.08,13.39-36.48,0-55.31-8.21-63.12-12.91l-.48-9.9h125.15Z" style="fill:#accce2; mix-blend-mode:multiply; stroke-width:0px;"/><path d="m134.86,73.2c-.48,9.16-27.37,19.88-63.75,19.88S1.52,82.36,1.05,73.2c-.49-9.3,26.68-16.92,64.12-16.92s70.18,7.62,69.7,16.92Z" style="fill:#448b91; stroke-width:0px;"/><polygon points="134.86 73.2 135.9 53.21 0 53.21 1.05 73.2 134.86 73.2" style="fill:#448b91; stroke-width:0px;"/><path d="m135.91,53.21c-.19,3.67-4.91,7.43-12.75,10.65-.86.35-1.75.69-2.68,1.03-1.19.44-2.43.86-3.74,1.26h-.01c-4.59,1.45-9.85,2.72-15.63,3.74h-.01c-9.81,1.75-17.86,3.4-29.87,3.4s-25.67-1.56-35.18-3.19c-5.86-.99-11.22-2.23-15.9-3.65h-.01c-1.95-.6-3.79-1.22-5.49-1.86-.94-.36-1.84-.72-2.7-1.08C4.58,60.37.19,56.75,0,53.21c-.23-4.38,5.41-8.39,15.25-11.46,4.99-1.57,11.04-2.89,17.96-3.88,9.28-1.34,20.1-2.1,31.89-2.1,13.97,0,27.32,1.06,38.6,2.89,5.63.92,10.74,2.01,15.14,3.28,10.74,3.05,17.28,6.99,17.05,11.28Z" style="fill:#63adb7; stroke-width:0px;"/><path d="m118.85,41.93l-33.14,11.28-9.67,3.3h-.01l-3.16,1.08h-.01l-36.83,12.52-.73.25v2.84s.01.09.01.09c-1.26,16.59-1.47,32.24.24,46.57-5.07-.96-9.65-2.13-13.58-3.43-2.2-15.77-2.72-32.44-1.86-49.98h.01l24.2-8.05,4.87-1.62h.02s10.71-3.57,10.71-3.57l43.78-14.56c5.63.92,10.74,2.01,15.14,3.28Z" style="fill:#ea493d; stroke-width:0px;"/><path d="m101.84,119.56c2.28-14.86.62-49.21.62-49.21l-.73-.25-.64-.22h-.01l-36.16-12.3h-.01l-.32-.12h-.01l-2.83-.96h-.01l-.55-.18h-.01l-9.1-3.11-36.82-11.46c4.99-1.57,11.04-2.89,17.96-3.88l44.63,15.34,10.71,3.56h.02s2.18.74,2.18.74l2.69.89,3.21,1.07h.01l20.05,6.67h.01l.9.31h.01c.82,18.83.48,35.53-1.68,49.27-3.98,1.45-8.76,2.76-14.13,3.85Z" style="fill:#ea493d; stroke-width:0px;"/><path d="m69.76,49.91c-.65-1.43-1.36-2.83-1.82-4.04-2.88-7.61-5.21-15.46-8.7-23.01-2.26-4.9-4.97-9.81-9.12-12.96-2.34-1.76-5.23-2.81-8.01-2.81-2.19,0-4.32.66-6.06,2.13-2.03,1.7-3.23,4.27-3.69,7.07.17-.17.35-.33.54-.48,1.68-1.41,3.72-2.06,5.84-2.1,2.83-.04,5.78,1.01,8.17,2.8,4.14,3.1,6.86,7.98,9.12,12.82,2.4,5.17,4.26,10.48,6.13,15.75.84,2.36,1.68,4.7,2.58,7.04.13.37.29.75.48,1.14.04.03.07.05.11.08.73.48,5.92,4.72,5.89,1.66,0-1.59-.67-3.36-1.45-5.06Z" style="fill:#f8b229; stroke-width:0px;"/><path d="m65.2,53.24c-2.7-1.83-5.48-3.54-8.25-5.29-5.27-3.31-10.67-6.88-15.23-11.26-3.68-3.52-7.19-7.61-8.77-12.71-.76-2.45-.97-5.15-.58-7.69.17-.17.35-.33.54-.48,1.68-1.41,3.72-2.06,5.84-2.1-.48,2.6-.28,5.41.48,7.94,1.57,5.12,5.06,9.23,8.73,12.77,4.26,4.11,9.25,7.5,14.2,10.65.84,2.36,1.68,4.7,2.58,7.04.13.37.29.75.48,1.14Z" style="fill:#d67d12; stroke-width:0px;"/><path d="m69.18,54.82c-.04,3.49,5.88-1.34,6.72-1.89.04-.03.08-.06.13-.09.21-.45.39-.88.55-1.3,1.03-2.66,1.99-5.33,2.96-8.03,2.14-6.02,4.28-12.1,7.04-18.01,2.6-5.55,5.73-11.14,10.48-14.7,2.73-2.05,6.11-3.26,9.35-3.21,2.42.05,4.75.8,6.66,2.42.21.17.42.37.61.56-.5-3.21-1.86-6.17-4.17-8.12-1.98-1.69-4.41-2.45-6.92-2.45-3.19,0-6.5,1.21-9.18,3.23-4.77,3.62-7.89,9.25-10.48,14.88-4.01,8.65-6.69,17.63-10,26.33-.52,1.39-1.34,2.98-2.08,4.61-.89,1.94-1.65,3.95-1.66,5.77Z" style="fill:#f8b229; stroke-width:0px;"/><path d="m76.03,52.84c3.08-2.09,6.26-4.03,9.42-6.03,6.02-3.78,12.19-7.86,17.42-12.86,4.22-4.03,8.25-8.71,10.09-14.56.89-2.81,1.15-5.91.71-8.83-.19-.19-.4-.38-.61-.56-1.91-1.62-4.24-2.37-6.66-2.42.53,2.99.29,6.22-.6,9.12-1.83,5.87-5.83,10.57-10.04,14.63-4.88,4.7-10.59,8.57-16.24,12.17-.97,2.7-1.93,5.37-2.96,8.03-.15.42-.34.85-.55,1.3Z" style="fill:#d67d12; stroke-width:0px;"/></g></g></g></svg>