<?xml version="1.0" encoding="UTF-8"?><svg xmlns="http://www.w3.org/2000/svg" width="133.22" height="164.95" viewBox="0 0 133.22 164.95"><g style="isolation:isolate;"><g id="_Слой_2"><g id="_Слой_1-2"><path d="m122.33,68.39c-5.46,38.92-7.71,86.27-7.71,86.27,0,2.19-2.33,4.21-6.62,5.88h0c-2.96,1.15-6.87,2.13-11.58,2.88-6.23.98-13.88,1.54-22.67,1.54-9.32,0-18.61-.63-26.61-1.72-.96-.12-1.9-.26-2.82-.41-4.85-.76-9.13-1.69-12.5-2.75-5-1.56-8.02-3.42-8.02-5.4-1.94-31.88-6.87-58.95-10.05-73.87-1.68-7.91-2.88-12.4-2.88-12.4h111.45Z" style="fill:#63adb7; stroke-width:0px;"/><path d="m18.03,87.42c-.08-.08-.13-.18-.13-.29.01-.91.21-1.85.53-2.82.1-.32-.2-.61-.51-.49-1.11.42-2.11.89-2.94,1.46-.09.06-.19.07-.29.05.4,1.97.81,4.1,1.24,6.36.18-.31.37-.61.57-.87.06-.07.13-.12.22-.15.87-.24,1.94-.25,3.08-.15.33.03.54-.35.35-.62-.66-.94-1.37-1.78-2.13-2.49Z" style="fill:#448b91; stroke-width:0px;"/><path d="m27.36,129.84c.14.11.23.28.23.47-.01,1.33-.24,2.73-.61,4.18-.13.5.38.91.84.68,1.66-.84,3.17-1.7,4.32-2.57.25-.19.58-.14.79.09.76.82,1.95,1.61,3.34,2.39.46.26,1-.18.85-.69-.51-1.78-.87-3.48-.88-4.97,0-.14.04-.27.12-.38.81-1.13,2.06-2.15,3.5-3.13.41-.28.32-.93-.15-1.07-1.66-.48-3.27-.8-4.83-.9-.17-.01-.32-.09-.43-.22-.83-1.09-1.47-2.39-1.99-3.84-.17-.47-.8-.52-1.06-.09-.93,1.56-1.66,3.08-2.12,4.54-.06.2-.21.35-.41.4-1.44.39-2.93.57-4.44.55-.49,0-.8.54-.51.94.99,1.37,2.14,2.58,3.44,3.64Z" style="fill:#448b91; stroke-width:0px;"/><path d="m108.59,101.04c1.36-1.43,3.33-2.63,5.56-3.73.63-.31.63-1.25-.01-1.54-2.25-1.01-4.47-1.78-6.65-2.23-.24-.05-.44-.19-.56-.4-.97-1.7-1.62-3.67-2.07-5.83-.15-.7-1.03-.9-1.48-.34-1.61,2.02-2.94,4.02-3.87,6-.12.27-.37.45-.65.49-2.12.27-4.25.22-6.39-.11-.69-.11-1.24.61-.91,1.23,1.14,2.14,2.53,4.07,4.17,5.83.18.19.27.45.23.7-.27,1.88-.87,3.82-1.67,5.79-.28.68.37,1.37,1.05,1.13,2.51-.86,4.8-1.77,6.6-2.77.39-.22.85-.09,1.11.28.92,1.31,2.45,2.67,4.26,4.04.6.46,1.45-.06,1.34-.81-.38-2.63-.56-5.09-.29-7.21.03-.2.11-.37.24-.51Z" style="fill:#448b91; stroke-width:0px;"/><path d="m113.4,128.54c-.11.08-.25.09-.37.04-.9-.4-1.74-.93-2.52-1.58-.25-.21-.63-.06-.65.27-.04,1.12.06,2.23.31,3.32.03.12,0,.24-.07.34-.55.68-1.23,1.31-2.01,1.9-.27.2-.17.63.16.7,1.2.26,2.32.45,3.27.48.21,0,.36.17.37.38.06.74.36,1.65.76,2.63.13.33.59.32.72,0,.46-1.14.96-2.16,1.56-2.94.06-.07.13-.12.22-.15.23-.06.48-.11.73-.14.15-2.13.31-4.37.48-6.72,0,0-.01,0-.02,0-1.11.42-2.11.89-2.94,1.46Z" style="fill:#448b91; stroke-width:0px;"/><path d="m103.79,155.03c-.08-.18-.1-.38-.06-.57.43-1.94,1.49-4.01,2.83-6.13.38-.6-.1-1.4-.8-1.31-2.44.33-4.72.85-6.82,1.62-.23.08-.47.07-.68-.05-1.7-.94-3.27-2.27-4.76-3.87-.49-.52-1.34-.22-1.44.49-.34,2.57-.45,4.99-.22,7.17.03.29-.08.58-.31.76-1.67,1.35-3.51,2.44-5.51,3.3-.64.27-.75,1.17-.14,1.53,2.07,1.22,4.25,2.13,6.55,2.76.25.07.46.24.56.48.34.81.62,1.67.86,2.56,1.98-.26,3.85-.56,5.57-.89.29-.44.56-.88.8-1.31.22-.39.68-.52,1.09-.35.67.29,1.47.51,2.34.7,1.42-.37,2.7-.78,3.86-1.2-1.57-1.93-2.9-3.84-3.71-5.7Z" style="fill:#448b91; stroke-width:0px;"/><path d="m74.39,164.95c-.93-1.39-1.69-2.75-2.13-4.05-.04-.13-.05-.27,0-.4.42-1.33,1.29-2.7,2.35-4.1.3-.4.01-.99-.48-.96-1.72.08-3.35.3-4.86.7-.16.04-.33.02-.47-.08-1.13-.76-2.14-1.79-3.09-3-.31-.39-.92-.24-1.03.25-.4,1.77-.62,3.45-.59,4.99,0,.21-.09.4-.26.51-1.25.84-2.6,1.48-4.04,1.95-.46.15-.59.77-.19,1.06,1.37.98,2.84,1.76,4.4,2.34.17.06.3.2.36.37.02.07.04.14.06.21,3.08.14,6.22.21,9.36.21.22,0,.43,0,.64,0Z" style="fill:#448b91; stroke-width:0px;"/><path d="m39.15,147.22c-.27.2-.17.63.16.7,1.2.26,2.32.45,3.27.48.21,0,.36.17.37.38.06.74.36,1.65.76,2.63.13.33.59.32.72,0,.46-1.14.96-2.16,1.56-2.94.06-.07.13-.12.22-.15.87-.24,1.94-.25,3.08-.15.33.03.54-.35.35-.62-.66-.94-1.37-1.78-2.13-2.49-.08-.08-.13-.18-.13-.29.01-.91.21-1.85.53-2.82.1-.32-.2-.61-.51-.49-1.11.42-2.11.89-2.94,1.46-.11.08-.25.09-.37.04-.9-.4-1.74-.93-2.52-1.58-.25-.21-.63-.06-.65.27-.04,1.12.06,2.23.31,3.32.03.12,0,.24-.07.34-.55.68-1.23,1.31-2.01,1.9Z" style="fill:#448b91; stroke-width:0px;"/><path d="m51.15,105.38c-1.68-2.04-3.09-4.05-3.94-6-.08-.18-.1-.38-.06-.57.43-1.94,1.49-4.01,2.83-6.13.38-.6-.1-1.4-.8-1.31-2.44.33-4.72.85-6.82,1.62-.23.08-.47.07-.68-.05-1.7-.94-3.27-2.27-4.76-3.87-.49-.52-1.34-.22-1.44.49-.34,2.57-.45,4.99-.22,7.17.03.29-.08.58-.31.76-1.67,1.35-3.51,2.44-5.51,3.3-.64.27-.75,1.17-.14,1.53,2.07,1.22,4.25,2.13,6.55,2.76.25.07.46.24.56.48.73,1.75,1.22,3.72,1.55,5.82.11.72,1.01.97,1.48.41,1.7-2.07,3.19-4.06,4.21-5.87.22-.39.68-.52,1.09-.35,1.46.63,3.46.98,5.71,1.19.75.07,1.2-.82.72-1.4Z" style="fill:#448b91; stroke-width:0px;"/><path d="m55.5,131.6c-.27.2-.17.63.16.7,1.2.26,2.32.45,3.27.48.21,0,.36.17.37.38.06.74.36,1.65.76,2.63.13.33.59.32.72,0,.46-1.14.96-2.16,1.56-2.94.06-.07.13-.12.22-.15.87-.24,1.94-.25,3.08-.15.33.03.54-.35.35-.62-.66-.94-1.37-1.78-2.13-2.49-.08-.08-.13-.18-.13-.29.01-.91.21-1.85.53-2.82.1-.32-.2-.61-.51-.49-1.11.42-2.11.89-2.94,1.46-.11.08-.25.09-.37.04-.9-.4-1.74-.93-2.52-1.58-.25-.21-.63-.06-.65.27-.04,1.12.06,2.23.31,3.32.03.12,0,.24-.07.34-.55.68-1.23,1.31-2.01,1.9Z" style="fill:#448b91; stroke-width:0px;"/><path d="m80.68,133.98c.17.06.3.2.36.37.41,1.27.62,2.67.72,4.16.03.51.65.74,1.01.38,1.31-1.34,2.47-2.63,3.3-3.83.18-.26.5-.32.78-.17.98.53,2.35.9,3.91,1.19.52.1.89-.49.59-.93-1.04-1.53-1.91-3.02-2.38-4.43-.04-.13-.05-.27,0-.4.42-1.33,1.29-2.7,2.35-4.1.3-.4.01-.99-.48-.96-1.72.08-3.35.3-4.86.7-.16.04-.33.02-.47-.08-1.13-.76-2.14-1.79-3.09-3-.31-.39-.92-.24-1.03.25-.4,1.77-.62,3.45-.59,4.99,0,.21-.09.4-.26.51-1.25.84-2.6,1.48-4.04,1.95-.46.15-.59.77-.19,1.06,1.37.98,2.84,1.76,4.4,2.34Z" style="fill:#448b91; stroke-width:0px;"/><path d="m70.18,112.6c.31-.05.58.14.67.45.31,1.09,1.01,2.34,1.89,3.68.29.44.97.3,1.07-.22.35-1.83.8-3.49,1.46-4.83.06-.12.16-.22.28-.28,1.23-.62,2.8-.95,4.53-1.15.49-.06.7-.68.35-1.02-1.25-1.2-2.55-2.23-3.88-3.05-.14-.09-.25-.23-.28-.4-.25-1.35-.23-2.81-.03-4.34.06-.5-.48-.84-.9-.58-1.53.95-2.87,1.96-3.93,3.05-.14.15-.35.21-.54.17-1.46-.33-2.86-.86-4.2-1.58-.43-.23-.96.11-.88.6.26,1.68.74,3.29,1.42,4.84.07.17.07.36-.01.52-.61,1.18-1.45,2.32-2.43,3.43-.34.38-.07.99.44,1,1.86.02,3.58-.03,5-.27Z" style="fill:#448b91; stroke-width:0px;"/><path d="m122.33,68.39c-5.46,38.92-7.71,86.27-7.71,86.27,0,2.19-2.33,4.21-6.62,5.88h0c-2.96,1.15-6.87,2.13-11.58,2.88-6.23.98-13.88,1.54-22.67,1.54-9.32,0-18.61-.63-26.61-1.72,4.87-.43,9.68-1.14,14.4-2.4,9.54-2.53,18.77-7.51,24.64-15.56,6-8.23,7.96-18.83,8.32-29.07.35-10.25-.72-20.51-.01-30.74-26.9,5.01-54.46,2.94-80.73-4.67-1.68-7.91-2.88-12.4-2.88-12.4h111.45Z" style="fill:#accce2; mix-blend-mode:multiply; stroke-width:0px;"/><path d="m.21,56.08c4.12,7.06,7.17,13.92,8.94,20.54,39.16,8.17,78.21,8.11,117.15,0,.85-7.18,3.17-14.01,6.69-20.54H.21Z" style="fill:#448b91; stroke-width:0px;"/><path d="m133.22,55.13c0,2.71-5.26,5.22-14.08,7.2-4.23.95-9.28,1.78-14.97,2.47-10.69,1.28-23.63,2.03-37.56,2.03-11.96,0-23.19-.56-32.9-1.52-6.39-.63-12.12-1.45-16.96-2.42C6.32,60.83,0,58.1,0,55.13s5.91-5.5,15.73-7.55c3.39-.71,7.26-1.34,11.51-1.88,11.02-1.43,24.64-2.27,39.36-2.27,11.97,0,23.22.56,32.94,1.52h.02c6.32.64,11.99,1.45,16.79,2.4,10.5,2.07,16.86,4.8,16.86,7.77Z" style="fill:#63adb7; stroke-width:0px;"/><path d="m116.35,47.36l-36.31,7.88h-.01l-11.79,2.57-34.53,7.5s.22,1.08.6,3.09c2.16,11.42,9.43,52.83,10.02,94.43-4.85-.76-9.13-1.69-12.5-2.75-.56-12.28-3.32-58.54-13.58-91.67-.57-1.86-1.17-3.67-1.79-5.44l.29-.06,36.73-7.96h.01l11.28-2.44h.01l34.76-7.54h.02c6.32.64,11.99,1.45,16.79,2.4Z" style="fill:#f8b229; stroke-width:0px;"/><path d="m119.13,62.32h0c-.52,1.97-1.02,3.99-1.5,6.07-7.63,33.22-9.32,80-9.63,92.14h0c-2.96,1.15-6.87,2.13-11.58,2.88-1.28-32.59,5.28-81.47,7.21-95.02.34-2.31.54-3.59.54-3.59l-35.92-6.99-14.75-2.88h-.01l-37.74-7.35c3.39-.71,7.26-1.34,11.51-1.88l37.52,6.79h.01l15.25,2.75h.01l39.09,7.08Z" style="fill:#f8b229; stroke-width:0px;"/><path d="m69.55,49.91c-.65-1.43-1.36-2.83-1.82-4.04-2.88-7.61-5.21-15.46-8.7-23.01-2.26-4.9-4.97-9.81-9.12-12.96-2.34-1.76-5.23-2.81-8.01-2.81-2.19,0-4.32.66-6.06,2.13-2.03,1.7-3.23,4.27-3.69,7.07.17-.17.35-.33.54-.48,1.68-1.41,3.72-2.06,5.84-2.1,2.83-.04,5.78,1.01,8.17,2.8,4.14,3.1,6.86,7.98,9.12,12.82,2.4,5.17,4.26,10.48,6.13,15.76.84,2.36,1.68,4.7,2.58,7.04.13.37.29.75.48,1.14.04.03.07.05.11.08.73.48,5.92,4.72,5.89,1.66,0-1.59-.67-3.36-1.45-5.06Z" style="fill:#ea493d; stroke-width:0px;"/><path d="m65,53.24c-2.7-1.83-5.48-3.54-8.25-5.29-5.27-3.31-10.67-6.88-15.23-11.26-3.68-3.52-7.19-7.61-8.77-12.71-.76-2.45-.97-5.15-.58-7.69.17-.17.35-.33.54-.48,1.68-1.41,3.72-2.06,5.84-2.1-.48,2.6-.28,5.41.48,7.94,1.57,5.12,5.06,9.23,8.73,12.77,4.26,4.11,9.25,7.5,14.2,10.65.84,2.36,1.68,4.7,2.58,7.04.13.37.29.75.48,1.14Z" style="fill:#aa170c; stroke-width:0px;"/><path d="m68.91,54.82c-.04,3.49,5.88-1.34,6.72-1.89.04-.03.08-.06.13-.09.21-.45.39-.88.55-1.3,1.03-2.66,1.99-5.33,2.96-8.03,2.15-6.02,4.28-12.1,7.04-18.01,2.6-5.55,5.73-11.14,10.48-14.7,2.73-2.05,6.11-3.26,9.35-3.21,2.42.05,4.75.8,6.66,2.42.21.17.42.37.61.56-.5-3.21-1.86-6.17-4.17-8.12-1.98-1.69-4.41-2.45-6.92-2.45-3.19,0-6.5,1.21-9.18,3.23-4.77,3.62-7.89,9.25-10.48,14.88-4.01,8.65-6.69,17.63-10,26.33-.52,1.39-1.34,2.98-2.08,4.61-.89,1.94-1.65,3.95-1.66,5.77Z" style="fill:#ea493d; stroke-width:0px;"/><path d="m75.75,52.84c3.08-2.09,6.26-4.03,9.42-6.03,6.02-3.78,12.19-7.86,17.42-12.86,4.22-4.03,8.25-8.71,10.09-14.56.89-2.81,1.15-5.91.71-8.83-.19-.19-.4-.38-.61-.56-1.91-1.62-4.24-2.37-6.66-2.42.53,2.99.29,6.22-.6,9.12-1.83,5.87-5.83,10.57-10.04,14.63-4.88,4.7-10.59,8.57-16.24,12.17-.97,2.7-1.93,5.37-2.96,8.03-.15.42-.34.85-.55,1.3Z" style="fill:#aa170c; stroke-width:0px;"/><path d="m66.37,53.56c-7.08,3.46-14.12,7.39-19.47,13.23-5.36,5.84-8.86,13.92-7.62,21.8,2.23-2.46,5.01-4.66,7.79-6.44,1.1,2.29,2.7,4.18,4.6,5.83-1.68-6.59-.36-13.8,2.98-19.71,3.33-5.91,9-10.41,15.45-12.26-1.04-1.23-2.37-1.6-3.72-2.46Z" style="fill:#ea493d; stroke-width:0px;"/><path d="m73.59,53.56c7.08,3.46,14.12,7.39,19.47,13.23s8.86,13.92,7.62,21.8c-2.23-2.46-5.01-4.66-7.79-6.44-1.1,2.29-2.7,4.18-4.6,5.83,1.68-6.59.36-13.8-2.98-19.71-3.33-5.91-9-10.41-15.45-12.26,1.04-1.23,2.37-1.6,3.72-2.46Z" style="fill:#ea493d; stroke-width:0px;"/></g></g></g></svg>