<?xml version="1.0" encoding="UTF-8"?><svg xmlns="http://www.w3.org/2000/svg" width="68.82" height="102.99" viewBox="0 0 68.82 102.99"><g style="isolation:isolate;"><g id="_Слой_2"><g id="_Слой_1-2"><path d="m68.82,96.71c-3.9-.02-7.44.19-10.81.62-2.56.33-5.03.78-7.49,1.34-4.65,1.06-9.28,2.53-14.5,4.32,0,0,0-.02,0-.06-.29-1.44-5.58-23.55-3.17-49.35.28-2.99.67-5.97,1.17-8.9l15.08-3.58,7.16-1.7,4.84-1.15c.47,2.35.91,4.62,1.33,6.82,3.71,19.29,5.71,29.12,6.39,51.64Z" style="fill:#aa170c; stroke-width:0px;"/><path d="m36.03,102.99c-4.06-1.4-8.15-2.59-12.3-3.55-3.18-.74-6.4-1.34-9.66-1.79-4.62-.64-9.31-.97-14.07-.94.66-21.81,2.55-31.43,6.04-49.84.52-2.77,1.08-5.63,1.68-8.62l7.39,1.81,7.95,1.94,10.97,2.68c-.29,2.8-.49,5.74-.62,8.74-1.05,24.02,2.42,47.97,2.62,49.51,0,.04,0,.06,0,.06Z" style="fill:#ea493d; stroke-width:0px;"/><path d="m22.04,78.12c2.08,0,3.17-1.67,3.17-3.32s-1.09-3.32-3.17-3.32c-.98,0-1.8.36-2.38,1.05-.51.6-.79,1.41-.79,2.27,0,1.65,1.09,3.32,3.17,3.32Zm0-6.06c1.78,0,2.59,1.42,2.59,2.73,0,.72-.23,1.4-.65,1.89-.47.55-1.14.85-1.94.85s-1.47-.29-1.94-.84c-.42-.5-.65-1.17-.65-1.89,0-1.32.81-2.74,2.59-2.74Z" style="fill:#ffebcc; stroke-width:0px;"/><path d="m63.28,63.89c-.51.6-.79,1.41-.79,2.27,0,1.65,1.09,3.32,3.17,3.32.39,0,.74-.08,1.06-.19-.03-.19-.05-.39-.08-.58-.29.11-.61.18-.98.18-1.78,0-2.59-1.42-2.59-2.73,0-.72.23-1.4.65-1.89.47-.55,1.14-.85,1.94-.85.06,0,.12.01.18.02-.03-.2-.07-.4-.1-.59-.03,0-.05,0-.08,0-.98,0-1.8.36-2.38,1.05Z" style="fill:#ffebcc; stroke-width:0px;"/><path d="m27.95,67.92c3,0,4.56-2.41,4.56-4.79s-1.43-4.79-4.56-4.79-4.56,2.41-4.56,4.79,1.43,4.79,4.56,4.79Zm0-9c1.24,0,2.27.45,2.99,1.3.64.76,1,1.79,1,2.9,0,2.03-1.25,4.21-3.99,4.21-1.23,0-2.27-.45-2.99-1.3-.64-.76-1-1.79-1-2.9,0-2.03,1.25-4.21,3.99-4.21Z" style="fill:#ffebcc; stroke-width:0px;"/><path d="m47.07,99.53s0-.07,0-.1c0-2.31-1.43-4.79-4.56-4.79s-4.56,2.41-4.56,4.79c0,.92.23,1.86.7,2.67.19-.06.39-.13.58-.19-.45-.7-.7-1.56-.7-2.47,0-2.03,1.25-4.21,3.99-4.21,1.24,0,2.27.45,2.99,1.3.64.76,1,1.79,1,2.9,0,.09,0,.17-.01.26.19-.05.39-.11.58-.16Z" style="fill:#ffebcc; stroke-width:0px;"/><path d="m63.39,57.81c.52,0,.99-.08,1.43-.21-.03-.19-.07-.38-.1-.57-.4.13-.83.2-1.32.2-1.24,0-2.27-.45-2.99-1.3-.64-.76-1-1.79-1-2.9,0-1.97,1.18-4.08,3.76-4.2-.04-.19-.07-.39-.11-.58-2.77.18-4.23,2.49-4.23,4.78s1.43,4.79,4.56,4.79Z" style="fill:#ffebcc; stroke-width:0px;"/><path d="m68.41,87.09c-.77.38-1.69.61-2.76.61-4.11,0-5.98-3.26-5.98-6.3s1.87-6.31,5.98-6.31c.66,0,1.26.09,1.81.25-.02-.21-.05-.41-.07-.62-.55-.13-1.13-.21-1.74-.21-4.5,0-6.55,3.57-6.55,6.89s2.05,6.88,6.55,6.88c1.07,0,2-.21,2.8-.56-.01-.21-.02-.43-.03-.64Z" style="fill:#ffebcc; stroke-width:0px;"/><path d="m29.03,100.81c.29-.67.44-1.41.44-2.14,0-1.25-.4-2.41-1.14-3.28-.83-.99-2.02-1.51-3.42-1.51-3,0-4.56,2.41-4.56,4.79,0,.01,0,.03,0,.04.2.04.39.08.59.12,0-.05-.01-.1-.01-.15,0-2.03,1.25-4.21,3.99-4.21,1.23,0,2.27.45,2.99,1.3.64.76,1,1.79,1,2.9,0,.67-.14,1.36-.43,1.99.19.05.37.1.56.15Z" style="fill:#ffebcc; stroke-width:0px;"/><path d="m8.57,50.62c0-.86-.28-1.67-.79-2.27-.47-.55-1.09-.88-1.83-.99-.04.19-.07.39-.11.58,1.47.22,2.15,1.49,2.15,2.69,0,1.32-.81,2.74-2.59,2.74-.2,0-.39-.02-.57-.06-.04.19-.07.38-.11.57.21.04.44.07.68.07,2.08,0,3.16-1.67,3.16-3.32Z" style="fill:#ffebcc; stroke-width:0px;"/><path d="m8.28,93.09c-2.08,0-3.16,1.67-3.16,3.32,0,.14.02.28.04.43.19,0,.38.02.58.03-.02-.15-.04-.3-.04-.45,0-1.32.81-2.74,2.59-2.74s2.59,1.42,2.59,2.73c0,.29-.05.57-.12.84.19.02.38.05.57.07.08-.3.13-.6.13-.91,0-1.65-1.09-3.32-3.17-3.32Z" style="fill:#ffebcc; stroke-width:0px;"/><path d="m31.48,81.1c-3,0-4.56,2.41-4.56,4.79s1.43,4.79,4.56,4.79,4.56-2.41,4.56-4.79-1.43-4.79-4.56-4.79Zm0,9c-1.23,0-2.27-.45-2.99-1.3-.64-.76-1-1.79-1-2.9,0-2.03,1.25-4.21,3.99-4.21,1.24,0,2.27.45,2.99,1.3.64.76,1,1.79,1,2.9,0,2.03-1.25,4.21-3.99,4.21Z" style="fill:#ffebcc; stroke-width:0px;"/><path d="m6.67,67.92c2.8,0,4.27-2.26,4.27-4.48s-1.34-4.48-4.27-4.48c-1.36,0-2.4.53-3.11,1.33-.09.49-.17.98-.25,1.46.5-1.23,1.6-2.21,3.36-2.21,2.54,0,3.69,2.02,3.69,3.89,0,1.03-.33,1.98-.93,2.69-.67.79-1.62,1.21-2.77,1.21-2.44,0-3.6-1.86-3.68-3.67-.09.53-.17,1.06-.25,1.59.56,1.47,1.83,2.67,3.94,2.67Z" style="fill:#ffebcc; stroke-width:0px;"/><path d="m10.5,81.39c0-3.31-2.05-6.88-6.55-6.88-.95,0-1.79.17-2.52.45-.02.22-.05.44-.07.66.74-.33,1.6-.53,2.6-.53,4.11,0,5.98,3.26,5.98,6.3,0,1.66-.53,3.2-1.5,4.35-1.08,1.28-2.63,1.96-4.48,1.96-1.35,0-2.54-.36-3.5-1.06-.01.23-.03.46-.04.69.95.59,2.12.95,3.54.95,4.5,0,6.55-3.57,6.55-6.89Z" style="fill:#ffebcc; stroke-width:0px;"/><path d="m37.11,73.33c0,2.31,1.43,4.79,4.56,4.79s4.56-2.41,4.56-4.79-1.43-4.79-4.56-4.79-4.56,2.41-4.56,4.79Zm4.56-4.21c1.24,0,2.27.45,2.99,1.3.64.76,1,1.79,1,2.9,0,2.03-1.25,4.21-3.99,4.21-1.23,0-2.27-.45-2.99-1.3-.64-.76-1-1.79-1-2.9,0-2.03,1.25-4.21,3.99-4.21Z" style="fill:#ffebcc; stroke-width:0px;"/><path d="m45.39,92.24c2.08,0,3.17-1.67,3.17-3.32s-1.09-3.32-3.17-3.32c-.98,0-1.8.36-2.38,1.05-.51.6-.79,1.41-.79,2.27,0,1.65,1.09,3.32,3.16,3.32Zm0-6.06c1.78,0,2.59,1.42,2.59,2.73,0,.72-.23,1.4-.65,1.89-.47.55-1.14.85-1.94.85-1.78,0-2.59-1.42-2.59-2.73s.81-2.74,2.59-2.74Z" style="fill:#ffebcc; stroke-width:0px;"/><path d="m47.07,58.63c0-1.65-1.09-3.32-3.17-3.32-.98,0-1.8.36-2.38,1.05-.51.6-.79,1.41-.79,2.27,0,1.65,1.09,3.32,3.17,3.32s3.17-1.67,3.17-3.32Zm-5.76,0c0-1.32.81-2.74,2.59-2.74s2.59,1.42,2.59,2.73c0,.72-.23,1.4-.65,1.89-.47.55-1.14.85-1.94.85s-1.47-.29-1.94-.84c-.42-.5-.65-1.17-.65-1.89Z" style="fill:#ffebcc; stroke-width:0px;"/><path d="m62.44,45.07c-8.91,3.38-18.63,5.76-28.98,7.35-10.06-.94-19.23-2.76-27.41-5.55.52-2.77,1.08-5.63,1.68-8.62l26.31,6.43,27.07-6.43c.47,2.35.91,4.62,1.33,6.82Z" style="fill:#e0867c; mix-blend-mode:multiply; stroke-width:0px;"/><path d="m66.43,22.8l-4.99,5.54-5.62,1.4-7.31,1.83-14.49,3.62-10.36-2.83-7.59-2.07-10.26-2.8L0,22.8s5.41-.42,12.58-1.69c2.52-.44,5.24-1,8.02-1.68,5.31-1.29,10.83-3.04,15.43-5.38,0,0,3.04,2.6,10.4,5.02,2.55.83,5.61,1.65,9.25,2.34,3.14.58,6.72,1.08,10.75,1.39Z" style="fill:#ea493d; stroke-width:0px;"/><path d="m66.43,22.8s-2.52,10.56-2.67,17.44c0,0-7.78,4.31-29.99,7.35,0,0-19.86-.47-30.09-4.79,0,0,.24-10.56-3.67-20,0,0,17.89,6.56,34.95,7.68,0,0,19.52-1.76,31.48-7.68Z" style="fill:#ea493d; stroke-width:0px;"/><path d="m66.43,22.8s-2.52,10.56-2.67,17.44c0,0-7.78,4.31-29.99,7.35l1.18-17.12s19.52-1.76,31.48-7.68Z" style="fill:#aa170c; stroke-width:0px;"/><path d="m23.06,42c-.87,15.98-1.81,38.7.67,57.44-3.18-.74-6.4-1.34-9.66-1.79-.32-9.24-1.03-32.34,1.04-57.59.28-3.31.59-6.58.97-9.76.11-.92.22-1.83.34-2.74,0,0,23.39-4.12,30.02-8.48,2.55.83,5.61,1.65,9.25,2.34,0,0-14.49,5.1-31.77,7.69,0,0-.1,1.18-.25,3.27-.16,2.25-.38,5.57-.61,9.63Z" style="fill:#f8b229; stroke-width:0px;"/><path d="m58.02,97.33c-2.56.33-5.03.78-7.49,1.34,0,0,0-30.6-1.42-57.57-.18-3.33-.38-6.53-.59-9.52-.08-1.07-.16-2.11-.25-3.13,0,0-21.49-1.3-35.69-7.34,2.52-.44,5.24-1,8.02-1.68,0,0,14.66,4.8,35.08,7.28,0,0,.05,1.09.15,3.03.11,2.23.26,5.57.44,9.65.77,17.61,2.02,44.15,1.76,57.93Z" style="fill:#f8b229; stroke-width:0px;"/><path d="m33.75,25.24c.52,1.59-.02,3.37-.92,4.77-.9,1.41-2.13,2.56-3.2,3.83-2.91,3.48-4.59,8-4.69,12.57-.81-1.13-1.42-2.31-1.73-3.67-1.62.81-3.03,1.98-4.06,3.48.72-4.83,3.26-9.28,6.91-12.45,1.41-1.22,2.99-2.26,4.23-3.66,1.24-1.4,2.11-3.32,1.71-5.16.53-.05,1.24.12,1.74.29Z" style="fill:#63adb7; stroke-width:0px;"/><path d="m34.69,25.68c5.67,6.1,8.59,14.73,7.81,23.09,1.01-.89,2.08-1.79,2.93-2.85.64,1.14,1.35,2.21,1.99,3.35.04-4.68-.91-9.31-2.96-13.49-2.05-4.19-5.09-7.87-8.79-10.65-.27.26-.7.31-.98.57Z" style="fill:#63adb7; stroke-width:0px;"/><path d="m35.09,25.36c-.07.5-.28.79-.6.93-.8.35-2.25-.24-3.35-.42-1.81-.3-3.61-.67-5.4-1.1-3.7-.89-7.33-2.06-10.87-3.48-1.42-.57-2.94-1.31-3.71-2.61-.09-.15-.18-.3-.24-.47-.89-2.17.59-4.6,2.32-6.17,1.72-1.57,3.82-2.9,4.73-5.07.5-1.21.56-2.55.89-3.82.32-1.27,1.03-2.58,2.25-3,1.08-.39,2.32.04,3.19.81.88.76,1.45,1.8,2,2.83,1.86,3.49,3.53,7.08,5.02,10.75.69,1.72,1.34,3.44,1.96,5.18.48,1.38,2,4.17,1.82,5.64Z" style="fill:#63adb7; stroke-width:0px;"/><path d="m34.49,26.29c-.8.35-2.25-.24-3.35-.42-1.81-.3-3.61-.67-5.4-1.1-3.7-.89-7.33-2.06-10.87-3.48-1.42-.57-2.94-1.31-3.71-2.61.24-.93.92-1.76,1.78-2.21,1.21-.64,2.67-.62,3.97-.24,1.31.38,2.5,1.08,3.67,1.78,4.64,2.76,9.27,5.52,13.91,8.27Z" style="fill:#448b91; stroke-width:0px;"/><path d="m34.02,25.54c.05.41.23.64.49.75.65.28,1.82-.19,2.72-.34,1.47-.25,2.92-.54,4.37-.89,2.99-.72,5.94-1.67,8.8-2.82,1.15-.46,2.38-1.06,3.01-2.12.08-.12.14-.25.2-.38.72-1.76-.48-3.72-1.88-5-1.39-1.27-3.09-2.35-3.83-4.11-.41-.98-.46-2.07-.72-3.1-.26-1.03-.83-2.09-1.82-2.43-.88-.31-1.88.04-2.59.66-.71.61-1.18,1.46-1.62,2.29-1.5,2.83-2.86,5.74-4.06,8.71-.56,1.39-1.09,2.78-1.59,4.2-.39,1.12-1.62,3.38-1.47,4.57Z" style="fill:#63adb7; stroke-width:0px;"/><path d="m34.5,26.29c.65.28,1.82-.19,2.72-.34,1.47-.25,2.92-.54,4.37-.89,2.99-.72,5.94-1.67,8.8-2.82,1.15-.46,2.38-1.06,3.01-2.12-.2-.75-.75-1.43-1.44-1.79-.98-.52-2.16-.5-3.22-.19s-2.02.88-2.98,1.44c-3.76,2.24-7.51,4.47-11.26,6.7Z" style="fill:#448b91; stroke-width:0px;"/></g></g></g></svg>