<?xml version="1.0" encoding="UTF-8"?><svg xmlns="http://www.w3.org/2000/svg" width="158.13" height="147.83" viewBox="0 0 158.13 147.83"><g style="isolation:isolate;"><g id="_Слой_2"><g id="_Слой_1-2"><path d="m158.13,16.71l-2.2,2.18-6.14,6.06-9.21,9.1-23.31,4.99-12.86,2.75-5.43-.99-6.71-1.23-15.52-2.82-50.76-9.25h-.01l-6.45-1.18,8.93-4.89,4.48-2.46h.01c2.41-.94,4.81-1.93,7.23-2.98,4.58-1.96,9.18-4.12,13.81-6.43,5.84-2.92,11.72-6.11,17.66-9.56,10.72,2.98,22.29,5.68,34.59,8.15,7.18,1.43,14.63,2.8,22.29,4.09,2.63.45,5.29.88,7.97,1.3,3.78.6,7.62,1.18,11.51,1.75h.01c3.33.49,6.71.98,10.11,1.43Z" style="fill:#35a562; stroke-width:0px;"/><path d="m155.92,18.89l-6.14,6.06c-8.93.1-17.86.2-26.79.34-19.84.3-39.69.7-59.52,1.18-12.49.3-24.99.64-37.48,1.02h-.01l-6.45-1.18,8.93-4.89c3.08-.1,6.18-.19,9.26-.28,19.83-.55,39.68-1.02,59.51-1.41,19.57-.37,39.14-.65,58.7-.84Z" style="fill:#094722; stroke-width:0px;"/><path d="m136.49,13.53c-5.38.1-10.78.2-16.17.31-19.84.41-39.68.9-59.51,1.49-6.89.2-13.76.42-20.64.65,4.58-1.96,9.18-4.12,13.81-6.43,13.51-.42,27.03-.8,40.54-1.13,3.9-.1,7.81-.18,11.71-.28,7.18,1.43,14.63,2.8,22.29,4.09,2.63.45,5.29.88,7.97,1.3Z" style="fill:#094722; stroke-width:0px;"/><path d="m157.58,108.32c.17,2.48.34,4.98.55,7.47l-4.91,2.06-8.05,3.39-11.48,4.82-8.14,3.42-9.82,4.12-3.85,1.4-7.97,2.9-2.12.77-.44-15.14-.37-12.82-.47-16.52-.38-12.97-1.16-40.43v-.33s18.39-7.39,18.39-7.39l6.05-2.43,7.85-3.15,9.67-3.88,7.8-3.13h0s9.4-3.78,9.4-3.78c-.09,1.22-.19,2.42-.27,3.64-.43,5.7-.78,11.4-1.04,17.11-.39,8.3-.6,16.62-.64,24.94-.04,4.77-.01,9.56.07,14.34.11,6.29.31,12.59.62,18.89.19,4.22.44,8.45.72,12.68Z" style="fill:#287f4b; stroke-width:0px;"/><path d="m148.73,20.5c-2.29,5.25-4.6,10.5-6.92,15.74-8.18,18.46-16.55,36.83-25.11,55.11-5.05,10.76-10.15,21.5-15.34,32.2l-.37-12.82c8.46-17.7,16.76-35.5,24.88-53.37,5.1-11.21,10.11-22.44,15.06-33.72l7.8-3.13Z" style="fill:#094722; stroke-width:0px;"/><path d="m157.85,20.35c-.43,5.7-.78,11.4-1.04,17.11-1.53,3.51-3.07,7.01-4.62,10.51-8.18,18.45-16.55,36.83-25.11,55.09-5,10.68-10.06,21.32-15.2,31.93l-7.97,2.9c2.26-4.65,4.52-9.3,6.75-13.95,8.72-18.2,17.26-36.49,25.61-54.86,7.34-16.18,14.53-32.42,21.59-48.73Z" style="fill:#094722; stroke-width:0px;"/><path d="m156.24,76.75c-7.22,16.21-14.6,32.34-22.12,48.41l-.43.9-8.14,3.42c6.01-12.72,11.93-25.49,17.75-38.31,4.35-9.57,8.64-19.15,12.87-28.76-.04,4.77-.01,9.56.07,14.34Z" style="fill:#094722; stroke-width:0px;"/><path d="m157.58,108.32c-1.45,3.18-2.89,6.36-4.36,9.53l-8.05,3.39c2.8-6.04,5.57-12.09,8.32-18.14,1.13-2.48,2.25-4.96,3.37-7.46.19,4.22.44,8.45.72,12.68Z" style="fill:#094722; stroke-width:0px;"/><path d="m131.25,27.51c-7.33,16.46-14.82,32.85-22.45,49.16-2.74,5.84-5.5,11.69-8.29,17.52l-.38-12.97c6.05-12.8,12-25.65,17.85-38.55,1.81-4,3.63-8.01,5.42-12.03l7.85-3.15Z" style="fill:#094722; stroke-width:0px;"/><polygon points="117.36 33.09 117.26 39.04 115.74 133.6 101.79 138.67 98.97 40.8 19.52 26.32 32.93 18.97 32.94 18.97 117.36 33.09" style="fill:#8bd8aa; mix-blend-mode:multiply; stroke-width:0px;"/><path d="m8.83,28.34l17.4-8.29s31.8,9.21,85.35,14l-7.18,11.94-17.47,3.91-70.49-13.26-7.61-8.29Z" style="fill:#35a562; stroke-width:0px;"/><path d="m93.53,147.7l18.04-7.92c2.54-33.4,2.3-68.82,0-105.73,0,0-13.25,6.26-18.04,9.76l-6.6,49.55,6.6,54.34Z" style="fill:#287f4b; stroke-width:0px;"/><path d="m93.53,147.7c-34.35,1.66-84.7-13.26-84.7-13.26.87-6.83,1.52-13.57,1.99-20.15.51-6.94.83-13.7,1-20.17.97-37.6-2.99-65.78-2.99-65.78,20.54,7.42,41.62,11.29,57.59,13.29,6.82.87,12.7,1.39,17.22,1.7,6.22.43,9.89.48,9.89.48,2.62,54.71,0,103.88,0,103.88Z" style="fill:#35a562; stroke-width:0px;"/><path d="m148,15.28l-55.74,24.29-8.62,3.76L10.82,114.3c.51-6.94.83-13.7,1-20.17l54.6-52.49,10.33-4.88,51.78-24.52c6.34,1.07,12.84,2.08,19.48,3.05Z" style="fill:#ea493d; stroke-width:0px;"/><path d="m41.53,71.3c-6.6,13.1-9.49,28.11-8.24,42.77,2.21-2.85,4.11-5.94,6.32-8.79,1.99,3,4.68,5.68,7.54,7.83-2.63-12.91-3.18-25.8-2.53-38.97-.88-.96-2.21-1.89-3.09-2.84Z" style="fill:#f8b229; stroke-width:0px;"/><path d="m44.47,69.91c14,3.77,26.91,11.61,36.8,22.35-3.56-.24-7.1-.86-10.66-1.1.87,3.51,1.03,7.33.69,10.94-7.69-10.62-16.75-19.64-26.83-27.96-.11-1.3.1-2.93-.01-4.24Z" style="fill:#f8b229; stroke-width:0px;"/><path d="m44.51,74.16s-.04.03-.07.04c-1.06.79-4.57.67-5.84.85-8.34,1.17-16.7,2.19-25.11,2.58-3.65.17-7.7.07-10.52-2.17-.23-.18-.47-.39-.68-.61-2.73-2.74-2.95-7.45-1.03-10.82,1.92-3.38,5.62-5.45,9.41-6.04,3.79-.59,7.68.13,11.32,1.34,3.97,1.3,7.72,3.15,11.3,5.29,3.29,1.96,6.43,4.15,9.51,6.4.91.67,3.15,1.88,1.71,3.12Z" style="fill:#f8b229; stroke-width:0px;"/><path d="m44.45,74.2c-1.06.79-4.57.67-5.84.85-8.34,1.17-16.7,2.19-25.11,2.58-3.65.17-7.7.07-10.52-2.17-.25-.68-.36-1.39-.26-2.1.22-1.65,1.54-2.97,3.05-3.62,1.51-.64,3.19-.72,4.82-.74,11.45-.11,22.72,2.48,33.86,5.19Z" style="fill:#d67d12; stroke-width:0px;"/><path d="m45.21,74s.05-.03.08-.05c1.32-.76,2.84-4.59,3.62-5.87,5.12-8.4,10.1-16.89,14.45-25.72,1.89-3.84,3.68-8.22,2.68-12.3-.08-.34-.19-.69-.31-1.02-1.57-4.21-6.35-6.66-10.75-6.17-4.4.48-8.29,3.47-10.68,7.26-2.39,3.78-3.46,8.29-3.91,12.77-.51,4.86-.34,9.75.19,14.6.49,4.44,1.29,8.84,2.19,13.2.27,1.29.48,4.26,2.44,3.3Z" style="fill:#f8b229; stroke-width:0px;"/><path d="m45.29,73.95c1.32-.76,2.84-4.59,3.62-5.87,5.12-8.4,10.1-16.89,14.45-25.72,1.89-3.84,3.68-8.22,2.68-12.3-.59-.58-1.27-1.04-2.06-1.26-1.82-.53-3.8.26-5.19,1.58-1.37,1.32-2.24,3.08-3.02,4.82-5.48,12.23-8.07,25.53-10.49,38.75Z" style="fill:#d67d12; stroke-width:0px;"/></g></g></g></svg>