<?xml version="1.0" encoding="UTF-8"?><svg xmlns="http://www.w3.org/2000/svg" width="90.22" height="97.04" viewBox="0 0 90.22 97.04"><g style="isolation:isolate;"><g id="_Слой_2"><g id="_Слой_1-2"><path d="m85.89,39.99c-.03,2.32-.12,4.59-.23,6.81-.03.52-.05,1.04-.09,1.55-.05,1.04-.12,2.06-.2,3.06-.12,1.79-.27,3.53-.45,5.22-.12,1.2-.24,2.37-.38,3.51-.16,1.41-.34,2.79-.52,4.13-.19,1.39-.39,2.74-.59,4.05-.21,1.3-.42,2.55-.63,3.76-.21,1.23-.43,2.4-.65,3.52-.36,1.83-.71,3.53-1.06,5.08-.22,1-.44,1.95-.65,2.83-1.27,5.29-2.26,8.27-2.26,8.27-2.47.89-5.71,1.69-9.13,2.36-1.57.31-3.17.59-4.76.85h0c-8,1.32-15.56,2.03-15.56,2.03,0,0-.59-1.82-1.34-4.88-.2-.81-.41-1.71-.62-2.68-.05-.22-.1-.44-.14-.66-.35-1.6-.7-3.4-1.02-5.34-.15-.89-.29-1.81-.43-2.76-.28-2.01-.52-4.13-.69-6.32-.08-.95-.14-1.92-.18-2.9-.02-.36-.03-.73-.05-1.09-.06-1.76-.07-3.45-.03-5.06.01-.98.05-1.92.09-2.84.1-2.21.28-4.24.49-6.07.08-.81.18-1.58.28-2.31.02-.14.04-.28.05-.41.67-4.66,1.44-7.39,1.44-7.39l39.32-6.33Z" style="fill:#287f4b; stroke-width:0px;"/><path d="m85.57,48.35c-.05,1.04-.12,2.06-.2,3.06-1.32-.24-2.21-1.25-3.01-2.49-.3-.47-.63-1.05-1.13-1.3-.09-.04-.18-.08-.28-.1-.53-.11-1.15.14-1.71.47-.16.1-.33.22-.49.32-1.85,1.27-3.33,3.22-5.34,4.11-1.76.77-3.25.41-4.56-.52-.67-.47-1.26-1.11-1.93-1.62-.34-.26-.71-.49-1.11-.63-1.23-.45-2.53.49-3.68,1.53-.29.26-.56.52-.82.77-1.67,1.57-3.52,3.15-5.52,3.3-.99.07-1.83-.33-2.51-.95-.43-.38-.79-.88-1.23-1.25-.02-.01-.03-.03-.05-.04-.07-.06-.14-.11-.21-.16-.93-.62-2.17-.19-2.99.81-.33.4-.58.9-.73,1.45-.12.49-.38.84-.69,1.05-.32.24-.71.31-1.03.24-.01,0-.03,0-.04,0-.49-.13-.82-.59-.62-1.39.08-.3.17-.59.29-.88.05-.16.12-.32.19-.47.05-.11.11-.23.17-.34.9-1.77,2.45-3.16,4.17-3.51,1.06-.22,2.04-.03,2.85.5.75.49,1.24,1.33,1.98,1.83.16.1.32.18.49.22.48.12.99,0,1.51-.28,1.06-.54,2.13-1.64,2.95-2.4,1.64-1.55,3.49-3.01,5.45-3,1.51.01,2.67.98,3.73,1.9.39.33.79.72,1.25,1.01.58.37,1.24.58,2.01.33.59-.2,1.16-.58,1.7-1.02.36-.3.72-.62,1.06-.93.84-.77,1.67-1.52,2.58-2.14,1.8-1.21,3.8-1.6,5.2-.38.49.43.87,1.01,1.23,1.58.06.1.12.19.18.28.25.38.51.8.87,1.07Z" style="fill:#094722; stroke-width:0px;"/><path d="m84.93,56.64c-.12,1.2-.24,2.37-.38,3.51-.89-.42-1.57-1.25-2.19-2.22-.36-.56-.75-1.26-1.41-1.4-.7-.15-1.52.32-2.2.79-1.85,1.27-3.33,3.22-5.34,4.1-1.76.77-3.25.41-4.56-.51-1.02-.72-1.85-1.82-3.04-2.26-1.54-.57-3.17,1.03-4.5,2.29-1.67,1.57-3.52,3.15-5.52,3.29-.99.08-1.83-.32-2.51-.94-.45-.4-.82-.91-1.27-1.3-.07-.06-.14-.11-.22-.16-1.31-.87-3.22.33-3.71,2.26-.12.49-.39.85-.7,1.06-.31.22-.66.31-.97.26-.01,0-.03,0-.05-.01-.51-.1-.86-.58-.66-1.4.12-.47.28-.92.48-1.35.05-.11.1-.22.16-.33.9-1.78,2.45-3.18,4.17-3.53,1.06-.21,2.04-.02,2.85.51.75.49,1.24,1.33,1.98,1.83,1.51,1.02,3.59-1.19,4.95-2.46,1.64-1.55,3.49-3.02,5.45-3,1.51.01,2.67.98,3.73,1.9.88.77,1.89,1.78,3.27,1.34.99-.33,1.92-1.19,2.76-1.96.84-.77,1.67-1.52,2.58-2.14,1.8-1.22,3.8-1.6,5.2-.38.58.5.99,1.2,1.41,1.86.08.11.15.23.23.35Z" style="fill:#094722; stroke-width:0px;"/><path d="m84.03,64.28c-.19,1.39-.39,2.74-.59,4.05-.39-.4-.75-.88-1.08-1.41-.36-.55-.75-1.25-1.41-1.39-.7-.15-1.52.31-2.2.78-1.85,1.27-3.33,3.23-5.34,4.11-1.76.77-3.25.41-4.56-.51-1.02-.72-1.85-1.82-3.04-2.26-1.54-.57-3.17,1.03-4.5,2.28-1.67,1.57-3.52,3.16-5.52,3.3-.99.08-1.83-.33-2.51-.94-.45-.4-.82-.92-1.28-1.3-.07-.06-.14-.11-.21-.16-1.31-.87-3.22.33-3.71,2.26-.12.5-.4.86-.71,1.07-.18.13-.39.22-.6.24-.13.02-.27.02-.39,0-.51-.1-.89-.57-.68-1.4.12-.47.28-.92.48-1.36.12-.27.26-.54.42-.79.93-1.56,2.34-2.74,3.92-3.06,1.06-.22,2.04-.03,2.85.51.75.49,1.24,1.33,1.98,1.83,1.51,1.02,3.59-1.19,4.95-2.47,1.64-1.54,3.49-3.01,5.45-3,1.51,0,2.67.98,3.73,1.9.88.77,1.89,1.78,3.27,1.34.99-.33,1.92-1.19,2.76-1.96.84-.77,1.67-1.52,2.58-2.14,1.8-1.22,3.8-1.6,5.2-.38.28.24.52.53.74.84Z" style="fill:#094722; stroke-width:0px;"/><path d="m82.81,72.09c-.21,1.23-.43,2.4-.65,3.52-.31-.48-.67-.97-1.21-1.09-.7-.15-1.52.32-2.2.79-1.85,1.27-3.33,3.23-5.34,4.11-1.76.77-3.25.41-4.56-.51-1.02-.72-1.85-1.82-3.04-2.26-1.54-.57-3.17,1.03-4.5,2.28-1.67,1.57-3.52,3.16-5.52,3.3-.99.07-1.83-.33-2.51-.94-.45-.4-.82-.92-1.28-1.3-.07-.06-.14-.11-.21-.16-1.31-.87-3.22.33-3.71,2.26-.12.49-.39.84-.7,1.06,0,0-.01.01-.03.01-.32.22-.67.29-.98.23-.51-.1-.88-.57-.67-1.4.12-.47.28-.92.48-1.36.24-.53.53-1.02.88-1.48.91-1.21,2.13-2.1,3.46-2.38,1.06-.22,2.04-.03,2.85.51.75.49,1.24,1.32,1.98,1.82,1.51,1.03,3.59-1.19,4.95-2.46,1.64-1.54,3.49-3.01,5.45-3,1.51,0,2.67.98,3.73,1.89.88.77,1.89,1.79,3.27,1.34.99-.32,1.92-1.19,2.76-1.96.84-.77,1.67-1.52,2.58-2.13,1.6-1.09,3.36-1.5,4.72-.73Z" style="fill:#094722; stroke-width:0px;"/><path d="m81.1,80.7c-.22,1-.44,1.95-.65,2.83-.57.08-1.18.44-1.7.79-1.85,1.27-3.33,3.23-5.34,4.11-1.76.77-3.25.41-4.56-.52-1.02-.72-1.85-1.81-3.04-2.26-1.54-.56-3.17,1.04-4.5,2.29-1.67,1.57-3.52,3.15-5.52,3.3-.99.07-1.83-.33-2.51-.95-.45-.4-.82-.92-1.28-1.29-.07-.06-.14-.11-.21-.16-1.31-.87-3.22.33-3.71,2.26,0,0,0,.01,0,.02-.12.47-.38.81-.67,1.02,0,0,0,0-.01,0-.32.24-.71.31-1.03.24-.51-.1-.86-.58-.66-1.4.12-.47.28-.92.48-1.35.13-.29.28-.57.45-.84.31-.52.67-.99,1.08-1.39.81-.82,1.78-1.41,2.81-1.62,1.06-.22,2.04-.03,2.85.5.75.49,1.24,1.33,1.98,1.83,1.51,1.02,3.59-1.19,4.95-2.46,1.64-1.55,3.49-3.01,5.45-3,1.51.01,2.67.98,3.73,1.9.88.77,1.89,1.79,3.27,1.34.99-.33,1.92-1.19,2.76-1.96.84-.77,1.67-1.52,2.58-2.14.99-.66,2.03-1.09,3.01-1.12Z" style="fill:#094722; stroke-width:0px;"/><path d="m48.73,97.04c-5.87-.45-11.55-1.02-16.97-1.77h0c-1.78-.24-3.53-.5-5.26-.79-4.86-.78-9.49-1.71-13.87-2.8-.29-1.2-.58-2.4-.85-3.59-.23-.95-.44-1.89-.65-2.85-.49-2.18-.95-4.37-1.38-6.58-.3-1.48-.58-2.97-.86-4.47-.37-2-.73-4.01-1.06-6.03h0c-.24-1.47-.48-2.94-.7-4.42-.33-2.1-.63-4.23-.92-6.35-.14-1.04-.28-2.1-.41-3.15-.27-2.1-.51-4.2-.74-6.32-.03-.2-.05-.4-.07-.59-.08-.74-.16-1.48-.23-2.21-.18-1.71-.34-3.42-.49-5.13l42.3,6.33c-.12,2.33-.19,4.66-.23,6.98,0,.1,0,.2,0,.3,0,.17,0,.34,0,.51-.01.76-.02,1.52-.02,2.28h0c-.01,2.01,0,3.99.03,5.93,0,.1,0,.19,0,.29.01.94.03,1.87.05,2.79v.02c.05,1.86.12,3.68.19,5.45,0,.22.02.45.03.67.04.95.09,1.89.14,2.81,0,.02,0,.05,0,.08.09,1.65.18,3.24.29,4.76.03.39.05.77.08,1.15.07.98.14,1.94.21,2.85h0c.12,1.53.24,2.94.36,4.25.05.53.1,1.04.15,1.53.07.77.14,1.5.21,2.18.03.25.05.5.08.74.34,3.27.6,5.17.6,5.17Z" style="fill:#35a562; stroke-width:0px;"/><path d="m46.33,53.6c0,.17,0,.34,0,.51-.01.76-.02,1.52-.02,2.28h0c-.4.08-.81.1-1.23.07-.1,0-.19-.01-.29-.03-1.68-.19-2.82-1.09-3.77-2.34-.31-.4-.59-.83-.86-1.28-.4-.65-.83-1.46-1.56-1.78-.78-.34-1.69-.09-2.44.2-1.58.59-2.92,1.67-4.47,2.28-.45.18-.92.32-1.42.4-1.61.25-3.01-.23-4.26-1.12-.27-.19-.52-.39-.77-.61-1.13-1-2.05-2.31-3.36-3.07-1.7-.98-3.5.18-4.97,1.08-.33.2-.66.4-1.01.59-1.56.88-3.26,1.55-5.08,1.23-1.09-.19-2.02-.81-2.78-1.62-.57-.6-1.02-1.32-1.65-1.85-.4-.34-.86-.53-1.32-.59-.03-.2-.05-.4-.07-.59-.08-.74-.16-1.48-.23-2.21.07,0,.14,0,.21,0,1.16.07,2.24.52,3.15,1.27.83.7,1.37,1.66,2.19,2.37,1.67,1.43,3.97-.23,5.47-1.14,1.82-1.1,3.86-2.08,6.03-1.54,1.68.42,2.95,1.7,4.13,2.9.98,1,2.09,2.29,3.61,2.21,1.1-.06,2.12-.68,3.05-1.22.93-.54,1.84-1.07,2.86-1.44,1.99-.74,4.2-.59,5.74,1.01.63.65,1.09,1.46,1.56,2.24.39.64.82,1.36,1.53,1.68.28.13.57.2.85.23.35.03.69,0,1.04-.07.05-.01.11-.03.16-.04Z" style="fill:#094722; stroke-width:0px;"/><path d="m46.39,65.39s-.03.01-.04,0h0c-.41.07-.84.09-1.27.06-.31-.02-.6-.06-.86-.13-1.88-.42-3.04-1.83-4.06-3.53-.4-.65-.83-1.46-1.56-1.78-.78-.33-1.69-.09-2.44.2-2.04.77-3.68,2.34-5.89,2.68-1.95.3-3.59-.47-5.04-1.73-1.13-1-2.05-2.31-3.36-3.07-1.7-.98-3.5.18-4.97,1.08-1.84,1.13-3.88,2.21-6.1,1.82-1.09-.19-2.02-.81-2.78-1.62-.57-.6-1.02-1.32-1.65-1.85-.05-.05-.11-.09-.17-.13-.14-1.04-.28-2.1-.41-3.15.85.19,1.64.59,2.32,1.16.83.69,1.37,1.66,2.19,2.36,1.67,1.43,3.97-.22,5.47-1.13,1.82-1.1,3.86-2.08,6.03-1.54,1.68.42,2.95,1.69,4.13,2.9.98,1,2.09,2.29,3.61,2.21,1.1-.06,2.12-.68,3.05-1.22.93-.54,1.84-1.07,2.86-1.45,1.99-.73,4.2-.58,5.74,1.02.63.65,1.09,1.46,1.56,2.24.39.64.82,1.37,1.53,1.68,0,0,.02,0,.03.01.62.26,1.25.29,1.86.15.06-.01.12-.03.17-.04.01.94.03,1.87.05,2.79Z" style="fill:#094722; stroke-width:0px;"/><path d="m46.75,74.34c-.13.03-.25.06-.38.07-.42.07-.85.09-1.29.06-.21-.01-.41-.03-.6-.07-2.03-.36-3.25-1.81-4.32-3.59-.4-.65-.83-1.46-1.56-1.78-.78-.33-1.69-.09-2.44.2-2.04.77-3.68,2.34-5.89,2.67-1.95.31-3.59-.46-5.04-1.73-1.13-1-2.05-2.32-3.36-3.07-1.7-.98-3.5.18-4.97,1.08-1.84,1.12-3.88,2.21-6.1,1.82-1.09-.2-2.02-.81-2.78-1.62-.07-.07-.14-.15-.2-.22h0c-.24-1.47-.48-2.94-.7-4.42.35.18.68.4.99.66.83.69,1.37,1.66,2.19,2.36,1.67,1.43,3.97-.23,5.47-1.14,1.82-1.1,3.86-2.07,6.03-1.53,1.68.42,2.95,1.69,4.13,2.9.98,1.01,2.09,2.3,3.61,2.21,1.1-.06,2.12-.68,3.05-1.21.93-.54,1.84-1.07,2.86-1.45,1.99-.73,4.2-.58,5.74,1.02.63.65,1.09,1.46,1.56,2.24.39.64.82,1.36,1.53,1.68,0,0,.01,0,.02,0,.62.27,1.25.29,1.87.15.15-.03.3-.08.45-.12.04.95.09,1.89.14,2.81Z" style="fill:#094722; stroke-width:0px;"/><path d="m47.34,83.18c-.32.1-.64.19-.98.24h0c-.25.04-.5.07-.75.07-.17,0-.34,0-.52,0-2.4-.15-3.75-1.71-4.92-3.66-.4-.65-.83-1.46-1.56-1.78-.78-.33-1.69-.09-2.44.19-2.04.77-3.68,2.33-5.89,2.67-1.95.3-3.59-.46-5.04-1.73-1.13-.99-2.05-2.31-3.36-3.07-1.7-.98-3.5.19-4.97,1.09-1.84,1.12-3.88,2.21-6.1,1.82-.37-.07-.73-.18-1.06-.34-.3-1.48-.58-2.97-.86-4.47.46.54.88,1.11,1.42,1.58,1.67,1.43,3.97-.23,5.47-1.14,1.82-1.1,3.86-2.08,6.03-1.53,1.68.42,2.95,1.69,4.13,2.9.98,1.01,2.09,2.3,3.61,2.22,1.1-.06,2.12-.68,3.05-1.22.93-.54,1.84-1.07,2.86-1.44,1.99-.73,4.2-.58,5.74,1.01.63.65,1.09,1.46,1.56,2.24.39.64.82,1.36,1.53,1.68.29.13.6.21.89.23.34.03.67,0,1-.07.32-.07.64-.18.96-.33.07.98.14,1.94.21,2.85Z" style="fill:#094722; stroke-width:0px;"/><path d="m48.13,91.88c-.25.11-.49.21-.75.29,0,0,0,0-.01,0-.33.11-.67.2-1.02.24h0c-.41.07-.84.09-1.27.06-2.4-.15-3.75-1.71-4.92-3.65-.4-.65-.83-1.46-1.56-1.78-.78-.34-1.69-.09-2.44.2-2.04.77-3.68,2.33-5.89,2.67-1.95.3-3.59-.46-5.04-1.73-1.13-1-2.05-2.31-3.36-3.07-1.7-.98-3.5.18-4.97,1.08-1.56.96-3.28,1.89-5.12,1.9-.23-.95-.44-1.89-.65-2.85,1.54.47,3.38-.83,4.64-1.6,1.82-1.1,3.86-2.08,6.03-1.54,1.68.42,2.95,1.7,4.13,2.9.98,1,2.09,2.29,3.61,2.21,1.1-.06,2.12-.68,3.05-1.22.93-.54,1.84-1.07,2.86-1.44,1.99-.74,4.2-.59,5.74,1.01.63.65,1.09,1.46,1.56,2.24.39.64.82,1.36,1.53,1.68.62.28,1.26.3,1.89.16.2-.04.4-.1.6-.18.37-.13.73-.32,1.08-.52.07.77.14,1.5.21,2.18.03.25.05.5.08.74Z" style="fill:#094722; stroke-width:0px;"/><path d="m85.89,39.99c-.03,2.32-.12,4.59-.23,6.81l-1.14.21-3.3.61-1.99.37s0,0,0,0l-4.78.88h0s-3.71.7-3.71.7h0l-3.8.7-4.79.89-4.79.89-1.51.28h0l-3.78.7h-.07s-3.19.61-3.19.61l-2.47.46h0c-.12,0-.23,0-.34,0-.3,0-.6,0-.9,0-1.38.01-2.73,0-4.05-.03-3.29-.08-6.41-.29-9.33-.59-1.98-.2-3.88-.45-5.68-.72-3.79-.57-7.17-1.27-10.12-2.01-4.97-1.24-8.68-2.55-10.9-3.43-.08-.74-.16-1.48-.23-2.21-.18-1.71-.34-3.42-.49-5.13l42.3,6.33,39.32-6.33Z" style="fill:#8bd8aa; mix-blend-mode:multiply; stroke-width:0px;"/><path d="m90.11,30.15l-20.01,5.43-5.81,1.57-17.88,4.85-18.05-4.6-6.01-1.54L0,30.15c7.39-.52,14.55-1.27,21.4-2.33h0c2.3-.36,4.56-.75,6.8-1.19h0c6.12-1.18,11.95-2.67,17.42-4.53,0,0,5.52,1.74,17.74,4.01h0c2.14.4,4.47.81,7.02,1.23,5.55.92,12.1,1.87,19.71,2.81Z" style="fill:#35a562; stroke-width:0px;"/><path d="m2.12,44.37C.59,39.62-.01,34.88,0,30.15l45.62,7.11.77,13.28s-29.97-.74-44.27-6.17Z" style="fill:#35a562; stroke-width:0px;"/><path d="m45.62,37.26l44.48-7.11s.63,8.62-1.1,13.1l-42.62,7.29-.77-13.28Z" style="fill:#287f4b; stroke-width:0px;"/><path d="m70.39,27.33l-18.27,3.12h0l-6.19,1.06h0l-17.73,3.03c-.92,19.21.47,39.55,3.56,60.73h0c-1.78-.24-3.53-.5-5.26-.79-2.84-20.88-4.36-41.2-4.3-60.88l17.03-3.11h0l6.17-1.12,17.96-3.27h0c2.14.4,4.47.81,7.02,1.23Z" style="fill:#f8b229; stroke-width:0px;"/><path d="m70.14,33.34s1.07,41.09-1.09,60.82c-1.57.31-3.17.59-4.76.85,1.02-19.87.98-40.13,0-60.73l-18.36-2.77h0l-6.69-1.01h0l-17.83-2.68h0c2.3-.36,4.56-.75,6.8-1.19h0l17.2,2.75,6.72,1.07h0l18.01,2.88Z" style="fill:#f8b229; stroke-width:0px;"/><path d="m45.65,28.01c-.3-.66-.63-1.31-.84-1.87-1.33-3.52-2.41-7.14-4.02-10.63-1.04-2.26-2.29-4.53-4.21-5.98-1.08-.81-2.41-1.3-3.7-1.3-1.01,0-1.99.3-2.8.98-.94.79-1.49,1.97-1.7,3.26.08-.08.16-.15.25-.22.78-.65,1.72-.95,2.69-.97,1.31-.02,2.67.47,3.77,1.29,1.91,1.43,3.17,3.68,4.21,5.92,1.11,2.39,1.97,4.84,2.83,7.27.39,1.09.78,2.17,1.19,3.25.06.17.14.34.22.53.02.01.03.02.05.04.34.22,2.74,2.18,2.72.76,0-.73-.31-1.55-.67-2.34Z" style="fill:#ea493d; stroke-width:0px;"/><path d="m43.55,29.54c-1.24-.85-2.53-1.63-3.81-2.44-2.43-1.53-4.92-3.18-7.03-5.2-1.7-1.62-3.32-3.52-4.05-5.87-.35-1.13-.45-2.38-.27-3.55.08-.08.16-.15.25-.22.78-.65,1.72-.95,2.69-.97-.22,1.2-.13,2.5.22,3.67.73,2.36,2.34,4.26,4.03,5.9,1.97,1.9,4.27,3.46,6.56,4.92.39,1.09.78,2.17,1.19,3.25.06.17.14.34.22.53Z" style="fill:#aa170c; stroke-width:0px;"/><path d="m45.12,30.66c.88,1.34,1.91-2.06,2.08-2.49,0-.02.02-.04.02-.07-.03-.23-.07-.44-.12-.64-.29-1.29-.6-2.56-.92-3.85-.72-2.87-1.45-5.75-1.91-8.74-.42-2.8-.66-5.77.25-8.38.52-1.5,1.5-2.86,2.75-3.69.94-.62,2.02-.95,3.16-.83.12.01.25.03.38.05-1.01-1.1-2.28-1.87-3.67-2-1.19-.12-2.31.23-3.27.89-1.22.84-2.17,2.18-2.68,3.66-.9,2.64-.65,5.62-.2,8.45.68,4.36,1.95,8.5,2.91,12.69.16.67.25,1.49.38,2.31.16.98.38,1.95.84,2.64Z" style="fill:#ea493d; stroke-width:0px;"/><path d="m47.23,28.1c.64-1.61,1.36-3.19,2.06-4.79,1.33-3.03,2.65-6.22,3.37-9.51.58-2.65.93-5.5.14-8.22-.38-1.31-1.07-2.56-1.98-3.56-.12-.02-.25-.04-.38-.05-1.14-.11-2.22.21-3.16.83.97,1,1.7,2.3,2.1,3.64.8,2.72.47,5.58-.1,8.24-.66,3.08-1.86,6.07-3.09,8.93.32,1.28.63,2.56.92,3.85.05.2.09.41.12.64Z" style="fill:#aa170c; stroke-width:0px;"/><path d="m45.36,30.27c-.02,1.61,2.72-.62,3.1-.87.02-.01.04-.03.06-.04.1-.21.18-.41.25-.6.47-1.23.92-2.46,1.36-3.71.99-2.78,1.98-5.59,3.25-8.32,1.2-2.56,2.64-5.14,4.84-6.79,1.26-.95,2.82-1.5,4.32-1.48,1.12.02,2.19.37,3.08,1.12.1.08.19.17.28.26-.23-1.48-.86-2.85-1.93-3.75-.92-.78-2.04-1.13-3.2-1.13-1.47,0-3,.56-4.24,1.49-2.2,1.67-3.64,4.27-4.84,6.87-1.85,3.99-3.09,8.14-4.62,12.16-.24.64-.62,1.38-.96,2.13-.41.9-.76,1.83-.77,2.66Z" style="fill:#ea493d; stroke-width:0px;"/><path d="m48.52,29.36c1.42-.96,2.89-1.86,4.35-2.78,2.78-1.75,5.63-3.63,8.05-5.94,1.95-1.86,3.81-4.02,4.66-6.72.41-1.3.53-2.73.33-4.08-.09-.09-.19-.18-.28-.26-.88-.75-1.96-1.09-3.08-1.12.25,1.38.13,2.87-.28,4.21-.84,2.71-2.69,4.88-4.63,6.76-2.25,2.17-4.89,3.96-7.5,5.62-.45,1.25-.89,2.48-1.36,3.71-.07.19-.16.39-.25.6Z" style="fill:#aa170c; stroke-width:0px;"/></g></g></g></svg>