<?xml version="1.0" encoding="UTF-8"?><svg xmlns="http://www.w3.org/2000/svg" width="136.82" height="154.07" viewBox="0 0 136.82 154.07"><g style="isolation:isolate;"><g id="_Слой_2"><g id="_Слой_1-2"><path d="m72.9,65.22v88.85l-61.67-8.26c-.19-29.11-1-57.22-4.75-80.73l-.31-5.26,66.72,5.4Z" style="fill:#ea493d; stroke-width:0px;"/><path d="m131.46,59.82c-2.18,26.57-1.96,54.87,0,84.42l-58.56,9.83v-88.85l58.56-5.4Z" style="fill:#aa170c; stroke-width:0px;"/><polygon points="131.46 59.82 131.46 66.24 72.9 72.86 6.49 65.08 6.18 59.82 72.9 65.22 131.46 59.82" style="fill:#e0867c; mix-blend-mode:multiply; stroke-width:0px;"/><polygon points="0 36.42 71.18 28.69 136.82 36.42 70.49 48.36 0 36.42" style="fill:#ea493d; stroke-width:0px;"/><path d="m135.44,61.7l-62.54,6.67L2.08,61.7c.28-8.47-.41-16.9-2.08-25.28l72.11,7.37,64.71-7.37c-1.67,8.4-2.12,16.83-1.38,25.28Z" style="fill:#ea493d; stroke-width:0px;"/><path d="m135.44,61.7l-62.54,6.67-.79-24.58,64.71-7.37c-1.67,8.4-2.12,16.83-1.38,25.28Z" style="fill:#aa170c; stroke-width:0px;"/><polygon points="33.52 39.85 44.43 40.96 46.22 150.5 37.65 149.35 33.52 39.85" style="fill:#f8b229; stroke-width:0px;"/><polygon points="33.52 39.85 96.91 31.72 106.74 32.88 44.43 40.96 33.52 39.85" style="fill:#f8b229; stroke-width:0px;"/><polygon points="98.51 40.79 98.51 149.77 107.64 148.24 109.68 39.51 98.51 40.79" style="fill:#f8b229; stroke-width:0px;"/><polygon points="109.68 39.51 44.27 31.72 33.52 32.78 98.51 40.79 109.68 39.51" style="fill:#f8b229; stroke-width:0px;"/><path d="m70.42,35.39s-.05.01-.08.01c-1.28.26-4.38-1.34-5.61-1.72-7.98-2.5-15.92-5.15-23.64-8.37-3.36-1.4-6.95-3.22-8.57-6.43-.14-.26-.26-.55-.36-.84-1.32-3.63.42-7.96,3.54-10.17,3.12-2.22,7.3-2.5,10.95-1.42,3.65,1.08,6.85,3.39,9.63,6.03,3.03,2.86,5.64,6.12,7.98,9.57,2.15,3.16,4.07,6.47,5.91,9.81.54.99,2.06,3.03.25,3.54Z" style="fill:#ea493d; stroke-width:0px;"/><path d="m70.34,35.4c-1.28.26-4.38-1.34-5.61-1.72-7.98-2.5-15.92-5.15-23.64-8.37-3.36-1.4-6.95-3.22-8.57-6.43.06-.71.25-1.4.63-2,.88-1.39,2.61-2.01,4.24-1.95,1.62.07,3.16.71,4.63,1.39,10.34,4.78,19.4,11.91,28.31,19.09Z" style="fill:#aa170c; stroke-width:0px;"/><path d="m72.01,35.38s.05.01.09.01c1.53.32,5.25-1.61,6.71-2.06,9.55-3,19.06-6.16,28.3-10.02,4.02-1.68,8.32-3.85,10.25-7.7.16-.32.31-.66.43-1,1.58-4.35-.5-9.53-4.23-12.17-3.73-2.65-8.74-3-13.11-1.71-4.37,1.29-8.2,4.06-11.52,7.22-3.63,3.42-6.75,7.33-9.55,11.45-2.57,3.78-4.87,7.74-7.07,11.74-.65,1.18-2.46,3.63-.3,4.24Z" style="fill:#ea493d; stroke-width:0px;"/><path d="m72.11,35.39c1.53.32,5.25-1.61,6.71-2.06,9.55-3,19.06-6.16,28.3-10.02,4.02-1.68,8.32-3.85,10.25-7.7-.07-.85-.3-1.68-.76-2.39-1.06-1.66-3.12-2.41-5.07-2.34-1.93.08-3.79.85-5.55,1.66-12.38,5.72-23.23,14.26-33.88,22.85Z" style="fill:#aa170c; stroke-width:0px;"/></g></g></g></svg>