<?xml version="1.0" encoding="UTF-8"?><svg xmlns="http://www.w3.org/2000/svg" width="164.31" height="118.11" viewBox="0 0 164.31 118.11"><g style="isolation:isolate;"><g id="_Слой_2"><g id="_Слой_1-2"><path d="m162.77,87.02c0,2.67-.09,5.31-.33,7.8-.32,3.5-.93,6.71-1.91,9.28l-24.84,4.7-12.1,2.29-37.07,7.02v-45.05l1.82-.29,34.76-5.6,12.2-1.97,25.24-4.07s.29,1.75.67,4.58c.14,1.07.3,2.28.45,3.62.11.99.23,2.05.33,3.16.22,2.2.41,4.6.56,7.08.13,2.43.23,4.95.23,7.46Z" style="fill:#287f4b; stroke-width:0px;"/><path d="m88.32,95.01c0,2.43-.07,4.76-.19,6.94-.15,3.29-.4,6.24-.65,8.69-.47,4.62-.97,7.47-.97,7.47l-37.2-6.73-12.01-2.17h0s-33.93-6.15-33.93-6.15c.41-3.27.71-6.47.91-9.56.18-2.7.27-5.31.32-7.79.05-2.67.04-5.19-.02-7.55-.06-3.03-.2-5.76-.35-8.09-.08-1.24-.18-2.37-.26-3.37-.08-.98-.16-1.85-.24-2.59-.21-1.93-.36-2.98-.36-2.98l33.24,4.77,12.54,1.8,37.36,5.36c.49,2.58.87,5.18,1.14,7.77.12,1.21.24,2.43.32,3.63.07.9.12,1.79.18,2.68.13,2.7.19,5.34.16,7.86Z" style="fill:#35a562; stroke-width:0px;"/><path d="m162.77,87.02c0,2.67-.09,5.31-.33,7.8l-74.95,15.82-.97-.2L4.29,93.5c.18-2.7.27-5.31.32-7.79l81.91,15.93,1.62.31h.01l74.62-14.93Z" style="fill:#094722; stroke-width:0px;"/><path d="m162.54,79.57l-74.2,15.44h-.02l-1.8-.37L4.59,78.16c-.06-3.03-.2-5.76-.35-8.09l82.28,16.75,1.64.32.19.04,73.64-14.7c.22,2.2.41,4.6.56,7.08Z" style="fill:#094722; stroke-width:0px;"/><path d="m161.65,69.33c-24.43,3.51-73.31,15.25-73.31,15.25-.11-.03-.24-.07-.36-.1-.46-.15-.95-.29-1.46-.44-17.93-5.12-68.38-14.68-82.54-17.33-.3-3.53-.6-5.57-.6-5.57l83.14,11.94,74.01-11.94s.56,3.31,1.12,8.2Z" style="fill:#8bd8aa; mix-blend-mode:multiply; stroke-width:0px;"/><path d="m162.78,43.91l-32.51,9.66-2.46.73-39.46,11.71L5.74,47.99.22,42.06s22.95-2.15,46.37-6.21c4.72-.81,9.44-1.71,14.01-2.68,10.1-2.15,19.41-4.65,25.92-7.51,0,0,13.01,5.18,31.28,10.09,4.4,1.18,9.09,2.34,13.98,3.41h.03c9.83,2.16,20.43,3.94,30.96,4.75Z" style="fill:#35a562; stroke-width:0px;"/><path d="m164.31,65.36c-20.47,1.93-75.97,15.7-75.97,15.7-.22-.07-.44-.15-.68-.22-6.34-1.94-22.31-5.24-38.78-8.41-4.13-.8-8.3-1.59-12.35-2.35-14.73-2.76-27.97-5.12-32.79-5.97-1.26-.23-1.94-.35-1.94-.35C0,57.35-.29,49.96.23,42.05c8.86,3.73,22.79,6.87,36.97,9.38,4.43.79,8.89,1.51,13.23,2.16,20.28,3.08,37.92,4.73,37.92,4.73,21.03-1.6,74.43-14.41,74.43-14.41-.6,9.29,1.53,21.44,1.53,21.44Z" style="fill:#35a562; stroke-width:0px;"/><path d="m164.31,65.36c-.96.09-2,.21-3.11.35-6.76.86-16.05,2.59-25.74,4.6-4.01.83-8.09,1.71-12.08,2.59-18.41,4.04-35.03,8.17-35.03,8.17v-22.73c8.11-.62,21.02-2.9,33.84-5.48,4.11-.82,8.21-1.68,12.13-2.5,15.59-3.34,28.46-6.43,28.46-6.43-.6,9.29,1.53,21.44,1.53,21.44Z" style="fill:#287f4b; stroke-width:0px;"/><path d="m49.32,111.38l-12.01-2.17h0c-.75-13.1-1.01-26.14-.78-39.13.02-1.39.05-2.79.09-4.18.12-4.83.32-9.65.58-14.47,4.43.79,8.89,1.51,13.23,2.16-.55,4.68-.97,9.39-1.27,14.11-.11,1.57-.21,3.14-.28,4.72-.65,12.83-.48,25.81.44,38.95Z" style="fill:#f8b229; stroke-width:0px;"/><path d="m131.81,39.17c-31.01,8.22-81.39,14.42-81.39,14.42l-6.98,1.01-6.24-3.16c42.07-8.1,73.31-14.24,80.6-15.69,4.4,1.18,9.09,2.35,13.98,3.41h.03Z" style="fill:#f8b229; stroke-width:0px;"/><path d="m135.7,108.8l-12.1,2.29c.65-12.04.32-26.42-.22-38.21-.09-1.99-.19-3.9-.28-5.72-.34-6.23-.69-11.33-.92-14.32,4.11-.82,8.21-1.68,12.13-2.5.44,3.84.76,9.07.98,14.86.06,1.65.11,3.36.16,5.1.4,14.76.3,31.54.24,38.5Z" style="fill:#f8b229; stroke-width:0px;"/><path d="m134.31,50.34l-4.04,3.22-1.3,1.03-1.16-.3-5.63-1.45-75.58-17c4.72-.81,9.44-1.71,14.01-2.68l73.71,17.18Z" style="fill:#f8b229; stroke-width:0px;"/><path d="m92.06,40.32c-.1.8-.45,1.25-.95,1.48-1.28.55-3.58-.38-5.33-.66-2.88-.48-5.74-1.06-8.58-1.75-5.88-1.42-11.66-3.27-17.28-5.54-2.26-.91-4.68-2.08-5.9-4.16-.15-.24-.28-.48-.38-.74-1.42-3.45.94-7.31,3.68-9.81,2.73-2.5,6.07-4.62,7.51-8.06.8-1.92.89-4.06,1.42-6.08.51-2.02,1.64-4.1,3.58-4.77,1.72-.61,3.68.07,5.08,1.29,1.39,1.2,2.31,2.86,3.18,4.5,2.95,5.55,5.61,11.26,7.98,17.09,1.1,2.73,2.14,5.47,3.11,8.24.77,2.2,3.18,6.63,2.89,8.97Z" style="fill:#f8b229; stroke-width:0px;"/><path d="m91.11,41.8c-1.28.55-3.58-.38-5.33-.66-2.88-.48-5.74-1.06-8.58-1.75-5.88-1.42-11.66-3.27-17.28-5.54-2.26-.91-4.68-2.08-5.9-4.16.38-1.48,1.46-2.8,2.82-3.51,1.92-1.02,4.24-.98,6.32-.38,2.08.6,3.97,1.72,5.84,2.83,7.37,4.39,14.74,8.77,22.11,13.15Z" style="fill:#d67d12; stroke-width:0px;"/><path d="m92.06,40.63c.08.65.37,1.01.77,1.2,1.03.45,2.9-.31,4.32-.54,2.33-.39,4.65-.86,6.95-1.42,4.76-1.15,9.44-2.65,14-4.48,1.83-.74,3.79-1.68,4.78-3.37.12-.19.23-.39.31-.6,1.15-2.79-.76-5.92-2.98-7.95-2.21-2.03-4.92-3.74-6.09-6.53-.65-1.56-.72-3.29-1.15-4.92-.41-1.64-1.33-3.32-2.9-3.86-1.39-.5-2.98.06-4.11,1.04-1.13.98-1.87,2.31-2.58,3.64-2.39,4.49-4.54,9.12-6.46,13.84-.89,2.21-1.73,4.43-2.52,6.67-.62,1.78-2.58,5.37-2.34,7.27Z" style="fill:#f8b229; stroke-width:0px;"/><path d="m92.83,41.83c1.03.45,2.9-.31,4.32-.54,2.33-.39,4.65-.86,6.95-1.42,4.76-1.15,9.44-2.65,14-4.48,1.83-.74,3.79-1.68,4.78-3.37-.31-1.2-1.19-2.27-2.29-2.84-1.55-.82-3.43-.79-5.12-.31s-3.22,1.4-4.73,2.29c-5.97,3.56-11.94,7.1-17.91,10.65Z" style="fill:#d67d12; stroke-width:0px;"/></g></g></g></svg>