<?xml version="1.0" encoding="UTF-8"?><svg id="_Слой_2" xmlns="http://www.w3.org/2000/svg" width="94.89" height="255" viewBox="0 0 94.89 255"><g id="_Слой_1-2"><path d="m5.56,0H0v21.78h5.56c23.42,0,42.47,19.05,42.47,42.47v57.81c0,6.01,4.88,10.89,10.89,10.89s10.89-4.88,10.89-10.89v-57.81C69.81,28.82,40.99,0,5.56,0Z" style="fill:#404040; stroke-width:0px;"/><path d="m76.22,89.95H0v165.05h76.22c10.31,0,18.67-8.36,18.67-18.67v-127.71c0-10.31-8.36-18.67-18.67-18.67Z" style="fill:#a83330; stroke-width:0px;"/><path d="m63.29,145.51H0v53.93h63.29c3.98,0,7.21-3.23,7.21-7.21v-39.51c0-3.98-3.23-7.21-7.21-7.21Z" style="fill:#404040; stroke-width:0px;"/></g></svg>