<?xml version="1.0" encoding="UTF-8"?><svg id="_Слой_2" xmlns="http://www.w3.org/2000/svg" width="211.66" height="76.16" viewBox="0 0 211.66 76.16"><g id="_Слой_1-2"><path d="m207.61,15.72c-1.94-6.05-7.49-8.43-13.14-11.17-3.09-1.5-6.6-1.74-10.01-1.97-6.36-.42-12.72-.83-19.07-1.25C154.51.62,135.45-.1,124.55.01c-33.57.34-59.33,4.03-83.49,2.85-7.81-.38-24.47-1.19-32.09.55,0,0-2.15,9.06-2.38,9.98C1.95,31.77,1.35,51.18,4.82,69.82c.28,1.5.62,3.07,1.59,4.24,1.8,2.16,5.01,2.2,7.79,2.05,22.46-1.16,44.92-2.31,67.38-3.47,6.58-.34,13.17-.68,19.76-.82,33.58-.74,67.64,3.5,100.48-3.67,1.67-.36,3.6-.74,4.52-2.19,8.05-12.69,5.72-36.41,1.28-50.24Z" style="fill:#774c42; stroke-width:0px;"/><path d="m12.99,12.96c.22-.45-.37-1.11-.71-.75l-1.03,1.53c.16-.04.32-.07.49-.1.48-.1,1.04-.23,1.25-.68Z" style="fill:#84534a; stroke-width:0px;"/><path d="m191.51,9.16c-14.69-2.96-29.77-3.95-44.72-2.96-8.42.56-16.88,1.74-25.27.82-5.83-.64-11.73-2.3-17.48-1.09.6,1.28,1.2,2.56,1.81,3.84-14.22-1.38-28.42,6.16-42.49,3.63-4.54-.81-8.94-2.67-13.55-2.66-2.69,0-5.33.64-8,.94-10.62,1.19-22.51-2.75-31.38,3.3l.83-1.23c-1.76.39-3.51.97-5.14,1.77-1.75,7.48-2.84,15.12-3.27,22.8.13.13.27.26.41.38,4.72,4.25,11.56,5.48,17.78,4.41,8.08-1.38,15.53-6.24,23.72-6.16,8.7.08,17.18,5.74,25.63,3.63,4.06-1.02,7.51-3.74,11.49-5.06,3.61-1.21,7.49-1.21,11.28-1.47,18.09-1.27,35.51-8.77,53.64-8.53,11.66.16,23.02,3.52,34.23,6.8,9.25,2.7,19.3,5.34,28.28,1.82.65-.26,1.33-.6,1.9-1.04-.68-6.4-1.98-12.49-3.55-17.36-.39-1.22-.94-2.3-1.6-3.25-1.08-.26-2.16-.51-3.23-.77-3.76-.89-7.53-1.78-11.32-2.54Z" style="fill:#84534a; stroke-width:0px;"/><path d="m201.05,68.15c1.67-.36,3.6-.74,4.52-2.19,2.35-3.7,3.81-8.34,4.6-13.4-10.11-1.15-20.27-1.46-30.14.79,1.04-.42,1.12-2.01.41-2.89-.71-.88-1.87-1.2-2.96-1.45-7.84-1.76-16.06-1.79-23.91-.08-2.99.65-6.57,1.39-8.74-.8,1.84-1.39,3.68-2.79,5.51-4.18-14.83-1.58-29.77-2.09-44.67-1.54-2.12.08-2.31,3.62-.6,4.9,1.71,1.28,4.04,1.05,6.16,1.15,2.12.1,4.62.95,5.11,3.05-5.4,2.53-11.51,3.49-17.41,2.73.9-.41,1.52-1.41,1.48-2.41-16.92-.33-33.84-.67-50.76-1,2.94,1.36,5.88,2.71,8.82,4.07-12.94,1.42-26.06,2.83-38.93.79-1.95,4.78-4.12,9.83-8.35,12.7-2.03,1.38-4.68,1.94-7.11,1.62.27,1.45.62,2.93,1.56,4.05,1.8,2.16,5.01,2.2,7.79,2.05,22.46-1.16,44.92-2.31,67.38-3.47,6.58-.34,13.17-.68,19.76-.82,33.58-.74,67.64,3.5,100.48-3.67Z" style="fill:#543d35; stroke-width:0px;"/><path d="m10.03,2.86c5.01,0,9.15,15.95,8.52,36.75-.64,20.8-2.81,35.55-9.77,35.54-7.7,0-8.59-20.35-8.51-35.24C.37,21.97,2.33,2.85,10.03,2.86Z" style="fill:#f0c982; stroke-width:0px;"/><path d="m8.7,75.54c7.87-.27,9.34-15.13,9.99-35.93C19.34,18.82,15.11,2.87,9.98,2.86,2.11,2.85.1,21.97,0,39.92c-.08,14.89.83,35.89,8.7,35.62Zm0-1.88c-6.4.26-7.14-19.72-7.07-33.88C1.71,22.7,3.34,4.52,9.75,4.53c4.16,0,7.6,15.17,7.07,34.96-.53,19.78-1.72,33.91-8.12,34.17Z" style="fill:#543d35; stroke-width:0px;"/><path d="m5.28,68.53c-1.32-5.79-2.59-11.66-2.46-17.61.08-3.64.68-7.25.87-10.89.26-4.97-.26-9.95-.24-14.93,0-4.12.41-8.32,1.83-12.15.43-1.7,1.11-3.33,2.01-4.82.42-.69.91-1.38,1.62-1.76.71-.38,1.67-.38,2.22.21.35.37.47.89.59,1.38,1.55,6.65,3.1,13.35,3.49,20.17.29,5.14-.08,10.29-.45,15.42-.26,3.56-.52,7.12-.77,10.68-.4,5.49-.89,11.26-3.95,15.8-.57.84-1.37,1.7-2.37,1.65-1.4-.07-2.06-1.76-2.37-3.15Z" style="fill:#ddb77a; stroke-width:0px;"/><path d="m7.5,67.92c-.71-.24-.96-1.12-1.09-1.87-1.24-7.24-1.63-14.64-1.17-21.98.15-2.45.4-4.91.41-7.37.01-3.69-.53-7.36-.5-11.05.02-3.14.5-6.38,1.95-9.13.29-1.27.63-2.53,1.02-3.77.33-1.03,1.09-2.28,2.11-1.99,2.02,6.12,2.04,12.7,2.04,19.16,0,5.34,0,10.69,0,16.03,0,6.85-.04,13.92-2.64,20.24-.39.94-1.19,2.03-2.14,1.71Z" style="fill:#f0c982; stroke-width:0px;"/><path d="m7.5,60.39c-.29-9.53-.59-19.06-.88-28.59-.08-2.48-.12-5.07.53-7.42.23-1.68.84-3.3,1.8-4.68.86,1.47.41,3.32.17,5.02-.46,3.22-.02,6.5.29,9.74.65,6.71.8,13.46.44,20.19-.12,2.17-.29,4.35-.85,6.44-.07.26-.17.55-.4.68-.61.34-1.08-.66-1.1-1.37Z" style="fill:#ddb77a; stroke-width:0px;"/><path d="m4.81,50.81c-.53-.12-.92-.67-1.17-1.25-.55-1.26-.68-2.72-.77-4.13-.33-5.29-.26-10.7.66-15.86.26-5.53,1.02-11.02,2.29-16.35.41-1.72.88-3.46,1.8-4.88.61-.95,1.62-1.78,2.57-1.36.7.31,1.08,1.19,1.33,2.03.42,1.38.66,2.83.89,4.27.68,4.11,1.35,8.24,1.51,12.42.06,1.74,0,3.59-.81,5.03-.63,1.11-1.64,1.83-2.47,2.74-1.12,1.22-1.94,2.82-2.36,4.55-.91,3.7-.07,7.94-1.63,11.32-.38.82-1.06,1.63-1.83,1.46Z" style="fill:#fff; opacity:.34; stroke-width:0px;"/><path d="m116.66,14.92c-11.4.11-22.81.21-34.21.32-4.43.04-8.88.08-13.28.62-3.37.41-6.73,1.12-10.12.99-2.91-.11-5.77-.82-8.64-1.34-8.77-1.59-17.75-1.29-26.44.66,1.32,3.32-3.93,2.76-3.61,5.55.15,1.38,4.74,2.25,4.45,3.13-.29.87-.57,1.74-.86,2.6,4.18,1.9,8.92-.7,13.5-.83,5.69-.17,10.88,3.52,16.57,3.87.53.03,1.12.01,1.49-.37.74-.77-.1-2.04-1.02-2.58-.92-.53-2.09-1.05-2.22-2.11,3.77-1.41,7.89-1.32,11.91-1.26,8.87.14,17.74.02,26.6-.34,2.23-.09,5.11-.79,5.31-3.05,8.33-1.06,16.66-2.13,25-3.19.21-1.98-2.47-2.71-4.43-2.69Z" style="fill:#936958; stroke-width:0px;"/><path d="m200.66,20.34c-3.71-2.78-8.97-1.87-13.25-3.6-2.7-1.09-4.9-3.2-7.57-4.37-3.55-1.56-7.57-1.34-11.44-1.35-16.13-.05-33.57-5.72-49.48-1.33.54.69,1.06,2.18,1.75,2.69,1.23.91,4.21.27,5.13,1.56.4.57-.54,5.56-.36,5.51,7.52-2.16,15.45.5,23.24,1.25,12.29,1.18,25.04-2.46,36.84,1.19,4.99,1.54,10.31,4.36,15.11,2.26.48-.21.96-.48,1.2-.95.53-.99-.28-2.19-1.17-2.86Z" style="fill:#936958; stroke-width:0px;"/></g></svg>