<?xml version="1.0" encoding="UTF-8"?><svg xmlns="http://www.w3.org/2000/svg" width="43.63" height="29.51" xmlns:xlink="http://www.w3.org/1999/xlink" viewBox="0 0 43.63 29.51"><defs><linearGradient id="linear-gradient" x1="20.29" y1="16.06" x2="30.28" y2="29.34" gradientUnits="userSpaceOnUse"><stop offset="0" stop-color="#75272e"/><stop offset=".65" stop-color="#c98247" stop-opacity=".3"/><stop offset=".96" stop-color="#eea953" stop-opacity="0"/></linearGradient><linearGradient id="linear-gradient-2" x1="23.07" y1="17.41" x2="28.57" y2="32.18" xlink:href="#linear-gradient"/><linearGradient id="linear-gradient-3" x1="27.17" y1="2.87" x2="29.5" y2="14.6" gradientUnits="userSpaceOnUse"><stop offset="0" stop-color="#e4d29b"/><stop offset=".34" stop-color="#e8c07c"/><stop offset=".74" stop-color="#ecaf5e"/><stop offset=".96" stop-color="#eea953"/></linearGradient><linearGradient id="linear-gradient-4" x1="17.83" y1="-3.16" x2="25.92" y2="5.25" gradientUnits="userSpaceOnUse"><stop offset="0" stop-color="#fff"/><stop offset=".96" stop-color="#eea953" stop-opacity="0"/></linearGradient><linearGradient id="linear-gradient-5" x1="18.65" y1="7.72" x2="36.17" y2="7.72" gradientUnits="userSpaceOnUse"><stop offset="0" stop-color="#40272e"/><stop offset=".12" stop-color="#46272e"/><stop offset=".96" stop-color="#75272e"/></linearGradient><linearGradient id="linear-gradient-6" x1="22.89" y1="5.49" x2="21.47" y2="3.47" gradientUnits="userSpaceOnUse"><stop offset="0" stop-color="#aa7740"/><stop offset=".3" stop-color="#c08746"/><stop offset=".96" stop-color="#eea953"/></linearGradient><linearGradient id="linear-gradient-7" x1="23.07" y1="7.37" x2="21.5" y2="5.13" xlink:href="#linear-gradient-6"/><linearGradient id="linear-gradient-8" x1="22.31" y1="9.12" x2="20.63" y2="6.73" xlink:href="#linear-gradient-6"/><linearGradient id="linear-gradient-9" x1="26.62" y1="5.79" x2="36.17" y2="5.79" gradientUnits="userSpaceOnUse"><stop offset="0" stop-color="#966330"/><stop offset=".21" stop-color="#8e552f"/><stop offset=".96" stop-color="#75272e"/></linearGradient><linearGradient id="linear-gradient-10" x1="26.49" y1="8.37" x2="33.86" y2="8.37" xlink:href="#linear-gradient-9"/><linearGradient id="linear-gradient-11" x1="26.53" y1="6.79" x2="34.96" y2="6.79" xlink:href="#linear-gradient-9"/><linearGradient id="linear-gradient-12" x1="27.58" y1="2.3" x2="29.46" y2="6.01" xlink:href="#linear-gradient"/><clipPath id="clippath"><path d="m18.65,5.54l8.03-3.6.73.55s3.03-3.2,3.72-2.35c1.45,1.8-1.61,3.93-1.61,3.93l6.66,5-9.59,4.43-7.94-7.96Z" style="fill:none; stroke-width:0px;"/></clipPath><linearGradient id="linear-gradient-13" x1="21.31" y1="9.59" x2="20.89" y2="8.72" gradientUnits="userSpaceOnUse"><stop offset="0" stop-color="#75272e"/><stop offset=".05" stop-color="#7b2d2f"/><stop offset=".68" stop-color="#cd8649"/><stop offset=".96" stop-color="#eea953"/></linearGradient><linearGradient id="linear-gradient-14" x1="25.71" y1="7.49" x2="24.54" y2="6.38" xlink:href="#linear-gradient-13"/><linearGradient id="linear-gradient-15" x1="26.02" y1="5.86" x2="26.83" y2="7.47" gradientUnits="userSpaceOnUse"><stop offset="0" stop-color="#ff5a15"/><stop offset=".1" stop-color="#e15019"/><stop offset=".41" stop-color="#893228"/><stop offset=".56" stop-color="#66272e"/><stop offset=".96" stop-color="#5b272e"/></linearGradient><linearGradient id="linear-gradient-16" x1="26.1" y1="5.37" x2="26.38" y2="6.54" gradientUnits="userSpaceOnUse"><stop offset="0" stop-color="#fff"/><stop offset=".47" stop-color="#fff" stop-opacity=".49"/><stop offset=".81" stop-color="#fff" stop-opacity=".14"/><stop offset=".96" stop-color="#fff" stop-opacity="0"/></linearGradient><linearGradient id="linear-gradient-17" x1="21.74" y1="10.48" x2="21.33" y2="9.6" xlink:href="#linear-gradient-13"/><linearGradient id="linear-gradient-18" x1="26.15" y1="8.38" x2="24.98" y2="7.26" xlink:href="#linear-gradient-13"/><linearGradient id="linear-gradient-19" x1="26.45" y1="6.74" x2="27.26" y2="8.36" xlink:href="#linear-gradient-15"/><linearGradient id="linear-gradient-20" x1="26.54" y1="6.26" x2="26.82" y2="7.43" xlink:href="#linear-gradient-16"/><linearGradient id="linear-gradient-21" x1="23.37" y1="10.81" x2="22.96" y2="9.94" xlink:href="#linear-gradient-13"/><linearGradient id="linear-gradient-22" x1="27.78" y1="8.71" x2="26.61" y2="7.6" xlink:href="#linear-gradient-13"/><linearGradient id="linear-gradient-23" x1="28.09" y1="7.08" x2="28.89" y2="8.69" xlink:href="#linear-gradient-15"/><linearGradient id="linear-gradient-24" x1="28.17" y1="6.59" x2="28.45" y2="7.76" xlink:href="#linear-gradient-16"/><linearGradient id="linear-gradient-25" x1="23.88" y1="11.73" x2="23.47" y2="10.86" xlink:href="#linear-gradient-13"/><linearGradient id="linear-gradient-26" x1="28.28" y1="9.63" x2="27.11" y2="8.51" xlink:href="#linear-gradient-13"/><linearGradient id="linear-gradient-27" x1="28.59" y1="8" x2="29.4" y2="9.61" xlink:href="#linear-gradient-15"/><linearGradient id="linear-gradient-28" x1="28.68" y1="7.51" x2="28.96" y2="8.68" xlink:href="#linear-gradient-16"/><linearGradient id="linear-gradient-29" x1="24.95" y1="12.33" x2="24.54" y2="11.46" xlink:href="#linear-gradient-13"/><linearGradient id="linear-gradient-30" x1="29.35" y1="10.23" x2="28.18" y2="9.11" xlink:href="#linear-gradient-13"/><linearGradient id="linear-gradient-31" x1="29.66" y1="8.6" x2="30.47" y2="10.21" xlink:href="#linear-gradient-15"/><linearGradient id="linear-gradient-32" x1="29.75" y1="8.11" x2="30.03" y2="9.28" xlink:href="#linear-gradient-16"/><linearGradient id="linear-gradient-33" x1="24.87" y1="13.24" x2="24.46" y2="12.36" xlink:href="#linear-gradient-13"/><linearGradient id="linear-gradient-34" x1="29.27" y1="11.14" x2="28.1" y2="10.02" xlink:href="#linear-gradient-13"/><linearGradient id="linear-gradient-35" x1="29.58" y1="9.5" x2="30.39" y2="11.12" xlink:href="#linear-gradient-15"/><linearGradient id="linear-gradient-36" x1="29.67" y1="9.02" x2="29.95" y2="10.19" xlink:href="#linear-gradient-16"/><linearGradient id="linear-gradient-37" x1="25.96" y1="13.36" x2="25.55" y2="12.48" xlink:href="#linear-gradient-13"/><linearGradient id="linear-gradient-38" x1="30.36" y1="11.26" x2="29.19" y2="10.14" xlink:href="#linear-gradient-13"/><linearGradient id="linear-gradient-39" x1="30.67" y1="9.62" x2="31.48" y2="11.24" xlink:href="#linear-gradient-15"/><linearGradient id="linear-gradient-40" x1="30.76" y1="9.13" x2="31.04" y2="10.3" xlink:href="#linear-gradient-16"/><linearGradient id="linear-gradient-41" x1="31.54" y1="12.59" x2="31.25" y2="10.73" xlink:href="#linear-gradient-15"/><linearGradient id="linear-gradient-42" x1="21.31" y1="11.91" x2="20.89" y2="11.04" xlink:href="#linear-gradient-13"/><linearGradient id="linear-gradient-43" x1="25.71" y1="9.81" x2="24.54" y2="8.69" xlink:href="#linear-gradient-13"/><linearGradient id="linear-gradient-44" x1="26.02" y1="8.18" x2="26.83" y2="9.79" xlink:href="#linear-gradient-15"/><linearGradient id="linear-gradient-45" x1="26.1" y1="7.69" x2="26.38" y2="8.86" xlink:href="#linear-gradient-16"/><linearGradient id="linear-gradient-46" x1="139.99" y1="135.54" x2="139.57" y2="134.67" gradientTransform="translate(-76.42 -153.92) rotate(13.67)" xlink:href="#linear-gradient-13"/><linearGradient id="linear-gradient-47" x1="144.39" y1="133.44" x2="143.22" y2="132.32" gradientTransform="translate(-76.42 -153.92) rotate(13.67)" xlink:href="#linear-gradient-13"/><linearGradient id="linear-gradient-48" x1="144.7" y1="131.81" x2="145.5" y2="133.42" gradientTransform="translate(-76.42 -153.92) rotate(13.67)" xlink:href="#linear-gradient-15"/><linearGradient id="linear-gradient-49" x1="144.78" y1="131.32" x2="145.06" y2="132.49" gradientTransform="translate(-76.42 -153.92) rotate(13.67)" xlink:href="#linear-gradient-16"/><linearGradient id="linear-gradient-50" x1="19.04" y1="10.39" x2="18.63" y2="9.51" xlink:href="#linear-gradient-13"/><linearGradient id="linear-gradient-51" x1="23.44" y1="8.29" x2="22.27" y2="7.17" xlink:href="#linear-gradient-13"/><linearGradient id="linear-gradient-52" x1="23.75" y1="6.65" x2="24.56" y2="8.27" xlink:href="#linear-gradient-15"/><linearGradient id="linear-gradient-53" x1="23.84" y1="6.17" x2="24.12" y2="7.34" xlink:href="#linear-gradient-16"/><linearGradient id="linear-gradient-54" x1="24.35" y1="14.87" x2="23.94" y2="14" xlink:href="#linear-gradient-13"/><linearGradient id="linear-gradient-55" x1="28.76" y1="12.77" x2="27.59" y2="11.65" xlink:href="#linear-gradient-13"/><linearGradient id="linear-gradient-56" x1="29.07" y1="11.14" x2="29.87" y2="12.75" xlink:href="#linear-gradient-15"/><linearGradient id="linear-gradient-57" x1="29.15" y1="10.65" x2="29.43" y2="11.82" xlink:href="#linear-gradient-16"/><linearGradient id="linear-gradient-58" x1="-55.18" y1="-120.17" x2="-55.6" y2="-121.05" gradientTransform="translate(102.3 113.7) rotate(-11.03)" xlink:href="#linear-gradient-13"/><linearGradient id="linear-gradient-59" x1="-50.78" y1="-122.27" x2="-51.95" y2="-123.39" gradientTransform="translate(102.3 113.7) rotate(-11.03)" xlink:href="#linear-gradient-13"/><linearGradient id="linear-gradient-60" x1="-50.47" y1="-123.91" x2="-49.66" y2="-122.29" gradientTransform="translate(102.3 113.7) rotate(-11.03)" xlink:href="#linear-gradient-15"/><linearGradient id="linear-gradient-61" x1="-50.38" y1="-124.4" x2="-50.1" y2="-123.23" gradientTransform="translate(102.3 113.7) rotate(-11.03)" xlink:href="#linear-gradient-16"/><linearGradient id="linear-gradient-62" x1="32.52" y1="19.04" x2="32.03" y2="11.15" gradientUnits="userSpaceOnUse"><stop offset="0" stop-color="#966330"/><stop offset=".96" stop-color="#c29057"/></linearGradient><linearGradient id="linear-gradient-63" x1="32.39" y1="19.41" x2="32.11" y2="15.12" xlink:href="#linear-gradient-62"/><linearGradient id="linear-gradient-64" x1="32.23" y1="14.4" x2="31.98" y2="10.37" xlink:href="#linear-gradient-62"/><linearGradient id="linear-gradient-65" x1="32.33" y1="16.04" x2="32.02" y2="11.15" xlink:href="#linear-gradient-62"/><linearGradient id="linear-gradient-66" x1="32.34" y1="17.73" x2="32.07" y2="13.36" xlink:href="#linear-gradient-62"/><linearGradient id="linear-gradient-67" x1="36.78" y1="6.41" x2="29.86" y2="17.98" xlink:href="#linear-gradient"/><linearGradient id="linear-gradient-68" x1=".35" y1="12.55" x2="29.52" y2="12.55" xlink:href="#linear-gradient-3"/><linearGradient id="linear-gradient-69" x1="3.73" y1=".09" x2="15.85" y2="13.54" xlink:href="#linear-gradient-4"/><linearGradient id="linear-gradient-70" x1="-2.39" y1="13.87" x2="11.15" y2="23.72" xlink:href="#linear-gradient-9"/><clipPath id="clippath-1"><polygon points=".27 19.02 .58 12.42 12.29 21.15 11.93 27.89 .27 19.02" style="fill:none; stroke-width:0px;"/></clipPath><linearGradient id="linear-gradient-71" x1="4.14" y1="22.74" x2="7.73" y2="18.36" gradientUnits="userSpaceOnUse"><stop offset="0" stop-color="#c78c48"/><stop offset=".31" stop-color="#bc7438"/><stop offset=".96" stop-color="#a9471b"/></linearGradient><linearGradient id="linear-gradient-72" x1="3.2" y1="14.31" x2="-2.17" y2="18.69" gradientUnits="userSpaceOnUse"><stop offset="0" stop-color="#aa6a40"/><stop offset=".3" stop-color="#c07e46"/><stop offset=".96" stop-color="#eea953"/></linearGradient><linearGradient id="linear-gradient-73" x1="22.9" y1="25.69" x2="21.24" y2="21.71" gradientUnits="userSpaceOnUse"><stop offset="0" stop-color="#dca763"/><stop offset=".96" stop-color="#c29057"/></linearGradient><linearGradient id="linear-gradient-74" x1="13.47" y1="19.59" x2="15.92" y2="25.75" xlink:href="#linear-gradient-5"/><linearGradient id="linear-gradient-75" x1="15.47" y1="18.67" x2="17.91" y2="24.8" gradientUnits="userSpaceOnUse"><stop offset="0" stop-color="#40272e"/><stop offset=".31" stop-color="#42272e"/><stop offset=".55" stop-color="#4c272e"/><stop offset=".76" stop-color="#5c272e"/><stop offset=".95" stop-color="#73272e"/><stop offset=".96" stop-color="#75272e"/></linearGradient><linearGradient id="linear-gradient-76" x1="18.31" y1="17.29" x2="20.78" y2="23.49" xlink:href="#linear-gradient-5"/><linearGradient id="linear-gradient-77" x1="22.66" y1="15.26" x2="25.11" y2="21.45" xlink:href="#linear-gradient-75"/><linearGradient id="linear-gradient-78" x1="25.77" y1="14.01" x2="28.11" y2="19.89" xlink:href="#linear-gradient-5"/><linearGradient id="linear-gradient-79" x1="2.22" y1="12.4" x2="27.41" y2="12.4" gradientUnits="userSpaceOnUse"><stop offset="0" stop-color="#75272e"/><stop offset=".61" stop-color="#c32"/><stop offset=".96" stop-color="#fb3a1c"/></linearGradient><linearGradient id="linear-gradient-80" x1="31.39" y1="8.38" x2="33.41" y2="12.48" xlink:href="#linear-gradient-16"/><linearGradient id="linear-gradient-81" x1="2.22" y1="12.41" x2="21.36" y2="12.41" xlink:href="#linear-gradient-5"/><linearGradient id="linear-gradient-82" x1="661.53" y1="476.58" x2="661.53" y2="482.39" gradientTransform="translate(-34.51 -495.5) rotate(42.77) scale(.76 .7) skewX(-18.64)" gradientUnits="userSpaceOnUse"><stop offset="0" stop-color="#ff3800"/><stop offset=".63" stop-color="#fc970d"/><stop offset=".96" stop-color="#fcc614"/></linearGradient><linearGradient id="linear-gradient-83" x1="661.55" y1="480.29" x2="661.55" y2="475.83" gradientTransform="translate(-34.51 -495.5) rotate(42.77) scale(.76 .7) skewX(-18.64)" gradientUnits="userSpaceOnUse"><stop offset="0" stop-color="#fff42a"/><stop offset=".52" stop-color="#fdb819"/><stop offset=".96" stop-color="#fd8a0c"/></linearGradient><linearGradient id="linear-gradient-84" x1="661.51" y1="481.77" x2="661.51" y2="478.59" gradientTransform="translate(-34.51 -495.5) rotate(42.77) scale(.76 .7) skewX(-18.64)" gradientUnits="userSpaceOnUse"><stop offset="0" stop-color="#fff42a"/><stop offset=".22" stop-color="#fff65c"/><stop offset=".73" stop-color="#fffcd0"/><stop offset=".96" stop-color="#fff"/></linearGradient><clipPath id="clippath-2"><polygon points="2.22 11.89 17.26 5.12 27.41 12.65 12.75 19.68 2.22 11.89" style="fill:none; stroke-width:0px;"/></clipPath><linearGradient id="linear-gradient-85" x1="10.83" y1="14.22" x2="12.03" y2="19.24" xlink:href="#linear-gradient-5"/><linearGradient id="linear-gradient-86" x1="135.73" y1="105.72" x2="135.41" y2="105.03" gradientTransform="translate(-89.19 -120.97) rotate(15.65)" xlink:href="#linear-gradient-13"/><linearGradient id="linear-gradient-87" x1="139.21" y1="104.06" x2="138.29" y2="103.18" gradientTransform="translate(-89.19 -120.97) rotate(15.65)" xlink:href="#linear-gradient-13"/><linearGradient id="linear-gradient-88" x1="139.45" y1="102.77" x2="140.09" y2="104.05" gradientTransform="translate(-89.19 -120.97) rotate(15.65)" xlink:href="#linear-gradient-15"/><linearGradient id="linear-gradient-89" x1="139.52" y1="102.39" x2="139.74" y2="103.31" gradientTransform="translate(-89.19 -120.97) rotate(15.65)" xlink:href="#linear-gradient-16"/><linearGradient id="linear-gradient-90" x1="-20.54" y1="-46.99" x2="-20.87" y2="-47.68" gradientTransform="translate(36.93 62.18) rotate(-6.72)" xlink:href="#linear-gradient-13"/><linearGradient id="linear-gradient-91" x1="-17.07" y1="-48.64" x2="-17.99" y2="-49.53" gradientTransform="translate(36.93 62.18) rotate(-6.72)" xlink:href="#linear-gradient-13"/><linearGradient id="linear-gradient-92" x1="-16.83" y1="-49.93" x2="-16.19" y2="-48.66" gradientTransform="translate(36.93 62.18) rotate(-6.72)" xlink:href="#linear-gradient-15"/><linearGradient id="linear-gradient-93" x1="-16.76" y1="-50.32" x2="-16.54" y2="-49.39" gradientTransform="translate(36.93 62.18) rotate(-6.72)" xlink:href="#linear-gradient-16"/><linearGradient id="linear-gradient-94" x1="63.45" y1="51" x2="63.12" y2="50.31" gradientTransform="translate(-47.87 -38.85) rotate(6.26)" xlink:href="#linear-gradient-13"/><linearGradient id="linear-gradient-95" x1="66.92" y1="49.34" x2="66" y2="48.46" gradientTransform="translate(-47.87 -38.85) rotate(6.26)" xlink:href="#linear-gradient-13"/><linearGradient id="linear-gradient-96" x1="67.17" y1="48.05" x2="67.8" y2="49.33" gradientTransform="translate(-47.87 -38.85) rotate(6.26)" xlink:href="#linear-gradient-15"/><linearGradient id="linear-gradient-97" x1="67.23" y1="47.67" x2="67.45" y2="48.59" gradientTransform="translate(-47.87 -38.85) rotate(6.26)" xlink:href="#linear-gradient-16"/><linearGradient id="linear-gradient-98" x1="3.35" y1="17.92" x2="3.45" y2="18.2" xlink:href="#linear-gradient-5"/><linearGradient id="linear-gradient-99" x1="23.18" y1="16" x2="11.01" y2="10.71" gradientUnits="userSpaceOnUse"><stop offset="0" stop-color="#ff3800"/><stop offset=".67" stop-color="#8c2b20"/><stop offset=".96" stop-color="#5e272e"/></linearGradient><linearGradient id="linear-gradient-100" x1="7.96" y1="11.92" x2="7.65" y2="8.72" xlink:href="#linear-gradient-79"/><linearGradient id="linear-gradient-101" x1="8.32" y1="11.88" x2="8.01" y2="8.69" xlink:href="#linear-gradient-79"/><linearGradient id="linear-gradient-102" x1="8.79" y1="11.83" x2="8.48" y2="8.64" xlink:href="#linear-gradient-79"/></defs><g style="isolation:isolate;"><g id="_Слой_2"><g id="_Слой_1-2"><path d="m0,19.15l12.16,9.25,7.77,1.08c.77.11,1.55-.03,2.24-.4l21.07-11.15c.48-.25.53-.91.1-1.23l-12.84-9.63L7.07,20.75,0,19.15Z" style="fill:url(#linear-gradient); mix-blend-mode:multiply; stroke-width:0px;"/><polygon points="12.16 28.39 12.95 28.5 29.52 20.56 29.17 20.31 29.2 19.75 37.33 15.43 36.94 15.19 25.37 20.47 12.16 28.39" style="fill:url(#linear-gradient-2); mix-blend-mode:multiply; stroke-width:0px;"/><polygon points="18.7 5.03 26.88 1.36 37.33 9.21 26.78 14.09 18.7 5.03" style="fill:url(#linear-gradient-3); stroke-width:0px;"/><polygon points="18.7 5.03 26.88 1.36 37.33 9.21 26.78 14.09 18.7 5.03" style="fill:url(#linear-gradient-4); mix-blend-mode:screen; stroke-width:0px;"/><polygon points="18.65 5.54 26.68 1.94 36.17 9.07 26.59 13.51 18.65 5.54" style="fill:url(#linear-gradient-5); stroke-width:0px;"/><polygon points="26.68 1.94 18.65 5.54 18.11 7.61 26.62 3.44 26.68 1.94" style="fill:url(#linear-gradient-6); stroke-width:0px;"/><polygon points="18.11 7.61 17.79 8.83 26.54 5.56 26.62 3.44 18.11 7.61" style="fill:url(#linear-gradient-7); stroke-width:0px;"/><polygon points="17.13 11.33 26.49 6.87 26.54 5.56 17.79 8.83 17.13 11.33" style="fill:url(#linear-gradient-8); stroke-width:0px;"/><polygon points="26.68 1.94 26.62 3.43 34.96 9.64 36.17 9.07 26.68 1.94" style="fill:url(#linear-gradient-9); stroke-width:0px;"/><polygon points="26.49 6.87 31.8 11.1 33.86 10.14 26.53 5.64 26.49 6.87" style="fill:url(#linear-gradient-10); stroke-width:0px;"/><polygon points="26.62 3.43 26.53 5.64 33.86 10.14 34.96 9.64 26.62 3.43" style="fill:url(#linear-gradient-11); stroke-width:0px;"/><path d="m28.72,6.75v-3.27s.39.12,1.1.09l-.86-.64-.72.26v3.56h.49Z" style="fill:url(#linear-gradient-12); mix-blend-mode:multiply; stroke-width:0px;"/><g style="clip-path:url(#clippath);"><path d="m16.61,11.39h0c-.06-.12-.01-.28.11-.34l8.5-4.3c.12-.06.28-.01.34.11h0c.06.12.01.28-.11.34l-8.5,4.3c-.12.06-.28.01-.34-.11Z" style="fill:url(#linear-gradient-13); stroke-width:0px;"/><path d="m25.56,6.86c-.06-.12-.21-.17-.34-.11l-.09.05c.07.13.05.16.06.36,0,.09-.06.16-.11.23l.38-.19c.12-.06.17-.21.11-.34Z" style="fill:url(#linear-gradient-14); stroke-width:0px;"/><path d="m26.93,7.16c-.25.13-.64.1-.94.11-.32.01-.5.13-.69-.24-.19-.37.02-.45.21-.69.19-.24.4-.57.65-.69.51-.26,1-.08,1.21.34.21.42.06.92-.45,1.18Z" style="fill:url(#linear-gradient-15); stroke-width:0px;"/><path d="m25.72,6.41s.27-.66.78-.73c.51-.07.63.4.13.69-.5.29-1.14.41-.91.03Z" style="fill:url(#linear-gradient-16); mix-blend-mode:screen; opacity:.49; stroke-width:0px;"/><path d="m17.05,12.27h0c-.06-.12-.01-.28.11-.34l8.5-4.3c.12-.06.28-.01.34.11h0c.06.12.01.28-.11.34l-8.5,4.3c-.12.06-.28.01-.34-.11Z" style="fill:url(#linear-gradient-17); stroke-width:0px;"/><path d="m26,7.75c-.06-.12-.21-.17-.34-.11l-.09.05c.07.13.05.16.06.36,0,.09-.06.16-.11.23l.38-.19c.12-.06.17-.21.11-.34Z" style="fill:url(#linear-gradient-18); stroke-width:0px;"/><path d="m27.37,8.04c-.25.13-.64.1-.94.11-.32.01-.5.13-.69-.24-.19-.37.02-.45.21-.69.19-.24.4-.57.65-.69.51-.26,1-.08,1.21.34.21.42.06.92-.45,1.18Z" style="fill:url(#linear-gradient-19); stroke-width:0px;"/><path d="m26.15,7.29s.27-.66.78-.73c.51-.07.63.4.13.69-.5.29-1.14.41-.91.03Z" style="fill:url(#linear-gradient-20); mix-blend-mode:screen; opacity:.49; stroke-width:0px;"/><path d="m18.68,12.61h0c-.06-.12-.01-.28.11-.34l8.5-4.3c.12-.06.28-.01.34.11h0c.06.12.01.28-.11.34l-8.5,4.3c-.12.06-.28.01-.34-.11Z" style="fill:url(#linear-gradient-21); stroke-width:0px;"/><path d="m27.63,8.08c-.06-.12-.21-.17-.34-.11l-.09.05c.07.13.05.16.06.36,0,.09-.06.16-.11.23l.38-.19c.12-.06.17-.21.11-.34Z" style="fill:url(#linear-gradient-22); stroke-width:0px;"/><path d="m29,8.38c-.25.13-.64.1-.94.11-.32.01-.5.13-.69-.24-.19-.37.02-.45.21-.69.19-.24.4-.57.65-.69.51-.26,1-.08,1.21.34.21.42.06.92-.45,1.18Z" style="fill:url(#linear-gradient-23); stroke-width:0px;"/><path d="m27.78,7.63s.27-.66.78-.73c.51-.07.63.4.13.69-.5.29-1.14.41-.91.03Z" style="fill:url(#linear-gradient-24); mix-blend-mode:screen; opacity:.49; stroke-width:0px;"/><path d="m19.18,13.53h0c-.06-.12-.01-.28.11-.34l8.5-4.3c.12-.06.28-.01.34.11h0c.06.12.01.28-.11.34l-8.5,4.3c-.12.06-.28.01-.34-.11Z" style="fill:url(#linear-gradient-25); stroke-width:0px;"/><path d="m28.13,9c-.06-.12-.21-.17-.34-.11l-.09.05c.07.13.05.16.06.36,0,.09-.06.16-.11.23l.38-.19c.12-.06.17-.21.11-.34Z" style="fill:url(#linear-gradient-26); stroke-width:0px;"/><path d="m29.5,9.29c-.25.13-.64.1-.94.11-.32.01-.5.13-.69-.24-.19-.37.02-.45.21-.69.19-.24.4-.57.65-.69.51-.26,1-.08,1.21.34.21.42.06.92-.45,1.18Z" style="fill:url(#linear-gradient-27); stroke-width:0px;"/><path d="m28.29,8.55s.27-.66.78-.73c.51-.07.63.4.13.69-.5.29-1.14.41-.91.03Z" style="fill:url(#linear-gradient-28); mix-blend-mode:screen; opacity:.49; stroke-width:0px;"/><path d="m20.25,14.13h0c-.06-.12-.01-.28.11-.34l8.5-4.3c.12-.06.28-.01.34.11h0c.06.12.01.28-.11.34l-8.5,4.3c-.12.06-.28.01-.34-.11Z" style="fill:url(#linear-gradient-29); stroke-width:0px;"/><path d="m29.2,9.6c-.06-.12-.21-.17-.34-.11l-.09.05c.07.13.05.16.06.36,0,.09-.06.16-.11.23l.38-.19c.12-.06.17-.21.11-.34Z" style="fill:url(#linear-gradient-30); stroke-width:0px;"/><path d="m30.57,9.89c-.25.13-.64.1-.94.11-.32.01-.5.13-.69-.24-.19-.37.02-.45.21-.69.19-.24.4-.57.65-.69.51-.26,1-.08,1.21.34.21.42.06.92-.45,1.18Z" style="fill:url(#linear-gradient-31); stroke-width:0px;"/><path d="m29.36,9.15s.27-.66.78-.73c.51-.07.63.4.13.69s-1.14.41-.91.03Z" style="fill:url(#linear-gradient-32); mix-blend-mode:screen; opacity:.49; stroke-width:0px;"/><path d="m20.17,15.03h0c-.06-.12-.01-.28.11-.34l8.5-4.3c.12-.06.28-.01.34.11h0c.06.12.01.28-.11.34l-8.5,4.3c-.12.06-.28.01-.34-.11Z" style="fill:url(#linear-gradient-33); stroke-width:0px;"/><path d="m29.12,10.51c-.06-.12-.21-.17-.34-.11l-.09.05c.07.13.05.16.06.36,0,.09-.06.16-.11.23l.38-.19c.12-.06.17-.21.11-.34Z" style="fill:url(#linear-gradient-34); stroke-width:0px;"/><path d="m30.49,10.8c-.25.13-.64.1-.94.11-.32.01-.5.13-.69-.24-.19-.37.02-.45.21-.69.19-.24.4-.57.65-.69.51-.26,1-.08,1.21.34.21.42.06.92-.45,1.18Z" style="fill:url(#linear-gradient-35); stroke-width:0px;"/><path d="m29.28,10.05s.27-.66.78-.73c.51-.07.63.4.13.69-.5.29-1.14.41-.91.03Z" style="fill:url(#linear-gradient-36); mix-blend-mode:screen; opacity:.49; stroke-width:0px;"/><path d="m21.26,15.15h0c-.06-.12-.01-.28.11-.34l8.5-4.3c.12-.06.28-.01.34.11h0c.06.12.01.28-.11.34l-8.5,4.3c-.12.06-.28.01-.34-.11Z" style="fill:url(#linear-gradient-37); stroke-width:0px;"/><path d="m30.22,10.63c-.06-.12-.21-.17-.34-.11l-.09.05c.07.13.05.16.06.36,0,.09-.06.16-.11.23l.38-.19c.12-.06.17-.21.11-.34Z" style="fill:url(#linear-gradient-38); stroke-width:0px;"/><path d="m31.58,10.92c-.25.13-.64.1-.94.11-.32.01-.5.13-.69-.24-.19-.37.02-.45.21-.69.19-.24.4-.57.65-.69.51-.26,1-.08,1.21.34.21.42.06.92-.45,1.18Z" style="fill:url(#linear-gradient-39); stroke-width:0px;"/><path d="m30.37,10.17s.27-.66.78-.73.63.4.13.69c-.5.29-1.14.41-.91.03Z" style="fill:url(#linear-gradient-40); mix-blend-mode:screen; opacity:.49; stroke-width:0px;"/><path d="m32.03,9.74c-.21-.42-.7-.59-1.21-.34-.25.12-.46.45-.64.69.68-.19,1.39-.15,1.92.22.05-.19.02-.39-.07-.57Z" style="fill:url(#linear-gradient-41); stroke-width:0px;"/><path d="m16.61,13.71h0c-.06-.12-.01-.28.11-.34l8.5-4.3c.12-.06.28-.01.34.11h0c.06.12.01.28-.11.34l-8.5,4.3c-.12.06-.28.01-.34-.11Z" style="fill:url(#linear-gradient-42); stroke-width:0px;"/><path d="m25.56,9.18c-.06-.12-.21-.17-.34-.11l-.09.05c.07.13.05.16.06.36,0,.09-.06.16-.11.23l.38-.19c.12-.06.17-.21.11-.34Z" style="fill:url(#linear-gradient-43); stroke-width:0px;"/><path d="m26.93,9.48c-.25.13-.64.1-.94.11-.32.01-.5.13-.69-.24-.19-.37.02-.45.21-.69.19-.24.4-.57.65-.69.51-.26,1-.08,1.21.34s.06.92-.45,1.18Z" style="fill:url(#linear-gradient-44); stroke-width:0px;"/><path d="m25.72,8.73s.27-.66.78-.73c.51-.07.63.4.13.69-.5.29-1.14.41-.91.03Z" style="fill:url(#linear-gradient-45); mix-blend-mode:screen; opacity:.49; stroke-width:0px;"/><path d="m22.59,11.5h0c-.03-.14.05-.27.19-.3l9.28-2.17c.14-.03.27.05.3.19h0c.03.14-.05.27-.19.3l-9.28,2.17c-.14.03-.27-.05-.3-.19Z" style="fill:url(#linear-gradient-46); stroke-width:0px;"/><path d="m32.36,9.21c-.03-.14-.17-.22-.3-.19l-.1.02c.04.14,0,.17-.03.36-.02.09-.09.14-.16.2l.41-.1c.14-.03.22-.17.19-.3Z" style="fill:url(#linear-gradient-47); stroke-width:0px;"/><path d="m33.62,9.82c-.27.06-.64-.05-.94-.11-.31-.06-.52.01-.61-.39-.09-.4.12-.43.37-.62.24-.18.52-.46.79-.52.55-.13.99.16,1.1.61.11.46-.16.91-.71,1.04Z" style="fill:url(#linear-gradient-48); stroke-width:0px;"/><path d="m32.62,8.81s.42-.57.93-.52c.52.05.52.54-.04.7-.56.16-1.21.13-.9-.18Z" style="fill:url(#linear-gradient-49); mix-blend-mode:screen; opacity:.49; stroke-width:0px;"/><path d="m14.34,12.18h0c-.06-.12-.01-.28.11-.34l8.5-4.3c.12-.06.28-.01.34.11h0c.06.12.01.28-.11.34l-8.5,4.3c-.12.06-.28.01-.34-.11Z" style="fill:url(#linear-gradient-50); stroke-width:0px;"/><path d="m23.29,7.66c-.06-.12-.21-.17-.34-.11l-.09.05c.07.13.05.16.06.36,0,.09-.06.16-.11.23l.38-.19c.12-.06.17-.21.11-.34Z" style="fill:url(#linear-gradient-51); stroke-width:0px;"/><path d="m24.66,7.95c-.25.13-.64.1-.94.11-.32.01-.5.13-.69-.24-.19-.37.02-.45.21-.69.19-.24.4-.57.65-.69.51-.26,1-.08,1.21.34.21.42.06.92-.45,1.18Z" style="fill:url(#linear-gradient-52); stroke-width:0px;"/><path d="m23.45,7.2s.27-.66.78-.73c.51-.07.63.4.13.69-.5.29-1.14.41-.91.03Z" style="fill:url(#linear-gradient-53); mix-blend-mode:screen; opacity:.49; stroke-width:0px;"/><path d="m19.66,16.67h0c-.06-.12-.01-.28.11-.34l8.5-4.3c.12-.06.28-.01.34.11h0c.06.12.01.28-.11.34l-8.5,4.3c-.12.06-.28.01-.34-.11Z" style="fill:url(#linear-gradient-54); stroke-width:0px;"/><path d="m28.61,12.14c-.06-.12-.21-.17-.34-.11l-.09.05c.07.13.05.16.06.36,0,.09-.06.16-.11.23l.38-.19c.12-.06.17-.21.11-.34Z" style="fill:url(#linear-gradient-55); stroke-width:0px;"/><path d="m29.98,12.44c-.25.13-.64.1-.94.11-.32.01-.5.13-.69-.24-.19-.37.02-.45.21-.69.19-.24.4-.57.65-.69.51-.26,1-.08,1.21.34s.06.92-.45,1.18Z" style="fill:url(#linear-gradient-56); stroke-width:0px;"/><path d="m28.76,11.69s.27-.66.78-.73.63.4.13.69c-.5.29-1.14.41-.91.03Z" style="fill:url(#linear-gradient-57); mix-blend-mode:screen; opacity:.49; stroke-width:0px;"/><path d="m20.89,8.97h0c-.09-.11-.07-.27.04-.35l7.52-5.84c.11-.09.27-.07.35.04h0c.09.11.07.27-.04.35l-7.52,5.84c-.11.09-.27.07-.35-.04Z" style="fill:url(#linear-gradient-58); stroke-width:0px;"/><path d="m28.81,2.81c-.09-.11-.24-.13-.35-.04l-.08.07c.09.11.08.15.13.34.02.09-.03.16-.07.25l.33-.26c.11-.09.13-.24.04-.35Z" style="fill:url(#linear-gradient-59); stroke-width:0px;"/><path d="m30.21,2.84c-.22.17-.61.22-.9.29-.31.07-.46.23-.72-.1-.25-.33-.07-.44.08-.72.14-.27.28-.63.5-.8.45-.35.97-.27,1.25.1.29.37.24.89-.21,1.24Z" style="fill:url(#linear-gradient-60); stroke-width:0px;"/><path d="m28.87,2.34s.14-.7.63-.86c.49-.17.7.27.26.65s-1.04.62-.89.21Z" style="fill:url(#linear-gradient-61); stroke-width:0px;"/></g><polygon points="37.33 9.21 36.94 15.19 27.56 20.16 26.78 14.09 37.33 9.21" style="fill:url(#linear-gradient-62); stroke-width:0px;"/><polygon points="27.56 20.16 36.94 15.19 37.02 13.93 27.35 18.5 27.56 20.16" style="fill:url(#linear-gradient-63); stroke-width:0px;"/><polygon points="37.33 9.21 26.78 14.09 26.92 15.14 37.29 9.83 37.33 9.21" style="fill:url(#linear-gradient-64); stroke-width:0px;"/><polygon points="26.92 15.14 27.14 16.87 37.14 12.15 37.29 9.83 26.92 15.14" style="fill:url(#linear-gradient-65); stroke-width:0px;"/><polygon points="27.35 18.5 37.02 13.93 37.14 12.15 27.14 16.87 27.35 18.5" style="fill:url(#linear-gradient-66); stroke-width:0px;"/><polygon points="26.78 14.09 26.92 15.14 27.14 16.87 27.35 18.5 27.56 20.16 36.94 15.19 37.02 13.93 37.14 12.15 37.29 9.83 37.33 9.21 26.78 14.09" style="fill:url(#linear-gradient-67); mix-blend-mode:multiply; stroke-width:0px;"/><polygon points="29.52 13.11 12.56 21.03 6.38 16.42 .35 11.93 17.41 4.07 29.52 13.11" style="fill:url(#linear-gradient-68); stroke-width:0px;"/><polygon points="29.52 13.11 12.56 21.03 6.38 16.42 .35 11.93 17.41 4.07 29.52 13.11" style="fill:url(#linear-gradient-69); mix-blend-mode:screen; stroke-width:0px;"/><polygon points=".35 11.93 0 19.15 12.16 28.39 12.56 21.03 .35 11.93" style="fill:url(#linear-gradient-70); stroke-width:0px;"/><g style="clip-path:url(#clippath-1);"><polygon points=".27 19.02 .58 12.42 12.29 21.15 11.93 27.89 .27 19.02" style="fill:url(#linear-gradient-71); stroke-width:0px;"/><polygon points="6.38 16.42 0 19.15 .35 11.93 6.38 16.42" style="fill:url(#linear-gradient-72); stroke-width:0px;"/></g><polygon points="12.16 28.39 29.17 20.31 29.52 13.11 12.56 21.03 12.16 28.39" style="fill:url(#linear-gradient-73); stroke-width:0px;"/><polygon points="12.95 21.3 12.78 27.43 14.77 26.47 17.18 19.35 12.95 21.3" style="fill:url(#linear-gradient-74); stroke-width:0px;"/><polygon points="19.17 18.43 17.18 19.35 14.77 26.47 16.74 25.53 19.17 18.43" style="fill:url(#linear-gradient-75); stroke-width:0px;"/><polygon points="19.17 18.43 16.74 25.53 20.64 23.66 22.92 16.71 19.17 18.43" style="fill:url(#linear-gradient-76); stroke-width:0px;"/><polygon points="27.71 14.5 22.92 16.71 20.64 23.66 25.42 21.36 27.71 14.5" style="fill:url(#linear-gradient-77); stroke-width:0px;"/><polygon points="29 13.91 27.71 14.5 25.42 21.36 28.65 19.81 29 13.91" style="fill:url(#linear-gradient-78); stroke-width:0px;"/><polygon points="1.53 11.93 17.29 4.82 28.15 12.79 12.78 20.16 1.53 11.93" style="fill:#fff; stroke-width:0px;"/><polygon points="2.22 11.89 17.26 5.12 27.41 12.65 12.75 19.68 2.22 11.89" style="fill:url(#linear-gradient-79); stroke-width:0px;"/><polygon points="8.35 9.07 21.48 15.6 24.89 13.92 11.9 7.49 8.35 9.07" style="fill:#fff; stroke-width:0px;"/><path d="m10.59,9.54l1.18-1.02h0s-1.6.73-1.6.73l.27.12-.07.03-.64-.3.07-.03.27.12,1.72-.79-.27-.12.07-.03.74.34-.81.7h0s1.52-.37,1.52-.37l.69.32-.07.03-.26-.12-1.72.79.26.12-.07.03-.89-.41.07-.03.26.12,1.6-.74h0s-2.21.54-2.21.54l-.1-.04Z" style="fill:#442b2b; stroke-width:0px;"/><path d="m12.29,10.33c-.09-.04-.15-.09-.15-.14,0-.05.03-.1.11-.13.08-.04.17-.05.29-.06.11,0,.23.02.36.05.13.03.26.08.4.14l.29-.13s.06-.04.05-.07c0-.03-.04-.05-.09-.07-.04-.02-.09-.03-.14-.04-.05,0-.08,0-.11,0-.02,0-.03.02-.03.04,0,.01-.02.03-.05.04-.04.02-.09.03-.15.03-.06,0-.11-.01-.16-.03-.05-.02-.07-.05-.06-.07,0-.03.03-.05.07-.07.05-.02.12-.04.21-.04.08,0,.18,0,.27.03.1.02.19.05.28.1.13.06.21.12.24.18.03.06.01.11-.06.14l-.72.33s-.02.02-.02.03c0,.01,0,.02.02.03.01,0,.03,0,.06.01.03,0,.07,0,.13,0v.05c-.2.01-.35,0-.46-.06-.06-.03-.1-.06-.11-.09,0-.03.01-.06.05-.09h0c-.07,0-.16,0-.26-.01-.1-.01-.19-.04-.27-.07Zm.29.01c.05.02.12.03.21.03.08,0,.16-.02.24-.06l.2-.09c-.11-.05-.21-.08-.32-.08-.1,0-.2.01-.28.05-.06.03-.09.05-.1.08,0,.03,0,.05.06.07Z" style="fill:#442b2b; stroke-width:0px;"/><path d="m13.65,10.96c-.09-.04-.15-.08-.15-.12,0-.04.02-.07.09-.1l.86-.4-.2-.09.07-.03c.06.03.14.04.24.05.09,0,.19,0,.3,0,.11,0,.21-.02.31-.04l.09.04-.42.19.28.13-.07.03-.28-.13-.82.38c-.07.03-.08.06-.02.09.03.02.07.02.12.03.05,0,.11,0,.19-.01l.02.04c-.13.02-.25.03-.34.02-.09-.01-.18-.04-.27-.08Z" style="fill:#442b2b; stroke-width:0px;"/><path d="m14.71,11.45c-.08-.04-.14-.08-.18-.13-.04-.05-.06-.1-.06-.15,0-.05.02-.1.06-.15.04-.05.1-.09.17-.12.07-.03.16-.06.26-.08.1-.02.2-.03.31-.03.11,0,.22,0,.32.03.11.02.2.05.29.09.08.04.13.07.17.11.04.04.05.08.05.12,0,.04-.04.07-.1.1-.05.02-.11.04-.18.04-.07,0-.12-.01-.18-.04-.05-.02-.08-.05-.08-.08,0-.03.02-.05.07-.08.03-.01.06-.02.09-.02.03,0,.05,0,.08,0,.02,0,.05,0,.07-.02.03-.01.03-.03.02-.04-.01-.02-.04-.03-.08-.05-.05-.02-.11-.04-.17-.04-.06,0-.14,0-.24.03-.1.03-.22.07-.36.14-.12.06-.21.11-.27.14-.05.04-.08.07-.07.1,0,.03.04.06.11.09.09.04.19.06.3.07.11,0,.24,0,.4-.04l.08.03c-.15.04-.3.06-.46.05-.15,0-.29-.03-.41-.09Z" style="fill:#442b2b; stroke-width:0px;"/><path d="m17.11,10.89l.07-.03.52.24-.07.03-.52-.24Zm-1.79.82l.07-.03.67.31-.07.03-.67-.31Zm.23.07l1.78-.82.32.15-1.78.82-.32-.15Zm.73.34l.84-.39c.06-.03.09-.05.09-.07,0-.02-.01-.04-.05-.06-.06-.03-.13-.04-.22-.04-.09,0-.18.01-.29.03-.1.02-.2.06-.3.1l.33-.19.06.03c.1-.02.21-.02.31-.01.1,0,.2.03.29.08.11.05.16.1.18.15.01.05-.02.1-.1.13l-.83.38-.32-.15Zm-.21-.06l.07-.03.65.3-.07.03-.65-.3Z" style="fill:#442b2b; stroke-width:0px;"/><path d="m18.22,12.21l.08-.04.37.17c.07.03.14.05.2.06.06.01.14,0,.21,0,.08-.02.17-.05.28-.1.11-.05.18-.09.22-.13.04-.04.04-.07.02-.1-.02-.03-.07-.06-.14-.09l-.87-.4.07-.03.97.45c.11.05.19.11.25.16.05.06.07.12.06.17-.02.06-.07.11-.17.15-.1.05-.22.07-.35.08-.13,0-.27,0-.41-.04-.14-.03-.28-.08-.42-.14l-.37-.17Zm-1.42.19l.07-.03.87.4c.07.03.15.06.22.07.07.01.16.01.25,0,.09-.02.2-.05.32-.11.11-.05.17-.09.21-.13.03-.04.03-.08,0-.11-.03-.04-.1-.08-.2-.12v-.07c.19.08.32.16.42.24.1.08.15.15.15.22,0,.07-.06.13-.18.19-.11.05-.23.08-.36.08-.13,0-.26,0-.4-.04-.14-.03-.27-.07-.39-.13l-.97-.45Zm.29.1l1.82-.84.37.17-1.82.84-.37-.17Z" style="fill:#442b2b; stroke-width:0px;"/><path d="m19.24,13.55c-.08-.04-.15-.08-.19-.13-.04-.05-.06-.1-.07-.14,0-.05.02-.1.06-.15.04-.05.1-.09.18-.13.08-.04.17-.07.28-.08.1-.02.21-.03.31-.03.11,0,.21.01.31.03.1.02.19.05.28.09.08.04.15.08.19.13.04.05.07.1.07.14,0,.05-.02.1-.06.15-.04.05-.1.09-.18.13-.08.04-.18.07-.28.09-.1.02-.21.03-.31.03-.11,0-.21-.01-.32-.03s-.19-.05-.28-.09Zm.08-.04c.06.03.12.04.18.05.06,0,.14,0,.22-.03.09-.03.2-.07.33-.13.14-.06.23-.11.29-.15.06-.04.08-.07.07-.1,0-.03-.04-.06-.1-.08-.06-.03-.12-.04-.18-.05-.06,0-.13,0-.22.03-.09.03-.2.07-.34.13-.14.06-.23.11-.29.15-.06.04-.08.07-.07.1,0,.03.04.06.1.08Z" style="fill:#442b2b; stroke-width:0px;"/><path d="m19.93,13.84l.07-.03.48.22-.07.03-.48-.22Zm1.05-.47l.07-.03.66.3-.07.03-.66-.3Zm-.16.85l.29-.83.4.18-.29.83-.39-.18Zm-.69-.33l.89-.03-.02.05-.79.02-.09-.04Zm1.07.02v-.05s.85-.02.85-.02l.09.04-.94.03Zm-.6.24l.07-.03.68.31-.07.03-.68-.31Zm1.22-.39l.07-.03.46.21-.07.03-.46-.21Z" style="fill:#442b2b; stroke-width:0px;"/><polygon points="28.72 12.52 28.85 12.62 36.45 9.09 36.17 9.07 28.72 12.52" style="fill:url(#linear-gradient-80); mix-blend-mode:overlay; stroke-width:0px;"/><path d="m8.41,9.1l12.95,6.44-.33.16s-1.92-1.79-10.23-2.15c-6.09-.26-8.58-1.67-8.58-1.67l6.19-2.79Z" style="fill:url(#linear-gradient-81); stroke-width:0px;"/><polygon points="9.66 10.5 9.49 10.95 10.33 11.02 9.77 11.36 10.45 11.65 9.64 11.78 9.98 12.21 9.15 12.1 9.06 12.57 8.43 12.24 7.93 12.61 7.66 12.16 6.88 12.34 7.06 11.89 6.21 11.82 6.78 11.48 6.1 11.2 6.9 11.06 6.56 10.63 7.39 10.74 7.48 10.28 8.12 10.6 8.62 10.23 8.88 10.68 9.66 10.5" style="fill:#fff; stroke-width:0px;"/><path d="m14.21,9.46s-.76-1.19.47-1.83c.95-.49,1.98-.14,3.56-.47.19-.04-.19,1.9-1.34,2.49-1.33.68-2.69-.2-2.69-.2Z" style="fill:url(#linear-gradient-82); stroke-width:0px;"/><path d="m14.21,9.46s-.24-.86.67-1.23c.91-.37,2.36-.33,2.36-.33,0,0-.28,1.07-1.15,1.52s-1.88.05-1.88.05Z" style="fill:url(#linear-gradient-83); stroke-width:0px;"/><path d="m14.21,9.46s.08-1.09,1.72-.87c0,0-.24,1.07-1.72.87Z" style="fill:url(#linear-gradient-84); stroke-width:0px;"/><path d="m21.58,9.96s-.07,0-.11-.01c-.04,0-.08-.03-.11-.05-.03-.02-.05-.05-.07-.07-.01-.03-.01-.05,0-.07.01-.02.03-.04.06-.06l.07.05s-.03.02-.04.03c0,.01-.01.03,0,.04,0,.02.02.03.04.05.03.02.06.03.09.03.03,0,.07,0,.09-.01.03-.01.04-.02.05-.04s0-.03,0-.04-.02-.03-.03-.06c-.02-.03-.03-.05-.04-.07,0-.02,0-.04,0-.06,0-.02.03-.04.07-.05.03-.01.07-.02.1-.02.04,0,.07,0,.11.01.04.01.07.03.1.05.05.04.07.07.07.1,0,.03-.02.06-.06.09l-.07-.05s.03-.03.03-.05c0-.02-.01-.04-.04-.06-.03-.02-.05-.03-.09-.03-.03,0-.06,0-.09.01-.02.01-.04.02-.04.04,0,.01,0,.03,0,.04,0,.01.02.03.03.06.02.03.03.05.04.07,0,.02,0,.04,0,.06,0,.02-.03.04-.07.06-.03.01-.06.02-.1.02Z" style="fill:#fff; stroke-width:0px;"/><path d="m22.34,9.88l-.62.27-.06-.05.62-.27.06.05Z" style="fill:#fff; stroke-width:0px;"/><path d="m22.26,10.55l-.06-.05.23-.4-.49.21-.06-.05.62-.27.06.05-.23.4.49-.21.06.05-.62.27Z" style="fill:#fff; stroke-width:0px;"/><path d="m23.35,10.68s-.02.09-.07.13l-.07-.05s.04-.06.04-.09c0-.03-.03-.06-.07-.09-.03-.02-.07-.04-.12-.05-.05-.01-.09-.01-.14,0-.05,0-.1.02-.15.04-.05.02-.08.04-.1.07-.02.03-.03.05-.02.08,0,.03.03.05.06.08.04.03.09.05.14.06.05,0,.11.01.16,0l.07.05c-.08.02-.16.02-.23,0-.08-.01-.14-.04-.21-.08-.05-.03-.07-.07-.08-.11,0-.04,0-.07.03-.11s.07-.07.13-.09c.06-.03.13-.04.19-.05.07,0,.13,0,.19.01.06.01.12.04.16.07.06.04.09.09.09.13Z" style="fill:#fff; stroke-width:0px;"/><path d="m23.62,10.89l-.21.09.19.14-.06.03-.19-.14-.22.09.21.15-.06.03-.27-.2.62-.27.27.2-.06.03-.21-.15Z" style="fill:#fff; stroke-width:0px;"/><path d="m24.14,11.28l.07-.03.14.1-.62.27-.07-.05.54-.24-.07-.05Z" style="fill:#fff; stroke-width:0px;"/><path d="m24.67,11.67s0-.04-.04-.06c-.04-.03-.09-.04-.15-.04-.06,0-.13.02-.21.06h-.03s.09,0,.13.01c.05,0,.09.03.12.05.05.04.07.07.06.11,0,.04-.05.07-.11.1-.04.02-.08.03-.12.03-.04,0-.09,0-.13,0-.04-.01-.08-.03-.12-.06-.07-.05-.09-.1-.06-.14.03-.04.09-.09.19-.13.11-.05.21-.07.29-.08.08,0,.16.02.22.06.05.03.07.07.06.1,0,.03-.04.06-.08.09l-.06-.04s.05-.04.06-.06Zm-.58.08s0,.06.05.08c.03.02.07.04.12.04s.09,0,.13-.02c.05-.02.07-.04.08-.07,0-.03,0-.05-.04-.08-.02-.01-.04-.03-.07-.03-.03,0-.06-.01-.09-.01-.03,0-.06,0-.09.02-.04.02-.07.04-.08.07Z" style="fill:#fff; stroke-width:0px;"/><path d="m24.96,11.86s.08,0,.12.02c.04.01.08.03.11.06.04.03.06.05.07.08.01.02.01.05,0,.07-.01.02-.03.04-.06.05-.03.01-.07.02-.11.02-.04,0-.08,0-.12-.03.02.03.03.06.02.08,0,.03-.03.05-.07.06-.06.03-.12.03-.19.02-.07,0-.13-.03-.18-.07-.06-.04-.08-.08-.08-.12,0-.04.03-.07.09-.1.04-.02.08-.03.13-.02.05,0,.09.01.13.03-.02-.03-.02-.05-.01-.07,0-.02.03-.04.07-.06.03-.01.06-.02.1-.02Zm-.41.25s.02.05.06.08c.04.03.08.04.12.05.04,0,.09,0,.12-.02.04-.02.06-.04.06-.06,0-.03-.02-.05-.06-.08-.04-.03-.07-.04-.12-.05-.04,0-.08,0-.12.01-.04.02-.06.04-.06.06Zm.31-.12s.02.05.05.07c.03.02.07.04.11.04s.07,0,.11-.01c.04-.02.05-.03.05-.06,0-.02-.02-.05-.05-.07s-.07-.04-.11-.04c-.04,0-.08,0-.11.01-.03.02-.05.03-.05.06Z" style="fill:#fff; stroke-width:0px;"/><path d="m25.45,12.22s.08,0,.12.02c.04.01.08.03.11.06s.06.05.07.08c.01.02.01.05,0,.07-.01.02-.03.04-.06.05-.03.01-.07.02-.11.02-.04,0-.08,0-.12-.03.02.03.03.06.02.08,0,.03-.03.05-.07.06-.06.03-.12.03-.19.02-.07,0-.13-.03-.18-.07-.06-.04-.08-.08-.08-.12,0-.04.03-.07.09-.1.04-.02.08-.03.13-.02.05,0,.09.01.13.03-.02-.03-.02-.05-.01-.07,0-.02.03-.04.07-.06.03-.01.06-.02.1-.02Zm-.41.25s.02.05.06.08c.04.03.08.04.12.05.04,0,.09,0,.12-.02.04-.02.06-.04.06-.06,0-.03-.02-.05-.06-.08-.04-.03-.07-.04-.12-.05-.04,0-.08,0-.12.01-.04.02-.06.04-.06.06Zm.31-.12s.02.05.05.07c.03.02.07.04.11.04.04,0,.07,0,.11-.01.04-.02.05-.03.05-.06,0-.02-.02-.05-.05-.07-.03-.02-.07-.04-.11-.04-.04,0-.08,0-.11.01-.03.02-.05.03-.05.06Z" style="fill:#fff; stroke-width:0px;"/><g style="clip-path:url(#clippath-2);"><path d="m18.27,17.13c-.03-.37-.33-.65-.78-.61-.22.02-.47.19-.68.31-.15.08-.28.11-.33.22,0,0,0,0,0,0h-.08s-1.81.14-1.81.14c0,0,0-.02,0-.03-.09-.36-.43-.58-.87-.48-.21.05-.43.27-.62.41-.12.09-.22.14-.27.22l-.96.07,1.87-.94h0l.29-.14c.12.11.25.05.44.05.24,0,.55.01.74-.08.4-.2.52-.59.36-.93-.17-.33-.55-.47-.95-.27-.2.1-.36.36-.51.54-.11.13-.22.2-.23.33,0,0,0,0,0,0l-.07.04h0s-2.96,1.48-2.96,1.48l-1.82.13c-.11,0-.19.1-.18.21,0,.11.1.19.21.18l.86-.06-.52.26-3.87.94c-.11.03-.17.13-.15.24.03.11.13.17.24.15l2.2-.53-.65.32c-.1.05-.14.17-.09.27.05.1.17.14.27.09l2.19-1.09,3.37-.81c.09.13.23.11.42.14.23.05.53.14.74.08.25-.06.43-.21.51-.39l1.96-.14c.07.15.21.14.39.21.22.08.5.22.72.2.45-.03.71-.35.68-.72Z" style="fill:url(#linear-gradient-85); mix-blend-mode:multiply; opacity:.4; stroke-width:0px;"/><path d="m9.05,17.8h0c-.02-.11.05-.21.16-.23l7.37-1.46c.11-.02.21.05.23.16h0c.02.11-.05.21-.16.23l-7.37,1.46c-.11.02-.21-.05-.23-.16Z" style="fill:url(#linear-gradient-86); stroke-width:0px;"/><path d="m16.81,16.27c-.02-.11-.13-.18-.23-.16l-.08.02c.03.11,0,.13-.03.29-.02.07-.08.11-.14.15l.33-.06c.11-.02.18-.13.16-.23Z" style="fill:url(#linear-gradient-87); stroke-width:0px;"/><path d="m17.79,16.78c-.21.04-.51-.06-.74-.12-.24-.06-.41,0-.47-.33-.06-.32.11-.34.31-.48.19-.14.42-.34.64-.39.44-.09.78.15.85.51.07.36-.15.71-.59.8Z" style="fill:url(#linear-gradient-88); stroke-width:0px;"/><path d="m17.03,15.96s.34-.44.75-.39c.4.06.4.44-.05.55-.44.11-.95.07-.7-.17Z" style="fill:url(#linear-gradient-89); stroke-width:0px;"/><path d="m7.51,19.76h0c-.06-.09-.04-.22.06-.28l6.26-4.15c.09-.06.22-.04.28.06h0c.06.09.04.22-.06.28l-6.26,4.15c-.09.06-.22.04-.28-.06Z" style="fill:url(#linear-gradient-90); stroke-width:0px;"/><path d="m14.1,15.39c-.06-.09-.18-.12-.28-.06l-.07.05c.07.09.05.12.08.28.01.07-.03.13-.07.19l.28-.18c.09-.06.12-.18.06-.28Z" style="fill:url(#linear-gradient-91); stroke-width:0px;"/><path d="m15.2,15.49c-.18.12-.49.14-.73.17-.25.04-.38.15-.56-.12-.18-.27-.03-.35.1-.56.12-.2.26-.48.44-.6.37-.25.78-.16.98.15.2.31.13.71-.24.96Z" style="fill:url(#linear-gradient-92); stroke-width:0px;"/><path d="m14.18,15.02s.15-.54.55-.64c.4-.1.53.26.17.53-.37.27-.86.42-.71.11Z" style="fill:url(#linear-gradient-93); stroke-width:0px;"/><path d="m5.79,19.77h0c-.04-.1.01-.22.12-.26l7.04-2.64c.1-.04.22.01.26.12h0c.04.1-.01.22-.12.26l-7.04,2.64c-.1.04-.22-.01-.26-.12Z" style="fill:url(#linear-gradient-94); stroke-width:0px;"/><path d="m13.2,16.99c-.04-.1-.15-.16-.26-.12l-.08.03c.04.1.02.13.02.29,0,.07-.06.12-.11.17l.31-.12c.1-.04.16-.15.12-.26Z" style="fill:url(#linear-gradient-95); stroke-width:0px;"/><path d="m14.25,17.34c-.2.08-.51.02-.75,0-.25-.02-.4.06-.52-.25-.11-.31.05-.35.23-.53.17-.17.36-.41.57-.49.42-.16.79.02.92.37.13.35-.03.73-.45.88Z" style="fill:url(#linear-gradient-96); stroke-width:0px;"/><path d="m13.36,16.65s.27-.49.68-.5c.41-.01.46.37.04.55s-.93.22-.72-.05Z" style="fill:url(#linear-gradient-97); stroke-width:0px;"/></g><polyline points="1.53 11.93 12.78 20.16 28.15 12.79" style="fill:none; mix-blend-mode:multiply; opacity:.5; stroke:#5d272e; stroke-miterlimit:10; stroke-width:.09px;"/><polygon points=".27 19.02 6.11 16.54 6.43 16.78 .43 19.15 .27 19.02" style="fill:url(#linear-gradient-98); mix-blend-mode:multiply; opacity:.1; stroke-width:0px;"/><polygon points="21.36 15.54 8.41 9.1 7.99 9.29 21.21 15.62 21.36 15.54" style="fill:url(#linear-gradient-99); stroke-width:0px;"/><path d="m7.82,11.32l-.05-.03.14-.33-.35.19-.05-.03.44-.25.05.03-.14.33.35-.2.05.03-.44.25Z" style="fill:url(#linear-gradient-100); stroke-width:0px;"/><path d="m8.39,11.21l-.15.08.15.1-.04.02-.15-.1-.15.09.17.11-.05.03-.22-.14.44-.25.22.14-.05.03-.17-.11Z" style="fill:url(#linear-gradient-101); stroke-width:0px;"/><path d="m9.2,11.67l-.54.18-.06-.04.26-.26-.45.14-.06-.04.34-.31.06.04-.29.26.47-.15.06.04-.28.27.45-.16.06.04Z" style="fill:url(#linear-gradient-102); stroke-width:0px;"/></g></g></g></svg>