<?xml version="1.0" encoding="UTF-8"?><svg id="_Слой_2" xmlns="http://www.w3.org/2000/svg" width="101.61" height="37.37" viewBox="0 0 101.61 37.37"><g id="_Слой_1-2"><path d="m99.52,20.67L35.53,4.38c-3.04-.95-7.73-.87-10.48.18L2.3,9.29c-.91.19-1.72.8-2.02,1.69-.73,2.14-.02,5.17,2.39,5.92l63.3,19.82c3.04.95,7.95.87,10.7-.18l22.67-8.71c2.76-1.05,3.22-6.2.18-7.15Z" style="fill:#263238; stroke-width:0px;"/><path d="m99.35,24.1l-22.67,8.71c-2.75,1.05-7.67,1.13-10.71.18L2.67,13.18c-3.04-.95-3.27-2.57-.51-3.62L25.05.84c2.75-1.05,7.45-1.13,10.48-.18l63.3,19.82c3.04.95,3.27,2.57.51,3.62Z" style="fill:#263238; stroke-width:0px;"/><path d="m27.68,1.68l-4.44,1.69c-.6.23-.52.58.16.8l.89.28c.69.21.76.57.16.8l-8.65,3.29c-.6.23-1.63.24-2.32.02l-.89-.28c-.69-.21-1.73-.21-2.32.02l-1.56.59-3.89,1.48c-1.93.73-1.77,1.87.36,2.54l61.79,19.34c2.13.67,5.41.61,7.34-.12l22.85-8.7c1.93-.73,1.77-1.87-.36-2.54L35.03,1.56c-2.13-.67-5.41-.61-7.34.12Z" style="fill:#c83737; stroke-width:0px;"/></g></svg>