<?xml version="1.0" encoding="UTF-8"?><svg id="_Слой_2" xmlns="http://www.w3.org/2000/svg" width="410" height="835.53" xmlns:xlink="http://www.w3.org/1999/xlink" viewBox="0 0 410 835.53"><defs><clipPath id="clippath"><path d="m348.13,29.19l-54.96-.25c-7.37-.03-13.37,6.19-13.4,13.89l-.04,9.97c-.03,7.71-6.03,13.93-13.4,13.89l-107.14-.5c-7.37-.03-13.32-6.31-13.29-14.01l.04-9.97c.03-7.71-5.92-13.98-13.29-14.01l-19.33-.09-48.11-.22c-23.89-.11-43.35,19.17-43.45,43.07v693.71c-.1,23.88,16.24,43.32,40.12,43.43h282.92c23.89.11,46.28-17.87,46.38-41.76V72.62c.1-23.88-19.17-43.32-43.05-43.43Z" style="fill:none; stroke-width:0px;"/></clipPath></defs><g id="_Слой_1-2"><path d="m348.53,0H65.04C30.93-.16.15,27.38,0,61.49v710.72c-.14,34.1,28.67,63.17,62.77,63.32h282.19c34.11.16,64.9-27.38,65.04-61.49V63.32C410.14,29.23,382.63.16,348.53,0Zm42.64,766.33c-.1,23.89-22.49,43.18-46.38,43.06l-282.92-1.31c-23.88-.11-40.22-19.55-40.12-43.43V70.95c.1-23.89,19.56-43.18,43.45-43.07l48.11.22,19.33.09c7.37.03,13.32,6.31,13.29,14.01l-.04,9.97c-.03,7.71,5.92,13.98,13.29,14.01l107.14.5c7.37.03,13.37-6.19,13.4-13.89l.04-9.97c.03-7.7,6.03-13.92,13.4-13.89l54.96.25c23.88.11,43.15,19.55,43.05,43.43v693.71Z" style="fill:#263238; stroke-width:0px;"/><g style="clip-path:url(#clippath);"><path d="m41.8,572.32s-17.45-.1-43.39-12.26-21.94-79.16-21.94-82.16,9-28,13-28,41-5,58-1,32,8,40,21,13,21,13,21c0,0,33-16,48-20s78-6,102,2c24,8,68,42,68,42,0,0,15-33,35-36s42-8,57-4,29,38,29,39-5,56-6,60-12.5,19.15-14.25,21.57-45.75,10.43-60.75,3.43c0,0,2,3-1,20s-13,48-28,63-45,38-59,42-116-11-123-11-26,1-34-2-14-5-27-18-36-40-41-60-7.34-46.15-3.67-60.57Z" style="fill:#d28c5e; stroke-width:0px;"/><ellipse cx="107.47" cy="611.39" rx="43" ry="34.5" style="fill:#ddaa87; stroke-width:0px;"/><ellipse cx="290.47" cy="630.39" rx="43" ry="34.5" style="fill:#ddaa87; stroke-width:0px;"/><circle cx="132.97" cy="617.39" r="15.5" style="fill:#241c1c; stroke-width:0px;"/><circle cx="129.47" cy="611.89" r="5" style="fill:#fff; stroke-width:0px;"/><circle cx="264.97" cy="630.39" r="15.5" style="fill:#241c1c; stroke-width:0px;"/><path d="m278.47,704.89c0,29.82-39.67,60.9-87.5,54-48.5-7-80.5-30-87.5-54-8.35-28.63,39.18-54,87.5-54s87.5,24.18,87.5,54Z" style="fill:#f4e2d7; stroke-width:0px;"/><ellipse cx="194.97" cy="660.89" rx="31.5" ry="24" style="fill:#c83737; stroke-width:0px;"/><circle cx="261.47" cy="624.89" r="5" style="fill:#fff; stroke-width:0px;"/><path d="m101.47,526.89c13.91,1.43,25.28.42,30-7l-12-87,28-57c.99-11.46,1.57-24.21-5-28-5.02-4.63-11.25-6.21-19-4,.99,13.14-.9,25.01-7,35-1.82,5.87-6.17,8.72-11,11-3.54-16.91-12.43-42.4-22-69l-11-28c-5.95-1.43-11.2-1.8-15,0-3.42.68-6.15,2.86-8,7,12.03,34.41,21.14,65.62,24,90-14.23-2.12-31-13.16-48-25-8.13-.78-14.18.8-16,7-.01,8.38-2.06,16.98,19,23,18.08,8.41,34.96,17.69,49,29,7.21,11.25,13.82,23.7,17,43,4.99,14.28,6.43,36.21,7,60Z" style="fill:#784320; stroke-width:0px;"/><path d="m317.72,549.06c-13.95-1.04-24.96-4.03-28.3-12.17l27.12-83.53-17.54-61.04c1.05-11.46,2.71-24.11,9.85-26.68,5.76-3.67,12.17-4.14,19.41-.6-3.28,12.76-3.51,24.78.73,35.69.76,6.1,4.54,9.67,8.89,12.76,6.46-16.02,19.69-39.56,33.8-64.05l15.75-25.63c6.11-.36,11.34.2,14.77,2.64,3.24,1.27,5.55,3.9,6.64,8.3-17.9,31.75-32.36,60.88-39.46,84.37,14.38.41,32.83-7.5,51.65-16.17,8.14.66,13.81,3.28,14.52,9.71-1.46,8.25-.96,17.08-22.75,19.3-19.27,5.1-37.52,11.26-53.34,19.93-9.08,9.81-17.77,20.9-24.3,39.34-7.43,13.18-12.7,34.51-17.45,57.83Z" style="fill:#784320; stroke-width:0px;"/><path d="m88.17,508.56l-30.49,44.85s-42.95.5-53.11-19.91c-10.16-20.42,7-70,7-70,0,0,46.87.29,56.47,8.35s21.15,16.52,20.13,36.71Z" style="fill:#e9aeae; stroke-width:0px;"/><path d="m336.47,529.89l21,50s42,9,56-9,7-70,7-70c0,0-46-9-57-3s-24,12-27,32Z" style="fill:#e9aeae; stroke-width:0px;"/></g><path d="m272.42,213.85c-6.01,0-10.89-4.88-10.89-10.89v-57.81c0-23.42-19.05-42.47-42.47-42.47h-11.12c-23.42,0-42.47,19.05-42.47,42.47v57.81c0,6.01-4.87,10.89-10.89,10.89s-10.89-4.88-10.89-10.89v-57.81c0-35.43,28.83-64.25,64.25-64.25h11.12c35.43,0,64.25,28.82,64.25,64.25v57.81c0,6.01-4.87,10.89-10.89,10.89Z" style="fill:#4d4d4d; stroke-width:0px;"/><path d="m137.27,170.85h152.45c10.3,0,18.67,8.37,18.67,18.67v127.71c0,10.3-8.37,18.67-18.67,18.67h-152.45c-10.3,0-18.67-8.37-18.67-18.67v-127.71c0-10.3,8.37-18.67,18.67-18.67Z" style="fill:#b83534; stroke-width:0px;"/><rect x="143" y="226.4" width="141" height="53.93" rx="7.21" ry="7.21" style="fill:#4d4d4d; stroke-width:0px;"/></g></svg>