<?xml version="1.0" encoding="UTF-8"?><svg id="_Слой_2" xmlns="http://www.w3.org/2000/svg" width="422.03" height="180.2" viewBox="0 0 422.03 180.2"><g id="_Слой_1-2"><g style="opacity:.9;"><polygon points="287.06 96.27 287.06 81.23 201.23 81.23 201.23 9.03 158.77 9.03 158.77 33.85 151.66 33.85 151.66 22.56 125.02 22.56 125.02 0 102.53 0 102.53 40.13 92.9 34.47 49.1 111.59 67.29 122.26 102.53 60.21 102.53 122.89 118.07 122.89 125.02 122.89 144.71 122.89 151.66 122.89 158.77 122.89 165.71 122.89 194.29 122.89 201.23 122.89 301.86 122.89 301.86 96.27 287.06 96.27" style="fill:#ac6128; stroke-width:0px;"/><rect x=".88" y="119.36" width="420.28" height="13.54" style="fill:#612000; stroke:#2e2a27; stroke-linecap:round; stroke-linejoin:round; stroke-width:1.75px;"/><rect x="136.68" y="36.29" width="16.23" height="84.16" style="fill:#ed0014; stroke-width:0px;"/><path d="m151.82,37.38v81.98h-14.06V37.38h14.06m2.17-2.17h-18.4v86.33h18.4V35.2h0Z" style="fill:#2e2a27; stroke-width:0px;"/><polygon points="55.6 117.44 43.42 110.3 83.75 39.3 95.92 46.44 55.6 117.44" style="fill:#a7bc88; stroke:#2e2a27; stroke-linecap:round; stroke-linejoin:round; stroke-width:2.64px;"/><rect x="150.51" y="11.24" width="38.14" height="109.43" style="fill:#22b573; stroke-width:0px;"/><path d="m187.34,12.56v106.8h-35.52V12.56h35.52m2.63-2.63h-40.77v112.06h40.77V9.93h0Z" style="fill:#2e2a27; stroke-width:0px;"/><rect x="110.04" y="25.01" width="28.81" height="95.44" style="fill:#ed0014; stroke-width:0px;"/><path d="m137.76,26.09v93.27h-26.64V26.09h26.64m2.17-2.17h-30.98v97.61h30.98V23.92h0Z" style="fill:#2e2a27; stroke-width:0px;"/><rect x="94.27" y="2.22" width="18.17" height="118.46" style="fill:#22b573; stroke-width:0px;"/><path d="m111.13,3.53v115.83h-15.54V3.53h15.54m2.63-2.63h-20.79v121.08h20.79V.9h0Z" style="fill:#2e2a27; stroke-width:0px;"/><rect x="186.25" y="98.72" width="102.8" height="21.73" style="fill:#ed0014; stroke-width:0px;"/><path d="m287.97,99.81v19.56h-100.63v-19.56h100.63m2.17-2.17h-104.98v23.9h104.98v-23.9h0Z" style="fill:#2e2a27; stroke-width:0px;"/><rect x="187.34" y="84.76" width="85.83" height="15.04" style="fill:#a7bc88; stroke:#2e2a27; stroke-linecap:round; stroke-linejoin:round; stroke-width:2.64px;"/><polygon points="31.2 132.9 48.95 178.78 69.67 178.78 69.67 132.9 31.2 132.9" style="fill:#612000; stroke:#2e2a27; stroke-linecap:round; stroke-linejoin:round; stroke-width:2.83px;"/><polygon points="69.67 178.78 50.43 132.9 69.67 132.9 69.67 178.78" style="fill:#391500; stroke:#2e2a27; stroke-linecap:round; stroke-linejoin:round; stroke-width:1.75px;"/><polygon points="389.1 132.9 371.34 178.78 350.62 178.78 350.62 132.9 389.1 132.9" style="fill:#612000; stroke:#2e2a27; stroke-linecap:round; stroke-linejoin:round; stroke-width:2.83px;"/><polygon points="350.62 178.78 369.86 132.9 350.62 132.9 350.62 178.78" style="fill:#391500; stroke:#2e2a27; stroke-linecap:round; stroke-linejoin:round; stroke-width:1.75px;"/></g><g style="opacity:.79;"><path d="m47.5,141c-.03.6-3.34.92-7.4.73s-7.33-.83-7.3-1.42c.03-.6,3.34-.92,7.4-.73,4.06.19,7.33.83,7.3,1.42Z" style="fill:#2e2a27; stroke-width:0px;"/><path d="m53.46,145.41c.02.6-3.46,1.18-7.77,1.31s-7.82-.25-7.83-.85c-.02-.6,3.46-1.18,7.77-1.31s7.82.25,7.83.85Z" style="fill:#2e2a27; stroke-width:0px;"/><path d="m58.03,149.42c.1.59-3.51,1.7-8.07,2.49-4.56.79-8.34.95-8.44.36-.1-.59,3.51-1.7,8.07-2.49,4.56-.79,8.34-.95,8.44-.36Z" style="fill:#2e2a27; stroke-width:0px;"/><path d="m59.41,158.72c.03.6-3.43,1.28-7.74,1.53-4.31.25-7.83-.03-7.87-.62-.03-.6,3.43-1.28,7.74-1.53,4.31-.25,7.83.03,7.87.62Z" style="fill:#2e2a27; stroke-width:0px;"/><path d="m63.56,166.51c.01.6-3.67,1.17-8.24,1.28-4.56.11-8.27-.28-8.29-.88-.01-.6,3.67-1.17,8.24-1.28,4.56-.11,8.27.28,8.29.88Z" style="fill:#2e2a27; stroke-width:0px;"/><path d="m382.05,141.16c-.03.6-2.82.96-6.24.8s-6.17-.76-6.15-1.35c.03-.6,2.82-.96,6.24-.8,3.42.15,6.17.76,6.15,1.35Z" style="fill:#2e2a27; stroke-width:0px;"/><path d="m380.68,147.11c-.04.59-3.25.87-7.18.62-3.93-.25-7.08-.94-7.05-1.53.04-.6,3.25-.87,7.18-.62,3.93.25,7.08.94,7.05,1.53Z" style="fill:#2e2a27; stroke-width:0px;"/><path d="m377.01,155.11c-.04.59-3.46.86-7.64.59-4.18-.27-7.54-.97-7.5-1.56.04-.6,3.46-.86,7.64-.59,4.18.27,7.54.97,7.5,1.56Z" style="fill:#2e2a27; stroke-width:0px;"/><path d="m372.87,162.65c-.05.59-2.65.87-5.82.62s-5.7-.94-5.65-1.53c.05-.59,2.65-.87,5.82-.62s5.7.94,5.65,1.53Z" style="fill:#2e2a27; stroke-width:0px;"/><path d="m371.05,171.78c-.03.6-3.34.93-7.4.74-4.06-.19-7.33-.82-7.3-1.42.03-.6,3.34-.93,7.4-.74,4.06.19,7.33.82,7.3,1.42Z" style="fill:#2e2a27; stroke-width:0px;"/><path d="m11.69,129.56c-.59.09-1.39-1.94-1.78-4.54-.39-2.59-.23-4.77.35-4.86.59-.09,1.39,1.94,1.78,4.54.39,2.59.23,4.77-.36,4.86Z" style="fill:#2e2a27; stroke-width:0px;"/><path d="m18.05,128.55c-.6-.03-.98-1.93-.87-4.25.12-2.32.7-4.18,1.29-4.14.6.03.98,1.93.87,4.25-.12,2.32-.7,4.18-1.29,4.14Z" style="fill:#2e2a27; stroke-width:0px;"/><path d="m25.36,128.09c-.6.03-1.17-1.61-1.29-3.67-.12-2.06.27-3.76.86-3.8.6-.03,1.17,1.61,1.29,3.67.12,2.06-.27,3.76-.86,3.8Z" style="fill:#2e2a27; stroke-width:0px;"/><path d="m33.92,130.44c-.6.04-1.2-1.92-1.34-4.37s.22-4.46.81-4.49c.6-.04,1.2,1.92,1.34,4.37.15,2.45-.22,4.46-.81,4.49Z" style="fill:#2e2a27; stroke-width:0px;"/><path d="m391.49,128.55c-.6-.01-1.04-1.8-1-3.99.05-2.19.57-3.95,1.16-3.94.6.01,1.04,1.8,1,3.99-.05,2.19-.57,3.95-1.16,3.94Z" style="fill:#2e2a27; stroke-width:0px;"/><path d="m398.92,129.03c-.59.06-1.26-1.89-1.49-4.34-.23-2.45.07-4.48.66-4.54.59-.06,1.26,1.89,1.49,4.34s-.07,4.48-.66,4.54Z" style="fill:#2e2a27; stroke-width:0px;"/><path d="m406.85,130.42c-.59.07-1.28-1.65-1.53-3.84-.25-2.19.03-4.02.62-4.09.59-.07,1.28,1.65,1.53,3.84.25,2.19-.03,4.02-.62,4.09Z" style="fill:#2e2a27; stroke-width:0px;"/><path d="m416.01,127.62c-.6,0-1.08-1.36-1.08-3.03s.48-3.03,1.08-3.03,1.08,1.36,1.08,3.03-.48,3.03-1.08,3.03Z" style="fill:#2e2a27; stroke-width:0px;"/><path d="m85.74,64.9c-.36.48-3.13-.99-6.19-3.28-3.06-2.29-5.26-4.53-4.9-5.01.36-.48,3.13.99,6.19,3.28,3.06,2.29,5.26,4.53,4.9,5.01Z" style="fill:#2e2a27; stroke-width:0px;"/><path d="m79.47,70.98c-.29.52-2.94-.39-5.93-2.04s-5.18-3.4-4.89-3.93c.29-.52,2.94.39,5.93,2.04,2.99,1.65,5.18,3.4,4.89,3.93Z" style="fill:#2e2a27; stroke-width:0px;"/><path d="m108.99,22c-.02.6-3.21,1-7.14.9s-7.1-.66-7.09-1.26c.02-.6,3.21-1,7.14-.9,3.93.1,7.1.66,7.09,1.26Z" style="fill:#2e2a27; stroke-width:0px;"/><path d="m110.37,35.72c-.02.6-3.43.96-7.61.81-4.18-.15-7.55-.75-7.53-1.35.02-.6,3.43-.96,7.61-.81,4.18.15,7.55.75,7.53,1.35Z" style="fill:#2e2a27; stroke-width:0px;"/><path d="m186.09,25.97c0,.6-8.03.95-17.91.8-9.88-.16-17.89-.76-17.88-1.36,0-.6,8.03-.95,17.91-.8,9.88.16,17.89.76,17.88,1.36Z" style="fill:#2e2a27; stroke-width:0px;"/><path d="m185.18,32.25c.01.6-7.99,1.27-17.87,1.51-9.89.24-17.91-.05-17.93-.65-.01-.6,7.99-1.27,17.87-1.51s17.91.05,17.93.65Z" style="fill:#2e2a27; stroke-width:0px;"/><path d="m136.06,60.35c.03.6-5.6,1.33-12.57,1.64s-12.64.08-12.66-.52c-.03-.6,5.6-1.33,12.57-1.64s12.64-.08,12.66.52Z" style="fill:#2e2a27; stroke-width:0px;"/><path d="m136.51,88.37c.13.55-5.39,2.21-12.42,2.11-7.04-.06-12.52-1.83-12.37-2.38.13-.61,5.62.17,12.4.22,6.77.09,12.28-.57,12.4.05Z" style="fill:#2e2a27; stroke-width:0px;"/><path d="m258.6,99.16c-.6,0-1.08-3.24-1.08-7.23s.48-7.23,1.08-7.23,1.08,3.24,1.08,7.23-.48,7.23-1.08,7.23Z" style="fill:#2e2a27; stroke-width:0px;"/><path d="m247.98,99.64c-.59.04-1.3-3.48-1.58-7.86-.28-4.38-.02-7.96.58-8,.6-.04,1.3,3.48,1.58,7.86.28,4.38.02,7.96-.58,8Z" style="fill:#2e2a27; stroke-width:0px;"/><path d="m202.48,117.84c-.6.02-1.18-3.84-1.32-8.61s.25-8.65.84-8.67c.6-.02,1.19,3.84,1.32,8.61s-.25,8.65-.84,8.67Z" style="fill:#2e2a27; stroke-width:0px;"/><path d="m270.93,119.23c-.59.05-1.46-4.39-1.93-9.92-.47-5.53-.37-10.06.22-10.11.59-.05,1.46,4.39,1.93,9.92.47,5.53.37,10.06-.22,10.11Z" style="fill:#2e2a27; stroke-width:0px;"/><path d="m185.18,97.98c.04.6-7.33,1.52-16.45,2.07-9.12.55-16.55.51-16.58-.09-.04-.6,7.33-1.52,16.45-2.07,9.12-.55,16.55-.51,16.58.09Z" style="fill:#2e2a27; stroke-width:0px;"/><path d="m185.18,106.94c.02.6-7.76,1.39-17.4,1.77-9.63.38-17.46.21-17.48-.38-.02-.6,7.76-1.39,17.4-1.77,9.63-.38,17.46-.21,17.48.38Z" style="fill:#2e2a27; stroke-width:0px;"/><path d="m148.46,47.93c.03.6-2.32,1.18-5.23,1.31-2.91.13-5.3-.25-5.33-.84-.03-.6,2.32-1.18,5.23-1.31,2.91-.13,5.3.25,5.33.84Z" style="fill:#2e2a27; stroke-width:0px;"/><path d="m149.83,67.44c0,.6-2.67,1.08-5.97,1.08s-5.97-.48-5.97-1.08,2.67-1.08,5.97-1.08,5.97.48,5.97,1.08Z" style="fill:#2e2a27; stroke-width:0px;"/></g></g></svg>