<?xml version="1.0" encoding="UTF-8"?><svg id="_Слой_2" xmlns="http://www.w3.org/2000/svg" width="72.04" height="83.98" xmlns:xlink="http://www.w3.org/1999/xlink" viewBox="0 0 72.04 83.98"><defs><clipPath id="clippath"><path d="m15.05,70.43c2.07-1.9,7.18-7.09,6.47-13.15-.33-2.78-1.8-4.99-4.31-8.76-4.06-6.1-6.26-8.97-6.47-10.95-.31-3.01,4.14-5.58,25.86-13.15l4.31,8.76,8.62,19.72c2.22,4.05,2.04,8.37-2.16,13.15l-21.55,15.34c-2.78,1.14-5.63,1.09-8.53,0-4.02-2.16-3.97-6.18-2.25-10.95Z" style="fill:none; stroke-width:0px;"/></clipPath></defs><g id="_Слой_1-2"><path d="m58.16,52.9l-8.62-19.72-3.52-7.15c2.78-3.63,1.94-11.33-2.44-14.91-2.76-2.26-4.31-2.19-4.31-2.19-.74-.15-1.46-.15-2.17-.09-1.34-5.45-.53-7.97-2.14-8.68-1.49-.66-4.03.7-4.31,2.19-.25,1.32,1.42,2.01,2.16,4.38.4,1.27.36,2.49.2,3.48-4.97,2.74-9.69,8.59-15.28,9.67-.52.1-2.18-.39-4.31,0-1.35.25-3.38.62-4.31,2.19-.84,1.41-.37,3.09,0,4.38.69,2.37,1.84,3.63,4.31,6.57,4.68,5.58,5.19,6.63,6.47,6.57.07,0,.12-.03.18-.04.96,1.92,2.89,4.61,5.78,8.96,2.51,3.78,3.98,5.98,4.31,8.76.71,6.05-4.4,11.25-6.47,13.15-1.72,4.77-1.78,8.79,2.25,10.95,2.9,1.09,5.75,1.14,8.53,0l21.55-15.34c4.2-4.78,4.38-9.1,2.16-13.15Z" style="fill:#ae6b36; stroke-width:0px;"/><path d="m15.05,70.43c2.07-1.9,7.18-7.09,6.47-13.15-.33-2.78-1.8-4.99-4.31-8.76-4.06-6.1-6.26-8.97-6.47-10.95-.31-3.01,4.14-5.58,25.86-13.15l4.31,8.76,8.62,19.72c2.22,4.05,2.04,8.37-2.16,13.15l-21.55,15.34c-2.78,1.14-5.63,1.09-8.53,0-4.02-2.16-3.97-6.18-2.25-10.95Z" style="fill:#515574; stroke:#2e2a27; stroke-linecap:round; stroke-linejoin:round; stroke-width:3.52px;"/><path d="m24.18,11.13c.29-1.09.53-2.69,0-4.38-.74-2.37-2.4-3.06-2.16-4.38.28-1.49,2.82-2.85,4.31-2.19,1.61.71.78,3.25,2.16,8.76.08.32.3,1.2,0,2.19-.06.19-.7,2.2-2.16,2.19-.97,0-1.94-.9-2.16-2.19Z" style="fill:#ed0014; stroke-width:0px;"/><path d="m.47,22.08c.93-1.57,2.96-1.94,4.31-2.19,2.13-.39,3.79.1,4.31,0,7.87-1.52,14-12.51,21.55-10.95,0,0,1.55-.07,4.31,2.19,4.55,3.71,5.32,11.89,2.16,15.34-1.1,1.2-2,.6-6.47,2.19-6.93,2.47-10.93,4.07-15.09,6.57-2.94,1.77-2.63,4.31-4.31,4.38-1.27.05-1.79-.99-6.47-6.57-2.47-2.95-3.62-4.2-4.31-6.57-.37-1.29-.84-2.97,0-4.38Z" style="fill:#f5fafe; stroke-width:0px;"/><g style="clip-path:url(#clippath);"><ellipse cx="48.96" cy="59.32" rx="7.54" ry="10.95" style="fill:#f4f9fd; stroke-width:0px;"/><path d="m59.61,46.24c-5.91-.34-11.3,2.82-13.52,7.79-3.18,7.13,1.12,15.82,7.36,18.11,8.25,3.04,19.06-5.42,18.28-14.03-.48-5.34-5.38-10.31-12.12-11.87Z" style="fill:none; stroke:red; stroke-dasharray:0 0 2.18 2.18; stroke-linecap:round; stroke-miterlimit:10; stroke-width:.54px;"/></g><path d="m16.84,28.58c0-.18,1.37-.31,3.56-.45,2.18-.16,5.23-.33,8.36-1.21,3.18-.78,4.93-3.31,5.98-5.18,1.05-1.9,1.65-3.15,1.83-3.07.14.06-.14,1.4-1.03,3.48-.46,1.02-1.09,2.25-2.14,3.4-.52.57-1.15,1.11-1.88,1.57-.74.44-1.55.77-2.39,1.02-3.37.95-6.49.95-8.71.89-2.22-.08-3.58-.28-3.58-.44Z" style="fill:#2e2a27; stroke-width:0px;"/></g></svg>