<?xml version="1.0" encoding="UTF-8"?><svg id="_Слой_2" xmlns="http://www.w3.org/2000/svg" width="72.04" height="83.31" xmlns:xlink="http://www.w3.org/1999/xlink" viewBox="0 0 72.04 83.31"><defs><clipPath id="clippath"><path d="m15.05,70.43c2.07-1.9,7.18-7.09,6.47-13.15-.33-2.78-1.8-4.99-4.31-8.76-4.06-6.1-6.26-8.97-6.47-10.95-.31-3.01,4.14-5.58,25.86-13.15l4.31,8.76,8.62,19.72c2.22,4.05,2.04,8.37-2.16,13.15l-21.55,15.34c-2.78,1.14-5.63,1.09-8.53,0-4.02-2.16-3.97-6.18-2.25-10.95Z" style="fill:none; stroke-width:0px;"/></clipPath></defs><g id="_Слой_1-2"><path d="m58.16,52.9l-8.62-19.72-3.52-7.15c2.78-3.63,1.94-11.33-2.44-14.91-2.76-2.26-4.31-2.19-4.31-2.19-.74-.15-1.46-.15-2.17-.09-1.34-5.45-.53-7.97-2.14-8.68-1.49-.66-4.03.7-4.31,2.19-.25,1.32,1.42,2.01,2.16,4.38.4,1.27.36,2.49.2,3.48-4.97,2.74-9.69,8.59-15.28,9.67-.52.1-2.18-.39-4.31,0-1.35.25-3.38.62-4.31,2.19-.84,1.41-.37,3.09,0,4.38.69,2.37,1.84,3.63,4.31,6.57,4.68,5.58,5.19,6.63,6.47,6.57.07,0,.12-.03.18-.04.96,1.92,2.89,4.61,5.78,8.96,2.51,3.78,3.98,5.98,4.31,8.76.71,6.05-4.4,11.25-6.47,13.15-1.72,4.77-1.78,8.79,2.25,10.95,2.9,1.09,5.75,1.14,8.53,0l21.55-15.34c4.2-4.78,4.38-9.1,2.16-13.15Z" style="fill:#ae6b36; stroke-width:0px;"/><path d="m21.65,82.77c-1.48,0-3.01-.29-4.55-.87-5.09-2.73-3.9-7.95-2.57-11.65l.04-.13.1-.09c2.63-2.4,6.93-7.25,6.29-12.68-.31-2.65-1.7-4.74-4.22-8.52-.76-1.14-1.46-2.17-2.08-3.1-2.77-4.1-4.29-6.35-4.47-8.1-.34-3.32,3.4-5.77,26.22-13.71l.45-.16,4.52,9.19,8.63,19.74c2.53,4.61,1.8,9.11-2.25,13.72l-.04.05-21.66,15.41-.06.02c-1.42.58-2.89.88-4.38.88Z" style="fill:#22b573; stroke-width:0px;"/><path d="m36.6,24.42l4.31,8.76,8.62,19.72c2.22,4.05,2.04,8.37-2.16,13.15l-21.55,15.34c-1.38.57-2.77.84-4.17.84s-2.89-.29-4.36-.84c-4.02-2.16-3.97-6.18-2.25-10.95,2.07-1.9,7.18-7.09,6.47-13.15-.33-2.78-1.8-4.99-4.31-8.76-4.06-6.1-6.26-8.97-6.47-10.95-.31-3.01,4.14-5.58,25.86-13.15m.55-1.34l-.91.32c-22.02,7.66-26.99,10.33-26.59,14.28.19,1.88,1.65,4.04,4.56,8.34.63.93,1.32,1.96,2.09,3.1,2.48,3.72,3.84,5.77,4.14,8.29.61,5.19-3.57,9.88-6.12,12.22l-.2.18-.09.25c-.81,2.24-3.26,9.05,2.75,12.28l.06.03.07.03c1.6.6,3.19.91,4.74.91s3.1-.31,4.59-.92l.12-.05.1-.07,21.55-15.34.1-.07.08-.09c4.15-4.72,4.93-9.54,2.32-14.34l-8.6-19.67-4.33-8.81-.42-.86h0Z" style="fill:#2e2a27; stroke-width:0px;"/><path d="m24.18,11.13c.29-1.09.53-2.69,0-4.38-.74-2.37-2.4-3.06-2.16-4.38.28-1.49,2.82-2.85,4.31-2.19,1.61.71.78,3.25,2.16,8.76.08.32.3,1.2,0,2.19-.06.19-.7,2.2-2.16,2.19-.97,0-1.94-.9-2.16-2.19Z" style="fill:#ed0014; stroke-width:0px;"/><path d="m.47,22.08c.93-1.57,2.96-1.94,4.31-2.19,2.13-.39,3.79.1,4.31,0,7.87-1.52,14-12.51,21.55-10.95,0,0,1.55-.07,4.31,2.19,4.55,3.71,5.32,11.89,2.16,15.34-1.1,1.2-2,.6-6.47,2.19-6.93,2.47-10.93,4.07-15.09,6.57-2.94,1.77-2.63,4.31-4.31,4.38-1.27.05-1.79-.99-6.47-6.57-2.47-2.95-3.62-4.2-4.31-6.57-.37-1.29-.84-2.97,0-4.38Z" style="fill:#f5fafe; stroke-width:0px;"/><g style="clip-path:url(#clippath);"><ellipse cx="48.96" cy="59.32" rx="7.54" ry="10.95" style="fill:#2e3192; stroke-width:0px;"/><path d="m59.61,46.24c-5.91-.34-11.3,2.82-13.52,7.79-3.18,7.13,1.12,15.82,7.36,18.11,8.25,3.04,19.06-5.42,18.28-14.03-.48-5.34-5.38-10.31-12.12-11.87Z" style="fill:none; stroke:#39b54a; stroke-dasharray:0 0 2.18 2.18; stroke-linecap:round; stroke-miterlimit:10; stroke-width:.54px;"/></g><path d="m12.28,33.29c-.06-.06.16-.41.74-.85.58-.45,1.53-.89,2.67-1.36,2.28-.97,5.47-2.23,9.02-3.55,1.77-.66,3.47-1.27,5.02-1.81,1.54-.52,2.85-1.06,3.67-1.84.84-.76,1.19-1.67,1.29-2.3.1-.64,0-1.02.1-1.05.07-.03.34.31.39,1.07.05.74-.22,1.89-1.14,2.91-.91,1.03-2.38,1.72-3.91,2.3-1.53.6-3.21,1.25-4.98,1.9-3.55,1.32-6.78,2.45-9.15,3.2-1.19.37-2.12.66-2.73.94-.61.28-.93.5-.99.43Z" style="fill:#2e2a27; stroke-width:0px;"/></g></svg>