<?xml version="1.0" encoding="UTF-8"?><svg id="_Слой_2" xmlns="http://www.w3.org/2000/svg" width="242.86" height="235.3" viewBox="0 0 242.86 235.3"><g id="_Слой_1-2"><path d="m242.86,41.78c0-18.74-53.07-33.93-118.54-33.93S5.78,23.04,5.78,41.78h0v22.4c0,9.76,14.41,18.55,37.46,24.74l-24.48,138.41c-.74,4.16,2.51,7.98,6.79,7.98,3.03,0,5.7-1.95,6.59-4.81l42.22-135.55c11,1.47,22.91,2.46,35.43,2.9l5.21,59.55c.37,4.18,3.91,7.39,8.16,7.39s7.8-3.21,8.16-7.39l5.2-59.47c13.37-.39,26.07-1.43,37.75-2.98l42.22,135.55c.89,2.86,3.56,4.81,6.59,4.81,4.28,0,7.53-3.81,6.79-7.98l-24.48-138.41c23.04-6.19,37.46-14.98,37.46-24.74v-22.4h0Z" style="fill:#4f2d0a; opacity:.5; stroke-width:0px;"/><path d="m39.18,80.11L14.16,225.76c-.73,4.26,2.49,8.16,6.75,8.16h0c3.01,0,5.66-1.99,6.55-4.92l45.03-148.89h-33.31Z" style="fill:#9a846e; stroke:#2e2a27; stroke-linecap:round; stroke-linejoin:round; stroke-width:2.56px;"/><path d="m198.82,80.11l25.01,145.65c.73,4.26-2.49,8.16-6.75,8.16h0c-3.01,0-5.66-1.99-6.55-4.92l-45.03-148.89h33.31Z" style="fill:#9a846e; stroke:#2e2a27; stroke-linecap:round; stroke-linejoin:round; stroke-width:2.56px;"/><path d="m101.2,53.58l8.55,100.66c.36,4.28,3.88,7.56,8.11,7.56h0c4.22,0,7.74-3.28,8.11-7.56l8.55-100.66h-33.31Z" style="fill:#9a846e; stroke:#2e2a27; stroke-linecap:round; stroke-linejoin:round; stroke-width:2.56px;"/><path d="m1.28,35.98v22.91c0,19.17,52.71,34.7,117.72,34.7s117.72-15.54,117.72-34.7v-22.91H1.28Z" style="fill:#4c433d; stroke:#2e2a27; stroke-linecap:round; stroke-linejoin:round; stroke-width:2.56px;"/><ellipse cx="119" cy="35.98" rx="117.72" ry="34.7" style="fill:#9a846e; stroke:#2e2a27; stroke-linecap:round; stroke-linejoin:round; stroke-width:2.56px;"/><path d="m58.86,13.44c.04.29-3.49.93-9.06,2.4-5.57,1.45-13.19,3.82-21.2,7.41-3.99,1.8-7.75,3.7-11,5.59-1.61.96-3.04,1.99-4.17,3.13-1.14,1.14-1.98,2.4-2.42,3.66-.9,2.57-.44,4.92.27,6.24.72,1.36,1.54,1.83,1.44,1.97-.02.08-1.03-.17-2.05-1.59-1.01-1.38-1.77-4.01-.91-7.03.44-1.51,1.34-3,2.55-4.32,1.21-1.33,2.74-2.49,4.39-3.53,3.33-2.04,7.07-3.99,11.14-5.83,8.14-3.65,15.95-5.86,21.66-7,5.72-1.16,9.33-1.33,9.36-1.11Z" style="fill:#2e2a27; stroke-width:0px;"/><path d="m80.57,9.86c.04.51-2.85,1.18-6.46,1.49-3.61.31-6.58.14-6.62-.37-.04-.51,2.85-1.18,6.46-1.49s6.58-.14,6.62.37Z" style="fill:#2e2a27; stroke-width:0px;"/><path d="m208.61,22.45c-.27.52-10.34-4.82-23.74-8.65-13.38-3.92-24.74-4.79-24.69-5.37.01-.23,2.88-.32,7.48.12,4.6.44,10.93,1.49,17.73,3.46,6.79,1.97,12.71,4.46,16.83,6.55,4.13,2.09,6.51,3.69,6.39,3.89Z" style="fill:#2e2a27; stroke-width:0px;"/><path d="m221.38,27.54c-.26.44-2.33-.28-4.62-1.63-2.29-1.34-3.94-2.79-3.68-3.24.26-.44,2.33.28,4.62,1.63s3.94,2.79,3.68,3.24Z" style="fill:#2e2a27; stroke-width:0px;"/><path d="m129.69,62.41c.01.24-4.13.73-10.86.97-6.73.25-16.05.17-26.3-.68-10.25-.86-19.46-2.32-26.05-3.68-6.6-1.36-10.6-2.53-10.55-2.76.06-.27,4.15.44,10.78,1.46,6.62,1.02,15.79,2.27,25.97,3.12,10.18.84,19.43,1.13,26.13,1.22,6.7.09,10.86.07,10.87.34Z" style="fill:#2e2a27; stroke-width:0px;"/><path d="m150.69,62.06c0,.51-2.57.93-5.75.93s-5.75-.42-5.75-.93,2.57-.93,5.75-.93,5.75.42,5.75.93Z" style="fill:#2e2a27; stroke-width:0px;"/><path d="m218.72,47.34c.1.21-2.23,1.61-6.25,3.37-4.01,1.75-9.76,3.78-16.3,5.23-6.55,1.44-12.61,2.03-16.99,2.13-4.38.1-7.09-.19-7.08-.42,0-.58,10.79-.63,23.67-3.52,12.9-2.81,22.72-7.3,22.95-6.77Z" style="fill:#2e2a27; stroke-width:0px;"/><path d="m64.29,96.99c.04.23-1.34.76-3.7,1.04-2.35.29-5.68.23-9.22-.62-3.54-.86-6.53-2.32-8.49-3.64-1.97-1.32-2.97-2.41-2.82-2.6.33-.46,5.03,2.86,11.75,4.43,6.7,1.67,12.4.84,12.48,1.39Z" style="fill:#2e2a27; stroke-width:0px;"/><path d="m55.24,101.37c.05.24-.77.68-2.22.97-1.44.3-3.51.4-5.74,0-2.23-.41-4.13-1.23-5.37-2.01-1.25-.79-1.87-1.48-1.73-1.69.29-.46,3.36,1.15,7.44,1.87,4.07.77,7.51.33,7.62.86Z" style="fill:#2e2a27; stroke-width:0px;"/><path d="m51.16,107.47c-.12.5-2.98.23-6.39-.59s-6.07-1.91-5.95-2.41c.12-.5,2.98-.23,6.39.59,3.41.83,6.07,1.91,5.95,2.41Z" style="fill:#2e2a27; stroke-width:0px;"/><path d="m126.13,99.15c.06.24-.87.74-2.5,1.16-1.62.43-3.95.74-6.52.62-2.57-.12-4.86-.65-6.44-1.23-1.58-.58-2.46-1.16-2.38-1.39.19-.51,4.05.56,8.9.76,4.85.25,8.8-.45,8.94.08Z" style="fill:#2e2a27; stroke-width:0px;"/><path d="m123.78,102.8c.04.51-2.68,1.15-6.07,1.43-3.4.28-6.18.08-6.23-.43-.04-.51,2.68-1.15,6.07-1.43,3.4-.28,6.18-.08,6.23.43Z" style="fill:#2e2a27; stroke-width:0px;"/><path d="m124.55,108.59c.02.51-2.54,1.02-5.72,1.12s-5.76-.23-5.78-.74c-.02-.51,2.54-1.02,5.72-1.12,3.17-.1,5.76.23,5.78.74Z" style="fill:#2e2a27; stroke-width:0px;"/><path d="m195.11,92.33c.12.21-.87,1.06-2.74,2-1.86.94-4.63,1.91-7.8,2.32-3.18.4-6.1.16-8.14-.28-2.04-.44-3.21-1.02-3.15-1.25.13-.54,5.05.49,11.05-.32,6.01-.73,10.52-2.96,10.78-2.47Z" style="fill:#2e2a27; stroke-width:0px;"/><path d="m194.33,98c.12.22-.63.9-2.04,1.66-1.41.76-3.51,1.54-5.94,1.93-2.43.39-4.67.3-6.25.02-1.58-.28-2.5-.69-2.46-.94.1-.54,3.88-.17,8.41-.92,4.53-.7,8.02-2.23,8.27-1.75Z" style="fill:#2e2a27; stroke-width:0px;"/><path d="m196.39,102.94c.14.21-.4.87-1.5,1.65-1.09.78-2.77,1.64-4.76,2.2-1.99.55-3.87.67-5.21.56-1.34-.11-2.15-.4-2.13-.65.04-.54,3.19-.67,6.85-1.71,3.67-.99,6.45-2.5,6.75-2.05Z" style="fill:#2e2a27; stroke-width:0px;"/><path d="m29.68,166.83c.51.09-1.23,11.89-3.88,26.34s-5.21,26.1-5.71,26.01c-.51-.09,1.23-11.89,3.88-26.34,2.65-14.46,5.21-26.1,5.71-26.01Z" style="fill:#2e2a27; stroke-width:0px;"/><path d="m33.95,147.78c.49.14.21,2.61-.63,5.51-.84,2.9-1.93,5.14-2.42,4.99-.49-.14-.21-2.61.63-5.51.84-2.9,1.93-5.14,2.42-4.99Z" style="fill:#2e2a27; stroke-width:0px;"/><path d="m112.62,141.81c-.51.02-1.14-6.1-1.4-13.66-.26-7.56-.05-13.71.46-13.72.51-.02,1.14,6.1,1.4,13.66.26,7.56.05,13.71-.46,13.72Z" style="fill:#2e2a27; stroke-width:0px;"/><path d="m113.48,156.31c-.51.02-1.02-2.13-1.12-4.8s.22-4.85.74-4.87c.51-.02,1.02,2.13,1.12,4.8s-.22,4.85-.74,4.87Z" style="fill:#2e2a27; stroke-width:0px;"/><path d="m203.13,193.63c-.5.13-3.73-11.02-7.22-24.9s-5.91-25.23-5.41-25.36c.5-.13,3.73,11.02,7.22,24.9s5.91,25.23,5.41,25.36Z" style="fill:#2e2a27; stroke-width:0px;"/><path d="m207.24,210.31c-.5.11-1.45-2.33-2.12-5.44-.67-3.11-.8-5.72-.3-5.83.5-.11,1.45,2.33,2.12,5.44.67,3.11.8,5.72.3,5.83Z" style="fill:#2e2a27; stroke-width:0px;"/><path d="m6.95,71.32c-.51,0-.9-5.32-.87-11.89.04-6.56.48-11.88,1-11.88s.9,5.32.87,11.89c-.04,6.56-.48,11.88-1,11.88Z" style="fill:#2e2a27; stroke-width:0px;"/><path d="m12.64,71.73c-.51,0-1-3.86-1.09-8.64-.09-4.78.26-8.67.77-8.68.51,0,1,3.86,1.09,8.64.09,4.78-.26,8.67-.77,8.68Z" style="fill:#2e2a27; stroke-width:0px;"/><path d="m18.08,74.94c-.51,0-.92-4.06-.9-9.07.02-5.01.45-9.06.96-9.06s.92,4.06.9,9.07c-.02,5.01-.45,9.06-.96,9.06Z" style="fill:#2e2a27; stroke-width:0px;"/><path d="m23.02,79.77c-.51-.08-.35-3.92.35-8.58.7-4.66,1.68-8.38,2.19-8.31.51.08.35,3.92-.35,8.58-.7,4.66-1.68,8.38-2.19,8.31Z" style="fill:#2e2a27; stroke-width:0px;"/><path d="m231.12,66.88c-.51,0-1-4.49-1.08-10.06-.08-5.56.27-10.08.78-10.08.51,0,1,4.49,1.08,10.06s-.27,10.08-.78,10.08Z" style="fill:#2e2a27; stroke-width:0px;"/><path d="m226.7,73.74c-.51,0-.88-4.52-.8-10.08.07-5.56.54-10.07,1.06-10.06.51,0,.88,4.52.8,10.08-.07,5.56-.54,10.07-1.06,10.06Z" style="fill:#2e2a27; stroke-width:0px;"/><path d="m218.59,76.16c-.51,0-.86-3.99-.76-8.88.09-4.89.59-8.85,1.1-8.84.51,0,.86,3.99.76,8.88-.09,4.89-.59,8.85-1.1,8.84Z" style="fill:#2e2a27; stroke-width:0px;"/><path d="m211.12,78.98c-.51,0-.87-4.52-.79-10.08.08-5.56.55-10.06,1.07-10.06.51,0,.87,4.52.79,10.08-.08,5.56-.55,10.06-1.07,10.06Z" style="fill:#2e2a27; stroke-width:0px;"/><path d="m204.26,77.76c-.51.01-1-3.59-1.09-8.04-.09-4.45.26-8.06.77-8.08.51-.01,1,3.59,1.09,8.04.09,4.45-.26,8.06-.77,8.08Z" style="fill:#2e2a27; stroke-width:0px;"/></g></svg>