<?xml version="1.0" encoding="UTF-8"?><svg id="_Слой_2" xmlns="http://www.w3.org/2000/svg" width="196.5" height="660.32" xmlns:xlink="http://www.w3.org/1999/xlink" viewBox="0 0 196.5 660.32"><defs><clipPath id="clippath"><path d="m127.39,394.92c-.04-13.14-.09-93.69-.13-136.59-1.43,0-2.86,0-4.28-.02-3.19-.03-6.37-.06-9.56-.1-.97-33.74-50.44-35.86-50.96-.51-4.63-.05-9.27-.09-13.9-.14.04,42.7.09,124.14.13,137.36.11,33.49.2,66.97-.1,100.45,4.62-.05,9.24-.09,13.87-.14.51,35.35,49.98,33.23,50.96-.51,3.19-.03,6.37-.06,9.56-.1,1.44-.01,2.88-.02,4.32-.02.29-33.22.2-66.46.09-99.69Z" style="fill:none; stroke-width:0px;"/></clipPath></defs><g id="_Слой_1-2"><path d="m190.97,71.61l4.83.75.7-25.15-4.25-.18c-3.91-.17-7.72-.93-11.32-2.28-6.59-2.47-12.74-6.96-17.29-12.64-1.31-1.63-2.5-3.37-3.77-5.2-1.53-2.23-3.12-4.53-4.98-6.72-8.13-9.6-20.7-15.82-33.64-16.64l-10.16-.64,1.1,1.31-.5-.04c-1.32-2.15-3.64-3.66-6.36-3.86-.2-.01-.4-.02-.6-.02-2.51,0-4.7,1.17-6.09,2.98l-1.22-.07,1.2-1.22-9.29-.78c-1.26-.11-2.54-.16-3.8-.16-11.85,0-23.05,4.54-30.74,12.46-1.98,2.05-3.67,4.25-5.31,6.37-1.31,1.7-2.54,3.3-3.89,4.79-4.7,5.26-10.92,9.11-17.51,10.85-2.74.73-5.62,1.1-8.55,1.1-.91,0-1.81-.04-2.72-.11l-4.61-.36-.21,26.25,4.58-.25c.27-.01.56-.04.83-.06l-.14,18.61c-1.51-.05-3.06-.11-4.72-.16l-.3,8.76c4.07.14,7.63.26,10.93.37l-1.19,117.67-7.62.03.03,8.76,7.5-.03h0s14.5-.05,14.5-.05c1.34,109.67.97,220.37-1.09,329.89l-20.85.79.32,8.76,8.07-.3c0,.75,0,1.5,0,2.26l16.69,26.38-7.72.1.11,8.76,7.55-.09-.23,29.4,4.42-.08c7.42-.13,14.83-.23,22.25-.3l8.24-.08-4.95-7.1c-2.6-3.83-2.68-5.62-2.28-6.46.33-.7,1.42-1.75,4.78-2.76,2.36-.71,4.79-1.25,7.23-1.59,1.46-.2,2.73-.3,3.9-.3,2.14,0,3.87.33,5.29,1.01,1.53.73,2.78,2.2,3.05,3.57l.7,3.56,3.57-.04c1.25-.01,2.49-.02,3.74-.02,6.5,0-6.25,4.56.17,4.74,6.48.18,15.33,26.65,21.94,26.65,1.06,0,2.12,0,3.17-.01l3.94-.04.32-3.99c.12-1.51,1.44-3.22,3.13-4.07,1.47-.73,3.28-1.09,5.51-1.09,1.1,0,2.3.09,3.66.27,2.43.32,4.86.84,7.21,1.55,2.68.81,4.27,1.75,4.76,2.81.42.92.36,2.87-2.34,6.97l-4.6,7,7.96.08c7.42.07,14.83.17,22.25.31l4.42.08-.22-30.68c1.77.01,3.54.01,5.31.03l.06-8.76c-1.81-.01-3.63-.02-5.44-.03l-.55-60.52c0-.91,0-1.82,0-2.74,2.01-.04,4.03-.09,6.05-.12l-.15-8.76c-6.13.11-12.28.24-18.44.39-1.99-108.05-2.33-217.22-1.01-325.37,3.41.04,6.78.07,10.1.12l4.25.05s0-.02,0-.02c1.62.02,3.25.04,4.87.06l.13-8.76c-1.59-.02-3.18-.04-4.77-.06.56-21.85,2.04-79.26,2.84-110.61,3.29.18,6.81.38,10.72.59l.45-8.75c-1.72-.09-3.35-.18-4.93-.27l.48-16.94c.18.03.38.07.56.1ZM117.69,10.78c1.88,2.24,3.64,4.58,5.21,6.96,2.96,4.47,4.6,8.11,5.18,11.49.02.14.04.28.05.42l.05.46c.37,3.43-.48,6.55-2.33,8.56-1.15,1.26-2.76,2.04-4.19,2.04-.2,0-.4-.01-.59-.04-1.35-.21-2.8-1.17-3.99-2.65-.91-1.13-1.59-2.46-2-3.86,2.23-2.3,3.63-5.38,3.7-8.83.1-5.23-2.93-9.99-7.42-12.53.76-1.02,1.24-2.24,1.4-3.57l1.69-2.32,3.25,3.86Zm-31.08,4.11c1.64-2.16,3.45-4.25,5.39-6.21l3.39-3.43,1.68,2.99c.06,1.41.47,2.75,1.2,3.88-4.54,2.06-7.66,6.48-7.75,11.73-.05,3.46,1.25,6.69,3.42,9.23-.43,1.33-1.13,2.54-2.07,3.55-1.16,1.25-2.56,1.99-3.94,2.04-1.6,0-3.49-1.09-4.8-2.78-1.86-2.39-2.64-5.79-2.14-9.32l.04-.27c.03-.21.05-.41.1-.61.68-3.31,2.43-6.74,5.49-10.79Z" style="fill:#955522; opacity:.7; stroke-width:0px;"/><path d="m151.24,562.5c-2.65-127.42-3.01-254.99-1.06-382.45H28.09c1.94,127.46,1.59,255.03-1.06,382.45h124.21Z" style="fill:#633425; stroke:#4c433d; stroke-miterlimit:10; stroke-width:2.17px;"/><path d="m131.28,392.35c-.05-13.41-.1-95.6-.15-139.38-1.57,0-3.14,0-4.71-.02-3.5-.03-7-.07-10.51-.1-1.07-34.43-55.43-36.6-56-.52-5.09-.05-10.18-.09-15.27-.14.05,43.57.1,126.67.15,140.16.12,34.17.22,68.34-.11,102.5,5.08-.05,10.16-.09,15.24-.14.57,36.07,54.93,33.91,56-.52,3.5-.03,7-.07,10.51-.1,1.58-.02,3.17-.02,4.75-.02.32-33.9.23-67.81.1-101.72Z" style="fill:#713a2a; stroke-width:0px;"/><path d="m131.28,392.35c-.05-13.41-.1-95.6-.15-139.38-1.57,0-3.14,0-4.71-.02-3.5-.03-7-.07-10.51-.1-1.07-34.43-55.43-36.6-56-.52-5.09-.05-10.18-.09-15.27-.14.05,43.57.1,126.67.15,140.16.12,34.17.22,68.34-.11,102.5,5.08-.05,10.16-.09,15.24-.14.57,36.07,54.93,33.91,56-.52,3.5-.03,7-.07,10.51-.1,1.58-.02,3.17-.02,4.75-.02.32-33.9.23-67.81.1-101.72Z" style="fill:#713a2a; isolation:isolate; opacity:.2; stroke-width:0px;"/><path d="m127.39,394.92c-.04-13.14-.09-93.69-.13-136.59-1.43,0-2.86,0-4.28-.02-3.19-.03-6.37-.06-9.56-.1-.97-33.74-50.44-35.86-50.96-.51-4.63-.05-9.27-.09-13.9-.14.04,42.7.09,124.14.13,137.36.11,33.49.2,66.97-.1,100.45,4.62-.05,9.24-.09,13.87-.14.51,35.35,49.98,33.23,50.96-.51,3.19-.03,6.37-.06,9.56-.1,1.44-.01,2.88-.02,4.32-.02.29-33.22.2-66.46.09-99.69Z" style="fill:#33231e; stroke-width:0px;"/><path d="m67.23,245c-3.77-.03-7.53-.07-11.3-.1.04,31.37.07,91.2.11,100.92.09,24.6.16,49.2-.08,73.8,3.76-.03,7.52-.07,11.28-.1.42,25.97,40.65,24.41,41.44-.37,2.59-.02,5.18-.05,7.78-.07,1.17-.01,2.34-.02,3.52-.01.24-24.41.16-48.83.07-73.24-.04-9.65-.07-68.84-.11-100.35-1.16,0-2.32,0-3.48-.01-2.59-.02-5.18-.05-7.78-.07" style="fill:#33231e; isolation:isolate; opacity:.2; stroke-width:0px;"/><path d="m35.53,224.68c-3.89,21.13-1.79,43.89-1.71,65.35.08,22.75.13,45.5.16,68.25.05,45.45-1.16,91.07.78,136.49.04,1.01,1.48,1,1.54,0,2.52-45.38,1.68-91.05,1.89-136.49.1-22.25.18-44.49.23-66.74.05-21.93,2.16-45.29-1.94-66.87-.09-.47-.86-.48-.94,0h0Z" style="fill:#713a2a; stroke-width:0px;"/><g style="clip-path:url(#clippath);"><path d="m89.05,220.4c1.94,67.87,1.59,135.8-1.06,203.65" style="fill:none; stroke:#c7a03d; stroke-miterlimit:10; stroke-width:10.54px;"/><ellipse cx="89.13" cy="427.79" rx="17.42" ry="19.59" style="fill:#c7a03d; stroke-width:0px;"/><ellipse cx="86.42" cy="425.88" rx="11.83" ry="13.31" style="fill:#c7a03d; isolation:isolate; opacity:.2; stroke-width:0px;"/></g><path d="m45.66,12.23c-3.31,3.44-5.89,7.5-9.08,11.05-5.14,5.74-11.95,10.12-19.61,12.14-4.08,1.09-8.4,1.46-12.7,1.12-.05,5.63-.09,11.26-.14,16.9,1.81-.1,3.61-.27,5.4-.49,5.63-.69,11.15-1.95,16.44-3.81,2.82-.99,5.59-2.15,8.08-3.74,4.18-2.66,7.43-6.42,10.83-9.96,5.56-5.76,12.03-11.19,19.63-13.85.06-.39.1-.77.18-1.15.96-4.65,3.45-8.8,6.3-12.57,1.77-2.33,3.7-4.55,5.76-6.64-11.65-.98-23.4,3.06-31.1,11Z" style="fill:#713a2a; stroke:#4c433d; stroke-miterlimit:10; stroke-width:2.17px;"/><path d="m179.87,47.07c-4.3-.18-8.6-1.04-12.63-2.54-7.57-2.83-14.21-7.84-19.14-13.98-3.06-3.82-5.49-8.07-8.68-11.83-7.41-8.76-18.98-14.38-30.64-15.12,1.99,2.36,3.83,4.82,5.51,7.36,2.71,4.1,5.05,8.5,5.85,13.19.06.38.1.77.14,1.15,7.5,3.59,13.76,9.68,19.11,15.93,3.27,3.82,6.38,7.81,10.46,10.84,2.43,1.8,5.15,3.22,7.93,4.47,5.21,2.35,10.68,4.13,16.27,5.38,1.78.4,3.57.75,5.38,1.03.15-5.29.29-10.58.44-15.87Z" style="fill:#713a2a; stroke:#4c433d; stroke-miterlimit:10; stroke-width:2.17px;"/><path d="m174.05,61.91c-5.59-1.24-11.06-3.03-16.27-5.38-2.78-1.26-5.5-2.67-7.93-4.47-4.08-3.03-7.19-7.02-10.46-10.84-5.34-6.25-11.61-12.35-19.11-15.93.47,4.34-.53,8.83-3.46,12.03-2.1,2.29-5.33,3.84-8.59,3.34-2.66-.41-5-2.13-6.68-4.2-1.83-2.26-2.96-4.99-3.3-7.78-3.96-.23-7.92-.46-11.88-.69-.45,2.71-1.67,5.28-3.55,7.3-1.74,1.87-4.14,3.31-6.81,3.4-3.27.11-6.44-1.86-8.45-4.44-2.82-3.62-3.65-8.32-3.03-12.67-7.61,2.66-14.08,8.1-19.63,13.85-3.4,3.54-6.65,7.3-10.83,9.96-2.49,1.59-5.26,2.75-8.08,3.74-5.28,1.87-10.81,3.12-16.44,3.81-.07,9.3-.15,18.6-.22,27.9,2,.07,4,.14,6,.21,6.67.24,13.34.47,20.01.71,5.04-11.2,14.63-20.08,26.11-25.21,9.6-3.53,20.05-5.29,30.46-4.88,10.4.76,20.77,3.66,30.23,8.16,11.28,6.19,20.54,15.73,25.19,26.95,6.67.36,13.33.72,20,1.08,2,.11,4,.22,5.99.32.25-8.76.49-17.53.74-26.29Z" style="fill:#c7a03d; stroke-width:0px;"/><path d="m152.49,75.57c-5.59-10.65-14.87-19.88-26.56-26.33l-.21-.12-.22-.11c-4.53-2.17-9.23-3.99-14.01-5.42,4.24-.42,8.35-2.47,11.35-5.74,1.24-1.34,2.27-2.84,3.09-4.46,2.44,2.15,4.96,4.76,7.62,7.88l1.4,1.65c3.02,3.58,6.14,7.27,10.36,10.4,2.57,1.91,5.57,3.61,9.43,5.35,3.72,1.68,7.6,3.11,11.61,4.29l-.36,13.39-13.5-.78ZM17.19,54.93c4.04-.79,7.98-1.86,11.75-3.2,3.91-1.37,6.96-2.8,9.6-4.48,4.32-2.75,7.57-6.19,10.71-9.5l1.45-1.52c2.77-2.87,5.38-5.22,7.89-7.11.76,1.76,1.74,3.42,2.92,4.94,2.88,3.7,6.9,6.28,11.12,7.22-4.81.88-9.57,2.17-14.17,3.85l-.22.08-.22.1c-11.9,5.27-21.5,13.79-27.46,24.28l-13.5-.53.13-14.12Zm66.14-14.94c1.98-.97,3.82-2.33,5.42-4.05,1.32-1.41,2.42-2.98,3.29-4.68l.42.02c.81,1.8,1.86,3.51,3.12,5.07,1.54,1.91,3.33,3.49,5.27,4.69-2.88-.52-5.76-.89-8.62-1.11l-.27-.02c-2.86-.13-5.75-.1-8.64.06Z" style="fill:#c7a03d; stroke-width:0px;"/><path d="m167.22,91.2c.03-1.1.06-2.21.09-3.32-6.67-.36-13.33-.72-20-1.08-4.65-11.23-13.9-20.76-25.19-26.95-9.46-4.51-19.83-7.41-30.23-8.16-10.4-.42-20.86,1.34-30.46,4.88-11.48,5.13-21.07,14.01-26.11,25.21-6.67-.24-13.34-.47-20.01-.71,0,1.17-.02,2.34-.03,3.5-.42,40.93-.84,81.87-1.25,122.81,12.82-.05,25.65-.09,38.47-.14,37.25-.13,74.49-.23,111.71.25,1-38.76,2-77.52,2.99-116.29Z" style="fill:#633425; stroke:#4c433d; stroke-miterlimit:10; stroke-width:2.17px;"/><path d="m.19,80.59c19.03.67,27.36.86,46.4,1.53" style="fill:none; stroke:#713a2a; stroke-miterlimit:10; stroke-width:10.54px;"/><path d="m2.17,207.42c16.78-.06,33.56-.12,50.35-.18,40.29-.14,80.59-.28,120.84.35" style="fill:none; stroke:#713a2a; stroke-miterlimit:10; stroke-width:10.54px;"/><path d="m182.44,88.75c-19.03-1.03-28.88-1.64-47.91-2.67" style="fill:none; stroke:#713a2a; stroke-miterlimit:10; stroke-width:10.54px;"/><path d="m83.48,27.83c5.89.34,11.78.68,17.67,1.02" style="fill:none; stroke:#713a2a; stroke-miterlimit:10; stroke-width:10.54px;"/><path d="m102.26,20.9c.1-5.12-4.22-9.58-9.64-9.96s-9.89,3.49-9.97,8.64c-.08,5.16,4.24,9.62,9.64,9.96,5.41.35,9.87-3.52,9.97-8.64Z" style="fill:#713a2a; stroke-width:0px;"/><path d="m96.34,4.01c.03-1.87-1.55-3.51-3.53-3.66-1.98-.15-3.62,1.26-3.65,3.13-.03,1.88,1.55,3.51,3.53,3.66,1.98.14,3.62-1.26,3.65-3.13Z" style="fill:#713a2a; stroke-width:0px;"/><path d="m95.85,3.97s-.4.55-.69,1.39c-.29.84-.52,1.98-.51,3.13-.02,1.15.17,2.32.42,3.2.24.88.58,1.48.58,1.48l-6.13-.43s.36-.55.63-1.4c.28-.85.51-1.98.53-3.14.05-1.15-.13-2.32-.4-3.2-.26-.88-.63-1.49-.63-1.49l6.21.45Z" style="fill:#713a2a; stroke-width:0px;"/><path d="m96.06,19.03c.06-3.21-2.47-5.99-5.65-6.21-3.18-.22-5.8,2.21-5.85,5.43-.05,3.22,2.48,6,5.65,6.21,3.17.21,5.79-2.22,5.85-5.43Z" style="fill:#713a2a; isolation:isolate; opacity:.2; stroke-width:0px;"/><path d="m138.13,110.83c.05-2.71.12-5.42.25-8.12-2.83-.18-5.66-.32-8.49-.48-1.74-5.28-3.95-10.38-7.41-14.84-6.22-8.03-16.1-13.27-26.38-14.98-1.27-.21-2.54-.37-3.81-.48-.25-.01-.5-.03-.75-.04-.25-.02-.5-.02-.75-.03-1.27-.02-2.55.02-3.82.1-10.32.7-20.37,5.05-26.87,12.66-3.6,4.24-5.99,9.26-7.91,14.51-2.84-.09-5.68-.19-8.52-.28.04,2.86,0,5.72-.04,8.57-.41,26.61-.82,53.22-1.23,79.83,8.41,0,16.83.02,25.24.03,22.98.03,45.97.07,68.93.83.52-25.76,1.04-51.52,1.56-77.29Z" style="fill:#713a2a; stroke-width:0px;"/><path d="m138.13,110.83c.05-2.71.12-5.42.25-8.12-2.83-.18-5.66-.32-8.49-.48-1.74-5.28-3.95-10.38-7.41-14.84-6.22-8.03-16.1-13.27-26.38-14.98-1.27-.21-2.54-.37-3.81-.48-.25-.01-.5-.03-.75-.04-.25-.02-.5-.02-.75-.03-1.27-.02-2.55.02-3.82.1-10.32.7-20.37,5.05-26.87,12.66-3.6,4.24-5.99,9.26-7.91,14.51-2.84-.09-5.68-.19-8.52-.28.04,2.86,0,5.72-.04,8.57-.41,26.61-.82,53.22-1.23,79.83,8.41,0,16.83.02,25.24.03,22.98.03,45.97.07,68.93.83.52-25.76,1.04-51.52,1.56-77.29Z" style="fill:#713a2a; isolation:isolate; opacity:.3; stroke-width:0px;"/><path d="m138.04,114.31c.05-2.44.1-4.88.23-7.31-2.83-.17-5.66-.3-8.48-.46-1.75-4.75-3.98-9.35-7.44-13.37-6.23-7.24-16.11-11.98-26.37-13.54-1.27-.19-2.53-.34-3.81-.44-.25-.01-.5-.03-.75-.04-.25-.02-.5-.02-.75-.03-1.27-.02-2.55,0-3.82.08-10.31.61-20.33,4.5-26.81,11.33-3.59,3.81-5.98,8.32-7.89,13.04-2.84-.09-5.67-.18-8.51-.27.04,2.57.01,5.14-.03,7.72-.39,23.95-.78,47.9-1.16,71.85,8.42.03,16.84.06,25.26.08,23,.08,46.01.17,68.99.91.45-23.18.9-46.37,1.35-69.56Z" style="fill:#ffddab; stroke-width:0px;"/><path d="m131.02,140.32c-.56,21.56-19.16,38.85-41.54,38.61-22.38-.24-40.35-18.45-40.14-40.67.21-22.22,18.81-39.51,41.54-38.61,22.73.9,40.7,19.1,40.14,40.67Z" style="fill:#c7a03d; stroke-width:0px;"/><path d="m83.3,114.91l-.18-1.33.67-.07,1.36-3.49-2.17-3.02-.66.07-.18-1.33,2.95-.32.18,1.33-.6.07,1.39,2.04.82-2.28-.62.07-.18-1.33,2.77-.29.18,1.33-.66.07-1.29,3.29,2.31,3.19.67-.07.18,1.32-2.97.33-.18-1.33.61-.07-1.52-2.24-.88,2.5.63-.07.18,1.33-2.8.31Z" style="fill:#33231e; stroke:#33231e; stroke-miterlimit:10; stroke-width:.38px;"/><path d="m90.62,114.33l.11-1.34.74.07.51-6.46-.74-.07.11-1.34,3.07.29-.11,1.34-.76-.07-.51,6.46.76.07-.11,1.34-3.06-.28Z" style="fill:#33231e; stroke:#33231e; stroke-miterlimit:10; stroke-width:.38px;"/><path d="m94.39,114.73l.31-1.31.73.17,1.49-6.29-.73-.17.31-1.31,3,.71-.31,1.31-.74-.18-1.49,6.29.74.17-.31,1.31-3-.71Z" style="fill:#33231e; stroke:#33231e; stroke-miterlimit:10; stroke-width:.38px;"/><path d="m115.61,135.67l1.39-.11.07.71,6.67-.54-.07-.71,1.39-.11.27,2.92-1.39.11-.07-.72-6.66.54.07.72-1.39.11-.28-2.93Z" style="fill:#33231e; stroke:#33231e; stroke-miterlimit:10; stroke-width:.38px;"/><path d="m115.9,139.3l1.39.08-.04.71,6.68.38.04-.71,1.39.08-.17,2.93-1.39-.08.04-.72-6.67-.38-.04.72-1.39-.08.17-2.94Z" style="fill:#33231e; stroke:#33231e; stroke-miterlimit:10; stroke-width:.38px;"/><path d="m115.63,142.97l1.36.27-.15.7,6.54,1.31.15-.7,1.36.27-.62,2.87-1.36-.27.15-.71-6.54-1.31-.15.71-1.36-.27.62-2.88Z" style="fill:#33231e; stroke:#33231e; stroke-miterlimit:10; stroke-width:.38px;"/><path d="m92.2,164.14l2.9,7.67.67-.04.08,1.34-3.08.19-.08-1.34.79-.05-1.81-5.33-1.13,5.5.78-.05.08,1.35-2.75.17-.08-1.35.66-.04,1.82-7.96,1.14-.07Z" style="fill:#33231e; stroke:#33231e; stroke-miterlimit:10; stroke-width:.38px;"/><path d="m87.91,164.16l-.2,1.34-.73-.1-.97,6.43.73.1-.2,1.34-3.01-.42.2-1.34.74.1.97-6.43-.74-.11.2-1.34,3.01.43Z" style="fill:#33231e; stroke:#33231e; stroke-miterlimit:10; stroke-width:.38px;"/><path d="m65.18,144.9l-1.37.22-.13-.72-6.57,1.09.13.72-1.37.23-.54-2.97,1.37-.22.13.73,6.57-1.08-.13-.73,1.37-.22.54,2.96Z" style="fill:#33231e; stroke:#33231e; stroke-miterlimit:10; stroke-width:.38px;"/><path d="m64.42,141.6l-1.37-.06.02-.66-3.35-1.92-3.36,1.56-.02.65-1.37-.06.08-2.9,1.37.06-.02.59,2.26-.98-2.2-1.19-.02.61-1.37-.06.08-2.73,1.37.06-.02.65,3.16,1.83,3.56-1.66.02-.66,1.37.06-.09,2.92-1.37-.06.02-.6-2.48,1.07,2.41,1.29.02-.61,1.37.06-.09,2.75Z" style="fill:#33231e; stroke:#33231e; stroke-miterlimit:10; stroke-width:.38px;"/><path d="m16.71,40.04c9.15,1.68,17.73-5.98,23.48-11.6,6.85-6.65,12.17-15.3,21.32-19.34.46-.2.14-.84-.33-.79-7.96.91-12.78,6.9-17.51,12.43-3.28,3.85-6.35,8.09-10.3,11.32-5.07,4.17-10.67,5.04-16.78,7.07-.5.17-.41.81.12.91h0Z" style="fill:#713a2a; stroke-width:0px;"/><path d="m23.06,96.73c-2.55,3.61-1.92,7.46-1.9,11.87.02,5.36.12,10.72.14,16.08.03,11.22-.54,22.44.66,33.62.09.79,1.36,1.17,1.53.23,1.85-10.66,1.85-21.46,2.12-32.27.14-5.83.33-11.67.33-17.5,0-4.41.6-8.26-2.01-12-.22-.32-.64-.35-.86-.04h0Z" style="fill:#713a2a; stroke-width:0px;"/><path d="m90.03,139.29c-.8-1.72-1.1-3.43-1.27-5.14-.19-1.71.23-3.4.39-5.1.16-1.7.34-3.39.54-5.09.23-1.7.42-3.39.7-5.08h.3c.21,1.72.34,3.43.52,5.13.15,1.71.27,3.41.36,5.11.1,1.7.47,3.41.21,5.11-.23,1.7-.59,3.39-1.45,5.07h-.3Z" style="fill:#33231e; stroke-width:0px;"/><path d="m90.06,139.2c1.03-2.36,2.45-4.39,3.95-6.34,1.49-1.96,3.45-3.52,5.21-5.24l5.34-5.13c1.82-1.67,3.61-3.37,5.47-5.01l.23.2c-1.49,1.95-3.04,3.86-4.55,5.79l-4.66,5.71c-1.56,1.9-2.93,3.96-4.76,5.63-1.81,1.69-3.72,3.3-6,4.58l-.23-.2Z" style="fill:#33231e; stroke-width:0px;"/><path d="m105.09,169.03l-3.95-7.87c.39-.19.78-.38,1.16-.59l4.37,7.66c-.52.28-1.04.55-1.58.8Zm-32.36-1.27c-.51-.3-1.01-.61-1.51-.94l5.03-7.35c.36.24.73.47,1.1.69l-4.63,7.6Zm45.66-9.9l-7.49-4.9c.25-.35.49-.71.71-1.07l7.73,4.53c-.31.49-.63.97-.96,1.44Zm-57.95-2.51c-.29-.51-.57-1.03-.84-1.56l8.11-3.89c.19.38.4.76.61,1.13l-7.89,4.31Zm52.27-26.53c-.19-.38-.39-.75-.61-1.12l7.97-4.16c.29.5.56,1.01.82,1.53l-8.19,3.75Zm-44.11-2.28l-7.84-4.67c.3-.5.62-.99.95-1.47l7.59,5.07c-.24.35-.48.71-.7,1.08Zm35.57-7.25c-.37-.24-.74-.48-1.12-.7l4.7-7.44c.51.3,1.02.62,1.51.95l-5.09,7.2Zm-26.26-1.45l-4.48-7.81c.52-.27,1.05-.54,1.59-.78l4.05,8.02c-.39.18-.78.37-1.16.57Z" style="fill:#33231e; stroke-width:0px;"/><path d="m163.91,628.61c-.2-26.74-.39-53.47-.59-80.21-.02-2.35-.03-4.7-.02-7.05-36.84.77-73.7,2.14-110.55,3.53-12.6.47-25.19.95-37.79,1.42,0,2.28,0,4.56-.02,6.84-.2,25.56-.39,51.13-.59,76.69,12.8-.16,25.6-.32,38.4-.48,37.05-.47,74.11-.91,111.16-.75Z" style="fill:#713a2a; stroke:#4c433d; stroke-miterlimit:10; stroke-width:2.17px;"/><path d="m163.91,628.61c-.2-26.74-.39-53.47-.59-80.21-.02-2.35-.03-4.7-.02-7.05-36.84.77-73.7,2.14-110.55,3.53-12.6.47-25.19.95-37.79,1.42,0,2.28,0,4.56-.02,6.84-.2,25.56-.39,51.13-.59,76.69,12.8-.16,25.6-.32,38.4-.48,37.05-.47,74.11-.91,111.16-.75Z" style="fill:#633425; isolation:isolate; opacity:.3; stroke:#4c433d; stroke-miterlimit:10; stroke-width:2.17px;"/><path d="m163.91,628.61c-37.05-.16-74.1.28-111.16.75-12.8.16-25.6.32-38.4.48-.07,9.79-.15,19.59-.23,29.38,7.43-.13,14.86-.23,22.29-.3-.07-.1-.15-.2-.21-.3-2.2-3.24-4.28-7.29-2.63-10.83,1.3-2.77,4.46-4.18,7.44-5.08,2.57-.78,5.21-1.36,7.88-1.73,3.91-.55,8.07-.61,11.62,1.09,2.69,1.29,4.88,3.84,5.44,6.67,15.42-.18,30.88.83,46.28.69.26-3.19,2.58-6.18,5.53-7.64,3.54-1.77,7.7-1.75,11.62-1.24,2.67.35,5.3.92,7.88,1.7,2.98.9,6.15,2.32,7.44,5.18,1.65,3.64-.43,7.84-2.63,11.19-.07.11-.15.21-.21.31,7.43.07,14.86.17,22.29.31-.07-10.2-.15-20.4-.23-30.6Z" style="fill:#713a2a; stroke:#713a2a; stroke-miterlimit:10; stroke-width:2.17px;"/><path d="m132.55,566.17c-.02-2.44-.04-4.87-.07-7.31-.01-1.1-.01-2.19-.01-3.29-22.99.47-45.99,1.23-68.98,2.01-5.9.2-11.8.4-17.7.6,0,1.07,0,2.14-.01,3.21-.02,2.37-.04,4.75-.07,7.12-23.32,1.37-24.79,37.73-.35,37.74-.03,3.43-.06,6.87-.1,10.3,6.08-.1,12.15-.2,18.23-.3,23.17-.38,46.34-.74,69.51-.81-.03-3.53-.06-7.05-.1-10.58,24.44-.8,22.97-38.57-.35-38.7Z" style="fill:#713a2a; stroke-width:0px;"/><path d="m132.55,566.17c-.02-2.44-.04-4.87-.07-7.31-.01-1.1-.01-2.19-.01-3.29-22.99.47-45.99,1.23-68.98,2.01-5.9.2-11.8.4-17.7.6,0,1.07,0,2.14-.01,3.21-.02,2.37-.04,4.75-.07,7.12-23.32,1.37-24.79,37.73-.35,37.74-.03,3.43-.06,6.87-.1,10.3,6.08-.1,12.15-.2,18.23-.3,23.17-.38,46.34-.74,69.51-.81-.03-3.53-.06-7.05-.1-10.58,24.44-.8,22.97-38.57-.35-38.7Z" style="fill:#713a2a; isolation:isolate; opacity:.2; stroke-width:0px;"/><path d="m127.77,566.3c-.02-2.43-.04-4.86-.06-7.3,0-1.09-.01-2.19-.01-3.28-20.46.4-40.93,1.08-61.39,1.78-5.25.18-10.5.36-15.75.54,0,1.07,0,2.14-.01,3.22-.02,2.38-.04,4.76-.06,7.14-20.76,1.3-22.06,37.73-.32,37.79-.03,3.44-.06,6.88-.09,10.32,5.41-.09,10.81-.18,16.22-.27,20.62-.35,41.24-.68,61.86-.71-.03-3.52-.06-7.04-.09-10.57,21.75-.76,20.44-38.45-.31-38.65Z" style="fill:#c7a03d; stroke-width:0px;"/><path d="m109.05,567.4c-.01-1.4-.03-2.81-.04-4.21,0-.63,0-1.26,0-1.9-13.71.27-27.42.7-41.13,1.14-3.52.11-7.04.23-10.55.34,0,.62,0,1.25,0,1.87-.01,1.38-.03,2.76-.04,4.15-13.91.8-14.78,22.03-.21,21.96-.02,2-.04,4-.06,6,3.62-.08,7.25-.16,10.87-.24,13.82-.31,27.63-.6,41.45-.73-.02-2.03-.04-4.06-.06-6.09,14.57-.53,13.7-22.23-.21-22.29Z" style="fill:#c7a03d; isolation:isolate; opacity:.2; stroke-width:0px;"/><path d="m2.41,546.78c16.78-.63,33.56-1.26,50.34-1.9,40.28-1.52,80.57-3.05,120.85-3.76" style="fill:none; stroke:#713a2a; stroke-miterlimit:10; stroke-width:10.54px;"/><path d="m2.41,629.98c16.78-.21,33.56-.42,50.34-.63,40.28-.51,80.57-1.02,120.85-.72" style="fill:none; stroke:#713a2a; stroke-miterlimit:10; stroke-width:10.54px;"/><path d="m20.97,556.45c-3.95,5.42-1.66,14.52-1.61,20.79.07,7.84-.34,15.65.81,23.41.11.74,1.33.66,1.48-.03,1.76-7.76,1.74-15.59,1.95-23.49.17-6.24,2.31-15.64-1.79-20.71-.23-.29-.62-.29-.84.03h0Z" style="fill:#713a2a; stroke-width:0px;"/><line x1="96.92" y1="533.3" x2="142.18" y2="533.3" style="fill:none; stroke:#4c433d; stroke-miterlimit:10; stroke-width:2.17px;"/><line x1="83.99" y1="542.06" x2="144.34" y2="542.06" style="fill:none; stroke:#4c433d; stroke-miterlimit:10; stroke-width:2.17px;"/><line x1="73.21" y1="537.68" x2="148.65" y2="537.68" style="fill:none; stroke:#4c433d; stroke-miterlimit:10; stroke-width:2.17px;"/><line x1="40.88" y1="182.76" x2="138.11" y2="183.52" style="fill:none; stroke:#4c433d; stroke-miterlimit:10; stroke-width:2.17px;"/><line x1="137.87" y1="106.08" x2="137.03" y2="184.61" style="fill:none; stroke:#4c433d; stroke-miterlimit:10; stroke-width:2.17px;"/><line x1="40.88" y1="182.76" x2="40.88" y2="101.7" style="fill:none; stroke:#4c433d; stroke-miterlimit:10; stroke-width:2.17px;"/><line x1="53.81" y1="559.59" x2="122.78" y2="557.4" style="fill:none; stroke:#4c433d; stroke-miterlimit:10; stroke-width:2.17px;"/><line x1="122.78" y1="563.97" x2="122.78" y2="607.79" style="fill:none; stroke:#4c433d; stroke-miterlimit:10; stroke-width:2.17px;"/><line x1="53.81" y1="563.97" x2="53.81" y2="605.6" style="fill:none; stroke:#4c433d; stroke-miterlimit:10; stroke-width:2.17px;"/><line x1="65.67" y1="609.98" x2="121.71" y2="609.98" style="fill:none; stroke:#4c433d; stroke-miterlimit:10; stroke-width:2.17px;"/><path d="m86.62,439.47c-.13.08-.91-.76-1.73-2.42-.41-.83-.79-1.87-1.09-3.06-.28-1.19-.47-2.53-.49-3.95-.02-2.84.67-5.37,1.45-7.04.78-1.68,1.55-2.54,1.68-2.45.17.1-.31,1.11-.85,2.78-.54,1.67-1.04,4.04-1.02,6.7.03,2.66.58,5.02,1.15,6.68.56,1.66,1.07,2.66.9,2.76Z" style="fill:#4c433d; stroke-width:0px;"/><path d="m92.51,443.89c-.14.07-.94-1.15-1.79-3.33-.86-2.17-1.73-5.32-2.01-8.9-.27-3.57,0-6.84.7-9.12.7-2.3,1.77-3.41,1.89-3.31.17.11-.58,1.33-1.02,3.53-.45,2.19-.58,5.35-.31,8.8.51,6.94,2.9,12.18,2.54,12.33Z" style="fill:#4c433d; stroke-width:0px;"/><path d="m101.18,438.6c-.19-.03-.04-1.43-.18-3.65-.12-2.22-.64-5.27-1.72-8.5-1.08-3.23-2.4-6.06-3.31-8.13-.92-2.07-1.45-3.38-1.29-3.46.15-.08.95,1.08,2.09,3.06,1.12,1.98,2.6,4.79,3.71,8.13,1.12,3.34,1.52,6.57,1.41,8.88-.09,2.32-.57,3.69-.72,3.66Z" style="fill:#4c433d; stroke-width:0px;"/><path d="m83.45,410.79c-.13-.04,1.29-2.2,1.66-6.65.21-2.21.15-4.94.15-8.12,0-3.18,0-6.79,0-10.79.02-15.99.14-38.08.35-62.48.24-24.4.44-46.48.12-62.46-.13-7.99-.35-14.45-.51-18.92-.07-2.23-.13-3.97-.17-5.15-.03-1.18-.02-1.8.02-1.8.04,0,.12.61.23,1.78.11,1.17.26,2.9.41,5.14.31,4.46.66,10.93.91,18.92.55,15.99.49,38.1.25,62.49-.21,24.4-.47,46.49-.72,62.48-.07,4-.13,7.61-.19,10.79-.06,3.17-.08,5.92-.37,8.16-.27,2.24-.8,3.94-1.27,5.02-.24.54-.45.95-.61,1.2-.16.26-.25.39-.27.38Z" style="fill:#4c433d; stroke-width:0px;"/><path d="m91.89,409.85c-.35,0-.63-38.75-.63-86.56s.28-86.56.63-86.56.63,38.75.63,86.56-.28,86.56-.63,86.56Z" style="fill:#4c433d; stroke-width:0px;"/><path d="m84.14,411.58c.05.07-.87.94-2.57,2.44-.86.75-1.9,1.66-3.12,2.72-.62.52-1.26,1.1-1.84,1.76-.59.66-1.1,1.42-1.31,2.32-.22.91-.19,1.96-.2,3.07,0,1.11,0,2.25.11,3.42.1,1.16.3,2.35.69,3.5.39,1.15,1.01,2.27,1.69,3.41,1.38,2.29,2.8,4.74,4.87,6.64,2.03,1.9,4.92,2.97,7.86,2.77,2.96-.13,5.51-1.78,7.83-3.49,1.16-.85,2.23-1.75,3.07-2.78.85-1.02,1.39-2.2,1.71-3.44.63-2.49.44-5.06.17-7.38-.3-2.33-.85-4.47-1.64-6.29-.78-1.83-1.79-3.34-2.85-4.51-1.07-1.16-2.17-2.01-3.06-2.71-.91-.68-1.58-1.26-2.1-1.52-.51-.26-.84-.25-.84-.3-.01-.03.34-.14.94.07.6.21,1.33.73,2.28,1.35.94.64,2.11,1.45,3.29,2.62,1.17,1.18,2.29,2.74,3.16,4.63.88,1.89,1.51,4.1,1.86,6.51.32,2.4.57,5.04-.08,7.81-.33,1.37-.96,2.76-1.9,3.92-.93,1.17-2.08,2.14-3.28,3.02-1.19.88-2.44,1.76-3.85,2.47-1.4.72-3.01,1.19-4.64,1.29-3.28.22-6.53-1-8.77-3.12-2.26-2.1-3.68-4.65-5.04-6.96-.68-1.17-1.33-2.37-1.74-3.65-.42-1.27-.6-2.55-.68-3.77-.08-1.22-.07-2.39-.04-3.51.04-1.1.02-2.21.31-3.28.29-1.09.94-1.96,1.59-2.64.66-.69,1.33-1.25,1.97-1.74,1.28-1,2.38-1.86,3.28-2.57,1.81-1.39,2.83-2.13,2.88-2.06Z" style="fill:#4c433d; stroke-width:0px;"/></g></svg>